<svg xmlns="http://www.w3.org/2000/svg" width="50" height="50" viewBox="0 0 50 50" fill="none" original-font-size="50px" original-border-color="rgb(129, 138, 145)" original-background-color="rgba(0, 0, 0, 0)" original-background-image="none" original-color="rgb(129, 138, 145)" original-box-shadow="none" original-text-shadow="none" original-font-family="My_Samsung_Sans" original-letter-spacing="0" original-line-height="50px"><g clip-path="url(#clip0)" original-font-size="50px" original-border-color="rgb(129, 138, 145)" original-background-color="rgba(0, 0, 0, 0)" original-background-image="none" original-color="rgb(129, 138, 145)" original-box-shadow="none" original-text-shadow="none" original-font-family="My_Samsung_Sans" original-letter-spacing="0" original-line-height="50px"><path d="M19.9132 37.9111C19.5151 37.983 19.2507 38.364 19.3226 38.7621C19.3882 39.1253 19.4214 39.4983 19.4214 39.8708V46.3759H1.46484V39.8708C1.46484 36.4554 4.24346 33.6768 7.65879 33.6768H8.63721L6.62715 40.5085C6.55234 40.7627 6.6207 41.0374 6.80576 41.2269L9.91895 44.4153C10.0567 44.5564 10.2457 44.6361 10.443 44.6361C10.6402 44.6361 10.8292 44.5565 10.967 44.4153L14.0802 41.2269C14.2652 41.0374 14.3336 40.7626 14.2588 40.5085L12.2487 33.6768H13.2271C15.2641 33.6768 17.1716 34.6793 18.3299 36.3586C18.5597 36.6916 19.0158 36.7753 19.3486 36.5456C19.6816 36.3159 19.7654 35.8599 19.5357 35.5268C18.104 33.4511 15.7456 32.2119 13.2271 32.2119H11.2698H9.61621H7.65879C3.43574 32.2119 0 35.6477 0 39.8708V47.1083C0 47.5129 0.32793 47.8407 0.732422 47.8407H20.1538C20.5583 47.8407 20.8862 47.5129 20.8862 47.1083V39.8708C20.8862 39.4113 20.8451 38.9507 20.7642 38.5018C20.6922 38.1038 20.3108 37.8399 19.9132 37.9111ZM10.7221 33.6768L12.7326 40.5105L10.4431 42.8555L8.15351 40.5105L10.1641 33.6768H10.7221Z" fill="url(#paint0_radial)" original-font-size="50px" original-border-color="rgb(129, 138, 145)" original-background-color="rgba(0, 0, 0, 0)" original-background-image="none" original-color="rgb(129, 138, 145)" original-box-shadow="none" original-text-shadow="none" original-font-family="My_Samsung_Sans" original-letter-spacing="0" original-line-height="50px"></path><path d="M10.4432 30.6689C15.2067 30.6689 19.0822 26.7935 19.0822 22.0299V19.7104V18.218C19.0822 18.1409 19.0812 18.0642 19.0791 17.9876C19.0787 17.9714 19.0777 17.9554 19.0772 17.9393C19.0753 17.878 19.073 17.817 19.0698 17.7561C19.069 17.7412 19.0679 17.7265 19.067 17.7116C19.0634 17.6486 19.0592 17.5857 19.0542 17.5231C19.0533 17.5124 19.0522 17.5017 19.0514 17.4908C19.0457 17.4236 19.0395 17.3566 19.0323 17.2898C19.0316 17.2831 19.0308 17.2765 19.03 17.2697C19.0222 17.1982 19.0135 17.1271 19.0039 17.0561C19.0036 17.0535 19.0032 17.0511 19.0028 17.0485C18.8875 16.2002 18.6489 15.3906 18.3052 14.6387C18.2963 14.6192 18.287 14.6 18.278 14.5807C18.2573 14.5363 18.2366 14.4921 18.2152 14.4481C18.199 14.4147 18.1822 14.3815 18.1655 14.3483C18.1511 14.3196 18.1367 14.2908 18.1219 14.2623C18.0999 14.2197 18.0774 14.1774 18.0547 14.1352C18.0452 14.1175 18.0357 14.0999 18.0261 14.0823C17.9986 14.0321 17.9707 13.9822 17.9423 13.9326C17.938 13.9251 17.9336 13.9176 17.9293 13.9101C17.4513 13.0809 16.8339 12.3273 16.0924 11.686C16.0833 11.6773 16.0739 11.6688 16.0644 11.6606C16.0293 11.6306 15.9929 11.6025 15.9574 11.573C15.9351 11.5545 15.9126 11.5362 15.89 11.5179C15.8171 11.4586 15.7435 11.4004 15.6688 11.3437C15.6259 11.3109 15.5826 11.2786 15.5391 11.2467C15.4924 11.2126 15.4457 11.1786 15.3984 11.1455C15.3289 11.0967 15.2586 11.0489 15.1876 11.0021C15.1638 10.9865 15.1401 10.9705 15.1162 10.9551C15.023 10.8949 14.9284 10.8368 14.8328 10.7802C14.8223 10.774 14.8118 10.7677 14.8013 10.7615C13.7317 10.134 12.5161 9.73018 11.2187 9.61426C11.2138 9.61387 11.2089 9.61338 11.2039 9.61299C11.0839 9.60244 10.9632 9.59414 10.8418 9.58867C10.829 9.58809 10.8161 9.5877 10.8033 9.58721C10.6838 9.58232 10.5639 9.5791 10.4432 9.5791C8.31211 9.5791 6.26523 10.3617 4.67949 11.7827C4.37822 12.0526 4.35293 12.5157 4.62285 12.817C4.89277 13.1181 5.35586 13.1436 5.65713 12.8735C6.97373 11.6938 8.67344 11.0439 10.4432 11.0439C10.5576 11.0439 10.6714 11.0473 10.7846 11.0526C10.8335 11.055 10.8821 11.0591 10.931 11.0624C10.9929 11.0666 11.0547 11.0708 11.1162 11.0766C11.1798 11.0826 11.2432 11.09 11.3064 11.0978C11.3503 11.103 11.394 11.1084 11.4376 11.1145C11.5112 11.1248 11.5847 11.1363 11.6579 11.1489C11.6876 11.154 11.7172 11.1594 11.7468 11.1648C11.8299 11.1803 11.9128 11.1967 11.9952 11.2149C12.0099 11.2182 12.0244 11.2218 12.0391 11.2251C12.6255 11.3594 13.1929 11.5674 13.7279 11.8434C13.7499 11.8548 13.7722 11.8657 13.794 11.8772C13.8569 11.9105 13.919 11.9455 13.981 11.9808C14.0189 12.0023 14.0569 12.0238 14.0945 12.0461C14.1442 12.0755 14.1934 12.106 14.2425 12.1366C14.2926 12.1681 14.3424 12.1997 14.3917 12.2323C14.4295 12.2572 14.467 12.2826 14.5044 12.3083C14.5653 12.3503 14.6256 12.3932 14.6852 12.4369C14.7113 12.4562 14.7375 12.4753 14.7634 12.4948C14.835 12.549 14.9056 12.6045 14.9751 12.6612C14.9892 12.6728 15.0034 12.684 15.0175 12.6956C15.0753 12.7436 15.1315 12.7935 15.1878 12.8432C15.235 12.8848 15.2815 12.9269 15.3274 12.9696C15.3739 13.0129 15.4199 13.0565 15.4652 13.101C15.5053 13.1401 15.5443 13.1802 15.5833 13.2202C15.6307 13.2689 15.678 13.3178 15.724 13.3678C15.758 13.4048 15.7908 13.4426 15.8239 13.4802C15.8716 13.5343 15.9195 13.5882 15.9656 13.6438C15.9936 13.6773 16.0199 13.712 16.0473 13.7462C16.2041 13.9423 16.3506 14.1469 16.4864 14.3589C16.5203 14.4119 16.5551 14.4645 16.5876 14.5183C16.6147 14.5632 16.64 14.6093 16.6662 14.6548C16.702 14.7172 16.738 14.7796 16.772 14.843C16.7941 14.8844 16.8149 14.9266 16.8363 14.9685C16.872 15.0384 16.9071 15.1084 16.9404 15.1794C16.9583 15.2174 16.9753 15.256 16.9925 15.2943C17.0269 15.3712 17.0603 15.4484 17.0919 15.5265C17.1061 15.5613 17.1198 15.5964 17.1334 15.6315C17.1655 15.7146 17.1963 15.7982 17.2253 15.8825C17.2364 15.9147 17.2475 15.947 17.2581 15.9794C17.2871 16.0677 17.3143 16.1566 17.3398 16.2461C17.3485 16.2763 17.3574 16.3063 17.3656 16.3367C17.3907 16.4289 17.4135 16.5219 17.4349 16.6151C17.4415 16.6443 17.4487 16.6732 17.4551 16.7025C17.4755 16.7971 17.4933 16.8923 17.5099 16.9877C17.5149 17.017 17.5209 17.0461 17.5256 17.0755C17.541 17.171 17.5534 17.2671 17.5649 17.3634C17.5686 17.3937 17.5732 17.4234 17.5765 17.4538C17.5869 17.5517 17.5941 17.6502 17.6006 17.7488C17.6024 17.7777 17.6057 17.8063 17.6072 17.8353C17.614 17.9623 17.6177 18.0898 17.6177 18.2178V18.8401C16.1229 18.4733 14.8197 17.5517 13.9637 16.2325C13.8397 16.0416 13.6341 15.9191 13.4072 15.9011C13.1798 15.8831 12.9579 15.9716 12.8055 16.1405C11.1556 17.9688 8.79961 19.0172 6.3418 19.0172C5.28242 19.0172 4.25098 18.8291 3.26914 18.4574V18.2178C3.26914 17.1077 3.51553 16.0438 4.00156 15.0558C4.18008 14.6928 4.03057 14.2538 3.66768 14.0753C3.30449 13.8964 2.86572 14.0463 2.68711 14.4092C2.10127 15.6002 1.8042 16.8815 1.8042 18.2178V18.9486V22.0297C1.8041 26.7936 5.67949 30.6689 10.4432 30.6689ZM3.26895 20.0077C4.25937 20.3227 5.28867 20.4822 6.3416 20.4822C8.91592 20.4822 11.3943 19.498 13.2683 17.7559C14.3803 19.0958 15.9093 20.0043 17.6174 20.3385V22.0299C17.6174 25.9857 14.399 29.2041 10.4432 29.2041C6.4873 29.2041 3.26895 25.9857 3.26895 22.0299V20.0077Z" fill="url(#paint1_radial)" original-font-size="50px" original-border-color="rgb(129, 138, 145)" original-background-color="rgba(0, 0, 0, 0)" original-background-image="none" original-color="rgb(129, 138, 145)" original-box-shadow="none" original-text-shadow="none" original-font-family="My_Samsung_Sans" original-letter-spacing="0" original-line-height="50px"></path><path d="M10.4429 25.0378H11.3768C11.7813 25.0378 12.1092 24.71 12.1092 24.3054C12.1092 23.9008 11.7813 23.573 11.3768 23.573H11.1753V21.8647C11.1753 21.4602 10.8474 21.1323 10.4429 21.1323C10.0384 21.1323 9.71045 21.4602 9.71045 21.8647V24.3054C9.71045 24.71 10.0384 25.0378 10.4429 25.0378Z" fill="url(#paint2_radial)" original-font-size="50px" original-border-color="rgb(129, 138, 145)" original-background-color="rgba(0, 0, 0, 0)" original-background-image="none" original-color="rgb(129, 138, 145)" original-box-shadow="none" original-text-shadow="none" original-font-family="My_Samsung_Sans" original-letter-spacing="0" original-line-height="50px"></path><path d="M13.7399 5.86379C16.3592 5.81672 18.9502 6.20949 21.4387 7.03088C21.5147 7.05597 21.5921 7.06799 21.6683 7.06799C21.955 7.06799 22.225 6.89855 22.3426 6.62131L23.8026 3.17824C23.9006 2.94709 23.8734 2.68176 23.7304 2.47531C23.5874 2.26896 23.3489 2.14797 23.0977 2.16056C22.389 2.19015 21.6808 2.24806 20.9926 2.33303C18.3625 2.65685 15.8156 3.37424 13.4229 4.46506C13.107 4.609 12.9357 4.9549 13.0123 5.29328C13.0891 5.63176 13.389 5.8676 13.7399 5.86379ZM21.1718 3.78683C21.4417 3.75363 21.7149 3.72472 21.9901 3.70031L21.2537 5.43693C19.9479 5.04474 18.6176 4.76261 17.2717 4.59162C18.5424 4.21945 19.8457 3.95021 21.1718 3.78683Z" fill="url(#paint3_radial)" original-font-size="50px" original-border-color="rgb(129, 138, 145)" original-background-color="rgba(0, 0, 0, 0)" original-background-image="none" original-color="rgb(129, 138, 145)" original-box-shadow="none" original-text-shadow="none" original-font-family="My_Samsung_Sans" original-letter-spacing="0" original-line-height="50px"></path><path d="M49.9751 26.8711C49.9661 26.6671 49.8723 26.4761 49.7164 26.3442C49.5605 26.2122 49.3562 26.1512 49.1539 26.1765L38.1119 27.5368C37.7327 27.5835 37.4531 27.9138 37.4697 28.2955C37.4763 28.4468 37.481 28.5981 37.4839 28.7492C37.4914 29.1538 37.827 29.4775 38.23 29.4678C38.5687 29.4615 38.8492 29.2261 38.9271 28.9123L48.534 27.7288C48.582 31.874 47.572 35.9498 45.5913 39.599L37.9146 36.3443C38.11 35.6926 38.278 35.0308 38.4189 34.3655C40.6398 34.908 42.2862 35.3102 42.6176 35.3912C42.6388 35.3965 42.6602 35.4007 42.6814 35.4039C42.7598 35.4187 42.8386 35.426 42.917 35.426C43.2962 35.426 43.6641 35.2566 43.9064 34.9562C44.119 34.693 44.2169 34.3627 44.1816 34.0262C44.1464 33.6888 43.9817 33.3854 43.7181 33.172C43.6478 33.1152 43.5706 33.0663 43.4836 33.0238C43.4594 33.0102 43.4344 32.9981 43.4085 32.9873C42.6089 32.6536 33.7746 28.9605 28.3735 26.7021C27.7598 24.6839 25.7446 23.3449 23.6128 23.6063C21.199 23.9044 19.4766 26.111 19.7735 28.5251C20.0481 30.7573 21.9548 32.3981 24.1498 32.3981C24.3288 32.3981 24.5098 32.3872 24.6918 32.3648C25.4593 32.27 26.1762 31.9808 26.7878 31.5237L36.9953 34.0177C36.8175 34.8658 36.5919 35.708 36.3206 36.5292C36.201 36.8912 36.3792 37.2844 36.7302 37.4333L45.6237 41.2038C45.7167 41.2432 45.8136 41.262 45.9093 41.262C46.1641 41.262 46.4095 41.1286 46.544 40.8958C49.0053 36.6328 50.1918 31.7831 49.9751 26.8711ZM24.5123 30.9109C24.3906 30.9258 24.27 30.9332 24.1503 30.9332C22.6843 30.933 21.4104 29.8371 21.227 28.3463C21.0288 26.7334 22.1794 25.2593 23.7916 25.0602C23.911 25.0455 24.0297 25.0383 24.1475 25.0383C25.5227 25.0383 26.7549 26.0133 27.0383 27.388C27.0531 27.4589 27.0659 27.5369 27.0769 27.6252C27.195 28.5808 26.8367 29.5362 26.1183 30.1808C26.1183 30.1809 26.1182 30.181 26.1181 30.1811C25.6693 30.5842 25.114 30.8365 24.5123 30.9109ZM27.9271 30.2664C27.9477 30.2323 27.9668 30.1976 27.9864 30.163C28.0096 30.1222 28.033 30.0815 28.0548 30.04C28.0735 30.0044 28.0908 29.9683 28.1085 29.9323C28.129 29.8907 28.1496 29.849 28.1687 29.8068C28.1854 29.7699 28.2008 29.7326 28.2164 29.6954C28.2343 29.6529 28.2522 29.6105 28.2687 29.5674C28.2833 29.5295 28.2966 29.4913 28.3101 29.4532C28.3254 29.4098 28.3406 29.3665 28.3546 29.3227C28.367 29.2839 28.3781 29.2448 28.3894 29.2056C28.4021 29.1616 28.4146 29.1177 28.426 29.0734C28.4361 29.0336 28.4451 28.9936 28.4542 28.9535C28.4642 28.909 28.474 28.8646 28.4826 28.8198C28.4904 28.7791 28.4974 28.7384 28.504 28.6976C28.5113 28.6529 28.5184 28.608 28.5243 28.5631C28.5298 28.5217 28.5344 28.4801 28.5388 28.4385C28.5414 28.4132 28.5453 28.388 28.5476 28.3626C32.3889 29.9688 37.5652 32.1327 40.5373 33.375C39.7153 33.1742 38.7333 32.9343 37.6585 32.6718L27.9131 30.2908C27.9181 30.2827 27.9223 30.2744 27.9271 30.2664Z" fill="url(#paint4_radial)" original-font-size="50px" original-border-color="rgb(129, 138, 145)" original-background-color="rgba(0, 0, 0, 0)" original-background-image="none" original-color="rgb(129, 138, 145)" original-box-shadow="none" original-text-shadow="none" original-font-family="My_Samsung_Sans" original-letter-spacing="0" original-line-height="50px"></path><path d="M43.8815 43.2052L35.7413 39.7534C35.3909 39.6051 34.9847 39.7496 34.8074 40.0864C33.5198 42.5309 31.8262 44.7106 29.7737 46.5649C29.5489 46.7681 29.4723 47.0887 29.5811 47.3715C29.6899 47.6543 29.9616 47.8409 30.2647 47.8409H40.4305C40.6047 47.8409 40.7733 47.7788 40.9058 47.6657C42.0918 46.6542 43.1876 45.5361 44.1627 44.3431C44.3086 44.1645 44.362 43.9276 44.3066 43.7038C44.2512 43.48 44.0938 43.2952 43.8815 43.2052ZM40.1582 46.3761H32.0685C33.5123 44.8666 34.756 43.1873 35.7811 41.3615L42.391 44.1642C41.6983 44.9445 40.9505 45.6853 40.1582 46.3761Z" fill="url(#paint5_radial)" original-font-size="50px" original-border-color="rgb(129, 138, 145)" original-background-color="rgba(0, 0, 0, 0)" original-background-image="none" original-color="rgb(129, 138, 145)" original-box-shadow="none" original-text-shadow="none" original-font-family="My_Samsung_Sans" original-letter-spacing="0" original-line-height="50px"></path><path d="M24.9967 8.54254C27.4769 9.84879 29.6826 11.5707 31.5524 13.6602C31.6964 13.8212 31.8966 13.9043 32.0986 13.9043C32.2527 13.9043 32.4077 13.8558 32.5393 13.7566L39.5986 8.43287C39.7827 8.294 39.8907 8.07662 39.89 7.84605C39.8893 7.61549 39.7801 7.39859 39.5953 7.2608C36.04 4.6106 31.849 2.91187 27.4755 2.34791C27.1499 2.30562 26.8358 2.48599 26.7076 2.78844L24.6637 7.60865C24.5151 7.95914 24.6598 8.36519 24.9967 8.54254ZM27.8367 3.87789C31.4406 4.4276 34.8979 5.79508 37.9202 7.86383L32.1877 12.187C30.4561 10.3529 28.4707 8.80308 26.2717 7.56861L27.8367 3.87789Z" fill="url(#paint6_radial)" original-font-size="50px" original-border-color="rgb(129, 138, 145)" original-background-color="rgba(0, 0, 0, 0)" original-background-image="none" original-color="rgb(129, 138, 145)" original-box-shadow="none" original-text-shadow="none" original-font-family="My_Samsung_Sans" original-letter-spacing="0" original-line-height="50px"></path><path d="M33.8835 16.7445C35.3789 19.1084 36.4262 21.7025 36.9964 24.4548C37.0676 24.7983 37.3702 25.0387 37.7129 25.0387C37.7427 25.0387 37.7729 25.0368 37.8032 25.033L48.8449 23.6729C49.0475 23.648 49.2306 23.5395 49.3498 23.3738C49.4692 23.2081 49.5138 23 49.473 22.7999C48.4916 17.982 46.1638 13.5653 42.7409 10.0274C42.4839 9.76161 42.0689 9.72909 41.7736 9.95194L34.0614 15.7682C33.7572 15.9977 33.6797 16.4225 33.8835 16.7445ZM42.1319 11.5167C44.939 14.576 46.9078 18.2849 47.8668 22.3178L38.285 23.4979C37.7057 21.0371 36.7626 18.7012 35.4748 16.5372L42.1319 11.5167Z" fill="url(#paint7_radial)" original-font-size="50px" original-border-color="rgb(129, 138, 145)" original-background-color="rgba(0, 0, 0, 0)" original-background-image="none" original-color="rgb(129, 138, 145)" original-box-shadow="none" original-text-shadow="none" original-font-family="My_Samsung_Sans" original-letter-spacing="0" original-line-height="50px"></path></g><defs original-font-size="50px" original-border-color="rgb(129, 138, 145)" original-background-color="rgba(0, 0, 0, 0)" original-background-image="none" original-color="rgb(129, 138, 145)" original-box-shadow="none" original-text-shadow="none" original-font-family="My_Samsung_Sans" original-letter-spacing="0" original-line-height="50px"><radialGradient id="paint0_radial" cx="0" cy="0" r="1" gradientUnits="userSpaceOnUse" gradientTransform="translate(20.8862 47.8407) rotate(-143.193) scale(26.0863 140.65)" original-font-size="50px" original-border-color="rgb(129, 138, 145)" original-background-color="rgba(0, 0, 0, 0)" original-background-image="none" original-color="rgb(129, 138, 145)" original-box-shadow="none" original-text-shadow="none" original-font-family="My_Samsung_Sans" original-letter-spacing="0" original-line-height="50px"><stop stop-color="#B57EFE" original-font-size="50px" original-border-color="rgb(129, 138, 145)" original-background-color="rgba(0, 0, 0, 0)" original-background-image="none" original-color="rgb(129, 138, 145)" original-box-shadow="none" original-text-shadow="none" original-font-family="My_Samsung_Sans" original-letter-spacing="0" original-line-height="50px"></stop><stop offset="0.760417" stop-color="#68C5FE" original-font-size="50px" original-border-color="rgb(129, 138, 145)" original-background-color="rgba(0, 0, 0, 0)" original-background-image="none" original-color="rgb(129, 138, 145)" original-box-shadow="none" original-text-shadow="none" original-font-family="My_Samsung_Sans" original-letter-spacing="0" original-line-height="50px"></stop><stop offset="1" stop-color="#7AB6FF" original-font-size="50px" original-border-color="rgb(129, 138, 145)" original-background-color="rgba(0, 0, 0, 0)" original-background-image="none" original-color="rgb(129, 138, 145)" original-box-shadow="none" original-text-shadow="none" original-font-family="My_Samsung_Sans" original-letter-spacing="0" original-line-height="50px"></stop></radialGradient><radialGradient id="paint1_radial" cx="0" cy="0" r="1" gradientUnits="userSpaceOnUse" gradientTransform="translate(19.0822 30.6689) rotate(-129.326) scale(27.2637 150.227)" original-font-size="50px" original-border-color="rgb(129, 138, 145)" original-background-color="rgba(0, 0, 0, 0)" original-background-image="none" original-color="rgb(129, 138, 145)" original-box-shadow="none" original-text-shadow="none" original-font-family="My_Samsung_Sans" original-letter-spacing="0" original-line-height="50px"><stop stop-color="#B57EFE" original-font-size="50px" original-border-color="rgb(129, 138, 145)" original-background-color="rgba(0, 0, 0, 0)" original-background-image="none" original-color="rgb(129, 138, 145)" original-box-shadow="none" original-text-shadow="none" original-font-family="My_Samsung_Sans" original-letter-spacing="0" original-line-height="50px"></stop><stop offset="0.760417" stop-color="#68C5FE" original-font-size="50px" original-border-color="rgb(129, 138, 145)" original-background-color="rgba(0, 0, 0, 0)" original-background-image="none" original-color="rgb(129, 138, 145)" original-box-shadow="none" original-text-shadow="none" original-font-family="My_Samsung_Sans" original-letter-spacing="0" original-line-height="50px"></stop><stop offset="1" stop-color="#7AB6FF" original-font-size="50px" original-border-color="rgb(129, 138, 145)" original-background-color="rgba(0, 0, 0, 0)" original-background-image="none" original-color="rgb(129, 138, 145)" original-box-shadow="none" original-text-shadow="none" original-font-family="My_Samsung_Sans" original-letter-spacing="0" original-line-height="50px"></stop></radialGradient><radialGradient id="paint2_radial" cx="0" cy="0" r="1" gradientUnits="userSpaceOnUse" gradientTransform="translate(12.1092 25.0378) rotate(-121.558) scale(4.5833 22.9744)" original-font-size="50px" original-border-color="rgb(129, 138, 145)" original-background-color="rgba(0, 0, 0, 0)" original-background-image="none" original-color="rgb(129, 138, 145)" original-box-shadow="none" original-text-shadow="none" original-font-family="My_Samsung_Sans" original-letter-spacing="0" original-line-height="50px"><stop stop-color="#B57EFE" original-font-size="50px" original-border-color="rgb(129, 138, 145)" original-background-color="rgba(0, 0, 0, 0)" original-background-image="none" original-color="rgb(129, 138, 145)" original-box-shadow="none" original-text-shadow="none" original-font-family="My_Samsung_Sans" original-letter-spacing="0" original-line-height="50px"></stop><stop offset="0.760417" stop-color="#68C5FE" original-font-size="50px" original-border-color="rgb(129, 138, 145)" original-background-color="rgba(0, 0, 0, 0)" original-background-image="none" original-color="rgb(129, 138, 145)" original-box-shadow="none" original-text-shadow="none" original-font-family="My_Samsung_Sans" original-letter-spacing="0" original-line-height="50px"></stop><stop offset="1" stop-color="#7AB6FF" original-font-size="50px" original-border-color="rgb(129, 138, 145)" original-background-color="rgba(0, 0, 0, 0)" original-background-image="none" original-color="rgb(129, 138, 145)" original-box-shadow="none" original-text-shadow="none" original-font-family="My_Samsung_Sans" original-letter-spacing="0" original-line-height="50px"></stop></radialGradient><radialGradient id="paint3_radial" cx="0" cy="0" r="1" gradientUnits="userSpaceOnUse" gradientTransform="translate(23.8607 7.06799) rotate(-155.692) scale(11.9236 50.2784)" original-font-size="50px" original-border-color="rgb(129, 138, 145)" original-background-color="rgba(0, 0, 0, 0)" original-background-image="none" original-color="rgb(129, 138, 145)" original-box-shadow="none" original-text-shadow="none" original-font-family="My_Samsung_Sans" original-letter-spacing="0" original-line-height="50px"><stop stop-color="#B57EFE" original-font-size="50px" original-border-color="rgb(129, 138, 145)" original-background-color="rgba(0, 0, 0, 0)" original-background-image="none" original-color="rgb(129, 138, 145)" original-box-shadow="none" original-text-shadow="none" original-font-family="My_Samsung_Sans" original-letter-spacing="0" original-line-height="50px"></stop><stop offset="0.760417" stop-color="#68C5FE" original-font-size="50px" original-border-color="rgb(129, 138, 145)" original-background-color="rgba(0, 0, 0, 0)" original-background-image="none" original-color="rgb(129, 138, 145)" original-box-shadow="none" original-text-shadow="none" original-font-family="My_Samsung_Sans" original-letter-spacing="0" original-line-height="50px"></stop><stop offset="1" stop-color="#7AB6FF" original-font-size="50px" original-border-color="rgb(129, 138, 145)" original-background-color="rgba(0, 0, 0, 0)" original-background-image="none" original-color="rgb(129, 138, 145)" original-box-shadow="none" original-text-shadow="none" original-font-family="My_Samsung_Sans" original-letter-spacing="0" original-line-height="50px"></stop></radialGradient><radialGradient id="paint4_radial" cx="0" cy="0" r="1" gradientUnits="userSpaceOnUse" gradientTransform="translate(50.0003 41.262) rotate(-149.692) scale(35.0506 171.643)" original-font-size="50px" original-border-color="rgb(129, 138, 145)" original-background-color="rgba(0, 0, 0, 0)" original-background-image="none" original-color="rgb(129, 138, 145)" original-box-shadow="none" original-text-shadow="none" original-font-family="My_Samsung_Sans" original-letter-spacing="0" original-line-height="50px"><stop stop-color="#B57EFE" original-font-size="50px" original-border-color="rgb(129, 138, 145)" original-background-color="rgba(0, 0, 0, 0)" original-background-image="none" original-color="rgb(129, 138, 145)" original-box-shadow="none" original-text-shadow="none" original-font-family="My_Samsung_Sans" original-letter-spacing="0" original-line-height="50px"></stop><stop offset="0.760417" stop-color="#68C5FE" original-font-size="50px" original-border-color="rgb(129, 138, 145)" original-background-color="rgba(0, 0, 0, 0)" original-background-image="none" original-color="rgb(129, 138, 145)" original-box-shadow="none" original-text-shadow="none" original-font-family="My_Samsung_Sans" original-letter-spacing="0" original-line-height="50px"></stop><stop offset="1" stop-color="#7AB6FF" original-font-size="50px" original-border-color="rgb(129, 138, 145)" original-background-color="rgba(0, 0, 0, 0)" original-background-image="none" original-color="rgb(129, 138, 145)" original-box-shadow="none" original-text-shadow="none" original-font-family="My_Samsung_Sans" original-letter-spacing="0" original-line-height="50px"></stop></radialGradient><radialGradient id="paint5_radial" cx="0" cy="0" r="1" gradientUnits="userSpaceOnUse" gradientTransform="translate(44.328 47.8409) rotate(-151.166) scale(16.8898 80.2051)" original-font-size="50px" original-border-color="rgb(129, 138, 145)" original-background-color="rgba(0, 0, 0, 0)" original-background-image="none" original-color="rgb(129, 138, 145)" original-box-shadow="none" original-text-shadow="none" original-font-family="My_Samsung_Sans" original-letter-spacing="0" original-line-height="50px"><stop stop-color="#B57EFE" original-font-size="50px" original-border-color="rgb(129, 138, 145)" original-background-color="rgba(0, 0, 0, 0)" original-background-image="none" original-color="rgb(129, 138, 145)" original-box-shadow="none" original-text-shadow="none" original-font-family="My_Samsung_Sans" original-letter-spacing="0" original-line-height="50px"></stop><stop offset="0.760417" stop-color="#68C5FE" original-font-size="50px" original-border-color="rgb(129, 138, 145)" original-background-color="rgba(0, 0, 0, 0)" original-background-image="none" original-color="rgb(129, 138, 145)" original-box-shadow="none" original-text-shadow="none" original-font-family="My_Samsung_Sans" original-letter-spacing="0" original-line-height="50px"></stop><stop offset="1" stop-color="#7AB6FF" original-font-size="50px" original-border-color="rgb(129, 138, 145)" original-background-color="rgba(0, 0, 0, 0)" original-background-image="none" original-color="rgb(129, 138, 145)" original-box-shadow="none" original-text-shadow="none" original-font-family="My_Samsung_Sans" original-letter-spacing="0" original-line-height="50px"></stop></radialGradient><radialGradient id="paint6_radial" cx="0" cy="0" r="1" gradientUnits="userSpaceOnUse" gradientTransform="translate(39.89 13.9043) rotate(-142.893) scale(19.1653 103.646)" original-font-size="50px" original-border-color="rgb(129, 138, 145)" original-background-color="rgba(0, 0, 0, 0)" original-background-image="none" original-color="rgb(129, 138, 145)" original-box-shadow="none" original-text-shadow="none" original-font-family="My_Samsung_Sans" original-letter-spacing="0" original-line-height="50px"><stop stop-color="#B57EFE" original-font-size="50px" original-border-color="rgb(129, 138, 145)" original-background-color="rgba(0, 0, 0, 0)" original-background-image="none" original-color="rgb(129, 138, 145)" original-box-shadow="none" original-text-shadow="none" original-font-family="My_Samsung_Sans" original-letter-spacing="0" original-line-height="50px"></stop><stop offset="0.760417" stop-color="#68C5FE" original-font-size="50px" original-border-color="rgb(129, 138, 145)" original-background-color="rgba(0, 0, 0, 0)" original-background-image="none" original-color="rgb(129, 138, 145)" original-box-shadow="none" original-text-shadow="none" original-font-family="My_Samsung_Sans" original-letter-spacing="0" original-line-height="50px"></stop><stop offset="1" stop-color="#7AB6FF" original-font-size="50px" original-border-color="rgb(129, 138, 145)" original-background-color="rgba(0, 0, 0, 0)" original-background-image="none" original-color="rgb(129, 138, 145)" original-box-shadow="none" original-text-shadow="none" original-font-family="My_Samsung_Sans" original-letter-spacing="0" original-line-height="50px"></stop></radialGradient><radialGradient id="paint7_radial" cx="0" cy="0" r="1" gradientUnits="userSpaceOnUse" gradientTransform="translate(49.4878 25.0387) rotate(-135.894) scale(21.8892 122.957)" original-font-size="50px" original-border-color="rgb(129, 138, 145)" original-background-color="rgba(0, 0, 0, 0)" original-background-image="none" original-color="rgb(129, 138, 145)" original-box-shadow="none" original-text-shadow="none" original-font-family="My_Samsung_Sans" original-letter-spacing="0" original-line-height="50px"><stop stop-color="#B57EFE" original-font-size="50px" original-border-color="rgb(129, 138, 145)" original-background-color="rgba(0, 0, 0, 0)" original-background-image="none" original-color="rgb(129, 138, 145)" original-box-shadow="none" original-text-shadow="none" original-font-family="My_Samsung_Sans" original-letter-spacing="0" original-line-height="50px"></stop><stop offset="0.760417" stop-color="#68C5FE" original-font-size="50px" original-border-color="rgb(129, 138, 145)" original-background-color="rgba(0, 0, 0, 0)" original-background-image="none" original-color="rgb(129, 138, 145)" original-box-shadow="none" original-text-shadow="none" original-font-family="My_Samsung_Sans" original-letter-spacing="0" original-line-height="50px"></stop><stop offset="1" stop-color="#7AB6FF" original-font-size="50px" original-border-color="rgb(129, 138, 145)" original-background-color="rgba(0, 0, 0, 0)" original-background-image="none" original-color="rgb(129, 138, 145)" original-box-shadow="none" original-text-shadow="none" original-font-family="My_Samsung_Sans" original-letter-spacing="0" original-line-height="50px"></stop></radialGradient><clipPath id="clip0" original-font-size="50px" original-border-color="rgb(129, 138, 145)" original-background-color="rgba(0, 0, 0, 0)" original-background-image="none" original-color="rgb(129, 138, 145)" original-box-shadow="none" original-text-shadow="none" original-font-family="My_Samsung_Sans" original-letter-spacing="0" original-line-height="50px"><rect width="50" height="50" fill="white" original-font-size="50px" original-border-color="rgb(129, 138, 145)" original-background-color="rgba(0, 0, 0, 0)" original-background-image="none" original-color="rgb(129, 138, 145)" original-box-shadow="none" original-text-shadow="none" original-font-family="My_Samsung_Sans" original-letter-spacing="0" original-line-height="50px"></rect></clipPath></defs></svg>