<svg xmlns="http://www.w3.org/2000/svg" width="50" height="50" viewBox="0 0 50 50" fill="none" original-font-size="50px" original-border-color="rgb(129, 138, 145)" original-background-color="rgba(0, 0, 0, 0)" original-background-image="none" original-color="rgb(129, 138, 145)" original-box-shadow="none" original-text-shadow="none" original-font-family="My_Samsung_Sans" original-letter-spacing="0" original-line-height="50px"><path d="M10.8923 39.8228H9.68838H8.671H7.46699C4.71396 39.8228 2.47412 42.0626 2.47412 44.8157V49.2676C2.47412 49.6721 2.80195 50 3.20654 50C3.61113 50 3.93896 49.6721 3.93896 49.2676V44.8157C3.93896 42.8703 5.52158 41.2876 7.46699 41.2876H7.69209L6.56211 45.1285C6.4873 45.3826 6.55566 45.6573 6.74072 45.8469L8.65566 47.8082C8.79346 47.9493 8.98242 48.0289 9.17969 48.0289C9.37695 48.0289 9.56592 47.9493 9.70371 47.8082L11.6187 45.8469C11.8038 45.6573 11.8721 45.3826 11.7973 45.1285L10.6673 41.2876H10.8923C12.8377 41.2876 14.4204 42.8703 14.4204 44.8157V49.2676C14.4204 49.6721 14.7482 50 15.1528 50C15.5574 50 15.8853 49.6721 15.8853 49.2676V44.8157C15.8853 42.0626 13.6454 39.8228 10.8923 39.8228ZM9.17969 46.2481L8.08838 45.1304L9.17969 41.4211L10.271 45.1304L9.17969 46.2481Z" fill="url(#paint0_radial)" original-font-size="50px" original-border-color="rgb(129, 138, 145)" original-background-color="rgba(0, 0, 0, 0)" original-background-image="none" original-color="rgb(129, 138, 145)" original-box-shadow="none" original-text-shadow="none" original-font-family="My_Samsung_Sans" original-letter-spacing="0" original-line-height="50px"></path><path d="M9.17988 39.4374C12.2655 39.4374 14.7758 36.9271 14.7758 33.8415V32.4147V31.4967C14.7758 31.397 14.773 31.2979 14.7678 31.1994C14.7666 31.177 14.7642 31.1549 14.7627 31.1326C14.7577 31.0558 14.7521 30.9791 14.744 30.9031C14.7415 30.8798 14.7379 30.8566 14.7352 30.8334C14.7263 30.7584 14.7166 30.6836 14.7048 30.6096C14.7011 30.5865 14.6965 30.5638 14.6925 30.5407C14.6797 30.467 14.6661 30.3935 14.6505 30.3207C14.6453 30.2968 14.6395 30.2731 14.634 30.2493C14.6178 30.1783 14.6007 30.1077 14.5817 30.0378C14.5748 30.012 14.5672 29.9864 14.5599 29.9608C14.5407 29.894 14.5208 29.8277 14.4993 29.7619C14.49 29.7334 14.4802 29.705 14.4704 29.6767C14.4492 29.6152 14.4271 29.5543 14.4039 29.4939C14.3916 29.462 14.379 29.4302 14.3662 29.3985C14.3438 29.3436 14.3207 29.2892 14.2967 29.2351C14.2808 29.1991 14.2647 29.1633 14.248 29.1277C14.2257 29.0801 14.2023 29.033 14.1787 28.9861C14.1584 28.9457 14.1381 28.9053 14.1168 28.8653C14.0958 28.8262 14.0738 28.7877 14.0521 28.7491C14.0262 28.7033 14.0006 28.6575 13.9734 28.6125C13.9568 28.585 13.9392 28.5581 13.9221 28.531C13.7527 28.2606 13.5601 28.0042 13.3449 27.7645C13.335 27.7533 13.3253 27.7418 13.3152 27.7308C13.2698 27.681 13.2229 27.6325 13.1755 27.5843C13.1561 27.5644 13.1368 27.5442 13.117 27.5247C13.0737 27.4818 13.0293 27.4399 12.9845 27.3983C12.9585 27.3742 12.9325 27.3502 12.9062 27.3267C12.8853 27.308 12.8654 27.2884 12.8442 27.27C12.8367 27.263 12.829 27.2561 12.8211 27.2493C12.7961 27.2279 12.7701 27.2078 12.7448 27.1868C12.7389 27.1819 12.7329 27.1771 12.727 27.1722C12.6672 27.1231 12.6065 27.0754 12.5449 27.029C12.5317 27.019 12.5185 27.0092 12.5052 26.9993C12.4512 26.9594 12.3966 26.9206 12.3414 26.8827C12.3203 26.8683 12.2993 26.8538 12.278 26.8396C12.2312 26.8084 12.1838 26.7781 12.136 26.7484C12.1062 26.7298 12.0764 26.711 12.0461 26.693C12.0084 26.6705 11.9702 26.6489 11.932 26.6272C11.8917 26.6044 11.8515 26.5813 11.8105 26.5595C11.7865 26.5467 11.7621 26.5348 11.738 26.5223C11.3966 26.346 11.0351 26.2038 10.6575 26.1003C10.6544 26.0994 10.6513 26.0984 10.648 26.0976C10.5789 26.0787 10.5092 26.0616 10.4391 26.0454C10.4237 26.0419 10.4084 26.0382 10.393 26.0348C10.3305 26.0209 10.2676 26.0082 10.2044 25.9965C10.1795 25.9918 10.1546 25.9874 10.1296 25.9831C10.0731 25.9734 10.0165 25.9644 9.95947 25.9563C9.9249 25.9515 9.89014 25.9474 9.85537 25.9431C9.80606 25.9371 9.75674 25.9311 9.70703 25.9265C9.65869 25.9219 9.61006 25.9187 9.56152 25.9153C9.52334 25.9128 9.48545 25.9095 9.44717 25.9076C9.3583 25.9033 9.26934 25.9009 9.18008 25.9009C8.29092 25.9009 7.40566 26.1148 6.62002 26.5196C6.26045 26.7049 6.11914 27.1466 6.30449 27.5062C6.48965 27.8659 6.93145 28.0069 7.29111 27.8218C7.87842 27.5191 8.51397 27.3657 9.18018 27.3657C9.24609 27.3657 9.31152 27.3677 9.37666 27.3707C9.40459 27.3721 9.43242 27.3744 9.46025 27.3763C9.496 27.3787 9.53174 27.3812 9.56719 27.3845C9.60371 27.3879 9.64014 27.3922 9.67656 27.3967C9.70166 27.3997 9.72676 27.4028 9.75176 27.4063C9.79414 27.4122 9.83643 27.4188 9.87861 27.4261C9.89551 27.429 9.9124 27.432 9.9292 27.4352C9.97725 27.444 10.0251 27.4535 10.0728 27.4641C10.0805 27.4657 10.0881 27.4677 10.0957 27.4693C10.4344 27.5466 10.7621 27.6666 11.0712 27.826C11.0824 27.8318 11.0938 27.8374 11.1051 27.8434C11.1431 27.8634 11.1805 27.8844 11.2179 27.9057C11.2378 27.917 11.2578 27.9283 11.2775 27.94C11.3082 27.9581 11.3386 27.9769 11.3688 27.9958C11.3954 28.0125 11.4219 28.0294 11.448 28.0466C11.4721 28.0624 11.496 28.0785 11.5197 28.0948C11.5525 28.1175 11.585 28.1405 11.617 28.1641C11.6343 28.1767 11.6515 28.1893 11.6686 28.2021C11.708 28.232 11.7468 28.2626 11.7851 28.2937C11.7948 28.3018 11.8048 28.3095 11.8146 28.3176C11.8456 28.3434 11.8758 28.3702 11.9061 28.3969C11.9369 28.424 11.9673 28.4516 11.9973 28.4795C12.0209 28.5016 12.0444 28.5238 12.0676 28.5465C12.094 28.5724 12.1199 28.5987 12.1456 28.6252C12.1698 28.6502 12.1941 28.6752 12.2178 28.7009C12.2411 28.7262 12.2636 28.7521 12.2862 28.7779C12.3102 28.8053 12.3344 28.8324 12.3576 28.8604C12.3792 28.8863 12.3997 28.9129 12.4205 28.9394C12.4431 28.9679 12.4661 28.9959 12.4879 29.025C12.5267 29.0769 12.5642 29.1295 12.6005 29.1829C12.6166 29.2065 12.6315 29.231 12.6472 29.255C12.6716 29.2927 12.6962 29.3303 12.7193 29.3687C12.7328 29.391 12.7453 29.414 12.7584 29.4365C12.7812 29.476 12.8039 29.5155 12.8254 29.5558C12.8368 29.5771 12.8476 29.5989 12.8586 29.6206C12.8804 29.6633 12.9019 29.7062 12.9222 29.7495C12.9315 29.7695 12.9405 29.7898 12.9495 29.81C12.9702 29.8561 12.9902 29.9025 13.0093 29.9493C13.0168 29.9679 13.024 29.9864 13.0313 30.0051C13.0505 30.0544 13.0688 30.1041 13.086 30.1542C13.092 30.1715 13.0979 30.1888 13.1036 30.2062C13.1207 30.2581 13.1367 30.3105 13.1518 30.3632C13.1564 30.3796 13.1613 30.396 13.1658 30.4125C13.1805 30.4664 13.1938 30.5208 13.2063 30.5754C13.2101 30.5915 13.214 30.6074 13.2175 30.6236C13.2294 30.6788 13.2397 30.7344 13.2494 30.79C13.2522 30.8063 13.2555 30.8223 13.2581 30.8385C13.2671 30.8941 13.2743 30.9501 13.2811 31.0062C13.2831 31.023 13.2856 31.0396 13.2875 31.0564C13.2936 31.113 13.2977 31.1698 13.3015 31.2268C13.3025 31.2434 13.3044 31.2598 13.3053 31.2764C13.3092 31.3495 13.3112 31.4229 13.3112 31.4966V31.5001C12.6084 31.2462 12.0011 30.7678 11.5819 30.1221C11.458 29.9312 11.2524 29.8087 11.0256 29.7906C10.7986 29.7727 10.5764 29.861 10.4238 30.0301C9.4624 31.0955 8.08955 31.7065 6.65732 31.7065C6.10557 31.7065 5.5669 31.6189 5.0502 31.4458C5.05029 31.4361 5.05059 31.4266 5.05078 31.4169C5.05215 31.3471 5.05479 31.2773 5.05967 31.2079C5.05996 31.204 5.06006 31.2002 5.06035 31.1963C5.06611 31.1174 5.07422 31.0387 5.08447 30.9603C5.08506 30.9559 5.08564 30.9515 5.08623 30.9471C5.15137 30.4613 5.30186 29.989 5.53135 29.5581C5.72139 29.2011 5.58623 28.7575 5.2291 28.5674C4.87217 28.3773 4.42842 28.5125 4.23828 28.8696C4.08516 29.1571 3.95908 29.4586 3.85879 29.7686C3.85332 29.7826 3.84756 29.7965 3.84297 29.8111C3.74004 30.1372 3.66826 30.4719 3.62676 30.8116C3.62666 30.8123 3.62656 30.813 3.62646 30.8137C3.61357 30.9192 3.604 31.0254 3.59707 31.1318C3.5959 31.1491 3.59512 31.1664 3.59414 31.1838C3.58838 31.2878 3.58447 31.392 3.58447 31.4967V31.9463V33.8415C3.58398 36.9271 6.09424 39.4374 9.17988 39.4374ZM5.04883 32.9702C5.57158 33.1031 6.10908 33.1716 6.65693 33.1716C8.21455 33.1716 9.71758 32.6111 10.8933 31.6114C11.5453 32.3096 12.3824 32.8012 13.3109 33.0287V33.8416C13.3109 36.1194 11.4577 37.9727 9.17988 37.9727C6.90205 37.9727 5.04883 36.1194 5.04883 33.8416V32.9702Z" fill="url(#paint1_radial)" original-font-size="50px" original-border-color="rgb(129, 138, 145)" original-background-color="rgba(0, 0, 0, 0)" original-background-image="none" original-color="rgb(129, 138, 145)" original-box-shadow="none" original-text-shadow="none" original-font-family="My_Samsung_Sans" original-letter-spacing="0" original-line-height="50px"></path><path d="M19.0269 24.0992C19.4314 24.0992 19.7593 23.7713 19.7593 23.3668V18.9148C19.7593 16.9694 21.3419 15.3867 23.2873 15.3867H23.5124L22.3824 19.2276C22.3076 19.4817 22.376 19.7564 22.561 19.946L24.476 21.9073C24.6138 22.0484 24.8027 22.128 25 22.128C25.1973 22.128 25.3862 22.0484 25.524 21.9073L27.439 19.946C27.6241 19.7564 27.6924 19.4817 27.6176 19.2276L26.4876 15.3867H26.7127C28.6581 15.3867 30.2407 16.9694 30.2407 18.9148V23.3668C30.2407 23.7713 30.5685 24.0992 30.9731 24.0992C31.3777 24.0992 31.7056 23.7713 31.7056 23.3668V18.9148C31.7056 16.1617 29.4657 13.9219 26.7127 13.9219H25.5087H24.4913H23.2873C20.5343 13.9219 18.2944 16.1617 18.2944 18.9148V23.3668C18.2944 23.7713 18.6223 24.0992 19.0269 24.0992ZM25 20.3472L23.9087 19.2295L25 15.5203L26.0913 19.2296L25 20.3472Z" fill="url(#paint2_radial)" original-font-size="50px" original-border-color="rgb(129, 138, 145)" original-background-color="rgba(0, 0, 0, 0)" original-background-image="none" original-color="rgb(129, 138, 145)" original-box-shadow="none" original-text-shadow="none" original-font-family="My_Samsung_Sans" original-letter-spacing="0" original-line-height="50px"></path><path d="M25 13.5365C28.0856 13.5365 30.5959 11.0262 30.5959 7.94062V6.51387V5.5958C30.5959 5.49609 30.5931 5.39697 30.5879 5.29854C30.5867 5.27617 30.5843 5.2541 30.5828 5.23184C30.5778 5.15498 30.5722 5.07822 30.5642 5.00225C30.5617 4.979 30.5581 4.95596 30.5553 4.93271C30.5464 4.85762 30.5367 4.78281 30.5248 4.70869C30.5211 4.68574 30.5165 4.66309 30.5125 4.64023C30.4997 4.56631 30.486 4.49268 30.4704 4.41973C30.4653 4.39609 30.4595 4.37266 30.4541 4.34902C30.4378 4.27783 30.4206 4.20693 30.4017 4.13672C30.3947 4.11113 30.3872 4.08584 30.3799 4.06035C30.3607 3.99336 30.3407 3.92676 30.3191 3.86084C30.3099 3.83242 30.3001 3.8043 30.2904 3.77607C30.2692 3.71455 30.2471 3.65342 30.2238 3.59287C30.2116 3.56104 30.199 3.5293 30.1862 3.49766C30.1639 3.44258 30.1406 3.38809 30.1166 3.33389C30.1008 3.29805 30.0848 3.2623 30.0681 3.22676C30.0457 3.179 30.0223 3.13193 29.9986 3.08486C29.9783 3.04453 29.958 3.0041 29.9367 2.96426C29.9157 2.9251 29.8937 2.88652 29.8719 2.84795C29.846 2.80215 29.8204 2.75635 29.7933 2.71133C29.7768 2.68398 29.7592 2.65732 29.7422 2.63018C29.5723 2.35889 29.3788 2.10146 29.1628 1.86084C29.1536 1.85068 29.1448 1.84014 29.1356 1.82998C29.0896 1.77949 29.042 1.73027 28.9939 1.68135C28.9752 1.66221 28.9567 1.64297 28.9378 1.62412C28.8937 1.58057 28.8486 1.53799 28.8031 1.4957C28.778 1.47236 28.7528 1.44922 28.7273 1.42637C28.7061 1.40732 28.6858 1.3873 28.6643 1.36855C28.6567 1.36152 28.649 1.35469 28.6412 1.34795C28.6159 1.32627 28.5896 1.30596 28.564 1.28477C28.5588 1.28047 28.5535 1.27627 28.5483 1.27197C28.4879 1.22236 28.4265 1.17402 28.3642 1.12715C28.3516 1.11768 28.3389 1.1082 28.3262 1.09883C28.2717 1.0585 28.2164 1.01924 28.1605 0.980957C28.14 0.966797 28.1194 0.952734 28.0986 0.938867C28.0513 0.907324 28.0034 0.876758 27.9552 0.846777C27.9257 0.828418 27.8964 0.809961 27.8666 0.79209C27.8284 0.769336 27.7897 0.747461 27.7511 0.725586C27.7111 0.70293 27.6714 0.680273 27.6309 0.658594C27.6062 0.645508 27.5813 0.633203 27.5565 0.620508C27.2155 0.444531 26.8546 0.302637 26.4775 0.199219C26.4744 0.19834 26.4713 0.197363 26.4681 0.196484C26.3989 0.177637 26.3292 0.160547 26.2591 0.144336C26.2437 0.14082 26.2284 0.137109 26.213 0.133691C26.1505 0.119824 26.0876 0.107129 26.0244 0.0954102C25.9995 0.0907227 25.9746 0.0863281 25.9496 0.0820312C25.8932 0.0723633 25.8365 0.0632812 25.7795 0.0552734C25.7449 0.0503906 25.7102 0.0462891 25.6754 0.0419922C25.6261 0.0360352 25.5768 0.0299805 25.5271 0.0253906C25.4787 0.0208008 25.4301 0.0175781 25.3815 0.0142578C25.3434 0.0117188 25.3055 0.00839844 25.2672 0.00654297C25.1783 0.00253906 25.0893 0 25 0C24.1109 0 23.2256 0.213965 22.4399 0.61875C22.0804 0.804004 21.9391 1.2457 22.1244 1.60527C22.3097 1.96494 22.7511 2.10615 23.111 1.9209C23.6982 1.61826 24.3339 1.46484 25 1.46484C25.0659 1.46484 25.1313 1.4668 25.1965 1.46982C25.2243 1.47119 25.2521 1.47344 25.2799 1.47539C25.3157 1.47783 25.3515 1.48027 25.3871 1.48359C25.4236 1.48701 25.4601 1.49131 25.4964 1.4957C25.5215 1.49873 25.5466 1.50186 25.5716 1.50527C25.614 1.51123 25.6562 1.51777 25.6982 1.525C25.7152 1.52793 25.7322 1.53096 25.7491 1.53408C25.7971 1.54297 25.8448 1.55234 25.8924 1.56289C25.9002 1.56465 25.9079 1.5665 25.9157 1.56826C26.2538 1.64541 26.581 1.76514 26.8895 1.92402C26.9015 1.93027 26.9136 1.93623 26.9255 1.94248C26.9628 1.96221 26.9997 1.98291 27.0364 2.00371C27.057 2.01543 27.0777 2.02715 27.0981 2.03926C27.1281 2.05693 27.1578 2.07529 27.1874 2.09375C27.2148 2.11094 27.2422 2.12842 27.2691 2.14619C27.2923 2.16143 27.3152 2.17686 27.3381 2.19258C27.3721 2.21602 27.4057 2.23994 27.439 2.26436C27.455 2.27607 27.4711 2.28779 27.4869 2.2998C27.5279 2.33086 27.5683 2.3626 27.608 2.39502C27.6162 2.40176 27.6246 2.4083 27.6328 2.41514C27.6651 2.44189 27.6965 2.46982 27.7279 2.49756C27.7573 2.52344 27.7864 2.54971 27.8149 2.57637C27.8396 2.59951 27.8643 2.62275 27.8884 2.64639C27.9138 2.67129 27.9386 2.69658 27.9633 2.72197C27.9884 2.74785 28.0135 2.77373 28.0379 2.8002C28.0603 2.82451 28.0819 2.84941 28.1037 2.87422C28.1285 2.90244 28.1535 2.93047 28.1775 2.95947C28.1979 2.98408 28.2174 3.00928 28.2372 3.03428C28.2608 3.06406 28.2849 3.09346 28.3077 3.12393C28.3401 3.16719 28.3711 3.21133 28.4017 3.25576C28.4244 3.28877 28.4464 3.32236 28.4683 3.35605C28.4921 3.39287 28.5161 3.42959 28.5388 3.46709C28.5524 3.48975 28.5652 3.51309 28.5784 3.53604C28.601 3.5752 28.6235 3.61436 28.6448 3.6542C28.6563 3.67578 28.6672 3.69785 28.6784 3.71963C28.7001 3.76211 28.7215 3.80479 28.7417 3.84795C28.7512 3.86807 28.7602 3.88848 28.7692 3.90879C28.7898 3.95479 28.8099 4.00107 28.8288 4.04785C28.8363 4.0665 28.8437 4.08516 28.851 4.10391C28.8701 4.15322 28.8883 4.20283 28.9056 4.25283C28.9115 4.27012 28.9175 4.2875 28.9232 4.30488C28.9403 4.35684 28.9563 4.40918 28.9714 4.46191C28.9761 4.47832 28.981 4.49473 28.9854 4.51133C29.0001 4.56523 29.0135 4.61963 29.026 4.67422C29.0297 4.69033 29.0336 4.70625 29.0371 4.72246C29.049 4.77764 29.0594 4.83311 29.069 4.88887C29.0719 4.90508 29.0751 4.92109 29.0777 4.9373C29.0867 4.99297 29.0939 5.04893 29.1007 5.10508C29.1027 5.12188 29.1053 5.13848 29.1071 5.15527C29.1132 5.21182 29.1173 5.26865 29.1211 5.32559C29.1222 5.34219 29.124 5.35859 29.1249 5.3752C29.1288 5.44834 29.1309 5.52178 29.1309 5.59541V5.59893C28.428 5.34492 27.8207 4.8666 27.4016 4.2209C27.2776 4.02998 27.0721 3.90752 26.8452 3.88945C26.6194 3.87158 26.396 3.95986 26.2436 4.12891C25.2819 5.19434 23.9092 5.80537 22.477 5.80537C21.9252 5.80537 21.3865 5.71777 20.8698 5.54453C20.8699 5.53486 20.8702 5.5252 20.8704 5.51553C20.8718 5.446 20.8744 5.37656 20.8792 5.30723C20.8795 5.30303 20.8796 5.29893 20.8799 5.29473C20.8856 5.21611 20.8937 5.13789 20.9039 5.05986C20.9046 5.05488 20.9053 5.0499 20.906 5.04482C20.9711 4.55937 21.1216 4.0874 21.3509 3.65693C21.5409 3.2999 21.4058 2.85635 21.0486 2.66621C20.6917 2.47607 20.2481 2.61143 20.0578 2.96836C19.9044 3.25654 19.778 3.55859 19.6775 3.86924C19.6724 3.88281 19.6668 3.896 19.6624 3.91006C19.5598 4.23555 19.4881 4.56943 19.4465 4.9082C19.4463 4.90996 19.446 4.91172 19.4458 4.91338C19.433 5.01855 19.4234 5.12422 19.4165 5.23018C19.4153 5.24775 19.4145 5.26523 19.4135 5.28281C19.4077 5.38672 19.4038 5.49082 19.4038 5.59531V6.04492V7.94014C19.4041 11.0263 21.9144 13.5365 25 13.5365ZM20.8689 7.06934C21.3917 7.20225 21.9292 7.2707 22.477 7.2707C24.0347 7.2707 25.5377 6.71016 26.7134 5.71055C27.3654 6.40869 28.2025 6.90029 29.1311 7.12783V7.94072C29.1311 10.2186 27.2778 12.0718 25 12.0718C22.7222 12.0718 20.8689 10.2186 20.8689 7.94072V7.06934Z" fill="url(#paint3_radial)" original-font-size="50px" original-border-color="rgb(129, 138, 145)" original-background-color="rgba(0, 0, 0, 0)" original-background-image="none" original-color="rgb(129, 138, 145)" original-box-shadow="none" original-text-shadow="none" original-font-family="My_Samsung_Sans" original-letter-spacing="0" original-line-height="50px"></path><path d="M36.014 25.4445C36.1581 25.6345 36.3768 25.7345 36.5982 25.7345C36.7523 25.7345 36.9078 25.6859 37.0401 25.5857C37.3624 25.3413 37.4256 24.8818 37.1812 24.5595C36.2867 23.3796 35.2282 22.3369 34.0352 21.4605C33.7092 21.2211 33.2508 21.2912 33.0114 21.6172C32.7718 21.9432 32.842 22.4017 33.168 22.6411C34.2472 23.434 35.2048 24.3772 36.014 25.4445Z" fill="url(#paint4_radial)" original-font-size="50px" original-border-color="rgb(129, 138, 145)" original-background-color="rgba(0, 0, 0, 0)" original-background-image="none" original-color="rgb(129, 138, 145)" original-box-shadow="none" original-text-shadow="none" original-font-family="My_Samsung_Sans" original-letter-spacing="0" original-line-height="50px"></path><path d="M31.5832 45.9259C29.5761 47.0163 27.2997 47.5925 25 47.5925C22.6838 47.5925 20.3929 47.0083 18.3749 45.9031C18.0202 45.7089 17.575 45.8389 17.3807 46.1937C17.1864 46.5485 17.3165 46.9936 17.6713 47.1879C19.9043 48.411 22.4385 49.0575 25 49.0575C27.5432 49.0575 30.0615 48.4197 32.2825 47.2131C32.6379 47.0201 32.7695 46.5753 32.5765 46.22C32.3832 45.8645 31.9389 45.7329 31.5832 45.9259Z" fill="url(#paint5_radial)" original-font-size="50px" original-border-color="rgb(129, 138, 145)" original-background-color="rgba(0, 0, 0, 0)" original-background-image="none" original-color="rgb(129, 138, 145)" original-box-shadow="none" original-text-shadow="none" original-font-family="My_Samsung_Sans" original-letter-spacing="0" original-line-height="50px"></path><path d="M15.9643 21.4605C14.781 22.3298 13.73 23.3627 12.8403 24.5307C12.5951 24.8525 12.6573 25.312 12.9791 25.5572C13.1116 25.6581 13.2677 25.707 13.4223 25.707C13.6431 25.707 13.8614 25.6075 14.0055 25.4183C14.8103 24.3617 15.7613 23.4273 16.8316 22.641C17.1576 22.4014 17.2278 21.9431 16.9883 21.617C16.7487 21.2912 16.2904 21.2211 15.9643 21.4605Z" fill="url(#paint6_radial)" original-font-size="50px" original-border-color="rgb(129, 138, 145)" original-background-color="rgba(0, 0, 0, 0)" original-background-image="none" original-color="rgb(129, 138, 145)" original-box-shadow="none" original-text-shadow="none" original-font-family="My_Samsung_Sans" original-letter-spacing="0" original-line-height="50px"></path><path d="M42.533 39.8228H41.329H40.3116H39.1077C36.3546 39.8228 34.1147 42.0626 34.1147 44.8157V49.2676C34.1147 49.6721 34.4426 50 34.8472 50C35.2518 50 35.5796 49.6721 35.5796 49.2676V44.8157C35.5796 42.8703 37.1623 41.2876 39.1077 41.2876H39.3327L38.2027 45.1285C38.1279 45.3826 38.1963 45.6573 38.3813 45.8469L40.2963 47.8082C40.4341 47.9493 40.623 48.0289 40.8203 48.0289C41.0176 48.0289 41.2065 47.9493 41.3443 47.8082L43.2593 45.8469C43.4444 45.6573 43.5127 45.3826 43.4379 45.1285L42.3079 41.2876H42.533C44.4784 41.2876 46.061 42.8703 46.061 44.8157V49.2676C46.061 49.6721 46.3889 50 46.7935 50C47.198 50 47.5259 49.6721 47.5259 49.2676V44.8157C47.5259 42.0626 45.2861 39.8228 42.533 39.8228ZM40.8203 46.2481L39.729 45.1304L40.8203 41.4211L41.9116 45.1304L40.8203 46.2481Z" fill="url(#paint7_radial)" original-font-size="50px" original-border-color="rgb(129, 138, 145)" original-background-color="rgba(0, 0, 0, 0)" original-background-image="none" original-color="rgb(129, 138, 145)" original-box-shadow="none" original-text-shadow="none" original-font-family="My_Samsung_Sans" original-letter-spacing="0" original-line-height="50px"></path><path d="M38.9312 27.8217C39.5186 27.519 40.154 27.3656 40.8202 27.3656C40.8861 27.3656 40.9516 27.3676 41.0167 27.3706C41.0447 27.372 41.0726 27.3743 41.1005 27.3762C41.1362 27.3786 41.1719 27.3811 41.2073 27.3843C41.2439 27.3877 41.2804 27.392 41.3168 27.3965C41.3419 27.3995 41.367 27.4026 41.3919 27.4061C41.4344 27.412 41.4767 27.4186 41.5189 27.4259C41.5358 27.4288 41.5526 27.4318 41.5695 27.435C41.6175 27.4438 41.6653 27.4533 41.7129 27.4639C41.7208 27.4656 41.7287 27.4676 41.7365 27.4693C42.0753 27.5467 42.403 27.6668 42.7121 27.8263C42.7232 27.832 42.7346 27.8376 42.7457 27.8435C42.7837 27.8635 42.8212 27.8846 42.8586 27.9059C42.8785 27.9172 42.8984 27.9284 42.9181 27.9401C42.9487 27.9582 42.9791 27.977 43.0093 27.9959C43.0359 28.0126 43.0624 28.0295 43.0886 28.0468C43.1126 28.0625 43.1363 28.0786 43.1601 28.0948C43.1929 28.1175 43.2253 28.1405 43.2574 28.1641C43.2747 28.1767 43.2919 28.1893 43.309 28.2021C43.3481 28.2318 43.3868 28.2622 43.4249 28.2933C43.435 28.3014 43.4451 28.3094 43.455 28.3177C43.487 28.3442 43.5182 28.3719 43.5494 28.3994C43.5782 28.4248 43.6067 28.4506 43.6348 28.4768C43.6601 28.5003 43.6851 28.524 43.7098 28.5482C43.7346 28.5726 43.7588 28.5973 43.7829 28.6222C43.8085 28.6485 43.8342 28.6749 43.8591 28.702C43.8809 28.7257 43.902 28.75 43.9231 28.7741C43.9485 28.8029 43.974 28.8316 43.9985 28.8611C44.0181 28.8847 44.0367 28.909 44.0558 28.9329C44.0802 28.9637 44.1051 28.9941 44.1286 29.0256C44.1548 29.0605 44.1795 29.0964 44.2044 29.132C44.2339 29.174 44.2624 29.2167 44.2903 29.2598C44.3136 29.2957 44.337 29.3314 44.3591 29.3681C44.3731 29.3912 44.386 29.4149 44.3996 29.4384C44.422 29.4771 44.4442 29.5158 44.4652 29.5552C44.477 29.577 44.4879 29.5993 44.4992 29.6215C44.5208 29.6637 44.5421 29.7062 44.5621 29.749C44.5717 29.7693 44.5808 29.7899 44.5899 29.8104C44.6105 29.8562 44.6304 29.9023 44.6492 29.9488C44.6568 29.9677 44.6643 29.9865 44.6716 30.0056C44.6906 30.0547 44.7088 30.1041 44.7259 30.1539C44.7319 30.1714 44.7379 30.1889 44.7437 30.2064C44.7607 30.2583 44.7767 30.3106 44.7917 30.3633C44.7964 30.3798 44.8013 30.3961 44.8058 30.4127C44.8205 30.4666 44.8338 30.521 44.8463 30.5756C44.85 30.5917 44.8539 30.6076 44.8574 30.6238C44.8693 30.679 44.8797 30.7345 44.8894 30.7902C44.8922 30.8064 44.8954 30.8225 44.8981 30.8388C44.907 30.8942 44.9143 30.9501 44.9209 31.0061C44.923 31.023 44.9256 31.0398 44.9273 31.0569C44.9334 31.1134 44.9375 31.1701 44.9412 31.2269C44.9423 31.2436 44.9441 31.26 44.945 31.2767C44.9489 31.3498 44.9511 31.4232 44.9511 31.4969V31.5004C44.2482 31.2465 43.6409 30.7681 43.2219 30.1224C43.098 29.9314 42.8924 29.809 42.6655 29.7909C42.4397 29.7729 42.2163 29.8613 42.0639 30.0304C41.1022 31.0958 39.7294 31.7068 38.2972 31.7068C37.7454 31.7068 37.2067 31.6192 36.69 31.4461C36.6901 31.4364 36.6904 31.4268 36.6906 31.4171C36.692 31.3475 36.6946 31.2779 36.6995 31.2086C36.6998 31.2045 36.6999 31.2004 36.7002 31.1964C36.706 31.1178 36.7141 31.0394 36.7242 30.9612C36.7248 30.9563 36.7255 30.9516 36.7262 30.9467C36.7913 30.4611 36.9418 29.9891 37.1711 29.5584C37.3611 29.2014 37.226 28.7578 36.8688 28.5677C36.5119 28.3776 36.0682 28.5128 35.878 28.8699C35.7247 29.1578 35.5984 29.4596 35.4981 29.7699C35.4929 29.7837 35.4872 29.7973 35.4827 29.8115C35.3801 30.1371 35.3083 30.4711 35.2668 30.8101C35.2666 30.8116 35.2663 30.8132 35.2661 30.8148C35.2533 30.92 35.2438 31.0258 35.2368 31.1318C35.2356 31.1493 35.2348 31.1669 35.2338 31.1844C35.228 31.2883 35.2241 31.3924 35.2241 31.4969V31.9465V33.8417C35.2241 36.9272 37.7344 39.4376 40.82 39.4376C43.9057 39.4376 46.4159 36.9272 46.4159 33.8417V32.4149V31.4969C46.4159 31.3972 46.4131 31.298 46.4079 31.1996C46.4067 31.1771 46.4042 31.1549 46.4028 31.1325C46.3979 31.0558 46.3923 30.9792 46.3842 30.9033C46.3816 30.8798 46.378 30.8564 46.3752 30.8329C46.3663 30.7582 46.3567 30.6837 46.3449 30.61C46.3411 30.5863 46.3364 30.563 46.3323 30.5395C46.3196 30.4663 46.3062 30.3935 46.2906 30.3213C46.2854 30.2967 46.2793 30.2724 46.2736 30.2479C46.2575 30.1776 46.2406 30.1078 46.222 30.0386C46.2148 30.0119 46.2069 29.9855 46.1993 29.959C46.1805 29.8932 46.1607 29.8276 46.1396 29.7628C46.13 29.7334 46.1198 29.7042 46.1098 29.675C46.0889 29.6145 46.0672 29.5546 46.0443 29.495C46.0317 29.4621 46.0188 29.4294 46.0055 29.3967C45.9836 29.3429 45.9608 29.2895 45.9373 29.2365C45.9209 29.1995 45.9044 29.1626 45.8872 29.1259C45.8654 29.0795 45.8427 29.0337 45.8196 28.988C45.7987 28.9464 45.7778 28.9048 45.7559 28.8637C45.7357 28.8262 45.7147 28.7893 45.6937 28.7522C45.6669 28.7049 45.6403 28.6574 45.6123 28.6108C45.5972 28.5859 45.5813 28.5616 45.5657 28.537C45.3948 28.2635 45.2 28.004 44.9822 27.7616C44.9732 27.7516 44.9646 27.7412 44.9555 27.7312C44.9093 27.6806 44.8615 27.6312 44.8133 27.5822C44.7946 27.5632 44.7763 27.5439 44.7573 27.5252C44.7133 27.4816 44.6682 27.439 44.6226 27.3967C44.5974 27.3732 44.5721 27.35 44.5464 27.327C44.5249 27.3078 44.5045 27.2877 44.4826 27.2687C44.4756 27.2622 44.4684 27.2557 44.4608 27.2493C44.4358 27.2279 44.4099 27.2078 44.3846 27.1868C44.3786 27.1819 44.3727 27.177 44.3667 27.1722C44.3069 27.1231 44.2463 27.0754 44.1847 27.029C44.1715 27.019 44.1582 27.0092 44.1449 26.9993C44.091 26.9594 44.0363 26.9206 43.9812 26.8827C43.9601 26.8683 43.939 26.8538 43.9178 26.8396C43.8709 26.8084 43.8235 26.7781 43.7758 26.7484C43.7459 26.7298 43.7161 26.711 43.6858 26.693C43.6481 26.6705 43.61 26.6489 43.5718 26.6272C43.5314 26.6044 43.4912 26.5813 43.4502 26.5595C43.4263 26.5467 43.4019 26.5348 43.3777 26.5223C43.0363 26.346 42.6749 26.2038 42.2973 26.1003C42.2941 26.0994 42.291 26.0984 42.2878 26.0976C42.2187 26.0787 42.1489 26.0616 42.0788 26.0454C42.0635 26.0419 42.0481 26.0382 42.0327 26.0348C41.9702 26.0209 41.9073 26.0082 41.844 25.9965C41.8191 25.9918 41.7942 25.9874 41.7692 25.9831C41.7128 25.9734 41.6562 25.9644 41.5992 25.9563C41.5647 25.9515 41.5299 25.9474 41.4951 25.9431C41.4458 25.9371 41.3965 25.9311 41.3468 25.9265C41.2984 25.9219 41.2498 25.9187 41.2013 25.9153C41.1631 25.9128 41.1252 25.9095 41.0869 25.9076C40.9981 25.9033 40.9091 25.9009 40.8198 25.9009C39.9308 25.9009 39.0455 26.1148 38.2598 26.5196C37.9002 26.7049 37.7589 27.1466 37.9442 27.5062C38.1296 27.8657 38.5714 28.0069 38.9312 27.8217ZM40.8202 37.9724C38.5424 37.9724 36.6892 36.1191 36.6892 33.8413V32.9699C37.2119 33.1028 37.7494 33.1713 38.2973 33.1713C39.8549 33.1713 41.3579 32.6108 42.5337 31.6111C43.1856 32.3093 44.0228 32.8009 44.9513 33.0284V33.8413C44.9513 36.1192 43.098 37.9724 40.8202 37.9724Z" fill="url(#paint8_radial)" original-font-size="50px" original-border-color="rgb(129, 138, 145)" original-background-color="rgba(0, 0, 0, 0)" original-background-image="none" original-color="rgb(129, 138, 145)" original-box-shadow="none" original-text-shadow="none" original-font-family="My_Samsung_Sans" original-letter-spacing="0" original-line-height="50px"></path><path d="M17.9785 36.5426L19.097 38.4799C19.2638 38.7687 19.6043 38.9085 19.9265 38.8196L21.7086 38.327C22.0222 38.5547 22.3566 38.7481 22.7085 38.9058L23.1725 40.6937C23.2563 41.0167 23.5478 41.2422 23.8815 41.2422H26.1184C26.4521 41.2422 26.7435 41.0167 26.8274 40.6937L27.2913 38.9058C27.6433 38.7482 27.9776 38.5547 28.2912 38.327L30.0733 38.8196C30.3954 38.9085 30.736 38.7687 30.9028 38.4799L32.0213 36.5426C32.1881 36.2536 32.1386 35.8884 31.9008 35.6544L30.5826 34.357C30.6028 34.1637 30.6131 33.9707 30.6131 33.7803C30.6131 33.5898 30.6029 33.397 30.5826 33.2035L31.9008 31.9062C32.1387 31.6722 32.1881 31.3069 32.0213 31.018L30.9028 29.0807C30.736 28.7918 30.3954 28.6521 30.0733 28.7409L28.2912 29.2336C27.9776 29.0059 27.6433 28.8124 27.2913 28.6548L26.8274 26.8668C26.7436 26.5438 26.4521 26.3184 26.1184 26.3184H23.8815C23.5478 26.3184 23.2564 26.5438 23.1725 26.8668L22.7085 28.6548C22.3566 28.8123 22.0222 29.0059 21.7086 29.2336L19.9265 28.7409C19.6043 28.6521 19.2638 28.7918 19.097 29.0807L17.9785 31.018C17.8117 31.3069 17.8612 31.6722 18.099 31.9062L19.4172 33.2035C19.397 33.3969 19.3867 33.5897 19.3867 33.7803C19.3867 33.9708 19.3969 34.1637 19.4172 34.357L18.099 35.6544C17.8611 35.8885 17.8117 36.2536 17.9785 36.5426ZM20.9146 34.4958C20.8728 34.2557 20.8516 34.0148 20.8516 33.7803C20.8516 33.5458 20.8728 33.305 20.9146 33.0648C20.9557 32.828 20.878 32.586 20.7067 32.4175L19.5304 31.2598L20.0821 30.3039L21.6729 30.7438C21.9049 30.8078 22.1538 30.7539 22.3384 30.5992C22.7098 30.2881 23.1262 30.0471 23.5764 29.8827C23.8025 29.8001 23.9735 29.6117 24.0341 29.3787L24.4481 27.7834H25.5517L25.9656 29.3787C26.0261 29.6117 26.1972 29.8001 26.4233 29.8827C26.8734 30.0471 27.2899 30.2882 27.6613 30.5992C27.846 30.7539 28.0947 30.8077 28.3269 30.7438L29.9176 30.3039L30.4693 31.2598L29.2931 32.4175C29.1217 32.5861 29.0441 32.828 29.0852 33.0648C29.127 33.305 29.1482 33.5458 29.1482 33.7803C29.1482 34.0148 29.127 34.2556 29.0852 34.4958C29.0441 34.7326 29.1217 34.9746 29.2931 35.1432L30.4693 36.3009L29.9176 37.2567L28.3269 36.8169C28.0948 36.7528 27.8459 36.8067 27.6613 36.9614C27.2899 37.2726 26.8735 37.5136 26.4233 37.6779C26.1973 37.7605 26.0262 37.9489 25.9656 38.1819L25.5517 39.7772H24.4482L24.0342 38.1819C23.9737 37.9489 23.8026 37.7605 23.5765 37.6779C23.1264 37.5136 22.7099 37.2725 22.3385 36.9614C22.1537 36.8066 21.9049 36.7527 21.673 36.8169L20.0822 37.2567L19.5305 36.3009L20.7068 35.1432C20.878 34.9746 20.9557 34.7326 20.9146 34.4958Z" fill="url(#paint9_radial)" original-font-size="50px" original-border-color="rgb(129, 138, 145)" original-background-color="rgba(0, 0, 0, 0)" original-background-image="none" original-color="rgb(129, 138, 145)" original-box-shadow="none" original-text-shadow="none" original-font-family="My_Samsung_Sans" original-letter-spacing="0" original-line-height="50px"></path><path d="M25.0001 36.3616C26.4233 36.3616 27.5812 35.2037 27.5812 33.7804C27.5812 33.3759 27.2534 33.0479 26.8488 33.0479C26.4442 33.0479 26.1164 33.3759 26.1164 33.7804C26.1164 34.3959 25.6156 34.8968 25.0001 34.8968C24.3846 34.8968 23.8838 34.396 23.8838 33.7804C23.8838 33.1647 24.3846 32.6641 25.0001 32.6641C25.4047 32.6641 25.7325 32.3361 25.7325 31.9316C25.7325 31.5271 25.4047 31.1992 25.0001 31.1992C23.5769 31.1992 22.4189 32.3571 22.4189 33.7804C22.4189 35.2037 23.5769 36.3616 25.0001 36.3616Z" fill="url(#paint10_radial)" original-font-size="50px" original-border-color="rgb(129, 138, 145)" original-background-color="rgba(0, 0, 0, 0)" original-background-image="none" original-color="rgb(129, 138, 145)" original-box-shadow="none" original-text-shadow="none" original-font-family="My_Samsung_Sans" original-letter-spacing="0" original-line-height="50px"></path><defs original-font-size="50px" original-border-color="rgb(129, 138, 145)" original-background-color="rgba(0, 0, 0, 0)" original-background-image="none" original-color="rgb(129, 138, 145)" original-box-shadow="none" original-text-shadow="none" original-font-family="My_Samsung_Sans" original-letter-spacing="0" original-line-height="50px"><radialGradient id="paint0_radial" cx="0" cy="0" r="1" gradientUnits="userSpaceOnUse" gradientTransform="translate(15.8853 50) rotate(-142.806) scale(16.8355 91.1247)" original-font-size="50px" original-border-color="rgb(129, 138, 145)" original-background-color="rgba(0, 0, 0, 0)" original-background-image="none" original-color="rgb(129, 138, 145)" original-box-shadow="none" original-text-shadow="none" original-font-family="My_Samsung_Sans" original-letter-spacing="0" original-line-height="50px"><stop stop-color="#B57EFE" original-font-size="50px" original-border-color="rgb(129, 138, 145)" original-background-color="rgba(0, 0, 0, 0)" original-background-image="none" original-color="rgb(129, 138, 145)" original-box-shadow="none" original-text-shadow="none" original-font-family="My_Samsung_Sans" original-letter-spacing="0" original-line-height="50px"></stop><stop offset="0.760417" stop-color="#68C5FE" original-font-size="50px" original-border-color="rgb(129, 138, 145)" original-background-color="rgba(0, 0, 0, 0)" original-background-image="none" original-color="rgb(129, 138, 145)" original-box-shadow="none" original-text-shadow="none" original-font-family="My_Samsung_Sans" original-letter-spacing="0" original-line-height="50px"></stop><stop offset="1" stop-color="#7AB6FF" original-font-size="50px" original-border-color="rgb(129, 138, 145)" original-background-color="rgba(0, 0, 0, 0)" original-background-image="none" original-color="rgb(129, 138, 145)" original-box-shadow="none" original-text-shadow="none" original-font-family="My_Samsung_Sans" original-letter-spacing="0" original-line-height="50px"></stop></radialGradient><radialGradient id="paint1_radial" cx="0" cy="0" r="1" gradientUnits="userSpaceOnUse" gradientTransform="translate(14.7758 39.4374) rotate(-129.582) scale(17.5637 96.948)" original-font-size="50px" original-border-color="rgb(129, 138, 145)" original-background-color="rgba(0, 0, 0, 0)" original-background-image="none" original-color="rgb(129, 138, 145)" original-box-shadow="none" original-text-shadow="none" original-font-family="My_Samsung_Sans" original-letter-spacing="0" original-line-height="50px"><stop stop-color="#B57EFE" original-font-size="50px" original-border-color="rgb(129, 138, 145)" original-background-color="rgba(0, 0, 0, 0)" original-background-image="none" original-color="rgb(129, 138, 145)" original-box-shadow="none" original-text-shadow="none" original-font-family="My_Samsung_Sans" original-letter-spacing="0" original-line-height="50px"></stop><stop offset="0.760417" stop-color="#68C5FE" original-font-size="50px" original-border-color="rgb(129, 138, 145)" original-background-color="rgba(0, 0, 0, 0)" original-background-image="none" original-color="rgb(129, 138, 145)" original-box-shadow="none" original-text-shadow="none" original-font-family="My_Samsung_Sans" original-letter-spacing="0" original-line-height="50px"></stop><stop offset="1" stop-color="#7AB6FF" original-font-size="50px" original-border-color="rgb(129, 138, 145)" original-background-color="rgba(0, 0, 0, 0)" original-background-image="none" original-color="rgb(129, 138, 145)" original-box-shadow="none" original-text-shadow="none" original-font-family="My_Samsung_Sans" original-letter-spacing="0" original-line-height="50px"></stop></radialGradient><radialGradient id="paint2_radial" cx="0" cy="0" r="1" gradientUnits="userSpaceOnUse" gradientTransform="translate(31.7056 24.0992) rotate(-142.806) scale(16.8356 91.1251)" original-font-size="50px" original-border-color="rgb(129, 138, 145)" original-background-color="rgba(0, 0, 0, 0)" original-background-image="none" original-color="rgb(129, 138, 145)" original-box-shadow="none" original-text-shadow="none" original-font-family="My_Samsung_Sans" original-letter-spacing="0" original-line-height="50px"><stop stop-color="#B57EFE" original-font-size="50px" original-border-color="rgb(129, 138, 145)" original-background-color="rgba(0, 0, 0, 0)" original-background-image="none" original-color="rgb(129, 138, 145)" original-box-shadow="none" original-text-shadow="none" original-font-family="My_Samsung_Sans" original-letter-spacing="0" original-line-height="50px"></stop><stop offset="0.760417" stop-color="#68C5FE" original-font-size="50px" original-border-color="rgb(129, 138, 145)" original-background-color="rgba(0, 0, 0, 0)" original-background-image="none" original-color="rgb(129, 138, 145)" original-box-shadow="none" original-text-shadow="none" original-font-family="My_Samsung_Sans" original-letter-spacing="0" original-line-height="50px"></stop><stop offset="1" stop-color="#7AB6FF" original-font-size="50px" original-border-color="rgb(129, 138, 145)" original-background-color="rgba(0, 0, 0, 0)" original-background-image="none" original-color="rgb(129, 138, 145)" original-box-shadow="none" original-text-shadow="none" original-font-family="My_Samsung_Sans" original-letter-spacing="0" original-line-height="50px"></stop></radialGradient><radialGradient id="paint3_radial" cx="0" cy="0" r="1" gradientUnits="userSpaceOnUse" gradientTransform="translate(30.5959 13.5365) rotate(-129.584) scale(17.5642 96.952)" original-font-size="50px" original-border-color="rgb(129, 138, 145)" original-background-color="rgba(0, 0, 0, 0)" original-background-image="none" original-color="rgb(129, 138, 145)" original-box-shadow="none" original-text-shadow="none" original-font-family="My_Samsung_Sans" original-letter-spacing="0" original-line-height="50px"><stop stop-color="#B57EFE" original-font-size="50px" original-border-color="rgb(129, 138, 145)" original-background-color="rgba(0, 0, 0, 0)" original-background-image="none" original-color="rgb(129, 138, 145)" original-box-shadow="none" original-text-shadow="none" original-font-family="My_Samsung_Sans" original-letter-spacing="0" original-line-height="50px"></stop><stop offset="0.760417" stop-color="#68C5FE" original-font-size="50px" original-border-color="rgb(129, 138, 145)" original-background-color="rgba(0, 0, 0, 0)" original-background-image="none" original-color="rgb(129, 138, 145)" original-box-shadow="none" original-text-shadow="none" original-font-family="My_Samsung_Sans" original-letter-spacing="0" original-line-height="50px"></stop><stop offset="1" stop-color="#7AB6FF" original-font-size="50px" original-border-color="rgb(129, 138, 145)" original-background-color="rgba(0, 0, 0, 0)" original-background-image="none" original-color="rgb(129, 138, 145)" original-box-shadow="none" original-text-shadow="none" original-font-family="My_Samsung_Sans" original-letter-spacing="0" original-line-height="50px"></stop></radialGradient><radialGradient id="paint4_radial" cx="0" cy="0" r="1" gradientUnits="userSpaceOnUse" gradientTransform="translate(37.3301 25.7345) rotate(-135.289) scale(6.27709 35.2755)" original-font-size="50px" original-border-color="rgb(129, 138, 145)" original-background-color="rgba(0, 0, 0, 0)" original-background-image="none" original-color="rgb(129, 138, 145)" original-box-shadow="none" original-text-shadow="none" original-font-family="My_Samsung_Sans" original-letter-spacing="0" original-line-height="50px"><stop stop-color="#B57EFE" original-font-size="50px" original-border-color="rgb(129, 138, 145)" original-background-color="rgba(0, 0, 0, 0)" original-background-image="none" original-color="rgb(129, 138, 145)" original-box-shadow="none" original-text-shadow="none" original-font-family="My_Samsung_Sans" original-letter-spacing="0" original-line-height="50px"></stop><stop offset="0.760417" stop-color="#68C5FE" original-font-size="50px" original-border-color="rgb(129, 138, 145)" original-background-color="rgba(0, 0, 0, 0)" original-background-image="none" original-color="rgb(129, 138, 145)" original-box-shadow="none" original-text-shadow="none" original-font-family="My_Samsung_Sans" original-letter-spacing="0" original-line-height="50px"></stop><stop offset="1" stop-color="#7AB6FF" original-font-size="50px" original-border-color="rgb(129, 138, 145)" original-background-color="rgba(0, 0, 0, 0)" original-background-image="none" original-color="rgb(129, 138, 145)" original-box-shadow="none" original-text-shadow="none" original-font-family="My_Samsung_Sans" original-letter-spacing="0" original-line-height="50px"></stop></radialGradient><radialGradient id="paint5_radial" cx="0" cy="0" r="1" gradientUnits="userSpaceOnUse" gradientTransform="translate(32.6654 49.0575) rotate(-168.084) scale(15.7135 35.6822)" original-font-size="50px" original-border-color="rgb(129, 138, 145)" original-background-color="rgba(0, 0, 0, 0)" original-background-image="none" original-color="rgb(129, 138, 145)" original-box-shadow="none" original-text-shadow="none" original-font-family="My_Samsung_Sans" original-letter-spacing="0" original-line-height="50px"><stop stop-color="#B57EFE" original-font-size="50px" original-border-color="rgb(129, 138, 145)" original-background-color="rgba(0, 0, 0, 0)" original-background-image="none" original-color="rgb(129, 138, 145)" original-box-shadow="none" original-text-shadow="none" original-font-family="My_Samsung_Sans" original-letter-spacing="0" original-line-height="50px"></stop><stop offset="0.760417" stop-color="#68C5FE" original-font-size="50px" original-border-color="rgb(129, 138, 145)" original-background-color="rgba(0, 0, 0, 0)" original-background-image="none" original-color="rgb(129, 138, 145)" original-box-shadow="none" original-text-shadow="none" original-font-family="My_Samsung_Sans" original-letter-spacing="0" original-line-height="50px"></stop><stop offset="1" stop-color="#7AB6FF" original-font-size="50px" original-border-color="rgb(129, 138, 145)" original-background-color="rgba(0, 0, 0, 0)" original-background-image="none" original-color="rgb(129, 138, 145)" original-box-shadow="none" original-text-shadow="none" original-font-family="My_Samsung_Sans" original-letter-spacing="0" original-line-height="50px"></stop></radialGradient><radialGradient id="paint6_radial" cx="0" cy="0" r="1" gradientUnits="userSpaceOnUse" gradientTransform="translate(17.1305 25.707) rotate(-135.334) scale(6.24291 35.0828)" original-font-size="50px" original-border-color="rgb(129, 138, 145)" original-background-color="rgba(0, 0, 0, 0)" original-background-image="none" original-color="rgb(129, 138, 145)" original-box-shadow="none" original-text-shadow="none" original-font-family="My_Samsung_Sans" original-letter-spacing="0" original-line-height="50px"><stop stop-color="#B57EFE" original-font-size="50px" original-border-color="rgb(129, 138, 145)" original-background-color="rgba(0, 0, 0, 0)" original-background-image="none" original-color="rgb(129, 138, 145)" original-box-shadow="none" original-text-shadow="none" original-font-family="My_Samsung_Sans" original-letter-spacing="0" original-line-height="50px"></stop><stop offset="0.760417" stop-color="#68C5FE" original-font-size="50px" original-border-color="rgb(129, 138, 145)" original-background-color="rgba(0, 0, 0, 0)" original-background-image="none" original-color="rgb(129, 138, 145)" original-box-shadow="none" original-text-shadow="none" original-font-family="My_Samsung_Sans" original-letter-spacing="0" original-line-height="50px"></stop><stop offset="1" stop-color="#7AB6FF" original-font-size="50px" original-border-color="rgb(129, 138, 145)" original-background-color="rgba(0, 0, 0, 0)" original-background-image="none" original-color="rgb(129, 138, 145)" original-box-shadow="none" original-text-shadow="none" original-font-family="My_Samsung_Sans" original-letter-spacing="0" original-line-height="50px"></stop></radialGradient><radialGradient id="paint7_radial" cx="0" cy="0" r="1" gradientUnits="userSpaceOnUse" gradientTransform="translate(47.5259 50) rotate(-142.806) scale(16.8355 91.1247)" original-font-size="50px" original-border-color="rgb(129, 138, 145)" original-background-color="rgba(0, 0, 0, 0)" original-background-image="none" original-color="rgb(129, 138, 145)" original-box-shadow="none" original-text-shadow="none" original-font-family="My_Samsung_Sans" original-letter-spacing="0" original-line-height="50px"><stop stop-color="#B57EFE" original-font-size="50px" original-border-color="rgb(129, 138, 145)" original-background-color="rgba(0, 0, 0, 0)" original-background-image="none" original-color="rgb(129, 138, 145)" original-box-shadow="none" original-text-shadow="none" original-font-family="My_Samsung_Sans" original-letter-spacing="0" original-line-height="50px"></stop><stop offset="0.760417" stop-color="#68C5FE" original-font-size="50px" original-border-color="rgb(129, 138, 145)" original-background-color="rgba(0, 0, 0, 0)" original-background-image="none" original-color="rgb(129, 138, 145)" original-box-shadow="none" original-text-shadow="none" original-font-family="My_Samsung_Sans" original-letter-spacing="0" original-line-height="50px"></stop><stop offset="1" stop-color="#7AB6FF" original-font-size="50px" original-border-color="rgb(129, 138, 145)" original-background-color="rgba(0, 0, 0, 0)" original-background-image="none" original-color="rgb(129, 138, 145)" original-box-shadow="none" original-text-shadow="none" original-font-family="My_Samsung_Sans" original-letter-spacing="0" original-line-height="50px"></stop></radialGradient><radialGradient id="paint8_radial" cx="0" cy="0" r="1" gradientUnits="userSpaceOnUse" gradientTransform="translate(46.4159 39.4376) rotate(-129.583) scale(17.5641 96.9511)" original-font-size="50px" original-border-color="rgb(129, 138, 145)" original-background-color="rgba(0, 0, 0, 0)" original-background-image="none" original-color="rgb(129, 138, 145)" original-box-shadow="none" original-text-shadow="none" original-font-family="My_Samsung_Sans" original-letter-spacing="0" original-line-height="50px"><stop stop-color="#B57EFE" original-font-size="50px" original-border-color="rgb(129, 138, 145)" original-background-color="rgba(0, 0, 0, 0)" original-background-image="none" original-color="rgb(129, 138, 145)" original-box-shadow="none" original-text-shadow="none" original-font-family="My_Samsung_Sans" original-letter-spacing="0" original-line-height="50px"></stop><stop offset="0.760417" stop-color="#68C5FE" original-font-size="50px" original-border-color="rgb(129, 138, 145)" original-background-color="rgba(0, 0, 0, 0)" original-background-image="none" original-color="rgb(129, 138, 145)" original-box-shadow="none" original-text-shadow="none" original-font-family="My_Samsung_Sans" original-letter-spacing="0" original-line-height="50px"></stop><stop offset="1" stop-color="#7AB6FF" original-font-size="50px" original-border-color="rgb(129, 138, 145)" original-background-color="rgba(0, 0, 0, 0)" original-background-image="none" original-color="rgb(129, 138, 145)" original-box-shadow="none" original-text-shadow="none" original-font-family="My_Samsung_Sans" original-letter-spacing="0" original-line-height="50px"></stop></radialGradient><radialGradient id="paint9_radial" cx="0" cy="0" r="1" gradientUnits="userSpaceOnUse" gradientTransform="translate(32.1195 41.2422) rotate(-133.655) scale(20.627 115.796)" original-font-size="50px" original-border-color="rgb(129, 138, 145)" original-background-color="rgba(0, 0, 0, 0)" original-background-image="none" original-color="rgb(129, 138, 145)" original-box-shadow="none" original-text-shadow="none" original-font-family="My_Samsung_Sans" original-letter-spacing="0" original-line-height="50px"><stop stop-color="#B57EFE" original-font-size="50px" original-border-color="rgb(129, 138, 145)" original-background-color="rgba(0, 0, 0, 0)" original-background-image="none" original-color="rgb(129, 138, 145)" original-box-shadow="none" original-text-shadow="none" original-font-family="My_Samsung_Sans" original-letter-spacing="0" original-line-height="50px"></stop><stop offset="0.760417" stop-color="#68C5FE" original-font-size="50px" original-border-color="rgb(129, 138, 145)" original-background-color="rgba(0, 0, 0, 0)" original-background-image="none" original-color="rgb(129, 138, 145)" original-box-shadow="none" original-text-shadow="none" original-font-family="My_Samsung_Sans" original-letter-spacing="0" original-line-height="50px"></stop><stop offset="1" stop-color="#7AB6FF" original-font-size="50px" original-border-color="rgb(129, 138, 145)" original-background-color="rgba(0, 0, 0, 0)" original-background-image="none" original-color="rgb(129, 138, 145)" original-box-shadow="none" original-text-shadow="none" original-font-family="My_Samsung_Sans" original-letter-spacing="0" original-line-height="50px"></stop></radialGradient><radialGradient id="paint10_radial" cx="0" cy="0" r="1" gradientUnits="userSpaceOnUse" gradientTransform="translate(27.5812 36.3616) rotate(-134.999) scale(7.30067 41.0298)" original-font-size="50px" original-border-color="rgb(129, 138, 145)" original-background-color="rgba(0, 0, 0, 0)" original-background-image="none" original-color="rgb(129, 138, 145)" original-box-shadow="none" original-text-shadow="none" original-font-family="My_Samsung_Sans" original-letter-spacing="0" original-line-height="50px"><stop stop-color="#B57EFE" original-font-size="50px" original-border-color="rgb(129, 138, 145)" original-background-color="rgba(0, 0, 0, 0)" original-background-image="none" original-color="rgb(129, 138, 145)" original-box-shadow="none" original-text-shadow="none" original-font-family="My_Samsung_Sans" original-letter-spacing="0" original-line-height="50px"></stop><stop offset="0.760417" stop-color="#68C5FE" original-font-size="50px" original-border-color="rgb(129, 138, 145)" original-background-color="rgba(0, 0, 0, 0)" original-background-image="none" original-color="rgb(129, 138, 145)" original-box-shadow="none" original-text-shadow="none" original-font-family="My_Samsung_Sans" original-letter-spacing="0" original-line-height="50px"></stop><stop offset="1" stop-color="#7AB6FF" original-font-size="50px" original-border-color="rgb(129, 138, 145)" original-background-color="rgba(0, 0, 0, 0)" original-background-image="none" original-color="rgb(129, 138, 145)" original-box-shadow="none" original-text-shadow="none" original-font-family="My_Samsung_Sans" original-letter-spacing="0" original-line-height="50px"></stop></radialGradient></defs></svg>