<svg xmlns="http://www.w3.org/2000/svg" width="50" height="50" viewBox="0 0 50 50" fill="none" original-font-size="50px" original-border-color="rgb(129, 138, 145)" original-background-color="rgba(0, 0, 0, 0)" original-background-image="none" original-color="rgb(129, 138, 145)" original-box-shadow="none" original-text-shadow="none" original-font-family="My_Samsung_Sans" original-letter-spacing="0" original-line-height="50px"><path d="M0.732422 12.5271C1.13691 12.5271 1.46484 12.1992 1.46484 11.7946V7.90547C1.46484 7.20937 2.03115 6.64307 2.72725 6.64307H38.5075C39.2036 6.64307 39.77 7.20937 39.77 7.90547V10.232C39.77 10.6366 40.0979 10.9645 40.5024 10.9645C40.907 10.9645 41.2349 10.6366 41.2349 10.232V7.90547C41.2349 6.40176 40.0114 5.17822 38.5075 5.17822H2.72725C1.22344 5.17822 0 6.40176 0 7.90547V11.7946C0 12.1992 0.32793 12.5271 0.732422 12.5271Z" fill="url(#paint0_radial)" original-font-size="50px" original-border-color="rgb(129, 138, 145)" original-background-color="rgba(0, 0, 0, 0)" original-background-image="none" original-color="rgb(129, 138, 145)" original-box-shadow="none" original-text-shadow="none" original-font-family="My_Samsung_Sans" original-letter-spacing="0" original-line-height="50px"></path><path d="M39.2925 35.3811C39.0675 35.5601 38.7961 35.6547 38.5075 35.6547H23.9879H17.247H2.72734C2.20527 35.6547 1.75615 35.3361 1.56426 34.8832C1.50029 34.7322 1.46484 34.5663 1.46484 34.3923V32.5324H29.8962C30.3008 32.5324 30.6286 32.2046 30.6286 31.8C30.6286 31.3954 30.3008 31.0676 29.8962 31.0676H1.46484V14.7241C1.46484 14.3195 1.13691 13.9917 0.732422 13.9917C0.32793 13.9917 0 14.3195 0 14.7241V31.7999V34.3922C0 34.8621 0.119434 35.3047 0.329688 35.691C0.79209 36.5411 1.69346 37.1193 2.72734 37.1193H16.3098L15.4049 40.753H12.9875C11.7718 40.753 10.7826 41.7421 10.7826 42.9578V44.0893C10.7826 44.4938 11.1105 44.8217 11.515 44.8217H23.5354C23.9398 44.8217 24.2678 44.4938 24.2678 44.0893C24.2678 43.6847 23.9398 43.3568 23.5354 43.3568H12.2475V42.9578C12.2475 42.5498 12.5794 42.2179 12.9875 42.2179H15.9772H25.2576H28.2474C28.6555 42.2179 28.9874 42.5498 28.9874 42.9578V43.3568H26.4648C26.0603 43.3568 25.7324 43.6847 25.7324 44.0893C25.7324 44.4938 26.0603 44.8217 26.4648 44.8217H29.7198C30.1244 44.8217 30.4522 44.4938 30.4522 44.0893V42.958C30.4522 41.7423 29.4631 40.7532 28.2474 40.7532H25.83L24.9251 37.1195H38.5075C39.122 37.1195 39.7247 36.9092 40.2046 36.5272C40.5211 36.2754 40.5734 35.8146 40.3216 35.4981C40.0698 35.1814 39.609 35.1291 39.2925 35.3811ZM24.3204 40.7532H16.9145L17.8194 37.1195H23.4156L24.3204 40.7532Z" fill="url(#paint1_radial)" original-font-size="50px" original-border-color="rgb(129, 138, 145)" original-background-color="rgba(0, 0, 0, 0)" original-background-image="none" original-color="rgb(129, 138, 145)" original-box-shadow="none" original-text-shadow="none" original-font-family="My_Samsung_Sans" original-letter-spacing="0" original-line-height="50px"></path><path d="M28.5142 13.2596V11.0302C28.5142 10.6256 28.1863 10.2978 27.7817 10.2978H7.15137V9.95068C7.15137 9.54609 6.82344 9.21826 6.41894 9.21826C6.01445 9.21826 5.68652 9.54609 5.68652 9.95068V11.0302V13.2596V14.339C5.68652 14.7435 6.01445 15.0714 6.41894 15.0714C6.82344 15.0714 7.15137 14.7435 7.15137 14.339V13.992H27.7817C28.1863 13.992 28.5142 13.6642 28.5142 13.2596ZM27.0493 12.5271H7.15137V11.7626H27.0493V12.5271Z" fill="url(#paint2_radial)" original-font-size="50px" original-border-color="rgb(129, 138, 145)" original-background-color="rgba(0, 0, 0, 0)" original-background-image="none" original-color="rgb(129, 138, 145)" original-box-shadow="none" original-text-shadow="none" original-font-family="My_Samsung_Sans" original-letter-spacing="0" original-line-height="50px"></path><path d="M6.41894 16.2998C6.01445 16.2998 5.68652 16.6276 5.68652 17.0322V18.1117V20.341V21.4205C5.68652 21.8251 6.01445 22.1529 6.41894 22.1529C6.82344 22.1529 7.15137 21.8251 7.15137 21.4205V21.0734H19.5738C19.9783 21.0734 20.3062 20.7456 20.3062 20.341V18.1117C20.3062 17.7071 19.9783 17.3793 19.5738 17.3793H7.15137V17.0322C7.15137 16.6277 6.82353 16.2998 6.41894 16.2998ZM18.8415 18.8441V19.6086H7.15137V18.8441H18.8415Z" fill="url(#paint3_radial)" original-font-size="50px" original-border-color="rgb(129, 138, 145)" original-background-color="rgba(0, 0, 0, 0)" original-background-image="none" original-color="rgb(129, 138, 145)" original-box-shadow="none" original-text-shadow="none" original-font-family="My_Samsung_Sans" original-letter-spacing="0" original-line-height="50px"></path><path d="M5.68652 25.1932V27.4226V28.5021C5.68652 28.9066 6.01445 29.2345 6.41894 29.2345C6.82344 29.2345 7.15137 28.9066 7.15137 28.5021V28.155H24.1962C24.6007 28.155 24.9286 27.8271 24.9286 27.4226V25.1932C24.9286 24.7886 24.6007 24.4607 24.1962 24.4607H7.15137V24.1138C7.15137 23.7092 6.82344 23.3813 6.41894 23.3813C6.01445 23.3813 5.68652 23.7092 5.68652 24.1138V25.1932ZM23.4638 25.9256V26.6901H7.15137V25.9256H23.4638Z" fill="url(#paint4_radial)" original-font-size="50px" original-border-color="rgb(129, 138, 145)" original-background-color="rgba(0, 0, 0, 0)" original-background-image="none" original-color="rgb(129, 138, 145)" original-box-shadow="none" original-text-shadow="none" original-font-family="My_Samsung_Sans" original-letter-spacing="0" original-line-height="50px"></path><path d="M39.1783 12.2544C33.2111 12.2544 28.3564 17.1091 28.3564 23.0763C28.3564 29.0435 33.2111 33.8981 39.1783 33.8981C45.1455 33.8981 50.0002 29.0436 50.0002 23.0764C50.0002 17.1092 45.1455 12.2544 39.1783 12.2544ZM39.1783 32.4334C34.0188 32.4334 29.8213 28.2358 29.8213 23.0764C29.8213 17.9169 34.0188 13.7193 39.1783 13.7193C44.3378 13.7193 48.5354 17.9169 48.5354 23.0764C48.5354 28.2358 44.3378 32.4334 39.1783 32.4334Z" fill="url(#paint5_radial)" original-font-size="50px" original-border-color="rgb(129, 138, 145)" original-background-color="rgba(0, 0, 0, 0)" original-background-image="none" original-color="rgb(129, 138, 145)" original-box-shadow="none" original-text-shadow="none" original-font-family="My_Samsung_Sans" original-letter-spacing="0" original-line-height="50px"></path><path d="M47.2444 22.7643C45.7793 19.6541 42.6131 17.6445 39.1781 17.6445C35.7431 17.6445 32.5769 19.6541 31.1118 22.7643C31.0187 22.9619 31.0187 23.1908 31.1118 23.3886C32.5769 26.4987 35.7431 28.5083 39.1781 28.5083C42.6131 28.5083 45.7793 26.4987 47.2444 23.3886C47.3375 23.1908 47.3375 22.9619 47.2444 22.7643ZM39.1782 26.1835C37.6828 26.1835 36.4307 25.1216 36.1365 23.7123C36.214 23.7195 36.2923 23.7231 36.3709 23.7231C37.7474 23.7231 38.8673 22.6032 38.8673 21.2268C38.8673 20.7995 38.7602 20.3906 38.5635 20.0307C38.7651 19.9899 38.9712 19.9691 39.1782 19.9691C40.8915 19.9691 42.2853 21.363 42.2853 23.0763C42.2853 24.7896 40.8915 26.1835 39.1782 26.1835ZM32.5932 23.0764C33.4575 21.4462 34.8951 20.2138 36.5825 19.5819C36.5737 19.6247 36.5674 19.6683 36.5664 19.7129C36.5607 19.9718 36.6924 20.2145 36.9125 20.351C37.2193 20.5413 37.4025 20.8688 37.4025 21.2269C37.4025 21.7957 36.9398 22.2584 36.371 22.2584C36.1592 22.2584 35.9551 22.1938 35.7807 22.0715C35.5682 21.9226 35.2929 21.8971 35.0567 22.0045C34.8206 22.112 34.659 22.3364 34.6317 22.5944C34.6148 22.7552 34.6062 22.9173 34.6062 23.0764C34.6062 24.3287 35.1127 25.4647 35.9311 26.2913C34.5273 25.6082 33.3439 24.4923 32.5932 23.0764ZM42.4253 26.2912C43.2437 25.4646 43.7502 24.3286 43.7502 23.0763C43.7502 21.8239 43.2437 20.6879 42.4253 19.8613C43.829 20.5444 45.0124 21.6603 45.7631 23.0763C45.0124 24.4923 43.829 25.6082 42.4253 26.2912Z" fill="url(#paint6_radial)" original-font-size="50px" original-border-color="rgb(129, 138, 145)" original-background-color="rgba(0, 0, 0, 0)" original-background-image="none" original-color="rgb(129, 138, 145)" original-box-shadow="none" original-text-shadow="none" original-font-family="My_Samsung_Sans" original-letter-spacing="0" original-line-height="50px"></path><defs original-font-size="50px" original-border-color="rgb(129, 138, 145)" original-background-color="rgba(0, 0, 0, 0)" original-background-image="none" original-color="rgb(129, 138, 145)" original-box-shadow="none" original-text-shadow="none" original-font-family="My_Samsung_Sans" original-letter-spacing="0" original-line-height="50px"><radialGradient id="paint0_radial" cx="0" cy="0" r="1" gradientUnits="userSpaceOnUse" gradientTransform="translate(41.2349 12.5271) rotate(-169.895) scale(41.8846 81.3195)" original-font-size="50px" original-border-color="rgb(129, 138, 145)" original-background-color="rgba(0, 0, 0, 0)" original-background-image="none" original-color="rgb(129, 138, 145)" original-box-shadow="none" original-text-shadow="none" original-font-family="My_Samsung_Sans" original-letter-spacing="0" original-line-height="50px"><stop stop-color="#B57EFE" original-font-size="50px" original-border-color="rgb(129, 138, 145)" original-background-color="rgba(0, 0, 0, 0)" original-background-image="none" original-color="rgb(129, 138, 145)" original-box-shadow="none" original-text-shadow="none" original-font-family="My_Samsung_Sans" original-letter-spacing="0" original-line-height="50px"></stop><stop offset="0.760417" stop-color="#68C5FE" original-font-size="50px" original-border-color="rgb(129, 138, 145)" original-background-color="rgba(0, 0, 0, 0)" original-background-image="none" original-color="rgb(129, 138, 145)" original-box-shadow="none" original-text-shadow="none" original-font-family="My_Samsung_Sans" original-letter-spacing="0" original-line-height="50px"></stop><stop offset="1" stop-color="#7AB6FF" original-font-size="50px" original-border-color="rgb(129, 138, 145)" original-background-color="rgba(0, 0, 0, 0)" original-background-image="none" original-color="rgb(129, 138, 145)" original-box-shadow="none" original-text-shadow="none" original-font-family="My_Samsung_Sans" original-letter-spacing="0" original-line-height="50px"></stop></radialGradient><radialGradient id="paint1_radial" cx="0" cy="0" r="1" gradientUnits="userSpaceOnUse" gradientTransform="translate(40.4809 44.8217) rotate(-142.707) scale(50.8841 275.682)" original-font-size="50px" original-border-color="rgb(129, 138, 145)" original-background-color="rgba(0, 0, 0, 0)" original-background-image="none" original-color="rgb(129, 138, 145)" original-box-shadow="none" original-text-shadow="none" original-font-family="My_Samsung_Sans" original-letter-spacing="0" original-line-height="50px"><stop stop-color="#B57EFE" original-font-size="50px" original-border-color="rgb(129, 138, 145)" original-background-color="rgba(0, 0, 0, 0)" original-background-image="none" original-color="rgb(129, 138, 145)" original-box-shadow="none" original-text-shadow="none" original-font-family="My_Samsung_Sans" original-letter-spacing="0" original-line-height="50px"></stop><stop offset="0.760417" stop-color="#68C5FE" original-font-size="50px" original-border-color="rgb(129, 138, 145)" original-background-color="rgba(0, 0, 0, 0)" original-background-image="none" original-color="rgb(129, 138, 145)" original-box-shadow="none" original-text-shadow="none" original-font-family="My_Samsung_Sans" original-letter-spacing="0" original-line-height="50px"></stop><stop offset="1" stop-color="#7AB6FF" original-font-size="50px" original-border-color="rgb(129, 138, 145)" original-background-color="rgba(0, 0, 0, 0)" original-background-image="none" original-color="rgb(129, 138, 145)" original-box-shadow="none" original-text-shadow="none" original-font-family="My_Samsung_Sans" original-letter-spacing="0" original-line-height="50px"></stop></radialGradient><radialGradient id="paint2_radial" cx="0" cy="0" r="1" gradientUnits="userSpaceOnUse" gradientTransform="translate(28.5142 15.0714) rotate(-165.619) scale(23.5661 63.7276)" original-font-size="50px" original-border-color="rgb(129, 138, 145)" original-background-color="rgba(0, 0, 0, 0)" original-background-image="none" original-color="rgb(129, 138, 145)" original-box-shadow="none" original-text-shadow="none" original-font-family="My_Samsung_Sans" original-letter-spacing="0" original-line-height="50px"><stop stop-color="#B57EFE" original-font-size="50px" original-border-color="rgb(129, 138, 145)" original-background-color="rgba(0, 0, 0, 0)" original-background-image="none" original-color="rgb(129, 138, 145)" original-box-shadow="none" original-text-shadow="none" original-font-family="My_Samsung_Sans" original-letter-spacing="0" original-line-height="50px"></stop><stop offset="0.760417" stop-color="#68C5FE" original-font-size="50px" original-border-color="rgb(129, 138, 145)" original-background-color="rgba(0, 0, 0, 0)" original-background-image="none" original-color="rgb(129, 138, 145)" original-box-shadow="none" original-text-shadow="none" original-font-family="My_Samsung_Sans" original-letter-spacing="0" original-line-height="50px"></stop><stop offset="1" stop-color="#7AB6FF" original-font-size="50px" original-border-color="rgb(129, 138, 145)" original-background-color="rgba(0, 0, 0, 0)" original-background-image="none" original-color="rgb(129, 138, 145)" original-box-shadow="none" original-text-shadow="none" original-font-family="My_Samsung_Sans" original-letter-spacing="0" original-line-height="50px"></stop></radialGradient><radialGradient id="paint3_radial" cx="0" cy="0" r="1" gradientUnits="userSpaceOnUse" gradientTransform="translate(20.3062 22.1529) rotate(-158.181) scale(15.7479 61.0761)" original-font-size="50px" original-border-color="rgb(129, 138, 145)" original-background-color="rgba(0, 0, 0, 0)" original-background-image="none" original-color="rgb(129, 138, 145)" original-box-shadow="none" original-text-shadow="none" original-font-family="My_Samsung_Sans" original-letter-spacing="0" original-line-height="50px"><stop stop-color="#B57EFE" original-font-size="50px" original-border-color="rgb(129, 138, 145)" original-background-color="rgba(0, 0, 0, 0)" original-background-image="none" original-color="rgb(129, 138, 145)" original-box-shadow="none" original-text-shadow="none" original-font-family="My_Samsung_Sans" original-letter-spacing="0" original-line-height="50px"></stop><stop offset="0.760417" stop-color="#68C5FE" original-font-size="50px" original-border-color="rgb(129, 138, 145)" original-background-color="rgba(0, 0, 0, 0)" original-background-image="none" original-color="rgb(129, 138, 145)" original-box-shadow="none" original-text-shadow="none" original-font-family="My_Samsung_Sans" original-letter-spacing="0" original-line-height="50px"></stop><stop offset="1" stop-color="#7AB6FF" original-font-size="50px" original-border-color="rgb(129, 138, 145)" original-background-color="rgba(0, 0, 0, 0)" original-background-image="none" original-color="rgb(129, 138, 145)" original-box-shadow="none" original-text-shadow="none" original-font-family="My_Samsung_Sans" original-letter-spacing="0" original-line-height="50px"></stop></radialGradient><radialGradient id="paint4_radial" cx="0" cy="0" r="1" gradientUnits="userSpaceOnUse" gradientTransform="translate(24.9286 29.2345) rotate(-163.081) scale(20.1126 62.9416)" original-font-size="50px" original-border-color="rgb(129, 138, 145)" original-background-color="rgba(0, 0, 0, 0)" original-background-image="none" original-color="rgb(129, 138, 145)" original-box-shadow="none" original-text-shadow="none" original-font-family="My_Samsung_Sans" original-letter-spacing="0" original-line-height="50px"><stop stop-color="#B57EFE" original-font-size="50px" original-border-color="rgb(129, 138, 145)" original-background-color="rgba(0, 0, 0, 0)" original-background-image="none" original-color="rgb(129, 138, 145)" original-box-shadow="none" original-text-shadow="none" original-font-family="My_Samsung_Sans" original-letter-spacing="0" original-line-height="50px"></stop><stop offset="0.760417" stop-color="#68C5FE" original-font-size="50px" original-border-color="rgb(129, 138, 145)" original-background-color="rgba(0, 0, 0, 0)" original-background-image="none" original-color="rgb(129, 138, 145)" original-box-shadow="none" original-text-shadow="none" original-font-family="My_Samsung_Sans" original-letter-spacing="0" original-line-height="50px"></stop><stop offset="1" stop-color="#7AB6FF" original-font-size="50px" original-border-color="rgb(129, 138, 145)" original-background-color="rgba(0, 0, 0, 0)" original-background-image="none" original-color="rgb(129, 138, 145)" original-box-shadow="none" original-text-shadow="none" original-font-family="My_Samsung_Sans" original-letter-spacing="0" original-line-height="50px"></stop></radialGradient><radialGradient id="paint5_radial" cx="0" cy="0" r="1" gradientUnits="userSpaceOnUse" gradientTransform="translate(50.0002 33.8981) rotate(-135) scale(30.6089 172.022)" original-font-size="50px" original-border-color="rgb(129, 138, 145)" original-background-color="rgba(0, 0, 0, 0)" original-background-image="none" original-color="rgb(129, 138, 145)" original-box-shadow="none" original-text-shadow="none" original-font-family="My_Samsung_Sans" original-letter-spacing="0" original-line-height="50px"><stop stop-color="#B57EFE" original-font-size="50px" original-border-color="rgb(129, 138, 145)" original-background-color="rgba(0, 0, 0, 0)" original-background-image="none" original-color="rgb(129, 138, 145)" original-box-shadow="none" original-text-shadow="none" original-font-family="My_Samsung_Sans" original-letter-spacing="0" original-line-height="50px"></stop><stop offset="0.760417" stop-color="#68C5FE" original-font-size="50px" original-border-color="rgb(129, 138, 145)" original-background-color="rgba(0, 0, 0, 0)" original-background-image="none" original-color="rgb(129, 138, 145)" original-box-shadow="none" original-text-shadow="none" original-font-family="My_Samsung_Sans" original-letter-spacing="0" original-line-height="50px"></stop><stop offset="1" stop-color="#7AB6FF" original-font-size="50px" original-border-color="rgb(129, 138, 145)" original-background-color="rgba(0, 0, 0, 0)" original-background-image="none" original-color="rgb(129, 138, 145)" original-box-shadow="none" original-text-shadow="none" original-font-family="My_Samsung_Sans" original-letter-spacing="0" original-line-height="50px"></stop></radialGradient><radialGradient id="paint6_radial" cx="0" cy="0" r="1" gradientUnits="userSpaceOnUse" gradientTransform="translate(47.3142 28.5083) rotate(-146.272) scale(19.5654 101.556)" original-font-size="50px" original-border-color="rgb(129, 138, 145)" original-background-color="rgba(0, 0, 0, 0)" original-background-image="none" original-color="rgb(129, 138, 145)" original-box-shadow="none" original-text-shadow="none" original-font-family="My_Samsung_Sans" original-letter-spacing="0" original-line-height="50px"><stop stop-color="#B57EFE" original-font-size="50px" original-border-color="rgb(129, 138, 145)" original-background-color="rgba(0, 0, 0, 0)" original-background-image="none" original-color="rgb(129, 138, 145)" original-box-shadow="none" original-text-shadow="none" original-font-family="My_Samsung_Sans" original-letter-spacing="0" original-line-height="50px"></stop><stop offset="0.760417" stop-color="#68C5FE" original-font-size="50px" original-border-color="rgb(129, 138, 145)" original-background-color="rgba(0, 0, 0, 0)" original-background-image="none" original-color="rgb(129, 138, 145)" original-box-shadow="none" original-text-shadow="none" original-font-family="My_Samsung_Sans" original-letter-spacing="0" original-line-height="50px"></stop><stop offset="1" stop-color="#7AB6FF" original-font-size="50px" original-border-color="rgb(129, 138, 145)" original-background-color="rgba(0, 0, 0, 0)" original-background-image="none" original-color="rgb(129, 138, 145)" original-box-shadow="none" original-text-shadow="none" original-font-family="My_Samsung_Sans" original-letter-spacing="0" original-line-height="50px"></stop></radialGradient></defs></svg>