<svg xmlns="http://www.w3.org/2000/svg" width="50" height="50" viewBox="0 0 50 50" fill="none" original-font-size="50px" original-border-color="rgb(129, 138, 145)" original-background-color="rgba(0, 0, 0, 0)" original-background-image="none" original-color="rgb(129, 138, 145)" original-box-shadow="none" original-text-shadow="none" original-font-family="My_Samsung_Sans" original-letter-spacing="0" original-line-height="50px"><path d="M5.34707 14.6113H13.875L10.9812 18.8829C10.7543 19.2178 10.8419 19.6731 11.1768 19.9C11.5117 20.1267 11.9671 20.0393 12.1939 19.7044L15.6443 14.6113H20.4032L28.3524 26.3452C28.494 26.5542 28.7247 26.6669 28.9595 26.6669C29.1009 26.6669 29.2437 26.626 29.3696 26.5407C29.7045 26.3139 29.7921 25.8585 29.5652 25.5236L21.6794 13.8834L26.3915 7.07705C27.0312 6.15303 27.1045 4.96074 26.5829 3.96533C26.0613 2.96992 25.0393 2.35156 23.9155 2.35156H12.132C11.0082 2.35156 9.98613 2.96992 9.46455 3.96533C8.94297 4.96074 9.01631 6.15303 9.65596 7.07715L12.748 11.5434L6.51016 7.85117C6.16201 7.64521 5.71289 7.76035 5.50684 8.1084C5.30078 8.45644 5.41592 8.90576 5.76406 9.11171L12.5806 13.1464H5.34717C4.94268 13.1464 4.61475 13.4742 4.61475 13.8788C4.61475 14.2834 4.94258 14.6113 5.34707 14.6113ZM10.7621 4.64521C11.0341 4.12627 11.5462 3.81641 12.132 3.81641H23.9154C24.5014 3.81641 25.0135 4.12627 25.2854 4.64521C25.5573 5.16406 25.5205 5.76162 25.187 6.24326L20.4079 13.1464H15.6396L10.8604 6.24326C10.527 5.76162 10.4901 5.16416 10.7621 4.64521Z" fill="url(#paint0_radial)" original-font-size="50px" original-border-color="rgb(129, 138, 145)" original-background-color="rgba(0, 0, 0, 0)" original-background-image="none" original-color="rgb(129, 138, 145)" original-box-shadow="none" original-text-shadow="none" original-font-family="My_Samsung_Sans" original-letter-spacing="0" original-line-height="50px"></path><path d="M38.387 24.4226C31.9836 24.4226 26.774 29.6321 26.774 36.0356C26.774 39.5716 28.3632 42.7431 30.8642 44.8748C29.5529 45.7228 28.0128 46.1836 26.4395 46.1836H9.6084C7.43301 46.1836 5.38799 45.3365 3.8499 43.7984C2.31191 42.2605 1.46484 40.2154 1.46484 38.04C1.46484 36.4056 1.94941 34.8264 2.86611 33.4732L10.5341 22.155C10.7609 21.82 10.6734 21.3647 10.3386 21.1378C10.0037 20.911 9.54824 20.9984 9.32139 21.3333L1.65342 32.6516C0.57168 34.2482 0 36.1114 0 38.04C0 40.6066 0.999414 43.0195 2.81416 44.8343C4.62881 46.6489 7.0418 47.6483 9.6084 47.6483H26.4395C28.4768 47.6483 30.4673 46.9938 32.105 45.7983C33.9172 46.9684 36.0741 47.6483 38.387 47.6483C44.7904 47.6484 50 42.4389 50 36.0356C50 29.6321 44.7904 24.4226 38.387 24.4226ZM38.387 46.1836C32.7913 46.1836 28.2389 41.6313 28.2389 36.0356C28.2389 30.4399 32.7913 25.8874 38.387 25.8874C43.9827 25.8874 48.5352 30.4399 48.5352 36.0356C48.5352 41.6313 43.9827 46.1836 38.387 46.1836Z" fill="url(#paint1_radial)" original-font-size="50px" original-border-color="rgb(129, 138, 145)" original-background-color="rgba(0, 0, 0, 0)" original-background-image="none" original-color="rgb(129, 138, 145)" original-box-shadow="none" original-text-shadow="none" original-font-family="My_Samsung_Sans" original-letter-spacing="0" original-line-height="50px"></path><path d="M45.9057 31.9366C45.7117 31.5816 45.2668 31.4511 44.9118 31.645C44.5568 31.8389 44.4262 32.2839 44.6201 32.639C45.1853 33.6736 45.484 34.848 45.484 36.0354C45.484 39.9487 42.3003 43.1324 38.387 43.1324C34.4737 43.1324 31.29 39.9487 31.29 36.0354C31.29 32.1222 34.4737 28.9385 38.387 28.9385C40.0451 28.9385 41.6582 29.5223 42.9292 30.5821C43.2398 30.8412 43.7018 30.7993 43.9607 30.4888C44.2198 30.178 44.178 29.7162 43.8674 29.4572C42.3336 28.1781 40.3873 27.4736 38.387 27.4736C33.666 27.4736 29.8252 31.3145 29.8252 36.0354C29.8252 40.7564 33.666 44.5973 38.387 44.5973C43.108 44.5973 46.9488 40.7564 46.9488 36.0354C46.9488 34.6034 46.5882 33.186 45.9057 31.9366Z" fill="url(#paint2_radial)" original-font-size="50px" original-border-color="rgb(129, 138, 145)" original-background-color="rgba(0, 0, 0, 0)" original-background-image="none" original-color="rgb(129, 138, 145)" original-box-shadow="none" original-text-shadow="none" original-font-family="My_Samsung_Sans" original-letter-spacing="0" original-line-height="50px"></path><path d="M38.3869 41.6899C38.7914 41.6899 39.1193 41.3621 39.1193 40.9575V40.1932H39.359C40.7072 40.1932 41.8041 39.0963 41.8041 37.748C41.8041 36.3998 40.7072 35.303 39.359 35.303H37.4148C36.8743 35.303 36.4346 34.8633 36.4346 34.3228C36.4346 33.7822 36.8743 33.3425 37.4148 33.3425H40.2656C40.6701 33.3425 40.998 33.0146 40.998 32.6101C40.998 32.2055 40.6701 31.8776 40.2656 31.8776H39.1193V31.1133C39.1193 30.7087 38.7914 30.3809 38.3869 30.3809C37.9824 30.3809 37.6545 30.7087 37.6545 31.1133V31.8776H37.4148C36.0666 31.8776 34.9697 32.9745 34.9697 34.3228C34.9697 35.671 36.0666 36.7679 37.4148 36.7679H39.359C39.8995 36.7679 40.3393 37.2076 40.3393 37.748C40.3393 38.2886 39.8995 38.7283 39.359 38.7283H36.5082C36.1037 38.7283 35.7758 39.0561 35.7758 39.4607C35.7758 39.8653 36.1037 40.1932 36.5082 40.1932H37.6546V40.9575C37.6545 41.3621 37.9824 41.6899 38.3869 41.6899Z" fill="url(#paint3_radial)" original-font-size="50px" original-border-color="rgb(129, 138, 145)" original-background-color="rgba(0, 0, 0, 0)" original-background-image="none" original-color="rgb(129, 138, 145)" original-box-shadow="none" original-text-shadow="none" original-font-family="My_Samsung_Sans" original-letter-spacing="0" original-line-height="50px"></path><defs original-font-size="50px" original-border-color="rgb(129, 138, 145)" original-background-color="rgba(0, 0, 0, 0)" original-background-image="none" original-color="rgb(129, 138, 145)" original-box-shadow="none" original-text-shadow="none" original-font-family="My_Samsung_Sans" original-letter-spacing="0" original-line-height="50px"><radialGradient id="paint0_radial" cx="0" cy="0" r="1" gradientUnits="userSpaceOnUse" gradientTransform="translate(29.6913 26.6669) rotate(-135.883) scale(34.9295 196.211)" original-font-size="50px" original-border-color="rgb(129, 138, 145)" original-background-color="rgba(0, 0, 0, 0)" original-background-image="none" original-color="rgb(129, 138, 145)" original-box-shadow="none" original-text-shadow="none" original-font-family="My_Samsung_Sans" original-letter-spacing="0" original-line-height="50px"><stop stop-color="#B57EFE" original-font-size="50px" original-border-color="rgb(129, 138, 145)" original-background-color="rgba(0, 0, 0, 0)" original-background-image="none" original-color="rgb(129, 138, 145)" original-box-shadow="none" original-text-shadow="none" original-font-family="My_Samsung_Sans" original-letter-spacing="0" original-line-height="50px"></stop><stop offset="0.760417" stop-color="#68C5FE" original-font-size="50px" original-border-color="rgb(129, 138, 145)" original-background-color="rgba(0, 0, 0, 0)" original-background-image="none" original-color="rgb(129, 138, 145)" original-box-shadow="none" original-text-shadow="none" original-font-family="My_Samsung_Sans" original-letter-spacing="0" original-line-height="50px"></stop><stop offset="1" stop-color="#7AB6FF" original-font-size="50px" original-border-color="rgb(129, 138, 145)" original-background-color="rgba(0, 0, 0, 0)" original-background-image="none" original-color="rgb(129, 138, 145)" original-box-shadow="none" original-text-shadow="none" original-font-family="My_Samsung_Sans" original-letter-spacing="0" original-line-height="50px"></stop></radialGradient><radialGradient id="paint1_radial" cx="0" cy="0" r="1" gradientUnits="userSpaceOnUse" gradientTransform="translate(50 47.6483) rotate(-151.954) scale(56.6525 264.239)" original-font-size="50px" original-border-color="rgb(129, 138, 145)" original-background-color="rgba(0, 0, 0, 0)" original-background-image="none" original-color="rgb(129, 138, 145)" original-box-shadow="none" original-text-shadow="none" original-font-family="My_Samsung_Sans" original-letter-spacing="0" original-line-height="50px"><stop stop-color="#B57EFE" original-font-size="50px" original-border-color="rgb(129, 138, 145)" original-background-color="rgba(0, 0, 0, 0)" original-background-image="none" original-color="rgb(129, 138, 145)" original-box-shadow="none" original-text-shadow="none" original-font-family="My_Samsung_Sans" original-letter-spacing="0" original-line-height="50px"></stop><stop offset="0.760417" stop-color="#68C5FE" original-font-size="50px" original-border-color="rgb(129, 138, 145)" original-background-color="rgba(0, 0, 0, 0)" original-background-image="none" original-color="rgb(129, 138, 145)" original-box-shadow="none" original-text-shadow="none" original-font-family="My_Samsung_Sans" original-letter-spacing="0" original-line-height="50px"></stop><stop offset="1" stop-color="#7AB6FF" original-font-size="50px" original-border-color="rgb(129, 138, 145)" original-background-color="rgba(0, 0, 0, 0)" original-background-image="none" original-color="rgb(129, 138, 145)" original-box-shadow="none" original-text-shadow="none" original-font-family="My_Samsung_Sans" original-letter-spacing="0" original-line-height="50px"></stop></radialGradient><radialGradient id="paint2_radial" cx="0" cy="0" r="1" gradientUnits="userSpaceOnUse" gradientTransform="translate(46.9488 44.5973) rotate(-135) scale(24.2165 136.097)" original-font-size="50px" original-border-color="rgb(129, 138, 145)" original-background-color="rgba(0, 0, 0, 0)" original-background-image="none" original-color="rgb(129, 138, 145)" original-box-shadow="none" original-text-shadow="none" original-font-family="My_Samsung_Sans" original-letter-spacing="0" original-line-height="50px"><stop stop-color="#B57EFE" original-font-size="50px" original-border-color="rgb(129, 138, 145)" original-background-color="rgba(0, 0, 0, 0)" original-background-image="none" original-color="rgb(129, 138, 145)" original-box-shadow="none" original-text-shadow="none" original-font-family="My_Samsung_Sans" original-letter-spacing="0" original-line-height="50px"></stop><stop offset="0.760417" stop-color="#68C5FE" original-font-size="50px" original-border-color="rgb(129, 138, 145)" original-background-color="rgba(0, 0, 0, 0)" original-background-image="none" original-color="rgb(129, 138, 145)" original-box-shadow="none" original-text-shadow="none" original-font-family="My_Samsung_Sans" original-letter-spacing="0" original-line-height="50px"></stop><stop offset="1" stop-color="#7AB6FF" original-font-size="50px" original-border-color="rgb(129, 138, 145)" original-background-color="rgba(0, 0, 0, 0)" original-background-image="none" original-color="rgb(129, 138, 145)" original-box-shadow="none" original-text-shadow="none" original-font-family="My_Samsung_Sans" original-letter-spacing="0" original-line-height="50px"></stop></radialGradient><radialGradient id="paint3_radial" cx="0" cy="0" r="1" gradientUnits="userSpaceOnUse" gradientTransform="translate(41.8041 41.6899) rotate(-121.146) scale(13.2138 65.7454)" original-font-size="50px" original-border-color="rgb(129, 138, 145)" original-background-color="rgba(0, 0, 0, 0)" original-background-image="none" original-color="rgb(129, 138, 145)" original-box-shadow="none" original-text-shadow="none" original-font-family="My_Samsung_Sans" original-letter-spacing="0" original-line-height="50px"><stop stop-color="#B57EFE" original-font-size="50px" original-border-color="rgb(129, 138, 145)" original-background-color="rgba(0, 0, 0, 0)" original-background-image="none" original-color="rgb(129, 138, 145)" original-box-shadow="none" original-text-shadow="none" original-font-family="My_Samsung_Sans" original-letter-spacing="0" original-line-height="50px"></stop><stop offset="0.760417" stop-color="#68C5FE" original-font-size="50px" original-border-color="rgb(129, 138, 145)" original-background-color="rgba(0, 0, 0, 0)" original-background-image="none" original-color="rgb(129, 138, 145)" original-box-shadow="none" original-text-shadow="none" original-font-family="My_Samsung_Sans" original-letter-spacing="0" original-line-height="50px"></stop><stop offset="1" stop-color="#7AB6FF" original-font-size="50px" original-border-color="rgb(129, 138, 145)" original-background-color="rgba(0, 0, 0, 0)" original-background-image="none" original-color="rgb(129, 138, 145)" original-box-shadow="none" original-text-shadow="none" original-font-family="My_Samsung_Sans" original-letter-spacing="0" original-line-height="50px"></stop></radialGradient></defs></svg>