<svg xmlns="http://www.w3.org/2000/svg" width="50" height="50" viewBox="0 0 50 50" fill="none" original-font-size="50px" original-border-color="rgb(129, 138, 145)" original-background-color="rgba(0, 0, 0, 0)" original-background-image="none" original-color="rgb(129, 138, 145)" original-box-shadow="none" original-text-shadow="none" original-font-family="My_Samsung_Sans" original-letter-spacing="0" original-line-height="50px"><path d="M43.0836 12.0829L42.0938 7.03135H38.8164C34.2305 7.03135 29.7828 5.39307 26.2922 2.41885L24.9734 1.29541L24.4641 1.7751C20.8672 5.16494 16.1641 7.03135 11.2219 7.03135H7.90625L6.91406 12.0946C6.41172 14.8845 3.90625 29.0392 3.90625 33.7892C3.90625 39.5446 8.94453 44.1423 19.7625 48.2595C21.4328 48.8962 23.1945 49.2188 25 49.2188C26.8047 49.2188 28.5656 48.8962 30.2344 48.2603C41.0539 44.1431 46.0938 39.5446 46.0938 33.7892C46.0938 29.0392 43.5883 14.8845 43.0836 12.0829ZM29.6781 46.8001C26.6977 47.936 23.3031 47.9368 20.3188 46.7993C10.1875 42.9439 5.46875 38.8095 5.46875 33.7892C5.46875 29.172 7.95391 15.1384 8.44922 12.3837L9.19219 8.59385H11.2219C16.3297 8.59385 21.2008 6.74932 25.0172 3.38525L25.2789 3.60791C29.0516 6.82275 33.8594 8.59385 38.8164 8.59385H40.8078L41.5484 12.372C42.0461 15.1384 44.5312 29.172 44.5312 33.7892C44.5312 38.8095 39.8117 42.9439 29.6781 46.8001Z" fill="url(#paint0_radial)" original-font-size="50px" original-border-color="rgb(129, 138, 145)" original-background-color="rgba(0, 0, 0, 0)" original-background-image="none" original-color="rgb(129, 138, 145)" original-box-shadow="none" original-text-shadow="none" original-font-family="My_Samsung_Sans" original-letter-spacing="0" original-line-height="50px"></path><path d="M16.7971 17.1875L11.5049 24.2445L23.1189 38.1813C23.5854 38.7414 24.2713 39.0625 25.0002 39.0625C25.7291 39.0625 26.415 38.7414 26.8814 38.1813L38.4955 24.2445L33.2033 17.1875H16.7971ZM25.0002 35.3625L22.1213 25H27.8783L25.0002 35.3625ZM26.4096 18.75H31.4025L28.9064 22.7445L26.4096 18.75ZM27.4971 23.4375H22.5041L25.0002 19.443L27.4971 23.4375ZM21.0939 22.7445L18.5971 18.75H23.59L21.0939 22.7445ZM19.6846 23.4375H14.0627L17.1291 19.3492L19.6846 23.4375ZM32.8713 19.3492L35.9377 23.4375H30.3158L32.8713 19.3492ZM14.1682 25H20.5002L23.6666 36.3984L14.1682 25ZM26.3338 36.3984L29.5002 25H35.8322L26.3338 36.3984Z" fill="url(#paint1_radial)" original-font-size="50px" original-border-color="rgb(129, 138, 145)" original-background-color="rgba(0, 0, 0, 0)" original-background-image="none" original-color="rgb(129, 138, 145)" original-box-shadow="none" original-text-shadow="none" original-font-family="My_Samsung_Sans" original-letter-spacing="0" original-line-height="50px"></path><defs original-font-size="50px" original-border-color="rgb(129, 138, 145)" original-background-color="rgba(0, 0, 0, 0)" original-background-image="none" original-color="rgb(129, 138, 145)" original-box-shadow="none" original-text-shadow="none" original-font-family="My_Samsung_Sans" original-letter-spacing="0" original-line-height="50px"><radialGradient id="paint0_radial" cx="0" cy="0" r="1" gradientUnits="userSpaceOnUse" gradientTransform="translate(46.0938 49.2188) rotate(-131.358) scale(63.847 355.924)" original-font-size="50px" original-border-color="rgb(129, 138, 145)" original-background-color="rgba(0, 0, 0, 0)" original-background-image="none" original-color="rgb(129, 138, 145)" original-box-shadow="none" original-text-shadow="none" original-font-family="My_Samsung_Sans" original-letter-spacing="0" original-line-height="50px"><stop stop-color="#B57EFE" original-font-size="50px" original-border-color="rgb(129, 138, 145)" original-background-color="rgba(0, 0, 0, 0)" original-background-image="none" original-color="rgb(129, 138, 145)" original-box-shadow="none" original-text-shadow="none" original-font-family="My_Samsung_Sans" original-letter-spacing="0" original-line-height="50px"></stop><stop offset="0.760417" stop-color="#68C5FE" original-font-size="50px" original-border-color="rgb(129, 138, 145)" original-background-color="rgba(0, 0, 0, 0)" original-background-image="none" original-color="rgb(129, 138, 145)" original-box-shadow="none" original-text-shadow="none" original-font-family="My_Samsung_Sans" original-letter-spacing="0" original-line-height="50px"></stop><stop offset="1" stop-color="#7AB6FF" original-font-size="50px" original-border-color="rgb(129, 138, 145)" original-background-color="rgba(0, 0, 0, 0)" original-background-image="none" original-color="rgb(129, 138, 145)" original-box-shadow="none" original-text-shadow="none" original-font-family="My_Samsung_Sans" original-letter-spacing="0" original-line-height="50px"></stop></radialGradient><radialGradient id="paint1_radial" cx="0" cy="0" r="1" gradientUnits="userSpaceOnUse" gradientTransform="translate(38.4955 39.0625) rotate(-140.976) scale(34.742 191.017)" original-font-size="50px" original-border-color="rgb(129, 138, 145)" original-background-color="rgba(0, 0, 0, 0)" original-background-image="none" original-color="rgb(129, 138, 145)" original-box-shadow="none" original-text-shadow="none" original-font-family="My_Samsung_Sans" original-letter-spacing="0" original-line-height="50px"><stop stop-color="#B57EFE" original-font-size="50px" original-border-color="rgb(129, 138, 145)" original-background-color="rgba(0, 0, 0, 0)" original-background-image="none" original-color="rgb(129, 138, 145)" original-box-shadow="none" original-text-shadow="none" original-font-family="My_Samsung_Sans" original-letter-spacing="0" original-line-height="50px"></stop><stop offset="0.760417" stop-color="#68C5FE" original-font-size="50px" original-border-color="rgb(129, 138, 145)" original-background-color="rgba(0, 0, 0, 0)" original-background-image="none" original-color="rgb(129, 138, 145)" original-box-shadow="none" original-text-shadow="none" original-font-family="My_Samsung_Sans" original-letter-spacing="0" original-line-height="50px"></stop><stop offset="1" stop-color="#7AB6FF" original-font-size="50px" original-border-color="rgb(129, 138, 145)" original-background-color="rgba(0, 0, 0, 0)" original-background-image="none" original-color="rgb(129, 138, 145)" original-box-shadow="none" original-text-shadow="none" original-font-family="My_Samsung_Sans" original-letter-spacing="0" original-line-height="50px"></stop></radialGradient></defs></svg>