<svg width="95" height="95" viewBox="0 0 95 95" fill="none" xmlns="http://www.w3.org/2000/svg">
<g clip-path="url(#clip0)">
<rect width="94.5846" height="94.5846" transform="translate(0.0625)" fill="white"/>
<g clip-path="url(#clip1)">
<path d="M94.0689 0.131836H0.28125V93.9199H94.0689V0.131836Z" fill="#D291FF"/>
<path d="M89.9407 4.25781H4.40625V89.7923H89.9407V4.25781Z" fill="#1F0040"/>
<path d="M26.6647 53.3472L23.2782 64.8899C23.2233 65.2875 23.0558 65.4206 22.7233 65.4206H17.062C16.6737 65.4206 16.5625 65.2217 16.6737 64.7568C19.6711 54.6083 24.7219 37.6925 28.2742 26.2164C28.4401 25.5533 28.6069 24.8895 28.718 22.5678C28.718 22.3031 28.8848 22.1699 29.0507 22.1699H36.7106C36.9885 22.1699 37.0432 22.2366 37.1545 22.5018C41.2628 36.1002 45.7577 51.0921 49.9763 64.8235C50.0872 65.2217 49.9763 65.4206 49.6434 65.4206H43.4272C43.1493 65.4206 43.0379 65.2875 42.927 65.0222L39.3746 53.3472H26.6647ZM37.8763 46.8465C36.7664 42.4017 34.0469 33.447 32.9367 28.8033H32.8812C32.0491 33.1818 29.7726 40.6772 28.1076 46.8465H37.8763Z" fill="#D291FF"/>
<path d="M58.5458 50.8529C58.6593 55.8136 61.3186 59.3394 67.0339 59.3394C69.1278 59.3394 71.6744 58.9472 74.1074 57.7071C74.2773 57.6421 74.4472 57.7071 74.4472 58.0335V63.2558C74.4472 63.7128 74.3337 63.8427 74.1074 63.9744C71.9006 65.2793 69.2417 65.7365 65.6193 65.8014C55.3207 65.8014 51.5859 57.7071 51.5859 49.482C51.5859 40.1469 56.3964 32.7695 64.8836 32.7695C73.2026 32.7695 76.5413 40.0811 76.5413 46.1526C76.5413 48.959 76.2579 50.2649 76.0318 50.4614C75.353 50.7879 73.2027 50.8529 70.0903 50.8529H58.5458ZM67.5998 45.8264C69.6937 45.8264 70.0337 45.565 70.0901 45.3036C70.0901 45.1737 70.0901 44.8473 70.0901 44.5858C70.0901 42.6278 68.958 38.3842 64.6009 38.3842C60.9225 38.3842 58.9982 41.6485 58.5458 45.8264H67.5998Z" fill="#D291FF"/>
</g>
</g>
<defs>
<clipPath id="clip0">
<rect width="94.5846" height="94.5846" fill="white" transform="translate(0.0625)"/>
</clipPath>
<clipPath id="clip1">
<rect width="94.0492" height="94.0492" fill="white" transform="translate(0.0625)"/>
</clipPath>
</defs>
</svg>
