<svg width="96" height="95" viewBox="0 0 96 95" fill="none" xmlns="http://www.w3.org/2000/svg">
<g clip-path="url(#clip0)">
<rect width="94.5846" height="94.5846" transform="translate(0.707031 0.353516)" fill="white"/>
<g clip-path="url(#clip1)">
<path d="M94.7173 0.485352H0.929688V94.2734H94.7173V0.485352Z" fill="#F0A024"/>
<path d="M90.5892 4.6123H5.05469V90.1468H90.5892V4.6123Z" fill="#373122"/>
<path d="M33.3665 53.8708L29.9809 65.0977C29.9252 65.4851 29.7586 65.6144 29.4259 65.6144H23.7646C23.3765 65.6144 23.2661 65.4203 23.3765 64.9695C26.3738 55.0965 31.4238 38.6429 34.9754 27.4799C35.1422 26.8349 35.3088 26.1894 35.4194 23.931C35.4194 23.6733 35.5862 23.5439 35.7528 23.5439H43.4119C43.6889 23.5439 43.7446 23.6086 43.8557 23.8665C47.9619 37.0942 52.4574 51.6772 56.6751 65.0338C56.7862 65.4203 56.6751 65.6144 56.3424 65.6144H50.1261C49.8486 65.6144 49.7376 65.4853 49.6272 65.2272L46.0749 53.871H33.3665V53.8708ZM44.5765 47.5469C43.4665 43.2238 40.7469 34.513 39.6376 29.9962H39.582C38.7489 34.2547 36.4743 41.5461 34.8092 47.5469H44.5765Z" fill="#F0A024"/>
<path d="M62.3008 25.9844C62.3008 23.5972 63.8818 21.9844 66.0082 21.9844C68.2441 21.9844 69.6076 23.5972 69.6076 25.9844C69.6076 28.4367 68.1351 29.9852 65.9542 29.9852C63.7725 29.9852 62.3008 28.4367 62.3008 25.9844ZM62.6821 34.7598C62.6821 34.3728 62.7909 34.244 63.0642 34.244H68.8436C69.171 34.244 69.2806 34.3085 69.2806 34.7598V65.0867C69.2806 65.41 69.171 65.6025 68.8436 65.6025H63.1729C62.846 65.6025 62.6821 65.4742 62.6821 65.0226V34.7598Z" fill="#F0A024"/>
</g>
</g>
<defs>
<clipPath id="clip0">
<rect width="94.5846" height="94.5846" fill="white" transform="translate(0.707031 0.353516)"/>
</clipPath>
<clipPath id="clip1">
<rect width="94.0492" height="94.0492" fill="white" transform="translate(0.707031 0.353516)"/>
</clipPath>
</defs>
</svg>
