<svg width="95" height="95" viewBox="0 0 95 95" fill="none" xmlns="http://www.w3.org/2000/svg">
<g clip-path="url(#clip0)">
<rect width="94.5846" height="94.5846" transform="translate(0.0625 0.353516)" fill="white"/>
<g clip-path="url(#clip1)">
<path d="M94.0689 0.484375H0.28125V94.2719H94.0689V0.484375Z" fill="#FF4A19"/>
<path d="M89.9407 4.61133H4.40625V90.1458H89.9407V4.61133Z" fill="#260600"/>
<path d="M27.3832 54.2254L24.0065 65.7235C23.9501 66.1179 23.7814 66.2496 23.444 66.2496H17.7792C17.385 66.2496 17.2727 66.0427 17.385 65.5927C20.3861 55.4819 25.4319 38.6379 28.9773 27.1954C29.1459 26.5395 29.3151 25.8826 29.4275 23.5569C29.4275 23.2939 29.5961 23.1631 29.7653 23.1631H37.4182C37.6996 23.1631 37.756 23.2375 37.8682 23.5005C41.9765 37.0432 46.4782 51.9745 50.6799 65.6489C50.7925 66.0427 50.6799 66.2496 50.3424 66.2496H44.1335C43.8521 66.2496 43.7393 66.1179 43.6271 65.855L40.0817 54.2254H27.3832ZM38.5999 47.7538C37.4933 43.3271 34.7734 34.399 33.6669 29.7842H33.6105C32.785 34.136 30.4966 41.6206 28.8459 47.7538H38.5999Z" fill="#FF4A19"/>
<path d="M53.6986 41.7338C53.6986 39.4825 53.7919 37.5692 53.6797 36.2566C53.6797 35.9191 53.7361 35.7312 54.0548 35.7312C54.0548 35.7312 62.7957 33.0675 68.0295 33.4799C72.2124 33.8181 76.9763 36.1814 76.9763 46.8918V65.7241C76.9763 66.0623 76.8081 66.2502 76.5449 66.2502H70.8806C70.5613 66.2502 70.3923 66.0433 70.3923 65.6495V46.8169C70.3923 42.5215 68.6104 39.5764 65.3471 39.5764C63.321 39.5764 62.402 39.8951 60.2641 40.9269V65.7243C60.2641 66.1187 60.1515 66.2504 59.8318 66.2504H54.111C53.8292 66.2504 53.7359 66.1187 53.7359 65.6497V41.7338H53.6986Z" fill="#FF4A19"/>
</g>
</g>
<defs>
<clipPath id="clip0">
<rect width="94.5846" height="94.5846" fill="white" transform="translate(0.0625 0.353516)"/>
</clipPath>
<clipPath id="clip1">
<rect width="94.0492" height="94.0492" fill="white" transform="translate(0.0625 0.353516)"/>
</clipPath>
</defs>
</svg>
