<svg width="95" height="95" viewBox="0 0 95 95" fill="none" xmlns="http://www.w3.org/2000/svg">
<g clip-path="url(#clip0)">
<rect width="94.5846" height="94.5846" transform="translate(0.414062)" fill="white"/>
<g clip-path="url(#clip1)">
<path d="M94.4166 0.130859H0.628906V93.9189H94.4166V0.130859Z" fill="#AED3E9"/>
<path d="M90.2884 4.25781H4.75391V89.7923H90.2884V4.25781Z" fill="#16222A"/>
<path d="M48.4869 62.2273H32.2269V25.9234C32.2269 25.6008 32.1157 25.4717 31.8386 25.4717H25.955C25.623 25.4717 25.5117 25.6658 25.5117 25.9884V67.8409C25.5117 68.2927 25.6229 68.486 26.0661 68.486H47.4333C47.7103 68.486 47.8771 68.4219 47.9882 68.0345L48.8203 62.7433C48.8751 62.4207 48.8203 62.2273 48.4869 62.2273ZM69.1937 36.3606C68.9603 36.2963 68.671 36.284 68.4377 36.2963C60.4764 36.7245 54.8543 38.8193 54.8543 38.8193C54.563 38.8193 54.4473 38.9485 54.5053 39.2067C54.6789 41.3359 54.7946 43.4794 54.7946 46.3186V68.0629C54.7946 68.4503 54.9124 68.5797 55.2614 68.5797H61.3656C61.7133 68.5797 61.8291 68.4505 61.8291 68.0629V43.384C64.1963 42.4141 65.7635 42.5181 69.078 42.6474C69.4255 42.6474 69.5429 42.5181 69.5429 42.1959V37.0067C69.5431 36.4898 69.4851 36.4255 69.1937 36.3606Z" fill="#AED3E9"/>
</g>
</g>
<defs>
<clipPath id="clip0">
<rect width="94.5846" height="94.5846" fill="white" transform="translate(0.414062)"/>
</clipPath>
<clipPath id="clip1">
<rect width="94.0492" height="94.0492" fill="white" transform="translate(0.414062)"/>
</clipPath>
</defs>
</svg>
