<svg width="95" height="95" viewBox="0 0 95 95" fill="none" xmlns="http://www.w3.org/2000/svg">
<g clip-path="url(#clip0)">
<rect width="94.5846" height="94.5846" transform="translate(0.414062 0.353516)" fill="white"/>
<g clip-path="url(#clip1)">
<path d="M94.4166 0.485352H0.628906V94.2734H94.4166V0.485352Z" fill="#EA77FF"/>
<path d="M90.2884 4.6123H4.75391V90.1468H90.2884V4.6123Z" fill="#2A0034"/>
<path d="M25.1172 23.33C25.1172 23.0075 25.1728 22.8782 25.45 22.8782C27.5588 22.8141 31.7216 22.749 35.9393 22.749C46.8167 22.749 50.966 29.0781 51.0208 36.5634C51.0208 46.8231 43.3756 50.712 35.2176 50.712C33.6641 50.712 32.1654 50.712 31.7769 50.712V65.3704C31.7769 65.7571 31.6657 65.8864 31.3885 65.8864H25.5057C25.2281 65.8864 25.1174 65.7573 25.1174 65.4347V23.33H25.1172ZM31.7767 44.4535C32.2205 44.5185 33.053 44.5828 35.3844 44.5828C39.7685 44.5828 43.9864 43.3324 43.9864 36.8797C43.9864 31.7177 41.1557 29.0665 35.9393 29.0665C33.7749 29.0665 32.2205 29.1315 31.7767 29.1956V44.4535Z" fill="#EA77FF"/>
<path d="M70.7134 33.4135C70.9453 33.401 71.2366 33.4135 71.4689 33.4785C71.7603 33.5428 71.818 33.6078 71.818 34.1236V39.7199C71.818 40.0425 71.7015 40.1716 71.353 40.1716C68.0385 40.0425 66.472 39.9384 64.105 40.9075V65.1814C64.105 65.5686 63.9884 65.6974 63.6399 65.6974H57.5363C57.1871 65.6974 57.0706 65.5688 57.0706 65.1814V43.4362C57.0706 40.5969 56.954 38.4536 56.78 36.3244C56.7223 36.066 56.838 35.9367 57.1292 35.9367C57.1294 35.9365 62.7514 33.8424 70.7134 33.4135Z" fill="#EA77FF"/>
</g>
</g>
<defs>
<clipPath id="clip0">
<rect width="94.5846" height="94.5846" fill="white" transform="translate(0.414062 0.353516)"/>
</clipPath>
<clipPath id="clip1">
<rect width="94.0492" height="94.0492" fill="white" transform="translate(0.414062 0.353516)"/>
</clipPath>
</defs>
</svg>
