<svg width="77" height="77" viewBox="0 0 77 77" fill="none" xmlns="http://www.w3.org/2000/svg">
<g clip-path="url(#clip0)">
<path d="M63.2113 0H13.4085C6.00317 0 0 6.00317 0 13.4085V63.2113C0 70.6166 6.00317 76.6197 13.4085 76.6197H63.2113C70.6166 76.6197 76.6197 70.6166 76.6197 63.2113V13.4085C76.6197 6.00317 70.6166 0 63.2113 0Z" fill="#ECEDF3"/>
<path d="M58.422 17.7178H18.1966C12.9071 17.7178 8.61914 22.0057 8.61914 27.2952V49.3234C8.61914 54.6129 12.9071 58.9009 18.1966 58.9009H58.422C63.7114 58.9009 67.9994 54.6129 67.9994 49.3234V27.2952C67.9994 22.0057 63.7114 17.7178 58.422 17.7178Z" fill="#FF0100"/>
<path d="M30.6484 47.613V29.0088L45.9724 38.3109L30.6484 47.613Z" fill="white"/>
</g>
<defs>
<clipPath id="clip0">
<rect width="76.6197" height="76.6197" fill="white"/>
</clipPath>
</defs>
</svg>
