<?xml version="1.0" standalone="no"?>
<!DOCTYPE svg PUBLIC "-//W3C//DTD SVG 20010904//EN"
 "http://www.w3.org/TR/2001/REC-SVG-20010904/DTD/svg10.dtd">
<svg version="1.0" xmlns="http://www.w3.org/2000/svg"
 width="1000.000000pt" height="1000.000000pt" viewBox="0 0 1000.000000 1000.000000"
 preserveAspectRatio="xMidYMid meet">
<metadata>
Created by potrace 1.11, written by Peter Selinger 2001-2013
</metadata>
<g transform="translate(0.000000,1000.000000) scale(0.100000,-0.100000)"
fill="#000000" stroke="none">
<path d="M1781 7636 l-61 -128 1049 -2657 1048 -2656 113 -3 c88 -2 111 0 107
10 -15 39 -2181 5526 -2187 5543 -6 16 -20 -6 -69 -109z"/>
<path d="M8144 7724 c-9 -21 -363 -916 -786 -1989 -423 -1072 -772 -1953 -776
-1957 -4 -4 -360 888 -792 1982 -432 1094 -788 1986 -792 1982 -4 -4 -30 -65
-58 -137 l-51 -130 842 -2132 c463 -1173 845 -2133 848 -2133 4 0 388 967 855
2148 l848 2148 -58 125 c-31 68 -59 126 -60 128 -2 2 -11 -13 -20 -35z"/>
<path d="M1496 7026 c-32 -69 -56 -133 -54 -143 4 -15 1669 -4240 1805 -4581
l45 -112 109 0 c60 0 109 3 109 6 0 8 -1939 4924 -1949 4942 -5 8 -30 -35 -65
-112z"/>
<path d="M7516 4799 c-511 -1295 -933 -2358 -937 -2364 -6 -5 -9 -5 -9 2 0 15
-1819 4625 -1829 4636 -7 7 -111 -242 -111 -266 0 -7 409 -1047 908 -2312
l908 -2300 133 0 133 0 920 2330 c505 1282 921 2344 924 2360 3 22 -11 62 -54
149 l-57 119 -929 -2354z"/>
<path d="M1207 6407 l-58 -123 808 -2047 807 -2047 112 0 112 0 -92 232 c-50
128 -436 1105 -856 2171 -421 1065 -767 1937 -770 1937 -3 0 -32 -55 -63 -123z"/>
<path d="M7872 4367 c-469 -1189 -852 -2165 -852 -2169 0 -5 49 -8 109 -8 94
0 110 2 115 18 4 9 367 930 808 2046 l800 2029 -57 123 c-32 68 -61 124 -64
124 -3 0 -390 -973 -859 -2163z"/>
<path d="M4418 6280 l-56 -139 665 -1683 c365 -926 716 -1815 779 -1976 l116
-292 110 0 c100 0 110 2 105 17 -5 20 -1658 4207 -1661 4210 -1 2 -27 -60 -58
-137z"/>
<path d="M4207 5743 c-13 -21 -627 -1585 -627 -1598 0 -25 103 -276 110 -268
4 4 147 365 319 802 l313 793 -55 140 c-30 77 -57 136 -60 131z"/>
<path d="M4437 4993 c-19 -48 -162 -409 -317 -802 l-282 -714 53 -134 c29 -73
55 -133 58 -133 7 0 632 1580 631 1597 0 12 -97 263 -104 270 -2 2 -19 -36
-39 -84z"/>
<path d="M4417 3609 l-316 -801 56 -141 c42 -105 58 -135 64 -121 4 10 147
373 317 805 l311 787 -50 128 c-28 71 -54 133 -58 137 -4 4 -150 -353 -324
-794z"/>
</g>
</svg>
