<svg width="95" height="95" viewBox="0 0 95 95" fill="none" xmlns="http://www.w3.org/2000/svg">
<g clip-path="url(#clip0)">
<rect width="94.5846" height="94.5846" fill="white"/>
<path d="M31.6779 94.138C40.2976 94.138 47.2933 87.1423 47.2933 78.5226V62.9072H31.6779C23.0582 62.9072 16.0625 69.9029 16.0625 78.5226C16.0625 87.1423 23.0582 94.138 31.6779 94.138Z" fill="#0ACF83"/>
<path d="M16.0625 47.2921C16.0625 38.6725 23.0582 31.6768 31.6779 31.6768H47.2933V62.9075H31.6779C23.0582 62.9075 16.0625 55.9118 16.0625 47.2921Z" fill="#A259FF"/>
<path d="M16.0625 16.0617C16.0625 7.44198 23.0582 0.446289 31.6779 0.446289H47.2933V31.677H31.6779C23.0582 31.677 16.0625 24.6814 16.0625 16.0617Z" fill="#F24E1E"/>
<path d="M47.293 0.446289H62.9084C71.528 0.446289 78.5237 7.44198 78.5237 16.0617C78.5237 24.6814 71.528 31.677 62.9084 31.677H47.293V0.446289Z" fill="#FF7262"/>
<path d="M78.5237 47.2921C78.5237 55.9118 71.528 62.9075 62.9084 62.9075C54.2887 62.9075 47.293 55.9118 47.293 47.2921C47.293 38.6725 54.2887 31.6768 62.9084 31.6768C71.528 31.6768 78.5237 38.6725 78.5237 47.2921Z" fill="#1ABCFE"/>
</g>
<defs>
<clipPath id="clip0">
<rect width="94.5846" height="94.5846" fill="white"/>
</clipPath>
</defs>
</svg>
