<svg width="95" height="95" viewBox="0 0 95 95" fill="none" xmlns="http://www.w3.org/2000/svg">
<g clip-path="url(#clip0)">
<rect width="94.5846" height="94.5846" transform="translate(0.355469)" fill="white"/>
<g clip-path="url(#clip1)">
<path d="M49.1915 49.8028C49.3711 46.6797 50.9014 43.9236 53.2125 41.9716C55.6372 39.9576 58.6957 38.8653 61.8478 38.8876C65.166 38.8876 68.215 40.0588 70.4792 41.9716C72.7903 43.9236 74.3167 46.6797 74.4923 49.7989C74.668 53.0117 73.3797 55.9904 71.1155 58.2038C68.6216 60.5857 65.2962 61.8996 61.8478 61.8656C58.397 61.8999 55.069 60.5861 52.5722 58.2038C50.308 55.9904 49.0197 53.0117 49.1954 49.8028H49.1915ZM29.0477 56.1153C29.0711 57.3411 29.4615 59.7146 30.047 61.5729C31.3112 65.5707 33.4336 69.244 36.2659 72.3358C39.3033 75.6753 43.0105 78.337 47.1459 80.1473C51.6466 82.1313 56.5155 83.1424 61.434 83.1143C66.3517 83.124 71.2162 82.0971 75.7103 80.1005C79.8427 78.2731 83.5464 75.6001 86.5826 72.2538C89.4101 69.1518 91.5306 65.4729 92.7975 61.4714C94.0156 57.5944 94.3491 53.4937 93.7734 49.4709C93.2253 45.6169 91.874 41.9209 89.8071 38.6221C87.8923 35.5535 85.4438 32.8524 82.5772 30.6466H82.585L53.314 8.17214L53.2359 8.11359C51.3152 6.63793 48.0867 6.64574 45.9747 8.12139C43.8393 9.61266 43.5973 12.0838 45.4946 13.6453L45.4907 13.6492L57.6941 23.5767L20.4904 23.6158H20.4397C17.3634 23.6197 14.4082 25.638 13.8227 28.1911C13.2215 30.7871 15.3061 32.942 18.5073 32.9538V32.9616L37.3629 32.9225L3.71169 58.7543L3.57896 58.8519C0.405136 61.2801 -0.617671 65.3244 1.3811 67.8815C3.4111 70.4853 7.72485 70.4892 10.9338 67.8971L29.2975 52.8712C29.2975 52.8712 29.0281 54.9012 29.0516 56.1153H29.0477ZM76.2452 62.9119C72.4584 66.7689 67.1648 68.955 61.4301 68.9628C55.6914 68.9785 50.3939 66.8079 46.6072 62.9587C44.8191 61.1636 43.4396 59.0038 42.5628 56.6267C41.7592 54.3902 41.4418 52.008 41.6316 49.6391C41.8214 47.2702 42.5142 44.9691 43.6637 42.889C44.8072 40.833 46.3353 39.016 48.1648 37.5369C51.8422 34.5387 56.5229 32.9186 61.4223 32.9108C66.3255 32.903 71.0062 34.5114 74.6875 37.4978C76.5614 39.0242 78.0839 40.8317 79.1848 42.8344C80.3243 44.8866 81.0187 47.1559 81.2226 49.4944C81.4294 51.8908 81.111 54.3035 80.2896 56.5642C79.4126 58.9449 78.0347 61.1096 76.2491 62.9119" fill="#F69400"/>
</g>
</g>
<defs>
<clipPath id="clip0">
<rect width="94.5846" height="94.5846" fill="white" transform="translate(0.355469)"/>
</clipPath>
<clipPath id="clip1">
<rect width="93.6923" height="93.6923" fill="white" transform="translate(0.355469 -1.78418)"/>
</clipPath>
</defs>
</svg>
