<svg width="77" height="77" viewBox="0 0 77 77" fill="none" xmlns="http://www.w3.org/2000/svg">
<g clip-path="url(#clip0)">
<path d="M64.1737 0H12.6759C5.59212 0 -0.150391 5.74251 -0.150391 12.8262V64.3241C-0.150391 71.4079 5.59212 77.1504 12.6759 77.1504H64.1737C71.2575 77.1504 77 71.4079 77 64.3241V12.8262C77 5.74251 71.2575 0 64.1737 0Z" fill="black"/>
<path d="M62.4121 32.169V21.8652C48.9694 21.2964 48.5369 9.05707 48.5369 7.90698V7.82031H38.1467V47.9507C38.1456 49.6849 37.5987 51.3745 36.5838 52.7793C35.5689 54.184 34.1378 55.2323 32.4939 55.775C30.8501 56.3178 29.0773 56.3273 27.4278 55.8022C25.7782 55.2772 24.336 54.2443 23.3061 52.8506C22.2763 51.4568 21.7113 49.7731 21.6916 48.0391C21.672 46.3051 22.1985 44.609 23.1965 43.1921C24.1944 41.7752 25.6129 40.7098 27.2501 40.1473C28.8873 39.5847 30.6598 39.5539 32.3155 40.059V29.4319C31.5195 29.3296 30.7178 29.2784 29.9153 29.2785C26.2295 29.2785 22.6264 30.3736 19.5617 32.4253C16.497 34.477 14.1084 37.3933 12.6979 40.8052C11.2874 44.2171 10.9183 47.9715 11.6374 51.5935C12.3565 55.2156 14.1314 58.5427 16.7377 61.154C19.344 63.7654 22.6646 65.5438 26.2796 66.2643C29.8946 66.9847 33.6417 66.615 37.047 65.2017C40.4523 63.7884 43.3628 61.3952 45.4106 58.3245C47.4583 55.2539 48.5513 51.6438 48.5513 47.9507C48.5513 47.6889 48.5513 47.429 48.5333 47.1708V27.4098C53.3175 31.7953 62.4121 32.169 62.4121 32.169Z" fill="#00F6EF"/>
<path d="M65.5703 34.8785V24.5705C52.1258 24.0018 51.6951 11.7639 51.6951 10.614V10.5273H41.3049V50.6529C41.3042 52.3869 40.7576 54.0765 39.7429 55.4813C38.7283 56.8861 37.2973 57.9346 35.6534 58.4776C34.0096 59.0205 32.2368 59.0303 30.5871 58.5055C28.9374 57.9807 27.4949 56.9481 26.4649 55.5546C25.4348 54.161 24.8697 52.4776 24.8499 50.7437C24.83 49.0098 25.3565 47.3138 26.3544 45.897C27.3523 44.4801 28.7708 43.4147 30.4081 42.8522C32.0453 42.2897 33.8179 42.2588 35.4737 42.7639V32.1363C34.6758 32.0362 33.8723 31.9873 33.0681 31.9901C29.3822 31.9911 25.7793 33.0872 22.7152 35.1397C19.6511 37.1921 17.2633 40.1088 15.8539 43.5208C14.4444 46.9328 14.0765 50.6869 14.7968 54.3084C15.5171 57.9298 17.2931 61.256 19.9003 63.8662C22.5076 66.4764 25.8289 68.2535 29.4442 68.9726C33.0596 69.6917 36.8066 69.3207 40.2115 67.9063C43.6163 66.492 46.526 64.0979 48.5727 61.0268C50.6193 57.9557 51.711 54.3455 51.7095 50.6529C51.7095 50.3911 51.7095 50.1311 51.6915 49.873V30.1144C56.4758 34.4994 65.5703 34.8785 65.5703 34.8785Z" fill="white"/>
<path d="M48.877 10.5273C49.3728 13.2513 50.8211 17.5101 55.043 20.002C51.8164 16.211 51.6541 11.319 51.6541 10.6137V10.5273H48.877Z" fill="#FF004F"/>
<path d="M65.5703 34.7323V24.4236C64.5415 24.3858 63.5173 24.265 62.5078 24.0625V32.1776C62.5078 32.1776 53.4158 31.8039 48.6365 27.4187V47.1731C48.6473 47.4312 48.6545 47.6912 48.6545 47.953C48.654 51.3311 47.7392 54.6457 46.0074 57.5439C44.2756 60.442 41.7918 62.8151 38.8206 64.4103C35.8493 66.0055 32.5019 66.7631 29.1349 66.6023C25.768 66.4415 22.5076 65.3684 19.7012 63.4972C22.2821 66.1685 25.6002 68.0065 29.2302 68.7758C32.8602 69.545 36.6367 69.2105 40.0758 67.815C43.5149 66.4195 46.4598 64.0267 48.5332 60.9432C50.6065 57.8596 51.7139 54.2259 51.7134 50.5076C51.7134 50.2458 51.7134 49.9858 51.6954 49.7277V29.9679C56.4783 34.3531 65.5703 34.7323 65.5703 34.7323Z" fill="#FF004F"/>
<path d="M32.4009 40.1282C30.3965 39.5201 28.2352 39.687 26.3491 40.5955C24.463 41.5039 22.9912 43.0871 22.2278 45.0284C21.4644 46.9697 21.4658 49.126 22.2316 51.0664C22.9974 53.0067 24.4713 54.588 26.3585 55.4941C25.3272 54.0928 24.7652 52.4043 24.7523 50.6676C24.7394 48.931 25.2762 47.2343 26.2865 45.818C27.2969 44.4017 28.7297 43.3375 30.3819 42.7762C32.0341 42.2149 33.8219 42.185 35.4922 42.6907V32.0296C34.686 31.9292 33.8742 31.8802 33.0618 31.8829C32.8378 31.8829 32.6175 31.8829 32.3954 31.8956L32.4009 40.1282Z" fill="#FF004F"/>
</g>
<defs>
<clipPath id="clip0">
<rect width="77" height="77" fill="white"/>
</clipPath>
</defs>
</svg>
