<svg width="77" height="77" viewBox="0 0 77 77" fill="none" xmlns="http://www.w3.org/2000/svg">
<g clip-path="url(#clip0)">
<path d="M63.4652 0H13.6624C6.25707 0 0.253906 6.00317 0.253906 13.4085V63.2113C0.253906 70.6166 6.25707 76.6197 13.6624 76.6197H63.4652C70.8705 76.6197 76.8736 70.6166 76.8736 63.2113V13.4085C76.8736 6.00317 70.8705 0 63.4652 0Z" fill="#007FB5"/>
<path d="M21.8262 28.1816H11.0156V67.3535H21.8262V28.1816Z" fill="white"/>
<path d="M57.9572 28.1817C49.9839 25.1409 44.2135 30.2888 41.7473 33.162V28.1817H30.9727V67.3535H41.7473V46.6902C41.686 44.0712 42.643 41.5305 44.417 39.6028C44.9234 39.0068 45.5473 38.5215 46.2498 38.1775C46.9522 37.8335 47.718 37.6381 48.4994 37.6035C49.3733 37.5868 50.2416 37.7467 51.0522 38.0738C51.8627 38.401 52.5988 38.8884 53.2163 39.5071C54.5553 40.9064 55.2869 42.7783 55.2515 44.7148V67.3535H67.4149V43.0986C67.4149 43.0986 68.7677 32.2282 57.9572 28.1817Z" fill="white"/>
<path d="M16.4142 22.7708C20.1433 22.7708 23.1663 19.7478 23.1663 16.0187C23.1663 12.2896 20.1433 9.2666 16.4142 9.2666C12.6851 9.2666 9.66211 12.2896 9.66211 16.0187C9.66211 19.7478 12.6851 22.7708 16.4142 22.7708Z" fill="white"/>
</g>
<defs>
<clipPath id="clip0">
<rect width="76.6197" height="76.6197" fill="white" transform="translate(0.253906)"/>
</clipPath>
</defs>
</svg>
