<svg width="77" height="77" viewBox="0 0 77 77" fill="none" xmlns="http://www.w3.org/2000/svg">
<g clip-path="url(#clip0)">
<path d="M13.9723 76.6201L63.7751 76.6201C71.1804 76.6201 77.1836 70.6169 77.1836 63.2117L77.1836 13.4088C77.1836 6.00356 71.1804 0.000396729 63.7751 0.000396729L13.9723 0.000396729C6.56704 0.000396729 0.563873 6.00356 0.563873 13.4088L0.563873 63.2117C0.563873 70.6169 6.56704 76.6201 13.9723 76.6201Z" fill="#5EBEE1"/>
<path d="M57.6149 20.1674L17.4906 35.793C16.1973 36.3043 16.2725 38.1692 17.611 38.5602L27.8074 41.568L31.6123 53.6444C32.0033 54.9076 33.6125 55.2836 34.5299 54.3362L39.8086 48.9522L50.1555 56.5469C51.4188 57.4793 53.2235 56.7875 53.5393 55.2535L60.382 22.4985C60.7279 20.9043 59.1488 19.5659 57.6149 20.1674ZM52.5918 27.4313L33.9584 43.9141C33.7779 44.0795 33.6576 44.3051 33.6276 44.5457L32.9057 50.9223C32.8756 51.1328 32.5899 51.1629 32.5297 50.9524L29.582 41.4326C29.4467 40.9965 29.6272 40.5303 30.0182 40.2897L52.0203 26.6342C52.5166 26.3485 53.043 27.0403 52.5918 27.4313Z" fill="white"/>
</g>
<defs>
<clipPath id="clip0">
<rect width="77" height="77" fill="white"/>
</clipPath>
</defs>
</svg>
