<svg width="77" height="77" viewBox="0 0 77 77" fill="none" xmlns="http://www.w3.org/2000/svg">
<g clip-path="url(#clip0)">
<path d="M63.3929 0H13.5901C6.18481 0 0.181641 6.00317 0.181641 13.4085V63.2113C0.181641 70.6166 6.18481 76.6197 13.5901 76.6197H63.3929C70.7982 76.6197 76.8014 70.6166 76.8014 63.2113V13.4085C76.8014 6.00317 70.7982 0 63.3929 0Z" fill="#4489C8"/>
<path d="M11.6994 23.6679H20.8938C21.086 23.6676 21.2738 23.7258 21.432 23.8349C21.5903 23.944 21.7116 24.0987 21.7797 24.2784C22.7973 26.9003 27.0234 37.1601 30.8903 37.9981C33.7635 37.9981 32.7459 24.3503 29.0945 24.3503C28.1367 24.3503 30.7945 22.6503 30.9741 22.5784C34.3674 21.6483 37.9484 21.6483 41.3417 22.5784C43.1734 23.3446 43.4846 25.4876 43.5325 27.3073C43.5804 29.127 41.4973 36.8848 44.2389 37.7228C47.8304 38.8242 52.4515 27.5587 53.529 24.7932C53.599 24.6157 53.7211 24.4636 53.8793 24.3567C54.0374 24.2499 54.2241 24.1934 54.4149 24.1946H64.6508C64.809 24.1941 64.9648 24.2328 65.1044 24.3072C65.244 24.3817 65.363 24.4895 65.4507 24.6211C65.5385 24.7527 65.5922 24.904 65.6073 25.0615C65.6223 25.2189 65.598 25.3777 65.5367 25.5235C63.4283 30.3335 60.9005 34.9485 57.9825 39.315C57.7344 39.6754 57.6181 40.1102 57.6529 40.5463C57.6878 40.9823 57.8719 41.3931 58.1741 41.7094C61.2389 44.9897 69.6191 54.2798 64.8304 54.2798H54.4987C54.2317 54.2805 53.9676 54.2242 53.724 54.1148C53.4804 54.0054 53.2629 53.8454 53.086 53.6453C51.4818 51.8735 46.8128 46.9411 44.7058 47.3362C42.9579 47.6594 42.7903 50.6284 42.8741 52.5679C42.9005 53.0682 42.7298 53.559 42.3985 53.935C42.0673 54.311 41.6019 54.5422 41.1022 54.5791C39.2705 54.6869 36.7684 54.7348 36.541 54.7228C29.2381 54.2559 24.9163 49.3834 20.786 43.9481C16.4596 38.1858 13.0846 31.7673 10.7896 24.9369C10.7426 24.7923 10.7304 24.6388 10.7537 24.4887C10.777 24.3385 10.8353 24.1959 10.9238 24.0725C11.0124 23.949 11.1287 23.848 11.2634 23.7777C11.3981 23.7075 11.5475 23.6698 11.6994 23.6679Z" fill="white"/>
</g>
<defs>
<clipPath id="clip0">
<rect width="76.6197" height="76.6197" fill="white" transform="translate(0.181641)"/>
</clipPath>
</defs>
</svg>
