<svg width="78" height="77" viewBox="0 0 78 77" fill="none" xmlns="http://www.w3.org/2000/svg">
<g clip-path="url(#clip0)">
<path d="M63.9007 0H14.0979C6.69262 0 0.689453 6.00317 0.689453 13.4085V63.2113C0.689453 70.6166 6.69262 76.6197 14.0979 76.6197H63.9007C71.306 76.6197 77.3092 70.6166 77.3092 63.2113V13.4085C77.3092 6.00317 71.306 0 63.9007 0Z" fill="#ECEDF3"/>
<path d="M39.0009 70.8729C56.9851 70.8729 71.5643 56.2937 71.5643 38.3095C71.5643 20.3252 56.9851 5.74609 39.0009 5.74609C21.0166 5.74609 6.4375 20.3252 6.4375 38.3095C6.4375 56.2937 21.0166 70.8729 39.0009 70.8729Z" fill="#C31E31"/>
<path d="M46.0644 19.3111C37.744 16.1864 27.9869 19.3111 22.3362 26.985C19.5961 30.5716 18.1831 34.9967 18.3376 39.5076C18.5771 44.1407 20.2411 50.5456 25.5926 51.647L26.9095 47.7083C21.7616 41.1717 22.1207 35.2695 26.1911 29.8224C29.7827 24.9738 37.1573 22.7231 44.7475 24.89C51.4517 26.8055 53.4271 34.24 53.3552 38.2146C53.2355 44.9069 50.5418 50.7611 47.3693 51.8266C40.5214 54.1132 36.7264 49.8991 36.5947 49.6836L36.4031 49.4921C37.8038 43.3625 39.001 37.2569 38.5221 35.916C38.5221 35.916 37.5644 30.1695 32.7757 33.0428C27.9869 35.916 30.8602 41.6625 30.8602 41.6625L26.5503 64.1695L27.5799 68.8146C28.37 69.1019 29.1721 69.3653 29.9742 69.5928L32.7757 63.6907C32.7757 63.6907 33.9728 58.6026 35.17 53.6343C35.0742 54.0174 38.6418 56.0287 39.0249 56.2083C40.5686 56.8917 42.2333 57.2597 43.9213 57.2905C45.6092 57.3213 47.2862 57.0144 48.8538 56.3879C54.4447 54.5202 58.9461 46.5829 59.1017 38.3224C59.2693 29.4033 54.5644 22.4717 46.0644 19.3111Z" fill="white"/>
</g>
<defs>
<clipPath id="clip0">
<rect width="76.6197" height="76.6197" fill="white" transform="translate(0.689453)"/>
</clipPath>
</defs>
</svg>
