<svg width="22" height="22" viewBox="0 0 22 22" fill="none" xmlns="http://www.w3.org/2000/svg">
<g clip-path="url(#clip0)">
<path d="M12.381 13.7166C16.1748 13.7166 19.2388 10.6462 19.2388 6.8588C19.2388 3.07738 16.1624 0.000988535 12.381 0.000988535H5.47737C5.12142 0.000988535 4.83284 0 4.83284 0V9.66608H3.40628C3.05032 9.66608 2.76172 9.66429 2.76172 9.66429C2.76172 10.0202 2.76175 13.3626 2.76175 13.7186C2.76175 13.7186 3.05032 13.7166 3.40628 13.7166C3.76223 13.7166 4.83284 13.7166 4.83284 13.7166V15.189C4.83284 15.189 3.76223 15.189 3.40628 15.189C3.05032 15.189 2.76175 15.1957 2.76175 15.1957V19.2343C2.76175 19.2343 3.05032 19.2396 3.40628 19.2396H4.83284V22.001C4.83284 22.001 5.12142 22.001 5.47737 22.001H8.23884C8.5948 22.001 8.88337 22.001 8.88337 22.001V19.2395H13.0714C13.4273 19.2395 13.7159 19.2343 13.7159 19.2343V15.1957C13.7159 15.1957 13.4273 15.189 13.0714 15.189H8.88333V13.7166H12.381ZM8.88333 4.05152H12.381C13.9289 4.05152 15.1883 5.31089 15.1883 6.8588C15.1883 8.40671 13.9289 9.66608 12.381 9.66608H8.88333V4.05152Z" fill="black"/>
</g>
<defs>
<clipPath id="clip0">
<rect width="22" height="22" fill="white"/>
</clipPath>
</defs>
</svg>
