<svg width="12" height="14" viewBox="0 0 12 14" fill="none" xmlns="http://www.w3.org/2000/svg">
<path d="M6.87821 8.72875C9.29242 8.72875 11.2423 6.77482 11.2423 4.36469C11.2423 1.95833 9.28457 0.000629067 6.87821 0.000629067H2.48498C2.25846 0.000629067 2.07482 0 2.07482 0V6.15114H1.16701C0.940494 6.15114 0.756836 6.15 0.756836 6.15C0.756836 6.37652 0.756854 8.50348 0.756854 8.73C0.756854 8.73 0.940494 8.72875 1.16701 8.72875C1.39353 8.72875 2.07482 8.72875 2.07482 8.72875V9.66574C2.07482 9.66574 1.39353 9.66574 1.16701 9.66574C0.940494 9.66574 0.756854 9.67 0.756854 9.67V12.24C0.756854 12.24 0.940494 12.2434 1.16701 12.2434H2.07482V14.0006C2.07482 14.0006 2.25846 14.0006 2.48498 14.0006H4.24228C4.46879 14.0006 4.65243 14.0006 4.65243 14.0006V12.2433H7.31752C7.54404 12.2433 7.72768 12.24 7.72768 12.24V9.67C7.72768 9.67 7.54404 9.66572 7.31752 9.66572H4.65241V8.72875H6.87821ZM4.65241 2.57824H6.87819C7.86322 2.57824 8.66464 3.37966 8.66464 4.36469C8.66464 5.34972 7.86322 6.15114 6.87819 6.15114H4.65241V2.57824Z" fill="#3D3D3D"/>
</svg>
