<svg width="20" height="20" viewBox="0 0 20 20" fill="none" xmlns="http://www.w3.org/2000/svg">
    <path d="M10.0011 20.0006C15.5237 20.0006 20.0007 15.5236 20.0007 10.001C20.0007 4.47832 15.5237 0.00134277 10.0011 0.00134277C4.47845 0.00134277 0.00146484 4.47832 0.00146484 10.001C0.00146484 15.5236 4.47845 20.0006 10.0011 20.0006Z" fill="white"/>
    <path d="M19.4284 6.66577H13.2671C13.5347 8.80195 13.5363 11.1557 13.2723 13.2945H19.4416C19.8017 12.2627 19.9997 11.1546 19.9997 10.0001C19.9999 8.83036 19.7973 7.70867 19.4284 6.66577Z" fill="#EFECEC"/>
    <path d="M13.2672 6.66581H19.4284C19.4275 6.66264 19.4265 6.65998 19.4253 6.65711C18.1455 3.04846 14.8534 0.393449 10.8979 0.0410156C12.4288 0.880067 12.8759 3.53841 13.2672 6.66581Z" fill="#429945"/>
    <path d="M10.8983 19.9585C14.8608 19.6055 18.1575 16.9413 19.4324 13.323C19.4357 13.3133 19.4385 13.3038 19.442 13.2946H13.2726C12.8843 16.4389 12.4353 19.116 10.8983 19.9585Z" fill="#0B0B0B"/>
    <path d="M0 10.0001C0 11.1548 0.19832 12.2627 0.558143 13.2945H13.7871C14.0514 11.1555 14.0495 8.80195 13.7822 6.66577H0.571443C0.202585 7.70872 0 8.83041 0 10.0001Z" fill="#EFEFEF"/>
    <path d="M0.574578 6.65714C0.573649 6.65997 0.572678 6.66267 0.571411 6.66583H13.7822C13.3906 3.53839 12.4287 0.880091 10.8981 0.0410405C10.602 0.0148202 10.3027 4.81249e-10 9.99984 4.81249e-10C5.64967 -4.22223e-05 1.95032 2.77826 0.574578 6.65714Z" fill="#49A948"/>
    <path d="M13.787 13.2945H0.558105C0.561441 13.3038 0.564566 13.3133 0.567732 13.3229C1.93799 17.2117 5.64266 19.9999 9.99979 19.9999C10.3027 19.9999 10.602 19.985 10.898 19.9585C12.4352 19.116 13.3988 16.4389 13.787 13.2945Z" fill="#151515"/>
    <path d="M0 10.0001C0 14.1626 2.54447 17.7305 6.1625 19.2357V0.76416C2.54447 2.26906 0 5.83689 0 10.0001Z" fill="#E73B36"/>
</svg>
