<svg width="10" height="6" viewBox="0 0 10 6" fill="none" xmlns="http://www.w3.org/2000/svg">
<path fill-rule="evenodd" clip-rule="evenodd" d="M1.00002 0.333984C0.868187 0.334013 0.739322 0.373127 0.629715 0.446383C0.520109 0.519639 0.434682 0.623748 0.384236 0.745548C0.333789 0.867348 0.320587 1.00137 0.346298 1.13067C0.37201 1.25997 0.435481 1.37875 0.528688 1.47198L4.52869 5.47198C4.65371 5.59696 4.82324 5.66717 5.00002 5.66717C5.1768 5.66717 5.34633 5.59696 5.47135 5.47198L9.47135 1.47198C9.56456 1.37875 9.62803 1.25997 9.65374 1.13067C9.67945 1.00137 9.66625 0.867348 9.61581 0.745548C9.56536 0.623748 9.47993 0.519639 9.37033 0.446383C9.26072 0.373127 9.13185 0.334013 9.00002 0.333984H1.00002Z" fill="white"/>
</svg>
