<svg width="14" height="14" viewBox="0 0 14 14" fill="none" xmlns="http://www.w3.org/2000/svg">
<g clip-path="url(#clip0)">
<path d="M7.87821 8.72875C10.2924 8.72875 12.2423 6.77482 12.2423 4.36469C12.2423 1.95833 10.2846 0.000629067 7.87821 0.000629067H3.48498C3.25846 0.000629067 3.07482 0 3.07482 0V6.15114H2.16701C1.94049 6.15114 1.75684 6.15 1.75684 6.15C1.75684 6.37652 1.75685 8.50348 1.75685 8.73C1.75685 8.73 1.94049 8.72875 2.16701 8.72875C2.39353 8.72875 3.07482 8.72875 3.07482 8.72875V9.66574C3.07482 9.66574 2.39353 9.66574 2.16701 9.66574C1.94049 9.66574 1.75685 9.67 1.75685 9.67V12.24C1.75685 12.24 1.94049 12.2434 2.16701 12.2434H3.07482V14.0006C3.07482 14.0006 3.25846 14.0006 3.48498 14.0006H5.24228C5.46879 14.0006 5.65243 14.0006 5.65243 14.0006V12.2433H8.31752C8.54403 12.2433 8.72768 12.24 8.72768 12.24V9.67C8.72768 9.67 8.54403 9.66572 8.31752 9.66572H5.65241V8.72875H7.87821ZM5.65241 2.57824H7.87819C8.86322 2.57824 9.66464 3.37966 9.66464 4.36469C9.66464 5.34972 8.86322 6.15114 7.87819 6.15114H5.65241V2.57824Z" fill="#999999"/>
</g>
<defs>
<clipPath id="clip0">
<rect width="14" height="14" fill="white"/>
</clipPath>
</defs>
</svg>
