<?xml version="1.0" encoding="UTF-8"?>
<!DOCTYPE svg PUBLIC "-//W3C//DTD SVG 1.1//EN" "http://www.w3.org/Graphics/SVG/1.1/DTD/svg11.dtd">
<!-- Creator: CorelDRAW 2019 -->
<svg xmlns="http://www.w3.org/2000/svg" xml:space="preserve" width="112.79mm" height="54.843mm" version="1.1" style="shape-rendering:geometricPrecision; text-rendering:geometricPrecision; image-rendering:optimizeQuality; fill-rule:evenodd; clip-rule:evenodd"
viewBox="0 0 11279 5484.3"
 xmlns:xlink="http://www.w3.org/1999/xlink"
 xmlns:xodm="http://www.corel.com/coreldraw/odm/2003">
 <defs>
  <style type="text/css">
   <![CDATA[
    .fil0 {fill:white}
    .fil1 {fill:white;fill-rule:nonzero}
   ]]>
  </style>
 </defs>
 <g id="Слой_x0020_1">
  <metadata id="CorelCorpID_0Corel-Layer"/>
  <g id="_1158184400">
   <g id="_1081073328">
    <g>
     <path class="fil0" d="M9552.44 5335.41c-66.46,80.6 -66.46,100 -63.9,113.79 2.55,13.79 7.66,21.97 17.25,27.36 9.58,5.39 23.65,7.97 36.43,8.4 12.78,0.44 24.28,-1.29 34.72,-6.67 10.43,-5.39 19.8,-14.44 95.63,-106.46 75.83,-92 218.12,-266.98 344.64,-446.71 126.52,-179.71 237.29,-364.16 339.53,-584.82 102.24,-220.67 195.96,-477.54 255.61,-711.99 59.64,-234.46 85.19,-446.49 96.27,-679.22 11.07,-232.73 7.67,-486.15 -18.74,-727.5 -26.41,-241.35 -75.83,-470.62 -156.77,-704.21 -80.95,-233.6 -193.41,-471.5 -254.75,-615.45 -61.35,-143.95 -71.58,-193.94 -90.32,-264.62 -18.74,-70.68 -46.01,-162.04 -133.77,-266.34 -87.76,-104.3 -236.01,-221.52 -325.47,-292.2 -89.46,-70.69 -120.14,-94.83 -131.21,-66.39 -11.08,28.45 -2.56,109.49 61.35,232.74 63.89,123.26 183.18,288.76 272.65,386.16 89.46,97.4 149.09,126.7 196.81,175.84 47.71,49.13 83.49,118.09 134.62,233.59 51.11,115.5 117.58,277.54 174.66,433.56 57.09,156.02 104.8,306 138.03,490.45 33.23,184.46 51.98,403.41 57.09,630.96 5.11,227.55 -3.41,463.74 -57.09,739.56 -53.68,275.83 -152.51,591.29 -275.2,870.56 -122.7,279.28 -269.24,522.35 -408.97,714.79 -139.73,192.44 -272.65,334.23 -339.1,414.82z"/>
     <path class="fil0" d="M10383.3 1091.3c-25.14,-96.12 -53.52,-251.79 -60.9,-396.86 -7.38,-145.08 6.25,-279.54 18.18,-361 11.92,-81.45 22.15,-109.9 29.82,-125.85 7.67,-15.94 12.79,-19.39 53.25,45.25 40.47,64.65 116.31,197.4 166.58,326.26 50.27,128.86 74.97,253.86 54.95,365.05 -20.02,111.19 -84.77,208.59 -124.39,259.01 -39.62,50.43 -54.11,53.87 -72.29,37.33 -18.18,-16.55 -40.06,-53.08 -65.2,-149.19z"/>
     <path class="fil0" d="M10650.59 1827.53c-1.05,-101.92 9.5,-263.86 38.29,-409.92 28.79,-146.05 75.81,-276.21 107.95,-354.12 32.13,-77.91 49.38,-103.58 60.97,-117.48 11.59,-13.89 17.53,-16.01 41.66,58.54 24.12,74.57 66.43,225.82 84.31,366.69 17.87,140.88 11.3,271.39 -36.28,376.79 -47.59,105.4 -136.18,185.7 -188.11,225.71 -51.93,40.02 -67.19,39.75 -81.14,18.67 -13.95,-21.08 -26.6,-62.96 -27.65,-164.88z"/>
     <path class="fil0" d="M10747.8 2601.79c20.07,-103.24 64.32,-264.67 123.71,-406.18 59.38,-141.51 133.9,-263.08 182.55,-335 48.62,-71.93 71.38,-94.21 85.98,-105.79 14.59,-11.58 21.04,-12.47 29.96,68.01 8.92,80.48 20.31,242.33 9.17,388.51 -11.16,146.17 -44.87,276.68 -114.81,373.11 -69.96,96.43 -176.15,158.78 -236.93,188.2 -60.79,29.43 -76.15,25.92 -85.88,1.65 -9.73,-24.26 -13.83,-69.28 6.25,-172.51z"/>
     <path class="fil0" d="M10696.65 3374.86c40.32,-98.04 116.08,-248.74 202.87,-376.66 86.78,-127.93 184.59,-233.06 246.96,-294.33 62.35,-61.28 89.28,-78.7 106.02,-87.2 16.72,-8.49 23.28,-8.06 16.15,73.35 -7.13,81.41 -27.94,243.82 -67.94,386.14 -40,142.32 -99.21,264.58 -187.51,345.77 -88.3,81.19 -205.71,121.32 -271.66,138.09 -65.95,16.78 -80.45,10.18 -85.26,-15.79 -4.82,-25.97 0.05,-71.33 40.37,-169.37z"/>
     <path class="fil0" d="M10472.29 4159.01c63.22,-88.96 174.25,-222.44 291.08,-330.41 116.83,-107.98 239.45,-190.43 316.32,-237.22 76.84,-46.8 107.93,-57.92 126.72,-62.49 18.77,-4.57 25.26,-2.58 -0.75,77.53 -26.02,80.11 -84.54,238.37 -157.69,371.91 -73.16,133.53 -160.96,242.34 -268.49,303 -107.54,60.65 -234.8,73.15 -304.95,74.37 -70.16,1.23 -83.21,-8.83 -82.03,-36.07 1.18,-27.24 16.58,-71.66 79.79,-160.62z"/>
     <path class="fil0" d="M10117.9 4828.49c83.54,-71.79 224.78,-175.52 365.57,-252.77 140.79,-77.25 281.12,-128.01 367.9,-155.01 86.77,-27.02 119.99,-30.28 139.54,-30.13 19.55,0.14 25.44,3.69 -19.42,75.97 -44.87,72.29 -140.49,213.32 -244.53,326.45 -104.05,113.13 -216.53,198.36 -336.78,231.42 -120.25,33.06 -248.28,13.95 -317.49,-2.16 -69.21,-16.1 -79.6,-29.2 -71.88,-55.67 7.72,-26.46 33.55,-66.3 117.09,-138.1z"/>
     <path class="fil0" d="M10157.67 1269.25c-90.89,-37.83 -230.63,-109.03 -349.34,-190.76 -118.71,-81.73 -216.37,-173.98 -273.31,-232.83 -56.94,-58.83 -73.16,-84.27 -81.09,-100.09 -7.92,-15.81 -7.54,-22.03 67.82,-15.58 75.37,6.46 225.75,25.56 357.61,62.92 131.86,37.37 245.23,93 320.69,176.33 75.47,83.34 113.04,194.39 128.81,256.8 15.77,62.41 9.72,76.17 -14.3,80.82 -24.02,4.66 -66.01,0.22 -156.89,-37.61z"/>
     <path class="fil0" d="M10379.5 1994.43c-81.71,-55.22 -204.82,-152.93 -305.25,-256.76 -100.43,-103.82 -178.16,-213.76 -222.51,-282.82 -44.34,-69.04 -55.28,-97.22 -59.96,-114.32 -4.68,-17.08 -3.1,-23.09 69.52,-1.72 72.63,21.38 216.32,70.13 338.31,133.09 121.97,62.96 222.25,140.13 279.98,236.89 57.72,96.77 72.89,213.14 76.16,277.47 3.29,64.33 -5.32,76.61 -29.78,76.38 -24.45,-0.24 -64.75,-12.98 -146.47,-68.21z"/>
     <path class="fil0" d="M10432.75 2697.09c-65.47,-74.14 -160.51,-199.89 -232.08,-325.83 -71.58,-125.93 -119.66,-252.04 -145.52,-330.13 -25.87,-78.07 -29.49,-108.12 -29.8,-125.85 -0.31,-17.73 2.7,-23.15 67.74,15.92 65.03,39.07 192.11,122.63 294.65,214.45 102.54,91.82 180.55,191.91 212.52,300.2 31.97,108.3 17.89,224.81 5.16,287.92 -12.72,63.12 -24.1,72.83 -47.71,66.42 -23.62,-6.42 -59.5,-28.95 -124.96,-103.1z"/>
     <path class="fil0" d="M10354.84 3444.03c-49.82,-85.7 -118.64,-227.86 -164.41,-365.55 -45.77,-137.69 -68.48,-270.89 -78.7,-352.59 -10.23,-81.69 -7.96,-111.88 -4.82,-129.33 3.13,-17.44 7.14,-22.16 63.34,29.05 56.2,51.22 164.6,158.37 247.36,268.75 82.74,110.38 139.84,224 150.2,336.54 10.35,112.53 -26.04,223.99 -50.75,283.35 -24.72,59.37 -37.75,66.63 -59.67,55.66 -21.92,-10.98 -52.73,-40.19 -102.55,-125.88z"/>
     <path class="fil0" d="M10121.3 4135.77c-38.26,-97.1 -87.37,-255.95 -113.22,-406.43 -25.86,-150.47 -28.46,-292.57 -26.2,-379.12 2.26,-86.54 9.37,-117.55 15.38,-135.18 6.01,-17.62 10.92,-21.87 61.25,40.41 50.32,62.3 146.09,191.15 214.69,319.21 68.58,128.07 110.01,255.36 103.03,373.99 -6.99,118.62 -62.38,228.57 -97.43,286.27 -35.04,57.71 -49.73,63.16 -70.78,48.22 -21.05,-14.94 -48.46,-50.27 -86.72,-147.37z"/>
     <path class="fil0" d="M9752.57 4778.02c-16.72,-103.15 -30.9,-268.96 -24.16,-421.55 6.74,-152.58 34.41,-291.91 55.02,-375.95 20.6,-84.02 34.15,-112.76 43.76,-128.67 9.61,-15.9 15.31,-18.98 51.22,52.8 35.91,71.79 102.04,218.46 141.8,358.45 39.75,139.99 53.14,273.32 21.11,387.65 -32.05,114.33 -109.52,209.65 -156.01,258.38 -46.49,48.73 -62,50.86 -79.38,31.68 -17.38,-19.17 -36.64,-59.64 -53.36,-162.79z"/>
    </g>
    <g>
     <path class="fil0" d="M1711.56 5335.41c66.46,80.6 66.46,100 63.9,113.79 -2.55,13.79 -7.66,21.97 -17.25,27.36 -9.58,5.39 -23.65,7.97 -36.43,8.4 -12.78,0.44 -24.27,-1.29 -34.72,-6.67 -10.43,-5.39 -19.8,-14.44 -95.63,-106.46 -75.82,-92 -218.12,-266.98 -344.64,-446.71 -126.52,-179.71 -237.29,-364.16 -339.53,-584.82 -102.24,-220.67 -195.96,-477.54 -255.6,-711.99 -59.65,-234.46 -85.2,-446.49 -96.28,-679.22 -11.07,-232.73 -7.67,-486.15 18.74,-727.5 26.41,-241.35 75.84,-470.62 156.77,-704.21 80.95,-233.6 193.41,-471.5 254.75,-615.45 61.35,-143.95 71.58,-193.94 90.32,-264.62 18.74,-70.68 46.01,-162.04 133.77,-266.34 87.76,-104.3 236.01,-221.52 325.47,-292.2 89.46,-70.69 120.14,-94.83 131.21,-66.39 11.08,28.45 2.56,109.49 -61.35,232.74 -63.89,123.26 -183.18,288.76 -272.65,386.16 -89.46,97.4 -149.09,126.7 -196.8,175.84 -47.72,49.13 -83.5,118.09 -134.63,233.59 -51.11,115.5 -117.58,277.54 -174.66,433.56 -57.08,156.02 -104.8,306 -138.03,490.45 -33.22,184.46 -51.98,403.41 -57.09,630.96 -5.11,227.55 3.41,463.74 57.09,739.56 53.68,275.83 152.51,591.29 275.2,870.56 122.7,279.28 269.24,522.35 408.97,714.79 139.74,192.44 272.65,334.23 339.1,414.82z"/>
     <path class="fil0" d="M880.7 1091.3c25.14,-96.12 53.52,-251.79 60.9,-396.86 7.38,-145.08 -6.25,-279.54 -18.18,-361 -11.92,-81.45 -22.15,-109.9 -29.82,-125.85 -7.66,-15.94 -12.78,-19.39 -53.25,45.25 -40.47,64.65 -116.31,197.4 -166.58,326.26 -50.27,128.86 -74.97,253.86 -54.95,365.05 20.03,111.19 84.77,208.59 124.39,259.01 39.62,50.43 54.11,53.87 72.29,37.33 18.18,-16.55 40.06,-53.08 65.2,-149.19z"/>
     <path class="fil0" d="M613.41 1827.53c1.05,-101.92 -9.5,-263.86 -38.29,-409.92 -28.79,-146.05 -75.81,-276.21 -107.95,-354.12 -32.13,-77.91 -49.38,-103.58 -60.97,-117.48 -11.59,-13.89 -17.53,-16.01 -41.66,58.54 -24.12,74.57 -66.43,225.82 -84.31,366.69 -17.87,140.88 -11.29,271.39 36.28,376.79 47.59,105.4 136.19,185.7 188.11,225.71 51.93,40.02 67.19,39.75 81.14,18.67 13.95,-21.08 26.6,-62.96 27.65,-164.88z"/>
     <path class="fil0" d="M516.2 2601.79c-20.07,-103.24 -64.32,-264.67 -123.71,-406.18 -59.38,-141.51 -133.9,-263.08 -182.54,-335 -48.63,-71.93 -71.39,-94.21 -85.99,-105.79 -14.59,-11.58 -21.04,-12.47 -29.96,68.01 -8.91,80.48 -20.31,242.33 -9.17,388.51 11.16,146.17 44.87,276.68 114.81,373.11 69.96,96.43 176.16,158.78 236.94,188.2 60.78,29.43 76.14,25.92 85.87,1.65 9.73,-24.26 13.83,-69.28 -6.25,-172.51z"/>
     <path class="fil0" d="M567.35 3374.86c-40.32,-98.04 -116.08,-248.74 -202.87,-376.66 -86.78,-127.93 -184.59,-233.06 -246.96,-294.33 -62.35,-61.28 -89.28,-78.7 -106.02,-87.2 -16.72,-8.49 -23.28,-8.06 -16.15,73.35 7.13,81.41 27.94,243.82 67.94,386.14 40,142.32 99.21,264.58 187.51,345.77 88.31,81.19 205.71,121.32 271.66,138.09 65.95,16.78 80.45,10.18 85.27,-15.79 4.81,-25.97 -0.06,-71.33 -40.38,-169.37z"/>
     <path class="fil0" d="M791.71 4159.01c-63.22,-88.96 -174.25,-222.44 -291.08,-330.41 -116.83,-107.98 -239.45,-190.43 -316.31,-237.22 -76.85,-46.8 -107.94,-57.92 -126.73,-62.49 -18.77,-4.57 -25.26,-2.58 0.75,77.53 26.02,80.11 84.54,238.37 157.69,371.91 73.16,133.53 160.97,242.34 268.49,303 107.54,60.65 234.8,73.15 304.95,74.37 70.16,1.23 83.21,-8.83 82.03,-36.07 -1.18,-27.24 -16.57,-71.66 -79.79,-160.62z"/>
     <path class="fil0" d="M1146.1 4828.49c-83.54,-71.79 -224.77,-175.52 -365.56,-252.77 -140.79,-77.25 -281.12,-128.01 -367.91,-155.01 -86.76,-27.02 -119.99,-30.28 -139.54,-30.13 -19.54,0.14 -25.44,3.69 19.42,75.97 44.87,72.29 140.49,213.32 244.54,326.45 104.04,113.13 216.52,198.36 336.77,231.42 120.25,33.06 248.28,13.95 317.49,-2.16 69.22,-16.1 79.6,-29.2 71.88,-55.67 -7.72,-26.46 -33.55,-66.3 -117.09,-138.1z"/>
     <path class="fil0" d="M1106.34 1269.25c90.88,-37.83 230.62,-109.03 349.33,-190.76 118.72,-81.73 216.37,-173.98 273.31,-232.83 56.94,-58.83 73.16,-84.27 81.09,-100.09 7.92,-15.81 7.54,-22.03 -67.82,-15.58 -75.37,6.46 -225.75,25.56 -357.61,62.92 -131.86,37.37 -245.22,93 -320.69,176.33 -75.47,83.34 -113.04,194.39 -128.8,256.8 -15.78,62.41 -9.73,76.17 14.29,80.82 24.02,4.66 66.01,0.22 156.9,-37.61z"/>
     <path class="fil0" d="M884.5 1994.43c81.71,-55.22 204.82,-152.93 305.25,-256.76 100.43,-103.82 178.17,-213.76 222.51,-282.82 44.34,-69.04 55.28,-97.22 59.96,-114.32 4.68,-17.08 3.1,-23.09 -69.52,-1.72 -72.63,21.38 -216.32,70.13 -338.3,133.09 -121.98,62.96 -222.26,140.13 -279.99,236.89 -57.71,96.77 -72.88,213.14 -76.16,277.47 -3.29,64.33 5.33,76.61 29.78,76.38 24.45,-0.24 64.76,-12.98 146.47,-68.21z"/>
     <path class="fil0" d="M831.25 2697.09c65.47,-74.14 160.51,-199.89 232.08,-325.83 71.58,-125.93 119.67,-252.04 145.53,-330.13 25.86,-78.07 29.49,-108.12 29.79,-125.85 0.32,-17.73 -2.7,-23.15 -67.73,15.92 -65.04,39.07 -192.11,122.63 -294.66,214.45 -102.53,91.82 -180.55,191.91 -212.52,300.2 -31.97,108.3 -17.89,224.81 -5.16,287.92 12.72,63.12 24.1,72.83 47.72,66.42 23.62,-6.42 59.49,-28.95 124.95,-103.1z"/>
     <path class="fil0" d="M909.16 3444.03c49.82,-85.7 118.64,-227.86 164.41,-365.55 45.77,-137.69 68.48,-270.89 78.7,-352.59 10.23,-81.69 7.96,-111.88 4.82,-129.33 -3.13,-17.44 -7.14,-22.16 -63.33,29.05 -56.2,51.22 -164.61,158.37 -247.37,268.75 -82.74,110.38 -139.84,224 -150.2,336.54 -10.35,112.53 26.04,223.99 50.76,283.35 24.71,59.37 37.74,66.63 59.66,55.66 21.92,-10.98 52.73,-40.19 102.55,-125.88z"/>
     <path class="fil0" d="M1142.7 4135.77c38.27,-97.1 87.37,-255.95 113.23,-406.43 25.85,-150.47 28.45,-292.57 26.19,-379.12 -2.25,-86.54 -9.37,-117.55 -15.38,-135.18 -6,-17.62 -10.92,-21.87 -61.24,40.41 -50.33,62.3 -146.1,191.15 -214.7,319.21 -68.58,128.07 -110.01,255.36 -103.03,373.99 6.99,118.62 62.39,228.57 97.43,286.27 35.04,57.71 49.74,63.16 70.78,48.22 21.05,-14.94 48.46,-50.27 86.72,-147.37z"/>
     <path class="fil0" d="M1511.43 4778.02c16.72,-103.15 30.91,-268.96 24.16,-421.55 -6.74,-152.58 -34.41,-291.91 -55.02,-375.95 -20.6,-84.02 -34.14,-112.76 -43.76,-128.67 -9.61,-15.9 -15.31,-18.98 -51.22,52.8 -35.9,71.79 -102.03,218.46 -141.8,358.45 -39.75,139.99 -53.14,273.32 -21.11,387.65 32.05,114.33 109.52,209.65 156.01,258.38 46.5,48.73 62,50.86 79.38,31.68 17.38,-19.17 36.64,-59.64 53.36,-162.79z"/>
    </g>
   </g>
   <path class="fil1" d="M3039.11 3727.2l0 -26.67c9.14,-5.14 18.89,-9.59 29.25,-13.33 10.35,-3.74 20.33,-6.08 29.97,-7.02l0 -397.2c-9.64,-1.87 -19.74,-4.56 -30.33,-8.07 -10.6,-3.51 -20.22,-7.6 -28.89,-12.28l0 -26.67 116.27 0c18.3,0 35.63,-0.7 52,-2.1 16.36,-1.41 35.15,-2.11 56.33,-2.11 23.11,0 45.5,1.64 67.16,4.91 21.67,3.28 40.93,9.13 57.78,17.55 16.86,8.42 30.34,20.23 40.44,35.44 10.12,15.2 15.17,34.73 15.17,58.59 0,14.98 -2.77,28.89 -8.3,41.76 -5.54,12.87 -13.25,24.21 -23.12,34.04 -9.87,9.82 -21.42,18.01 -34.66,24.56 -13.24,6.55 -27.57,11.23 -42.97,14.03l0 2.81c15.4,1.87 30.93,5.38 46.59,10.53 15.64,5.14 29.72,12.63 42.24,22.45 12.51,9.83 22.74,22.11 30.69,36.85 7.94,14.73 11.92,32.16 11.92,52.28 0,25.26 -5.78,47.02 -17.33,65.26 -11.56,18.25 -27.09,33.22 -46.58,44.92 -19.5,11.69 -41.77,20.23 -66.81,25.61 -25.04,5.38 -51.04,8.07 -78,8.07 -10.1,0 -21.18,-0.23 -33.22,-0.7 -12.04,-0.47 -24.07,-0.94 -36.11,-1.4 -12.03,-0.47 -23.71,-0.94 -35.02,-1.41 -11.32,-0.47 -20.83,-0.7 -28.53,-0.7l-85.94 0zm218.1 -41.4c30.33,0 54.16,-8.78 71.5,-26.32 17.33,-17.55 26,-40.82 26,-69.83 0,-17.78 -2.89,-32.4 -8.67,-43.86 -5.78,-11.46 -13.72,-20.58 -23.83,-27.37 -10.12,-6.78 -22.15,-11.46 -36.11,-14.03 -13.97,-2.58 -29.13,-3.86 -45.5,-3.86l-38.27 0 0 180.35c6.74,1.41 13.84,2.58 21.3,3.51 7.46,0.94 18.66,1.41 33.58,1.41zm-31.78 -230.89c8.19,0 16.37,-0.35 24.56,-1.05 8.19,-0.7 15.89,-1.52 23.11,-2.46 18.77,-7.48 33.94,-19.06 45.5,-34.73 11.55,-15.68 17.33,-33.57 17.33,-53.69 0,-29.47 -7.95,-51.11 -23.84,-64.91 -15.88,-13.8 -36.35,-20.7 -61.38,-20.7 -10.59,0 -19.74,0.23 -27.44,0.7 -7.71,0.47 -14.69,1.17 -20.94,2.1l0 174.74 23.1 0zm618.93 213.34c-3.85,7.95 -9.99,16.03 -18.41,24.21 -8.43,8.19 -18.78,15.44 -31.06,21.76 -12.27,6.31 -26.48,11.46 -42.61,15.44 -16.13,3.97 -33.58,5.96 -52.35,5.96 -29.86,0 -56.34,-4.33 -79.45,-12.98 -23.12,-8.66 -42.37,-21.05 -57.78,-37.2 -15.4,-16.14 -27.08,-35.43 -35.03,-57.89 -7.94,-22.46 -11.91,-47.72 -11.91,-75.79 0,-59.89 16.13,-105.5 48.38,-136.85 32.27,-31.34 77.04,-47.02 134.33,-47.02 24.56,0 47.55,3.28 68.98,9.83 21.42,6.55 39.24,17.31 53.44,32.28 14.2,14.97 24.08,34.62 29.62,58.95 5.53,24.33 5.16,54.03 -1.09,89.12l-221.72 0c0.49,36.96 10.23,66.44 29.25,88.43 19.02,21.99 47.06,32.98 84.14,32.98 15.89,0 32.38,-2.34 49.47,-7.02 17.09,-4.68 30.45,-10.76 40.08,-18.24l13.72 14.03zm-149.14 -260.36c-9.62,0 -18.05,1.64 -25.51,4.92 -7.46,3.27 -13.84,9.24 -19.38,17.89 -5.53,8.66 -9.99,20.35 -13.24,35.09 -3.37,14.74 -5.78,33.33 -7.23,55.79l115.56 0c3.37,-36.49 1.21,-64.56 -6.5,-84.21 -7.59,-19.65 -22.15,-29.48 -43.7,-29.48zm393.97 242.82c0,-12.17 -4.46,-22.69 -13.36,-31.58 -8.91,-8.89 -19.98,-17.08 -33.22,-24.56 -13.24,-7.49 -27.69,-14.98 -43.33,-22.46 -15.66,-7.49 -30.1,-16.26 -43.34,-26.32 -13.24,-10.06 -24.31,-21.87 -33.22,-35.44 -8.9,-13.56 -13.36,-30.17 -13.36,-49.82 0,-14.04 3.37,-26.79 10.11,-38.25 6.74,-11.46 15.89,-21.17 27.44,-29.12 11.56,-7.96 25.4,-14.15 41.53,-18.6 16.14,-4.44 33.59,-6.67 52.36,-6.67 26,0 50.19,1.99 72.58,5.97 22.39,3.98 42.01,9.47 58.86,16.49 -1.93,14.97 -5.77,31 -11.56,48.07 -5.77,17.08 -11.31,32.63 -16.61,46.67l-24.55 0 -30.33 -71.58c-5.77,-2.34 -11.79,-3.86 -18.05,-4.56 -6.27,-0.7 -13.25,-1.06 -20.95,-1.06 -14.44,0 -25.39,4.1 -32.86,12.29 -7.47,8.18 -11.19,17.42 -11.19,27.72 0,11.69 4.45,21.87 13.36,30.52 8.9,8.66 19.97,16.73 33.22,24.21 13.24,7.49 27.68,14.97 43.33,22.46 15.65,7.49 30.09,16.02 43.33,25.61 13.24,9.6 24.32,20.94 33.22,34.04 8.91,13.1 13.37,28.77 13.37,47.02 0,32.28 -13.48,57.66 -40.45,76.14 -26.96,18.48 -63.07,27.72 -108.33,27.72 -23.11,0 -46.94,-2.34 -71.49,-7.02 -24.56,-4.67 -45.75,-11.22 -63.56,-19.65 0.96,-16.84 5.05,-33.91 12.27,-51.23 7.23,-17.31 14.93,-32.74 23.12,-46.31l24.55 0 35.38 76.49c5.3,3.74 11.2,5.97 17.7,6.67 6.5,0.7 12.64,1.05 18.42,1.05 13.96,0 26.72,-3.98 38.28,-11.93 11.56,-7.95 17.33,-18.95 17.33,-32.98zm124.21 -256.85c18.3,-11.58 37.57,-19.77 57.79,-24.56l0 -56.85c2.88,-2.8 7.82,-5.49 14.8,-8.07 6.98,-2.57 14.45,-4.91 22.39,-7.01 7.95,-2.11 15.77,-4.1 23.46,-5.97 7.71,-1.87 13.97,-3.27 18.79,-4.21l24.55 0 0 89.12 95.33 0 0 45.62 -95.33 0 0 180.82c0,28.78 3.74,48.78 11.2,60 7.46,11.12 19.86,16.73 37.19,16.73 8.66,0 18.41,-0.59 29.25,-1.75 10.83,-1.17 20.83,-3.4 29.96,-6.67l5.07 23.16c-4.33,4.21 -10.72,8.65 -19.14,13.33 -8.43,4.68 -18.05,9.12 -28.89,13.33 -10.84,4.21 -22.63,7.72 -35.39,10.53 -12.76,2.81 -26.12,4.21 -40.09,4.21 -31.29,0 -54.64,-7.95 -70.05,-23.74 -15.4,-15.91 -23.1,-41.52 -23.1,-76.85l0 -213.1 -57.79 0 0 -28.07zm686.82 63.16c-5.77,2.81 -12.51,7.48 -20.22,14.03 -7.7,6.55 -14.68,17.43 -20.94,32.4l0 180.24c9.63,0.94 19.27,2.69 28.89,5.26 9.63,2.58 19.26,6.44 28.88,11.58l0 26.67 -209.43 0 0 -26.67c8.66,-4.68 16.86,-8.18 24.55,-10.52 7.71,-2.46 15.41,-4.57 23.12,-6.44l0 -258.13 -47.67 -5.62 0 -26.66c7.71,-3.28 17.22,-6.32 28.53,-9.13 11.32,-2.8 22.99,-5.26 35.03,-7.36 12.03,-2.11 23.71,-3.86 35.02,-5.27 11.32,-1.4 20.83,-2.57 28.53,-3.51l24.55 0 0 93.34 2.89 0c3.85,-10.29 9.51,-21.05 16.97,-32.28 7.46,-11.23 16.25,-21.52 26.37,-30.88 10.1,-9.36 21.18,-16.84 33.22,-22.46 12.03,-5.61 24.55,-8.18 37.55,-7.72 5.3,6.55 9.87,15.79 13.72,27.72 3.86,11.93 6.99,23.28 9.39,34.04l0 27.37 -98.95 0zm452.83 211.23c-3.85,7.95 -10,16.03 -18.41,24.21 -8.43,8.19 -18.79,15.44 -31.06,21.76 -12.28,6.31 -26.48,11.46 -42.62,15.44 -16.13,3.97 -33.58,5.96 -52.35,5.96 -29.86,0 -56.33,-4.33 -79.45,-12.98 -23.11,-8.66 -42.37,-21.05 -57.77,-37.2 -15.41,-16.14 -27.09,-35.43 -35.03,-57.89 -7.95,-22.46 -11.92,-47.72 -11.92,-75.79 0,-59.89 16.14,-105.5 48.39,-136.85 32.26,-31.34 77.04,-47.02 134.33,-47.02 24.55,0 47.54,3.28 68.97,9.83 21.43,6.55 39.24,17.31 53.44,32.28 14.2,14.97 24.08,34.62 29.62,58.95 5.54,24.33 5.17,54.03 -1.09,89.12l-221.71 0c0.48,36.96 10.23,66.44 29.24,88.43 19.02,21.99 47.07,32.98 84.14,32.98 15.89,0 32.38,-2.34 49.47,-7.02 17.1,-4.68 30.46,-10.76 40.09,-18.24l13.72 14.03zm-149.14 -260.36c-9.63,0 -18.05,1.64 -25.52,4.92 -7.46,3.27 -13.84,9.24 -19.37,17.89 -5.54,8.66 -10,20.35 -13.25,35.09 -3.36,14.74 -5.77,33.33 -7.22,55.79l115.56 0c3.36,-36.49 1.2,-64.56 -6.51,-84.21 -7.58,-19.65 -22.14,-29.48 -43.69,-29.48zm525.4 217.55c0,10.3 0.12,19.19 0.36,26.67 0.25,7.49 0.85,15.44 1.81,23.86l49.83 7.02 0 24.56c-5.77,2.81 -13.6,5.61 -23.47,8.42 -9.87,2.81 -20.22,5.5 -31.05,8.07 -10.84,2.58 -21.55,4.68 -32.14,6.32 -10.6,1.64 -19.98,2.92 -28.17,3.86l-24.55 0c-4.82,-10.76 -7.71,-21.52 -8.67,-32.28 -0.96,-10.76 -1.68,-23.86 -2.17,-39.3l-3.61 0c-2.41,9.35 -6.49,18.36 -12.28,27.02 -5.77,8.65 -13.12,16.37 -22.02,23.15 -8.91,6.79 -19.38,12.28 -31.42,16.5 -12.03,4.21 -25.51,6.31 -40.44,6.31 -15.89,0 -30.58,-2.34 -44.06,-7.02 -13.48,-4.67 -25.27,-11.22 -35.38,-19.65 -10.12,-8.42 -18.06,-18.59 -23.84,-30.52 -5.78,-11.93 -8.66,-25.38 -8.66,-40.35 0,-21.06 4.09,-38.37 12.28,-51.94 8.18,-13.56 21.06,-24.67 38.63,-33.33 17.58,-8.66 40.21,-15.09 67.89,-19.3 27.68,-4.21 61.26,-7.25 100.75,-9.12 3.85,-40.24 2.16,-69.71 -5.06,-88.42 -7.22,-18.72 -22.87,-28.08 -46.94,-28.08 -14.92,0 -28.65,2.34 -41.16,7.02l-33.96 84.21 -31.76 0c-3.86,-5.61 -7.59,-12.04 -11.2,-19.29 -3.61,-7.26 -6.98,-14.98 -10.12,-23.16 -3.13,-8.19 -5.77,-16.49 -7.94,-24.92 -2.16,-8.42 -3.73,-16.6 -4.69,-24.56 18.29,-12.16 41.89,-21.75 70.78,-28.77 28.89,-7.02 59.46,-10.53 91.71,-10.53 27.45,0 49.83,2.93 67.17,8.78 17.33,5.84 30.94,13.8 40.81,23.86 9.87,10.05 16.72,21.87 20.58,35.44 3.85,13.56 5.77,28.07 5.77,43.51 0,28.07 -0.59,53.45 -1.8,76.14 -1.2,22.69 -1.81,45.96 -1.81,69.82zm-162.5 54.04c10.12,0 18.79,-1.87 26.01,-5.61 7.22,-3.75 13.36,-8.19 18.41,-13.34 5.05,-5.14 8.91,-10.76 11.56,-16.84 2.64,-6.08 4.69,-11.46 6.14,-16.14l0 -70.18c-22.63,0.47 -41.17,1.87 -55.61,4.21 -14.45,2.34 -25.76,6.2 -33.94,11.58 -8.19,5.38 -13.84,12.17 -16.98,20.35 -3.13,8.19 -4.7,18.13 -4.7,29.83 0,17.78 4.34,31.58 13.01,41.4 8.67,9.83 20.7,14.74 36.1,14.74zm447.05 47.72l-199.33 0 0 -26.67c15.89,-7.48 31.78,-13.1 47.67,-16.84l0 -426.68 -54.88 -5.61 0 -26.67c6.26,-2.8 14.92,-5.61 25.99,-8.42 11.08,-2.81 22.99,-5.26 35.76,-7.37 12.76,-2.1 25.51,-3.97 38.27,-5.61 12.76,-1.64 24.19,-2.93 34.31,-3.86l24.55 0 0 484.22c15.89,3.74 31.77,9.36 47.66,16.84l0 26.67zm564.05 -58.95c-3.85,7.95 -9.99,16.03 -18.41,24.21 -8.43,8.19 -18.78,15.44 -31.06,21.76 -12.28,6.31 -26.48,11.46 -42.62,15.44 -16.12,3.97 -33.58,5.96 -52.35,5.96 -29.85,0 -56.33,-4.33 -79.44,-12.98 -23.12,-8.66 -42.37,-21.05 -57.78,-37.2 -15.4,-16.14 -27.09,-35.43 -35.03,-57.89 -7.94,-22.46 -11.92,-47.72 -11.92,-75.79 0,-59.89 16.14,-105.5 48.39,-136.85 32.26,-31.34 77.04,-47.02 134.33,-47.02 24.56,0 47.55,3.28 68.97,9.83 21.43,6.55 39.24,17.31 53.45,32.28 14.2,14.97 24.08,34.62 29.61,58.95 5.54,24.33 5.17,54.03 -1.09,89.12l-221.71 0c0.48,36.96 10.23,66.44 29.25,88.43 19.02,21.99 47.06,32.98 84.14,32.98 15.89,0 32.37,-2.34 49.47,-7.02 17.09,-4.68 30.45,-10.76 40.08,-18.24l13.72 14.03zm-149.14 -260.36c-9.62,0 -18.05,1.64 -25.51,4.92 -7.46,3.27 -13.84,9.24 -19.38,17.89 -5.54,8.66 -9.99,20.35 -13.24,35.09 -3.37,14.74 -5.78,33.33 -7.23,55.79l115.56 0c3.37,-36.49 1.2,-64.56 -6.5,-84.21 -7.59,-19.65 -22.15,-29.48 -43.7,-29.48zm393.97 242.82c0,-12.17 -4.46,-22.69 -13.36,-31.58 -8.91,-8.89 -19.99,-17.08 -33.22,-24.56 -13.25,-7.49 -27.69,-14.98 -43.34,-22.46 -15.65,-7.49 -30.09,-16.26 -43.33,-26.32 -13.24,-10.06 -24.31,-21.87 -33.22,-35.44 -8.91,-13.56 -13.36,-30.17 -13.36,-49.82 0,-14.04 3.36,-26.79 10.1,-38.25 6.75,-11.46 15.89,-21.17 27.45,-29.12 11.56,-7.96 25.4,-14.15 41.53,-18.6 16.13,-4.44 33.59,-6.67 52.36,-6.67 25.99,0 50.19,1.99 72.58,5.97 22.38,3.98 42.01,9.47 58.86,16.49 -1.93,14.97 -5.78,31 -11.56,48.07 -5.77,17.08 -11.31,32.63 -16.61,46.67l-24.56 0 -30.32 -71.58c-5.78,-2.34 -11.8,-3.86 -18.05,-4.56 -6.27,-0.7 -13.25,-1.06 -20.96,-1.06 -14.44,0 -25.39,4.1 -32.86,12.29 -7.46,8.18 -11.18,17.42 -11.18,27.72 0,11.69 4.44,21.87 13.35,30.52 8.91,8.66 19.98,16.73 33.22,24.21 13.25,7.49 27.69,14.97 43.34,22.46 15.64,7.49 30.09,16.02 43.33,25.61 13.24,9.6 24.31,20.94 33.22,34.04 8.91,13.1 13.36,28.77 13.36,47.02 0,32.28 -13.48,57.66 -40.44,76.14 -26.96,18.48 -63.07,27.72 -108.33,27.72 -23.11,0 -46.94,-2.34 -71.5,-7.02 -24.55,-4.67 -45.74,-11.22 -63.56,-19.65 0.97,-16.84 5.06,-33.91 12.28,-51.23 7.23,-17.31 14.92,-32.74 23.12,-46.31l24.55 0 35.38 76.49c5.3,3.74 11.2,5.97 17.7,6.67 6.5,0.7 12.64,1.05 18.41,1.05 13.97,0 26.73,-3.98 38.29,-11.93 11.55,-7.95 17.33,-18.95 17.33,-32.98zm124.21 -256.85c18.3,-11.58 37.56,-19.77 57.79,-24.56l0 -56.85c2.88,-2.8 7.82,-5.49 14.79,-8.07 6.99,-2.57 14.45,-4.91 22.4,-7.01 7.94,-2.11 15.76,-4.1 23.46,-5.97 7.71,-1.87 13.97,-3.27 18.78,-4.21l24.56 0 0 89.12 95.32 0 0 45.62 -95.32 0 0 180.82c0,28.78 3.73,48.78 11.19,60 7.47,11.12 19.87,16.73 37.2,16.73 8.66,0 18.41,-0.59 29.24,-1.75 10.84,-1.17 20.83,-3.4 29.97,-6.67l5.07 23.16c-4.34,4.21 -10.72,8.65 -19.15,13.33 -8.42,4.68 -18.05,9.12 -28.88,13.33 -10.84,4.21 -22.63,7.72 -35.39,10.53 -12.77,2.81 -26.12,4.21 -40.09,4.21 -31.29,0 -54.64,-7.95 -70.05,-23.74 -15.41,-15.91 -23.1,-41.52 -23.1,-76.85l0 -213.1 -57.79 0 0 -28.07zm621.82 231.58c0,10.3 0.13,19.19 0.36,26.67 0.25,7.49 0.85,15.44 1.81,23.86l49.83 7.02 0 24.56c-5.77,2.81 -13.6,5.61 -23.47,8.42 -9.87,2.81 -20.22,5.5 -31.05,8.07 -10.83,2.58 -21.55,4.68 -32.14,6.32 -10.6,1.64 -19.98,2.92 -28.16,3.86l-24.56 0c-4.82,-10.76 -7.71,-21.52 -8.66,-32.28 -0.97,-10.76 -1.69,-23.86 -2.18,-39.3l-3.61 0c-2.41,9.35 -6.49,18.36 -12.28,27.02 -5.77,8.65 -13.12,16.37 -22.02,23.15 -8.91,6.79 -19.38,12.28 -31.42,16.5 -12.03,4.21 -25.51,6.31 -40.44,6.31 -15.89,0 -30.58,-2.34 -44.06,-7.02 -13.48,-4.67 -25.27,-11.22 -35.38,-19.65 -10.11,-8.42 -18.06,-18.59 -23.83,-30.52 -5.79,-11.93 -8.67,-25.38 -8.67,-40.35 0,-21.06 4.09,-38.37 12.28,-51.94 8.18,-13.56 21.07,-24.67 38.63,-33.33 17.58,-8.66 40.21,-15.09 67.89,-19.3 27.69,-4.21 61.27,-7.25 100.75,-9.12 3.85,-40.24 2.16,-69.71 -5.06,-88.42 -7.21,-18.72 -22.87,-28.08 -46.94,-28.08 -14.92,0 -28.65,2.34 -41.16,7.02l-33.95 84.21 -31.77 0c-3.86,-5.61 -7.59,-12.04 -11.2,-19.29 -3.61,-7.26 -6.98,-14.98 -10.11,-23.16 -3.13,-8.19 -5.78,-16.49 -7.95,-24.92 -2.16,-8.42 -3.72,-16.6 -4.69,-24.56 18.3,-12.16 41.89,-21.75 70.78,-28.77 28.89,-7.02 59.46,-10.53 91.72,-10.53 27.44,0 49.82,2.93 67.17,8.78 17.33,5.84 30.93,13.8 40.8,23.86 9.87,10.05 16.72,21.87 20.58,35.44 3.85,13.56 5.78,28.07 5.78,43.51 0,28.07 -0.6,53.45 -1.81,76.14 -1.2,22.69 -1.81,45.96 -1.81,69.82zm-162.49 54.04c10.11,0 18.78,-1.87 26,-5.61 7.23,-3.75 13.36,-8.19 18.41,-13.34 5.06,-5.14 8.91,-10.76 11.56,-16.84 2.64,-6.08 4.69,-11.46 6.14,-16.14l0 -70.18c-22.63,0.47 -41.17,1.87 -55.61,4.21 -14.45,2.34 -25.76,6.2 -33.94,11.58 -8.19,5.38 -13.84,12.17 -16.98,20.35 -3.13,8.19 -4.69,18.13 -4.69,29.83 0,17.78 4.33,31.58 13,41.4 8.67,9.83 20.7,14.74 36.11,14.74zm231.1 -285.62c18.3,-11.58 37.57,-19.77 57.79,-24.56l0 -56.85c2.88,-2.8 7.82,-5.49 14.8,-8.07 6.99,-2.57 14.45,-4.91 22.39,-7.01 7.95,-2.11 15.77,-4.1 23.47,-5.97 7.7,-1.87 13.96,-3.27 18.78,-4.21l24.55 0 0 89.12 95.33 0 0 45.62 -95.33 0 0 180.82c0,28.78 3.74,48.78 11.2,60 7.46,11.12 19.86,16.73 37.19,16.73 8.67,0 18.41,-0.59 29.25,-1.75 10.83,-1.17 20.83,-3.4 29.97,-6.67l5.06 23.16c-4.33,4.21 -10.71,8.65 -19.14,13.33 -8.43,4.68 -18.05,9.12 -28.89,13.33 -10.84,4.21 -22.63,7.72 -35.39,10.53 -12.76,2.81 -26.12,4.21 -40.09,4.21 -31.29,0 -54.64,-7.95 -70.05,-23.74 -15.4,-15.91 -23.1,-41.52 -23.1,-76.85l0 -213.1 -57.79 0 0 -28.07zm633.38 274.39c-3.84,7.95 -9.99,16.03 -18.41,24.21 -8.43,8.19 -18.78,15.44 -31.06,21.76 -12.27,6.31 -26.47,11.46 -42.61,15.44 -16.13,3.97 -33.58,5.96 -52.35,5.96 -29.86,0 -56.34,-4.33 -79.45,-12.98 -23.11,-8.66 -42.37,-21.05 -57.77,-37.2 -15.41,-16.14 -27.09,-35.43 -35.04,-57.89 -7.94,-22.46 -11.91,-47.72 -11.91,-75.79 0,-59.89 16.13,-105.5 48.39,-136.85 32.26,-31.34 77.04,-47.02 134.33,-47.02 24.55,0 47.54,3.28 68.97,9.83 21.42,6.55 39.24,17.31 53.44,32.28 14.2,14.97 24.08,34.62 29.62,58.95 5.53,24.33 5.16,54.03 -1.09,89.12l-221.72 0c0.49,36.96 10.23,66.44 29.25,88.43 19.02,21.99 47.06,32.98 84.14,32.98 15.89,0 32.38,-2.34 49.47,-7.02 17.1,-4.68 30.45,-10.76 40.09,-18.24l13.71 14.03zm-149.14 -260.36c-9.62,0 -18.05,1.64 -25.51,4.92 -7.46,3.27 -13.84,9.24 -19.38,17.89 -5.53,8.66 -9.99,20.35 -13.24,35.09 -3.37,14.74 -5.77,33.33 -7.22,55.79l115.55 0c3.37,-36.49 1.21,-64.56 -6.5,-84.21 -7.58,-19.65 -22.15,-29.48 -43.7,-29.48z"/>
   <path class="fil1" d="M2972.49 4491.09c0,10.3 0.13,19.19 0.36,26.67 0.25,7.49 0.85,15.44 1.81,23.86l49.83 7.02 0 24.56c-5.77,2.81 -13.6,5.61 -23.47,8.42 -9.87,2.81 -20.22,5.5 -31.05,8.07 -10.83,2.58 -21.55,4.68 -32.14,6.32 -10.6,1.64 -19.98,2.92 -28.16,3.86l-24.56 0c-4.82,-10.76 -7.71,-21.52 -8.66,-32.28 -0.97,-10.76 -1.69,-23.86 -2.18,-39.3l-3.61 0c-2.41,9.35 -6.49,18.36 -12.28,27.02 -5.77,8.65 -13.12,16.37 -22.02,23.15 -8.91,6.79 -19.38,12.28 -31.42,16.5 -12.03,4.21 -25.51,6.31 -40.44,6.31 -15.89,0 -30.58,-2.34 -44.06,-7.02 -13.48,-4.67 -25.27,-11.22 -35.38,-19.65 -10.12,-8.42 -18.06,-18.59 -23.83,-30.52 -5.79,-11.93 -8.67,-25.38 -8.67,-40.35 0,-21.06 4.09,-38.37 12.28,-51.94 8.18,-13.56 21.06,-24.67 38.63,-33.33 17.58,-8.66 40.21,-15.09 67.89,-19.3 27.69,-4.21 61.27,-7.25 100.75,-9.12 3.85,-40.24 2.16,-69.71 -5.06,-88.42 -7.21,-18.72 -22.87,-28.08 -46.94,-28.08 -14.92,0 -28.65,2.34 -41.16,7.02l-33.95 84.21 -31.77 0c-3.86,-5.61 -7.59,-12.04 -11.2,-19.29 -3.61,-7.26 -6.98,-14.98 -10.12,-23.16 -3.12,-8.19 -5.77,-16.49 -7.94,-24.92 -2.16,-8.42 -3.73,-16.6 -4.69,-24.56 18.29,-12.16 41.89,-21.75 70.78,-28.77 28.89,-7.02 59.46,-10.53 91.71,-10.53 27.45,0 49.83,2.93 67.18,8.78 17.33,5.84 30.93,13.8 40.8,23.86 9.87,10.05 16.72,21.87 20.58,35.44 3.85,13.56 5.78,28.07 5.78,43.51 0,28.07 -0.6,53.45 -1.81,76.14 -1.2,22.69 -1.81,45.96 -1.81,69.82zm-162.49 54.04c10.11,0 18.78,-1.87 26,-5.61 7.23,-3.75 13.36,-8.19 18.41,-13.34 5.06,-5.14 8.91,-10.76 11.56,-16.84 2.64,-6.08 4.69,-11.46 6.14,-16.14l0 -70.18c-22.63,0.47 -41.17,1.87 -55.61,4.21 -14.45,2.34 -25.76,6.2 -33.94,11.58 -8.19,5.38 -13.84,12.17 -16.98,20.35 -3.13,8.19 -4.69,18.13 -4.69,29.83 0,17.78 4.33,31.58 13,41.4 8.67,9.83 20.7,14.74 36.11,14.74zm416 -311.59c31.29,0 57.29,3.16 77.99,9.48 20.71,6.31 36.35,14.15 46.94,23.51 22.63,-23.86 48.64,-40.47 78,-49.83 3.37,2.34 6.74,5.73 10.11,10.18 3.37,4.44 6.26,9.24 8.67,14.38 2.41,5.15 4.33,10.3 5.77,15.44 1.45,5.15 2.17,9.36 2.17,12.63l-9.38 16.85 -75.84 0c5.3,6.55 10.23,15.08 14.81,25.61 4.57,10.53 6.85,23.04 6.85,37.55 0,15.43 -3.36,29.94 -10.1,43.51 -6.74,13.56 -16.97,25.61 -30.7,36.14 -13.72,10.52 -31.05,18.83 -51.99,24.91 -20.94,6.08 -45.39,9.12 -73.3,9.12 -8.2,0 -15.53,-0.11 -22.04,-0.35 -6.49,-0.23 -12.15,-0.82 -16.97,-1.75 -1.92,2.8 -3.97,6.2 -6.13,10.17 -2.17,3.98 -3.25,7.84 -3.25,11.58 0,7.96 5.77,14.27 17.33,18.95 11.55,4.68 26.24,8.89 44.05,12.63 17.82,3.74 36.96,7.96 57.42,12.63 20.46,4.68 39.6,10.88 57.41,18.6 17.82,7.72 32.74,17.78 44.78,30.18 12.04,12.39 18.3,28.42 18.78,48.07 0.47,18.71 -4.33,35.32 -14.45,49.82 -10.11,14.51 -23.95,26.79 -41.52,36.85 -17.58,10.06 -38.28,17.77 -62.11,23.15 -23.84,5.39 -49.23,8.08 -76.2,8.08 -31.78,0 -58.85,-2.46 -81.25,-7.37 -22.38,-4.92 -40.56,-11.58 -54.52,-20 -13.96,-8.43 -24.19,-18.02 -30.7,-28.78 -6.49,-10.76 -9.74,-21.99 -9.74,-33.68 0,-13.1 2.64,-24.33 7.94,-33.69 5.29,-9.35 12.76,-17.54 22.39,-24.56 9.63,-7.02 20.83,-12.86 33.58,-17.54 12.76,-4.68 26.85,-8.89 42.25,-12.63 -7.22,-1.88 -14.2,-4.21 -20.94,-7.02 -6.74,-2.81 -12.76,-6.2 -18.06,-10.18 -5.29,-3.97 -9.62,-8.65 -13,-14.03 -3.37,-5.38 -5.05,-11.58 -5.05,-18.6 0,-6.08 1.92,-12.05 5.77,-17.9 3.86,-5.84 8.91,-11.22 15.17,-16.14 6.26,-4.91 13,-9.35 20.22,-13.33 7.23,-3.98 14.44,-7.37 21.66,-10.18 -30.32,-6.55 -54.39,-19.29 -72.21,-38.24 -17.81,-18.95 -26.72,-43.16 -26.72,-72.63 0,-35.09 14.92,-62.46 44.77,-82.11 29.86,-19.65 70.3,-29.48 121.34,-29.48zm90.99 412.64c0,-12.63 -3.97,-22.8 -11.92,-30.52 -7.94,-7.72 -18.17,-14.04 -30.69,-18.95 -12.52,-4.91 -26.6,-9.12 -42.25,-12.63 -15.64,-3.51 -31.17,-7.6 -46.58,-12.28 -12.52,9.35 -21.43,18.71 -26.73,28.07 -5.29,9.35 -7.94,20.58 -7.94,33.68 0,21.52 7.58,38.25 22.75,50.18 15.17,11.93 36.48,17.89 63.92,17.89 26.96,0 46.94,-5.49 59.94,-16.49 13,-10.99 19.5,-23.97 19.5,-38.95zm-153.1 -297.55c0,24.33 4.21,42.81 12.64,55.44 8.41,12.64 24.91,18.95 49.47,18.95 23.58,0 39.83,-6.43 48.74,-19.3 8.91,-12.86 13.36,-31.23 13.36,-55.09 0,-25.26 -4.58,-44.09 -13.72,-56.49 -9.14,-12.4 -25.28,-18.6 -48.38,-18.6 -24.09,0 -40.45,6.09 -49.11,18.25 -8.67,12.16 -13,31.11 -13,56.84zm629.75 185.27c-3.84,7.95 -9.99,16.03 -18.41,24.21 -8.42,8.19 -18.78,15.44 -31.05,21.76 -12.28,6.31 -26.48,11.46 -42.62,15.44 -16.13,3.97 -33.58,5.96 -52.35,5.96 -29.86,0 -56.34,-4.33 -79.45,-12.98 -23.11,-8.66 -42.37,-21.05 -57.77,-37.2 -15.41,-16.14 -27.09,-35.43 -35.03,-57.89 -7.95,-22.46 -11.92,-47.72 -11.92,-75.79 0,-59.89 16.13,-105.5 48.39,-136.85 32.26,-31.34 77.04,-47.02 134.33,-47.02 24.55,0 47.54,3.28 68.97,9.83 21.43,6.55 39.24,17.31 53.44,32.28 14.2,14.97 24.08,34.62 29.62,58.95 5.54,24.33 5.16,54.03 -1.09,89.12l-221.71 0c0.48,36.96 10.22,66.44 29.24,88.43 19.02,21.99 47.06,32.98 84.14,32.98 15.89,0 32.38,-2.34 49.47,-7.02 17.1,-4.68 30.45,-10.76 40.09,-18.24l13.71 14.03zm-149.13 -260.36c-9.63,0 -18.06,1.64 -25.52,4.92 -7.46,3.27 -13.84,9.24 -19.37,17.89 -5.54,8.66 -10,20.35 -13.25,35.09 -3.36,14.74 -5.77,33.33 -7.22,55.79l115.56 0c3.36,-36.49 1.2,-64.56 -6.51,-84.21 -7.58,-19.65 -22.14,-29.48 -43.69,-29.48zm642.4 319.31l-191.38 0 0 -26.67c6.25,-3.27 12.4,-6.2 18.41,-8.77 6.02,-2.57 13.12,-5.26 21.31,-8.07l0 -165.38c0,-29.59 -4.33,-52.64 -13,-69.24 -8.67,-16.73 -24.08,-25.03 -46.23,-25.03 -18.29,0 -34.06,5.73 -47.29,17.19 -13.25,11.58 -23.24,27.13 -29.98,46.78l0 195.68c7.71,1.87 14.56,4.09 20.58,6.67 6.02,2.57 12.4,5.96 19.14,10.17l0 26.67 -191.38 0 0 -26.67c12.04,-6.08 27.93,-11.81 47.67,-16.96l0 -258.13 -47.67 -5.62 0 -26.66c6.25,-2.81 14.45,-5.5 24.55,-8.07 10.12,-2.58 21.07,-5.03 32.86,-7.37 11.79,-2.34 23.84,-4.33 36.11,-5.97 12.28,-1.63 23.48,-2.92 33.58,-3.86l24.56 0 0.36 72.29c10.47,-19.65 25.64,-36.61 45.87,-50.88 20.22,-14.27 44.77,-21.41 73.66,-21.41 18.77,0 35.63,2.23 50.55,6.67 14.92,4.45 27.56,12.28 37.91,23.63 10.36,11.23 18.3,26.31 23.84,45.26 5.53,19.07 8.3,43.04 8.3,72.17l0 168.07c19.27,3.28 35.15,8.89 47.67,16.84l0 26.67zm337.99 -56.84c-3.37,9.35 -8.91,17.89 -16.61,25.61 -7.71,7.72 -16.98,14.62 -27.8,20.7 -10.84,6.09 -23.12,10.76 -36.84,14.04 -13.72,3.27 -28.04,4.91 -42.97,4.91 -31.78,0 -59.1,-4.33 -81.97,-12.98 -22.87,-8.66 -41.76,-21.05 -56.69,-37.2 -14.93,-16.14 -26,-35.55 -33.22,-58.24 -7.23,-22.69 -10.84,-47.84 -10.84,-75.44 0,-59.42 16.73,-104.92 50.2,-136.5 33.46,-31.58 81,-47.37 142.63,-47.37 23.59,0 45.27,2.46 65,7.37 19.74,4.91 36.12,10.65 49.11,17.2 -0.96,7.95 -2.29,16.72 -3.97,26.31 -1.69,9.59 -3.61,19.18 -5.78,28.77 -2.16,9.6 -4.7,18.95 -7.59,28.08 -2.88,9.12 -5.77,16.72 -8.66,22.8l-35.38 0 -30.34 -83.51c-3.37,-2.34 -6.98,-4.09 -10.83,-5.26 -3.86,-1.17 -9.63,-1.76 -17.34,-1.76 -12.51,0 -23.35,2.23 -32.5,6.67 -9.15,4.45 -16.97,12.05 -23.46,22.81 -6.51,10.76 -11.32,25.03 -14.45,42.81 -3.13,17.78 -4.69,39.76 -4.69,65.96 0,19.19 2.16,36.85 6.5,52.99 4.33,16.14 10.95,30.17 19.85,42.1 8.91,11.93 20.11,21.29 33.59,28.07 13.48,6.79 29.36,10.18 47.66,10.18 16.86,0 31.54,-2.34 44.06,-7.02 12.51,-4.68 23.11,-10.29 31.78,-16.84l11.55 14.74zm47.67 -250.54c-7.22,-1.87 -13.84,-4.21 -19.86,-7.01 -6.02,-2.81 -12.15,-6.08 -18.42,-9.83l0 -26.67 189.94 0 0 25.97c-10.11,6.55 -23.83,12.4 -41.16,17.54l72.94 176.73 12.28 45.03 1.44 0 11.56 -45.73 56.33 -176.03c-14.45,-2.8 -27.68,-8.42 -39.72,-16.84l0 -26.67 139.38 0 0 26.67c-10.11,6.55 -23.83,12.17 -41.16,16.84l-117.73 307.38c-11.55,29.94 -23.1,54.39 -34.66,73.33 -11.55,18.95 -23.11,34.04 -34.67,45.27 -11.55,11.23 -23.1,19.06 -34.66,23.51 -11.55,4.44 -23.11,7.37 -34.67,8.77 -4.81,-4.21 -9.15,-9.47 -13,-15.79 -3.84,-6.32 -7.22,-13.1 -10.1,-20.35 -2.89,-7.25 -5.3,-14.62 -7.23,-22.11 -1.92,-7.48 -3.12,-14.5 -3.61,-21.05l9.39 -16.84 88.11 0c4.33,-6.55 8.06,-13.57 11.2,-21.06 3.13,-7.48 6.85,-18.71 11.18,-33.68l-153.1 -307.38zm650.7 -28.07l-24.55 0c-2.9,-7.01 -6.15,-15.2 -9.75,-24.56 -3.61,-9.35 -7.35,-19.18 -11.2,-29.47 -3.84,-10.29 -7.46,-20.47 -10.83,-30.53 -3.37,-10.06 -6.02,-19.3 -7.95,-27.72 16.86,-14.03 38.4,-26.2 64.64,-36.49 26.24,-10.29 58.14,-15.44 95.69,-15.44 26.49,0 49.35,3.27 68.61,9.82 19.26,6.55 35.27,15.68 48.03,27.37 12.76,11.7 22.15,25.27 28.17,40.71 6.02,15.44 9.02,32.04 9.02,49.82 0,28.54 -6.74,55.56 -20.22,81.06 -13.48,25.49 -30.09,49.35 -49.83,71.58 -19.74,22.22 -40.93,42.8 -63.56,61.75 -22.62,18.95 -43.09,36.14 -61.39,51.58l-37.55 24.56 0 2.81 44.06 -4.21 124.21 0 35.39 -78.6 24.56 0c1.44,11.23 3.01,24.33 4.69,39.3 1.69,14.97 3.25,30.06 4.69,45.27 1.45,15.2 2.66,29.7 3.62,43.51 0.96,13.8 1.45,24.91 1.45,33.33l-330.77 0 0 -44.91c12.51,-10.76 26.71,-23.28 42.6,-37.55 15.89,-14.27 32.02,-29.94 48.39,-47.02 16.38,-17.07 32.5,-35.2 48.39,-54.38 15.89,-19.19 30.09,-38.72 42.61,-58.6 12.52,-19.89 22.5,-40.12 29.98,-60.7 7.46,-20.59 11.18,-40.71 11.18,-60.36 0,-25.73 -7.1,-46.66 -21.3,-62.81 -14.2,-16.14 -34.3,-24.21 -60.31,-24.21 -8.18,0 -15.53,0.47 -22.02,1.41 -6.5,0.93 -13.84,2.57 -22.02,4.91l-26.73 108.77zm322.82 89.83c0,-42.11 4.7,-78.95 14.09,-110.53 9.39,-31.58 22.39,-58.01 39,-79.3 16.61,-21.29 36.34,-37.31 59.22,-48.07 22.87,-10.76 47.78,-16.14 74.75,-16.14 57.77,0 103.52,21.17 137.22,63.51 33.69,42.34 50.55,105.85 50.55,190.53 0,42.11 -4.69,78.95 -14.09,110.53 -9.39,31.58 -22.62,58.01 -39.71,79.3 -17.1,21.29 -37.44,37.31 -61.03,48.07 -23.6,10.76 -49.36,16.14 -77.28,16.14 -29.37,0 -55.36,-5.73 -77.99,-17.19 -22.63,-11.46 -41.77,-28.07 -57.42,-49.83 -15.65,-21.75 -27.44,-48.3 -35.39,-79.65 -7.94,-31.34 -11.92,-67.13 -11.92,-107.37zm108.34 0c0,33.45 1.08,63.39 3.24,89.94 2.17,26.44 6.15,48.89 11.92,67.26 5.78,18.36 13.37,32.4 22.75,42.22 9.39,9.71 21.3,14.62 35.75,14.62 16.85,0 30.69,-3.98 41.53,-11.81 10.83,-7.96 19.5,-20.47 25.99,-37.66 6.51,-17.2 10.96,-39.3 13.36,-66.32 2.41,-26.9 3.61,-59.65 3.61,-98.25 0,-33.45 -0.95,-63.39 -2.88,-89.94 -1.92,-26.44 -5.66,-48.89 -11.19,-67.26 -5.54,-18.36 -13.49,-32.39 -23.84,-42.22 -10.35,-9.71 -24.19,-14.62 -41.52,-14.62 -15.41,0 -28.17,3.98 -38.28,11.81 -10.11,7.96 -18.18,20.47 -24.19,37.67 -6.02,17.19 -10.24,39.41 -12.64,66.55 -2.41,27.25 -3.61,59.88 -3.61,98.01z"/>
   <path class="fil1" d="M6141.47 4258.67l-24.65 0c-2.89,-6.99 -6.16,-15.14 -9.78,-24.46 -3.61,-9.32 -7.36,-19.1 -11.22,-29.35 -3.87,-10.25 -7.49,-20.38 -10.87,-30.4 -3.38,-10.02 -6.05,-19.22 -7.98,-27.6 16.92,-13.98 38.53,-26.09 64.85,-36.34 26.34,-10.25 58.34,-15.38 96.02,-15.38 26.56,0 49.51,3.26 68.84,9.79 19.32,6.52 35.38,15.6 48.18,27.25 12.81,11.65 22.22,25.16 28.26,40.53 6.04,15.38 9.06,31.92 9.06,49.62 0,28.42 -6.76,55.32 -20.29,80.71 -13.52,25.4 -30.18,49.16 -50,71.29 -19.8,22.13 -41.06,42.62 -63.76,61.49 -22.71,18.87 -43.24,35.99 -61.59,51.37l-37.68 24.46 0 2.79 44.2 -4.19 124.63 0 35.51 -78.27 24.64 0c1.44,11.18 3.01,24.23 4.71,39.13 1.69,14.91 3.25,29.94 4.7,45.08 1.45,15.14 2.66,29.58 3.63,43.33 0.97,13.74 1.44,24.8 1.44,33.19l-331.87 0 0 -44.73c12.56,-10.71 26.82,-23.17 42.75,-37.38 15.94,-14.21 32.13,-29.82 48.55,-46.82 16.43,-17.01 32.61,-35.06 48.55,-54.16 15.95,-19.1 30.19,-38.56 42.75,-58.36 12.57,-19.8 22.59,-39.95 30.08,-60.44 7.49,-20.5 11.23,-40.54 11.23,-60.1 0,-25.63 -7.12,-46.48 -21.38,-62.55 -14.25,-16.07 -34.41,-24.11 -60.5,-24.11 -8.22,0 -15.58,0.47 -22.1,1.4 -6.52,0.93 -13.89,2.56 -22.11,4.89l-26.8 108.32zm323.9 89.45c0,-41.93 4.71,-78.62 14.13,-110.07 9.43,-31.44 22.46,-57.77 39.13,-78.96 16.67,-21.2 36.47,-37.16 59.42,-47.87 22.94,-10.72 47.94,-16.08 75,-16.08 57.97,0 103.86,21.08 137.68,63.25 33.81,42.16 50.72,105.4 50.72,189.73 0,41.93 -4.72,78.62 -14.13,110.07 -9.43,31.44 -22.71,57.77 -39.86,78.96 -17.15,21.2 -37.56,37.16 -61.23,47.87 -23.67,10.72 -49.51,16.08 -77.53,16.08 -29.47,0 -55.56,-5.71 -78.26,-17.13 -22.7,-11.41 -41.91,-27.95 -57.6,-49.61 -15.7,-21.67 -27.54,-48.11 -35.52,-79.32 -7.96,-31.21 -11.95,-66.85 -11.95,-106.92zm108.7 0c0,33.31 1.08,63.13 3.25,89.57 2.18,26.32 6.16,48.68 11.96,66.97 5.79,18.28 13.4,32.26 22.83,42.04 9.41,9.67 21.37,14.56 35.87,14.56 16.9,0 30.79,-3.96 41.66,-11.76 10.86,-7.92 19.56,-20.38 26.09,-37.5 6.52,-17.13 10.99,-39.14 13.4,-66.04 2.42,-26.79 3.62,-59.4 3.62,-97.84 0,-33.31 -0.96,-63.13 -2.89,-89.57 -1.94,-26.32 -5.68,-48.68 -11.24,-66.97 -5.55,-18.28 -13.52,-32.26 -23.91,-42.04 -10.38,-9.67 -24.28,-14.56 -41.66,-14.56 -15.46,0 -28.26,3.96 -38.41,11.76 -10.14,7.92 -18.24,20.38 -24.27,37.5 -6.04,17.13 -10.27,39.25 -12.69,66.28 -2.41,27.13 -3.61,59.63 -3.61,97.6z"/>
   <path class="fil1" d="M6946.16 4365.74l201.99 0 0 63.3 -201.99 0 0 -63.3zm350.26 -106.2l-24.35 0c-2.87,-7.04 -6.09,-15.24 -9.67,-24.62 -3.59,-9.38 -7.28,-19.22 -11.1,-29.54 -3.82,-10.31 -7.41,-20.51 -10.75,-30.59 -3.34,-10.08 -5.96,-19.34 -7.88,-27.78 16.71,-14.07 38.09,-26.26 64.11,-36.58 26.03,-10.31 57.66,-15.47 94.91,-15.47 26.26,0 48.94,3.28 68.05,9.85 19.09,6.56 34.97,15.7 47.63,27.43 12.66,11.72 21.97,25.32 27.94,40.79 5.96,15.47 8.95,32.12 8.95,49.94 0,28.6 -6.68,55.68 -20.05,81.23 -13.38,25.55 -29.85,49.47 -49.43,71.74 -19.58,22.27 -40.59,42.9 -63.03,61.89 -22.45,18.99 -42.74,36.22 -60.89,51.7l-37.24 24.61 0 2.82 43.69 -4.22 123.2 0 35.1 -78.78 24.35 0c1.44,11.26 2.98,24.39 4.65,39.39 1.67,15 3.23,30.13 4.67,45.37 1.42,15.23 2.62,29.77 3.57,43.6 0.96,13.83 1.44,24.97 1.44,33.41l-328.07 0 0 -45.01c12.42,-10.79 26.51,-23.33 42.27,-37.63 15.75,-14.3 31.75,-30.01 47.99,-47.12 16.23,-17.12 32.23,-35.29 48,-54.51 15.75,-19.23 29.84,-38.8 42.25,-58.73 12.41,-19.93 22.32,-40.21 29.73,-60.84 7.4,-20.63 11.1,-40.79 11.1,-60.48 0,-25.79 -7.04,-46.78 -21.13,-62.95 -14.09,-16.18 -34.02,-24.27 -59.81,-24.27 -8.12,0 -15.4,0.47 -21.85,1.41 -6.45,0.94 -13.73,2.58 -21.85,4.92l-26.5 109.02zm320.19 90.02c0,-42.2 4.65,-79.12 13.96,-110.77 9.31,-31.65 22.2,-58.14 38.68,-79.48 16.48,-21.33 36.05,-37.39 58.73,-48.17 22.69,-10.79 47.4,-16.18 74.14,-16.18 57.31,0 102.67,21.22 136.1,63.65 33.42,42.43 50.13,106.09 50.13,190.95 0,42.2 -4.65,79.13 -13.96,110.78 -9.31,31.65 -22.45,58.14 -39.39,79.48 -16.96,21.33 -37.13,37.39 -60.53,48.17 -23.4,10.79 -48.95,16.18 -76.64,16.18 -29.13,0 -54.92,-5.74 -77.36,-17.23 -22.45,-11.49 -41.43,-28.13 -56.95,-49.94 -15.52,-21.8 -27.22,-48.41 -35.1,-79.83 -7.88,-31.41 -11.81,-67.28 -11.81,-107.61zm107.44 0c0,33.53 1.07,63.54 3.22,90.15 2.15,26.49 6.09,49 11.82,67.4 5.73,18.4 13.25,32.47 22.56,42.32 9.31,9.73 21.13,14.65 35.46,14.65 16.71,0 30.44,-3.99 41.19,-11.84 10.74,-7.97 19.34,-20.51 25.78,-37.74 6.45,-17.24 10.86,-39.39 13.25,-66.47 2.39,-26.96 3.59,-59.78 3.59,-98.47 0,-33.52 -0.96,-63.53 -2.87,-90.14 -1.91,-26.49 -5.61,-49 -11.1,-67.4 -5.49,-18.41 -13.38,-32.47 -23.64,-42.32 -10.27,-9.73 -24,-14.65 -41.19,-14.65 -15.28,0 -27.93,3.98 -37.96,11.84 -10.03,7.97 -18.03,20.51 -24,37.74 -5.97,17.24 -10.14,39.51 -12.53,66.7 -2.39,27.32 -3.58,60.02 -3.58,98.23zm381.78 -90.02l-24.35 0c-2.87,-7.04 -6.09,-15.24 -9.68,-24.62 -3.58,-9.38 -7.28,-19.22 -11.1,-29.54 -3.82,-10.31 -7.4,-20.51 -10.74,-30.59 -3.34,-10.08 -5.97,-19.34 -7.89,-27.78 16.72,-14.07 38.09,-26.26 64.11,-36.58 26.04,-10.31 57.67,-15.47 94.91,-15.47 26.27,0 48.95,3.28 68.05,9.85 19.1,6.56 34.98,15.7 47.63,27.43 12.66,11.72 21.97,25.32 27.94,40.79 5.97,15.47 8.95,32.12 8.95,49.94 0,28.6 -6.68,55.68 -20.05,81.23 -13.37,25.55 -29.85,49.47 -49.43,71.74 -19.58,22.27 -40.59,42.9 -63.03,61.89 -22.44,18.99 -42.74,36.22 -60.89,51.7l-37.24 24.61 0 2.82 43.69 -4.22 123.21 0 35.09 -78.78 24.35 0c1.44,11.26 2.99,24.39 4.66,39.39 1.67,15 3.23,30.13 4.66,45.37 1.43,15.23 2.62,29.77 3.58,43.6 0.95,13.83 1.43,24.97 1.43,33.41l-328.06 0 0 -45.01c12.41,-10.79 26.51,-23.33 42.26,-37.63 15.76,-14.3 31.76,-30.01 47.99,-47.12 16.23,-17.12 32.23,-35.29 48,-54.51 15.75,-19.23 29.84,-38.8 42.25,-58.73 12.42,-19.93 22.33,-40.21 29.73,-60.84 7.41,-20.63 11.1,-40.79 11.1,-60.48 0,-25.79 -7.04,-46.78 -21.13,-62.95 -14.09,-16.18 -34.02,-24.27 -59.8,-24.27 -8.13,0 -15.41,0.47 -21.86,1.41 -6.44,0.94 -13.73,2.58 -21.84,4.92l-26.5 109.02zm637.49 336.19l-247.83 0 0 -30.24c11.93,-5.16 23.99,-9.73 36.17,-13.72 12.17,-3.98 24.47,-7.38 36.89,-10.2l0 -322.82 2.86 -41.5c-13.37,4.22 -27.21,7.03 -41.54,8.44 -14.33,1.41 -29.13,1.87 -44.41,1.41l-3.58 -26.03c25.31,-6.56 52.89,-15.47 82.73,-26.72 29.85,-11.26 57.42,-24.39 82.73,-39.39l24.36 0 0 446.61c11.93,2.82 23.87,6.22 35.81,10.2 11.94,3.99 23.88,8.56 35.81,13.72l0 30.24z"/>
   <g id="_1081100064">
    <polygon class="fil0" points="6611.97,808.13 6486.21,1007.07 6611.97,1206.01 6737.72,1007.07 "/>
    <polygon class="fil0" points="5206.44,609.19 5080.69,410.25 4947.53,609.19 5080.69,808.13 "/>
    <polygon class="fil0" points="6308.67,1603.88 6434.43,1404.94 6308.67,1206.01 6182.91,1404.94 "/>
    <polygon class="fil0" points="5383.98,1603.88 5509.74,1404.94 5383.98,1206.01 5258.23,1404.94 "/>
    <polygon class="fil0" points="5694.68,808.13 5561.52,1007.07 5694.68,1206.01 5820.44,1007.07 "/>
    <polygon class="fil0" points="5206.44,1404.94 5080.69,1206.01 4947.53,1404.94 5080.69,1603.88 "/>
    <polygon class="fil0" points="6123.73,1404.94 5997.98,1206.01 5872.22,1404.94 5997.98,1603.88 "/>
    <polygon class="fil0" points="6308.67,808.13 6182.91,1007.07 6308.67,1206.01 6434.43,1007.07 "/>
    <polygon class="fil0" points="5694.68,410.25 5561.52,609.19 5694.68,808.13 5820.44,609.19 "/>
    <polygon class="fil0" points="4769.99,1603.88 4895.75,1404.94 4769.99,1206.01 4644.24,1404.94 "/>
    <polygon class="fil0" points="6308.67,410.25 6182.91,609.19 6308.67,808.13 6434.43,609.19 "/>
    <polygon class="fil0" points="5383.98,808.13 5258.23,1007.07 5383.98,1206.01 5509.74,1007.07 "/>
    <polygon class="fil0" points="4769.99,808.13 4644.24,1007.07 4769.99,1206.01 4895.75,1007.07 "/>
    <polygon class="fil0" points="6611.97,1603.88 6737.72,1404.94 6611.97,1206.01 6486.21,1404.94 "/>
    <polygon class="fil0" points="5694.68,1603.88 5820.44,1404.94 5694.68,1206.01 5561.52,1404.94 "/>
    <polygon class="fil0" points="5694.68,12.38 5561.52,211.32 5694.68,410.25 5820.44,211.32 "/>
    <g>
     <path class="fil0" d="M4518.48 2264.64c147.95,0 244.11,-78.15 244.11,-241.56l0 -298.41 -118.35 0 0 305.51c0,85.26 -44.39,127.89 -118.36,127.89 -73.98,0 -118.36,-42.63 -118.36,-127.89l0 -298.41 -118.36 0 0 305.52c-1.72,10.38 -2.63,20.92 -2.63,31.46 0,109.06 92.1,197.52 205.65,197.52 8.79,0 17.58,-0.56 26.29,-1.62l0.01 -0.01zm0 0l0 0 0 0z"/>
    </g>
    <g>
     <path class="fil0" d="M5125.07 1987.55l-118.36 0 0 -149.21 118.36 0.01c59.18,0 96.17,28.42 96.17,78.15 -5.57,41.03 -41.99,71.74 -85.08,71.74 -3.7,0 -7.42,-0.24 -11.09,-0.69l0 0zm214.53 -78.16c0.18,-2.99 0.26,-6.05 0.26,-9.07 0,-41.24 -15.92,-81.06 -44.63,-111.7 -41.05,-36.71 -95.13,-57.14 -151.21,-57.14 -3.85,0 -7.72,0.11 -11.55,0.29l-251.51 0 0 525.77 118.36 0 0 -170.52 99.86 0 118.36 170.52 140.55 0 -136.85 -188.29c70.45,-21.09 118.45,-83.76 118.45,-154.64 0,-1.72 -0.04,-3.52 -0.08,-5.22l-0.01 0z"/>
    </g>
    <g>
     <path class="fil0" d="M5768.65 1888.08c0,42.63 -36.98,56.84 -88.76,56.84l-110.97 0 0 -113.68 122.06 0c51.78,0 81.37,21.32 81.37,56.84l-3.7 0zm33.29 213.15c0,42.63 -29.59,56.84 -88.77,56.84l-140.55 0 0 -113.68 140.55 0c62.88,-7.11 85.07,14.21 85.07,56.84l3.7 0zm-347.68 -369.46l0 525.77 258.91 0c125.76,0 207.13,-49.74 207.13,-142.1 0.02,-1.2 0.05,-2.45 0.05,-3.67 0,-61.12 -42.36,-114.81 -103.62,-131.33 44.42,-22.05 72.82,-65.67 73.99,-113.68 -1.09,-33.9 -14.15,-66.5 -36.99,-92.36 -35.72,-27.88 -80.39,-43.11 -126.42,-43.11 -4.7,0 -9.47,0.17 -14.15,0.47l-258.9 0.01z"/>
    </g>
    <polygon class="fil0" points="7100.2,2257.54 7100.2,1731.77 6981.84,1731.77 6981.84,2058.6 6722.93,1731.77 6611.97,1731.77 6611.97,2257.54 6730.33,2257.54 6730.33,1923.61 6996.64,2257.54 "/>
    <path class="fil0" d="M4451.9 2612.78l59.18 -134.99 59.18 134.99 -118.36 0zm14.8 -248.67l-184.94 426.3 96.16 0 36.99 -92.37 184.94 0 36.99 92.37 103.56 0 -184.94 -426.3 -88.76 0z"/>
    <polygon class="fil0" points="5036.3,2513.31 5132.47,2790.41 5221.24,2790.41 5369.19,2364.11 5265.63,2364.11 5176.85,2648.31 5080.69,2364.11 4991.92,2364.11 4895.75,2648.31 4806.98,2364.11 4703.41,2364.11 4851.37,2790.41 4940.14,2790.41 "/>
    <path class="fil0" d="M5502.34 2612.78l59.18 -134.99 59.18 134.99 -118.36 0zm103.57 -248.67l-88.77 0 -184.94 426.3 96.17 0 36.99 -92.37 184.94 0 36.98 92.37 103.57 0 -184.94 -426.3z"/>
    <g>
     <path class="fil0" d="M6049.76 2570.15l-96.17 0 0 -120.78 96.17 0c44.38,0 73.97,21.32 73.97,56.84 0.04,0.93 0.07,1.89 0.07,2.84 0,34.13 -28.82,61.81 -64.36,61.81 -3.23,0 -6.49,-0.24 -9.69,-0.7l0.01 -0.01zm184.94 220.26l-110.97 -152.76c57.11,-16.57 96.22,-67.14 96.22,-124.46 0,-1.13 -0.04,-2.32 -0.05,-3.43 0.05,-1.77 0.11,-3.58 0.11,-5.36 0,-34.66 -13.21,-68.15 -37.1,-94.1 -31.9,-27.59 -73.37,-42.88 -116.31,-42.88 -3.14,0 -6.32,0.08 -9.44,0.24l-199.74 0 0 426.3 96.17 0 0 -134.99 73.97 0 96.17 134.99 110.97 -3.55z"/>
    </g>
    <g>
     <path class="fil0" d="M6478.81 2708.7l-73.97 0 0 -255.78 73.97 0c1.74,-0.06 3.54,-0.1 5.29,-0.1 70.67,0 127.98,55.04 127.98,122.91 0,1.68 -0.05,3.41 -0.11,5.08 0.2,2.92 0.34,5.91 0.34,8.85 0,65.92 -55.65,119.37 -124.28,119.37 -3.06,0 -6.17,-0.13 -9.22,-0.34l0 0.01zm0 -341.04l-170.14 0 0 426.3 170.14 0c122.55,0 221.93,-95.45 221.93,-213.15 0,-117.7 -99.38,-213.15 -221.93,-213.15z"/>
    </g>
    <g>
     <path class="fil0" d="M6967.05 2534.63c-73.98,-21.32 -96.17,-28.42 -96.17,-56.84 0,-28.42 22.19,-35.52 59.18,-35.52 40.99,1.46 80.22,16.53 110.95,42.62l51.79 -71.05c-45.78,-36.34 -103.31,-56.48 -162.75,-56.84 -5.4,-0.6 -10.89,-0.92 -16.35,-0.92 -74.88,0 -136.32,56.94 -138.99,128.81 0,85.26 59.18,106.57 147.95,127.89 73.98,14.21 88.77,28.42 88.77,56.84 0,28.42 -22.19,42.63 -66.58,42.63 -48.71,-2.62 -95.39,-20.08 -133.15,-49.74l-59.18 63.94c51.17,41.28 115.91,63.96 182.74,63.96 0.73,0 1.46,0 2.19,0 96.17,0 162.74,-49.73 162.74,-127.89 0,-78.15 -44.38,-106.57 -133.15,-127.88l0.01 -0.01zm0 0l0 0 0 0z"/>
    </g>
    <path class="fil0" d="M6175.52 2037.28l73.97 -170.51 73.98 170.51 -147.95 0zm14.79 -305.51l-236.72 525.77 125.76 0 44.38 -113.68 236.73 0 44.38 113.68 125.76 0 -236.72 -525.77 -103.57 0z"/>
   </g>
  </g>
 </g>
</svg>
