<?xml version="1.0" encoding="UTF-8"?>
<!DOCTYPE svg PUBLIC "-//W3C//DTD SVG 1.1//EN" "http://www.w3.org/Graphics/SVG/1.1/DTD/svg11.dtd">
<!-- Creator: CorelDRAW 2019 -->
<svg xmlns="http://www.w3.org/2000/svg" xml:space="preserve" width="114mm" height="56mm" version="1.1" style="shape-rendering:geometricPrecision; text-rendering:geometricPrecision; image-rendering:optimizeQuality; fill-rule:evenodd; clip-rule:evenodd"
viewBox="0 0 11400 5600"
 xmlns:xlink="http://www.w3.org/1999/xlink"
 xmlns:xodm="http://www.corel.com/coreldraw/odm/2003">
 <defs>
  <style type="text/css">
   <![CDATA[
    .fil0 {fill:white}
    .fil1 {fill:white;fill-rule:nonzero}
   ]]>
  </style>
 </defs>
 <g id="Слой_x0020_1">
  <metadata id="CorelCorpID_0Corel-Layer"/>
  <g id="_701709472">
   <g>
    <g>
     <path class="fil0" d="M9611.96 5396.43c-66.46,80.6 -66.46,100 -63.9,113.79 2.55,13.79 7.66,21.97 17.25,27.36 9.58,5.39 23.65,7.97 36.43,8.4 12.78,0.44 24.27,-1.29 34.72,-6.67 10.43,-5.39 19.8,-14.44 95.63,-106.46 75.82,-92 218.12,-266.98 344.64,-446.71 126.52,-179.71 237.28,-364.16 339.53,-584.82 102.24,-220.67 195.96,-477.54 255.6,-711.99 59.65,-234.46 85.2,-446.49 96.28,-679.22 11.07,-232.73 7.67,-486.15 -18.74,-727.5 -26.41,-241.35 -75.84,-470.62 -156.77,-704.21 -80.95,-233.6 -193.41,-471.5 -254.75,-615.45 -61.35,-143.95 -71.58,-193.94 -90.32,-264.62 -18.74,-70.68 -46.01,-162.04 -133.77,-266.34 -87.76,-104.3 -236.01,-221.52 -325.47,-292.2 -89.46,-70.69 -120.14,-94.83 -131.21,-66.39 -11.08,28.45 -2.56,109.49 61.35,232.74 63.89,123.26 183.18,288.76 272.65,386.16 89.46,97.4 149.09,126.7 196.8,175.84 47.72,49.13 83.5,118.09 134.63,233.59 51.11,115.5 117.58,277.54 174.66,433.56 57.08,156.02 104.8,306 138.03,490.45 33.22,184.46 51.98,403.41 57.09,630.96 5.11,227.55 -3.41,463.74 -57.09,739.56 -53.68,275.83 -152.51,591.29 -275.2,870.56 -122.7,279.28 -269.24,522.35 -408.97,714.79 -139.74,192.44 -272.65,334.23 -339.1,414.82z"/>
     <path class="fil0" d="M10442.82 1152.32c-25.14,-96.12 -53.52,-251.79 -60.9,-396.86 -7.38,-145.08 6.25,-279.54 18.18,-361 11.92,-81.45 22.15,-109.9 29.82,-125.85 7.66,-15.94 12.78,-19.39 53.25,45.25 40.47,64.65 116.31,197.4 166.58,326.26 50.27,128.86 74.97,253.86 54.95,365.05 -20.03,111.19 -84.77,208.59 -124.39,259.01 -39.62,50.43 -54.11,53.87 -72.29,37.33 -18.18,-16.55 -40.06,-53.08 -65.2,-149.19z"/>
     <path class="fil0" d="M10710.11 1888.55c-1.05,-101.92 9.5,-263.86 38.29,-409.92 28.79,-146.05 75.81,-276.21 107.95,-354.12 32.13,-77.91 49.38,-103.58 60.97,-117.48 11.59,-13.89 17.53,-16.01 41.66,58.54 24.12,74.57 66.43,225.82 84.31,366.69 17.87,140.88 11.29,271.39 -36.28,376.79 -47.59,105.4 -136.19,185.7 -188.11,225.71 -51.93,40.02 -67.19,39.75 -81.14,18.67 -13.95,-21.08 -26.6,-62.96 -27.65,-164.88z"/>
     <path class="fil0" d="M10807.32 2662.81c20.07,-103.24 64.32,-264.67 123.71,-406.18 59.38,-141.51 133.9,-263.08 182.54,-335 48.63,-71.93 71.39,-94.21 85.99,-105.79 14.59,-11.58 21.04,-12.47 29.96,68.01 8.91,80.48 20.31,242.33 9.17,388.51 -11.16,146.17 -44.87,276.68 -114.81,373.11 -69.96,96.43 -176.16,158.78 -236.94,188.2 -60.78,29.43 -76.14,25.92 -85.87,1.65 -9.73,-24.26 -13.83,-69.28 6.25,-172.51z"/>
     <path class="fil0" d="M10756.17 3435.88c40.31,-98.04 116.08,-248.74 202.87,-376.66 86.78,-127.93 184.59,-233.06 246.96,-294.33 62.35,-61.28 89.28,-78.7 106.02,-87.2 16.72,-8.49 23.28,-8.06 16.15,73.35 -7.13,81.41 -27.94,243.82 -67.94,386.14 -40,142.32 -99.21,264.58 -187.51,345.77 -88.31,81.19 -205.71,121.32 -271.66,138.09 -65.95,16.78 -80.45,10.18 -85.27,-15.79 -4.81,-25.97 0.06,-71.33 40.38,-169.37z"/>
     <path class="fil0" d="M10531.81 4220.03c63.22,-88.96 174.25,-222.44 291.08,-330.41 116.83,-107.98 239.45,-190.43 316.31,-237.22 76.85,-46.8 107.94,-57.92 126.73,-62.49 18.77,-4.57 25.26,-2.58 -0.75,77.53 -26.03,80.11 -84.54,238.37 -157.69,371.91 -73.16,133.53 -160.97,242.34 -268.49,303 -107.54,60.65 -234.8,73.15 -304.95,74.37 -70.16,1.23 -83.21,-8.83 -82.03,-36.07 1.18,-27.24 16.57,-71.66 79.79,-160.62z"/>
     <path class="fil0" d="M10177.42 4889.51c83.54,-71.79 224.77,-175.52 365.56,-252.77 140.79,-77.25 281.12,-128.01 367.91,-155.01 86.76,-27.02 119.99,-30.28 139.54,-30.13 19.54,0.14 25.44,3.69 -19.42,75.97 -44.87,72.29 -140.49,213.32 -244.54,326.45 -104.04,113.13 -216.52,198.36 -336.77,231.42 -120.25,33.06 -248.28,13.95 -317.49,-2.16 -69.22,-16.1 -79.6,-29.2 -71.88,-55.67 7.72,-26.46 33.55,-66.3 117.09,-138.1z"/>
     <path class="fil0" d="M10217.18 1330.27c-90.88,-37.83 -230.62,-109.03 -349.34,-190.76 -118.71,-81.73 -216.36,-173.98 -273.3,-232.83 -56.94,-58.83 -73.16,-84.27 -81.09,-100.09 -7.92,-15.81 -7.54,-22.03 67.82,-15.58 75.37,6.46 225.75,25.56 357.61,62.92 131.86,37.37 245.22,93 320.69,176.33 75.47,83.34 113.04,194.39 128.8,256.8 15.78,62.41 9.73,76.17 -14.29,80.82 -24.02,4.66 -66.01,0.22 -156.9,-37.61z"/>
     <path class="fil0" d="M10439.02 2055.45c-81.71,-55.22 -204.82,-152.93 -305.25,-256.76 -100.43,-103.82 -178.17,-213.76 -222.51,-282.82 -44.34,-69.04 -55.28,-97.22 -59.96,-114.32 -4.68,-17.08 -3.1,-23.09 69.52,-1.72 72.63,21.38 216.32,70.13 338.3,133.09 121.98,62.96 222.26,140.13 279.98,236.89 57.72,96.77 72.89,213.14 76.17,277.47 3.29,64.33 -5.33,76.61 -29.78,76.38 -24.45,-0.24 -64.76,-12.98 -146.47,-68.21z"/>
     <path class="fil0" d="M10492.27 2758.11c-65.47,-74.14 -160.51,-199.89 -232.08,-325.83 -71.58,-125.93 -119.67,-252.04 -145.53,-330.13 -25.86,-78.07 -29.49,-108.12 -29.79,-125.85 -0.32,-17.73 2.7,-23.15 67.73,15.92 65.04,39.07 192.11,122.63 294.66,214.45 102.53,91.82 180.55,191.91 212.52,300.2 31.97,108.3 17.89,224.81 5.16,287.92 -12.72,63.12 -24.1,72.83 -47.72,66.42 -23.62,-6.42 -59.49,-28.95 -124.95,-103.1z"/>
     <path class="fil0" d="M10414.36 3505.05c-49.82,-85.7 -118.64,-227.86 -164.41,-365.55 -45.77,-137.69 -68.48,-270.89 -78.7,-352.59 -10.23,-81.69 -7.96,-111.88 -4.82,-129.33 3.13,-17.44 7.14,-22.16 63.33,29.05 56.2,51.22 164.61,158.37 247.37,268.75 82.74,110.38 139.84,224 150.2,336.54 10.35,112.53 -26.04,223.99 -50.76,283.35 -24.71,59.37 -37.74,66.63 -59.66,55.66 -21.92,-10.98 -52.73,-40.19 -102.55,-125.88z"/>
     <path class="fil0" d="M10180.82 4196.79c-38.27,-97.1 -87.37,-255.95 -113.23,-406.43 -25.85,-150.47 -28.45,-292.57 -26.19,-379.12 2.25,-86.54 9.37,-117.55 15.38,-135.18 6,-17.62 10.92,-21.87 61.24,40.41 50.33,62.3 146.1,191.15 214.7,319.21 68.58,128.07 110.01,255.36 103.03,373.99 -6.99,118.62 -62.39,228.57 -97.43,286.27 -35.04,57.71 -49.74,63.16 -70.78,48.22 -21.05,-14.94 -48.46,-50.27 -86.72,-147.37z"/>
     <path class="fil0" d="M9812.09 4839.04c-16.72,-103.15 -30.91,-268.96 -24.16,-421.55 6.74,-152.58 34.41,-291.91 55.02,-375.95 20.6,-84.02 34.14,-112.76 43.76,-128.67 9.61,-15.9 15.31,-18.98 51.22,52.8 35.9,71.79 102.03,218.46 141.8,358.45 39.75,139.99 53.14,273.32 21.11,387.65 -32.05,114.33 -109.52,209.65 -156.01,258.38 -46.5,48.73 -62,50.86 -79.38,31.68 -17.38,-19.17 -36.64,-59.64 -53.36,-162.79z"/>
    </g>
    <g>
     <path class="fil0" d="M1771.08 5396.43c66.46,80.6 66.46,100 63.9,113.79 -2.55,13.79 -7.66,21.97 -17.25,27.36 -9.58,5.39 -23.65,7.97 -36.43,8.4 -12.78,0.44 -24.28,-1.29 -34.72,-6.67 -10.43,-5.39 -19.8,-14.44 -95.63,-106.46 -75.83,-92 -218.12,-266.98 -344.64,-446.71 -126.52,-179.71 -237.29,-364.16 -339.53,-584.82 -102.24,-220.67 -195.96,-477.54 -255.61,-711.99 -59.64,-234.46 -85.19,-446.49 -96.27,-679.22 -11.07,-232.73 -7.67,-486.15 18.74,-727.5 26.41,-241.35 75.83,-470.62 156.77,-704.21 80.95,-233.6 193.41,-471.5 254.75,-615.45 61.35,-143.95 71.58,-193.94 90.32,-264.62 18.74,-70.68 46.01,-162.04 133.77,-266.34 87.76,-104.3 236.01,-221.52 325.47,-292.2 89.46,-70.69 120.14,-94.83 131.21,-66.39 11.08,28.45 2.56,109.49 -61.35,232.74 -63.89,123.26 -183.18,288.76 -272.65,386.16 -89.46,97.4 -149.09,126.7 -196.81,175.84 -47.71,49.13 -83.49,118.09 -134.62,233.59 -51.11,115.5 -117.58,277.54 -174.66,433.56 -57.09,156.02 -104.8,306 -138.03,490.45 -33.23,184.46 -51.98,403.41 -57.09,630.96 -5.11,227.55 3.41,463.74 57.09,739.56 53.68,275.83 152.51,591.29 275.2,870.56 122.7,279.28 269.24,522.35 408.97,714.79 139.73,192.44 272.65,334.23 339.1,414.82z"/>
     <path class="fil0" d="M940.22 1152.32c25.13,-96.12 53.52,-251.79 60.9,-396.86 7.38,-145.08 -6.25,-279.54 -18.18,-361 -11.92,-81.45 -22.15,-109.9 -29.83,-125.85 -7.66,-15.94 -12.78,-19.39 -53.24,45.25 -40.47,64.65 -116.31,197.4 -166.58,326.26 -50.27,128.86 -74.97,253.86 -54.95,365.05 20.02,111.19 84.77,208.59 124.39,259.01 39.62,50.43 54.11,53.87 72.29,37.33 18.18,-16.55 40.06,-53.08 65.2,-149.19z"/>
     <path class="fil0" d="M672.93 1888.55c1.05,-101.92 -9.5,-263.86 -38.29,-409.92 -28.79,-146.05 -75.81,-276.21 -107.95,-354.12 -32.13,-77.91 -49.38,-103.58 -60.97,-117.48 -11.59,-13.89 -17.53,-16.01 -41.66,58.54 -24.12,74.57 -66.43,225.82 -84.31,366.69 -17.87,140.88 -11.3,271.39 36.28,376.79 47.59,105.4 136.18,185.7 188.11,225.71 51.93,40.02 67.19,39.75 81.14,18.67 13.95,-21.08 26.6,-62.96 27.65,-164.88z"/>
     <path class="fil0" d="M575.72 2662.81c-20.07,-103.24 -64.32,-264.67 -123.71,-406.18 -59.38,-141.51 -133.9,-263.08 -182.55,-335 -48.62,-71.93 -71.38,-94.21 -85.98,-105.79 -14.59,-11.58 -21.04,-12.47 -29.96,68.01 -8.92,80.48 -20.31,242.33 -9.17,388.51 11.16,146.17 44.87,276.68 114.81,373.11 69.96,96.43 176.15,158.78 236.93,188.2 60.79,29.43 76.15,25.92 85.88,1.65 9.73,-24.26 13.83,-69.28 -6.25,-172.51z"/>
     <path class="fil0" d="M626.87 3435.88c-40.32,-98.04 -116.08,-248.74 -202.87,-376.66 -86.78,-127.93 -184.59,-233.06 -246.96,-294.33 -62.35,-61.28 -89.28,-78.7 -106.02,-87.2 -16.72,-8.49 -23.28,-8.06 -16.15,73.35 7.13,81.41 27.94,243.82 67.94,386.14 40,142.32 99.21,264.58 187.51,345.77 88.3,81.19 205.7,121.32 271.66,138.09 65.95,16.78 80.45,10.18 85.26,-15.79 4.82,-25.97 -0.05,-71.33 -40.37,-169.37z"/>
     <path class="fil0" d="M851.23 4220.03c-63.22,-88.96 -174.25,-222.44 -291.08,-330.41 -116.83,-107.98 -239.45,-190.43 -316.32,-237.22 -76.84,-46.8 -107.93,-57.92 -126.72,-62.49 -18.77,-4.57 -25.26,-2.58 0.75,77.53 26.02,80.11 84.54,238.37 157.69,371.91 73.16,133.53 160.96,242.34 268.49,303 107.54,60.65 234.8,73.15 304.95,74.37 70.16,1.23 83.21,-8.83 82.03,-36.07 -1.18,-27.24 -16.58,-71.66 -79.79,-160.62z"/>
     <path class="fil0" d="M1205.62 4889.51c-83.54,-71.79 -224.78,-175.52 -365.57,-252.77 -140.79,-77.25 -281.12,-128.01 -367.9,-155.01 -86.77,-27.02 -119.99,-30.28 -139.54,-30.13 -19.55,0.14 -25.44,3.69 19.42,75.97 44.87,72.29 140.49,213.32 244.53,326.45 104.05,113.13 216.53,198.36 336.78,231.42 120.25,33.06 248.28,13.95 317.49,-2.16 69.21,-16.1 79.6,-29.2 71.88,-55.67 -7.72,-26.46 -33.55,-66.3 -117.09,-138.1z"/>
     <path class="fil0" d="M1165.85 1330.27c90.89,-37.83 230.63,-109.03 349.34,-190.76 118.71,-81.73 216.37,-173.98 273.31,-232.83 56.94,-58.83 73.16,-84.27 81.09,-100.09 7.92,-15.81 7.54,-22.03 -67.82,-15.58 -75.37,6.46 -225.75,25.56 -357.61,62.92 -131.86,37.37 -245.23,93 -320.69,176.33 -75.47,83.34 -113.04,194.39 -128.81,256.8 -15.77,62.41 -9.72,76.17 14.3,80.82 24.02,4.66 66.01,0.22 156.89,-37.61z"/>
     <path class="fil0" d="M944.02 2055.45c81.71,-55.22 204.82,-152.93 305.25,-256.76 100.43,-103.82 178.16,-213.76 222.5,-282.82 44.35,-69.04 55.29,-97.22 59.97,-114.32 4.68,-17.08 3.1,-23.09 -69.52,-1.72 -72.63,21.38 -216.32,70.13 -338.31,133.09 -121.97,62.96 -222.25,140.13 -279.98,236.89 -57.72,96.77 -72.89,213.14 -76.16,277.47 -3.29,64.33 5.32,76.61 29.78,76.38 24.45,-0.24 64.75,-12.98 146.47,-68.21z"/>
     <path class="fil0" d="M890.77 2758.11c65.47,-74.14 160.51,-199.89 232.08,-325.83 71.57,-125.93 119.66,-252.04 145.52,-330.13 25.87,-78.07 29.49,-108.12 29.8,-125.85 0.31,-17.73 -2.7,-23.15 -67.74,15.92 -65.03,39.07 -192.11,122.63 -294.65,214.45 -102.54,91.82 -180.55,191.91 -212.52,300.2 -31.97,108.3 -17.89,224.81 -5.16,287.92 12.72,63.12 24.1,72.83 47.71,66.42 23.62,-6.42 59.5,-28.95 124.96,-103.1z"/>
     <path class="fil0" d="M968.68 3505.05c49.82,-85.7 118.64,-227.86 164.41,-365.55 45.77,-137.69 68.48,-270.89 78.7,-352.59 10.23,-81.69 7.96,-111.88 4.82,-129.33 -3.13,-17.44 -7.14,-22.16 -63.34,29.05 -56.2,51.22 -164.6,158.37 -247.36,268.75 -82.74,110.38 -139.84,224 -150.2,336.54 -10.35,112.53 26.04,223.99 50.75,283.35 24.72,59.37 37.75,66.63 59.67,55.66 21.92,-10.98 52.73,-40.19 102.55,-125.88z"/>
     <path class="fil0" d="M1202.22 4196.79c38.26,-97.1 87.37,-255.95 113.22,-406.43 25.86,-150.47 28.46,-292.57 26.2,-379.12 -2.26,-86.54 -9.37,-117.55 -15.38,-135.18 -6.01,-17.62 -10.92,-21.87 -61.25,40.41 -50.32,62.3 -146.09,191.15 -214.69,319.21 -68.58,128.07 -110.01,255.36 -103.03,373.99 6.99,118.62 62.38,228.57 97.43,286.27 35.04,57.71 49.73,63.16 70.78,48.22 21.05,-14.94 48.46,-50.27 86.72,-147.37z"/>
     <path class="fil0" d="M1570.95 4839.04c16.72,-103.15 30.9,-268.96 24.16,-421.55 -6.74,-152.58 -34.41,-291.91 -55.02,-375.95 -20.6,-84.02 -34.15,-112.76 -43.76,-128.67 -9.61,-15.9 -15.31,-18.98 -51.22,52.8 -35.91,71.79 -102.04,218.46 -141.8,358.45 -39.75,139.99 -53.14,273.32 -21.11,387.65 32.05,114.33 109.52,209.65 156.01,258.38 46.49,48.73 62,50.86 79.38,31.68 17.38,-19.17 36.64,-59.64 53.36,-162.79z"/>
    </g>
   </g>
   <path class="fil1" d="M3086.83 3656.23l0 -26.67c9.14,-5.14 18.89,-9.59 29.25,-13.33 10.35,-3.74 20.33,-6.08 29.97,-7.02l0 -397.2c-9.64,-1.87 -19.74,-4.56 -30.33,-8.07 -10.6,-3.51 -20.22,-7.6 -28.89,-12.28l0 -26.67 116.27 0c18.3,0 35.63,-0.7 52,-2.1 16.36,-1.41 35.15,-2.11 56.33,-2.11 23.11,0 45.5,1.64 67.16,4.91 21.67,3.28 40.93,9.13 57.78,17.55 16.86,8.42 30.34,20.23 40.44,35.44 10.12,15.2 15.17,34.73 15.17,58.59 0,14.98 -2.77,28.89 -8.3,41.76 -5.54,12.87 -13.25,24.21 -23.12,34.04 -9.87,9.82 -21.42,18.01 -34.66,24.56 -13.24,6.55 -27.57,11.23 -42.97,14.03l0 2.81c15.4,1.87 30.93,5.38 46.59,10.53 15.64,5.14 29.72,12.63 42.24,22.45 12.51,9.83 22.74,22.11 30.69,36.85 7.94,14.73 11.92,32.16 11.92,52.28 0,25.26 -5.78,47.02 -17.33,65.26 -11.56,18.25 -27.09,33.22 -46.58,44.92 -19.5,11.69 -41.77,20.23 -66.81,25.61 -25.04,5.38 -51.04,8.07 -78,8.07 -10.1,0 -21.18,-0.23 -33.22,-0.7 -12.04,-0.47 -24.07,-0.94 -36.11,-1.4 -12.03,-0.47 -23.71,-0.94 -35.02,-1.41 -11.32,-0.47 -20.83,-0.7 -28.53,-0.7l-85.94 0zm218.1 -41.4c30.33,0 54.16,-8.78 71.5,-26.32 17.33,-17.55 26,-40.82 26,-69.83 0,-17.78 -2.89,-32.4 -8.67,-43.86 -5.78,-11.46 -13.72,-20.58 -23.83,-27.37 -10.12,-6.78 -22.15,-11.46 -36.11,-14.03 -13.97,-2.58 -29.13,-3.86 -45.5,-3.86l-38.27 0 0 180.35c6.74,1.41 13.84,2.58 21.3,3.51 7.46,0.94 18.66,1.41 33.58,1.41zm-31.78 -230.89c8.19,0 16.37,-0.35 24.56,-1.05 8.19,-0.7 15.89,-1.52 23.11,-2.46 18.77,-7.48 33.94,-19.06 45.5,-34.73 11.55,-15.68 17.33,-33.57 17.33,-53.69 0,-29.47 -7.95,-51.11 -23.84,-64.91 -15.88,-13.8 -36.35,-20.7 -61.38,-20.7 -10.59,0 -19.74,0.23 -27.44,0.7 -7.71,0.47 -14.69,1.17 -20.94,2.1l0 174.74 23.1 0zm618.93 213.34c-3.85,7.95 -9.99,16.03 -18.41,24.21 -8.43,8.19 -18.78,15.44 -31.06,21.76 -12.27,6.31 -26.48,11.46 -42.61,15.44 -16.13,3.97 -33.58,5.96 -52.35,5.96 -29.86,0 -56.34,-4.33 -79.45,-12.98 -23.12,-8.66 -42.37,-21.05 -57.78,-37.2 -15.4,-16.14 -27.08,-35.43 -35.03,-57.89 -7.94,-22.46 -11.91,-47.72 -11.91,-75.79 0,-59.89 16.13,-105.5 48.38,-136.85 32.27,-31.34 77.04,-47.02 134.33,-47.02 24.56,0 47.55,3.28 68.98,9.83 21.42,6.55 39.24,17.31 53.44,32.28 14.2,14.97 24.08,34.62 29.62,58.95 5.53,24.33 5.16,54.03 -1.09,89.12l-221.72 0c0.49,36.96 10.23,66.44 29.25,88.43 19.02,21.99 47.06,32.98 84.14,32.98 15.89,0 32.38,-2.34 49.47,-7.02 17.09,-4.68 30.45,-10.76 40.08,-18.24l13.72 14.03zm-149.14 -260.36c-9.62,0 -18.05,1.64 -25.51,4.92 -7.46,3.27 -13.84,9.24 -19.38,17.89 -5.53,8.66 -9.99,20.35 -13.24,35.09 -3.37,14.74 -5.78,33.33 -7.23,55.79l115.56 0c3.37,-36.49 1.21,-64.56 -6.5,-84.21 -7.59,-19.65 -22.15,-29.48 -43.7,-29.48zm393.97 242.82c0,-12.17 -4.46,-22.69 -13.36,-31.58 -8.91,-8.89 -19.98,-17.08 -33.22,-24.56 -13.24,-7.49 -27.69,-14.98 -43.33,-22.46 -15.66,-7.49 -30.1,-16.26 -43.34,-26.32 -13.24,-10.06 -24.31,-21.87 -33.22,-35.44 -8.9,-13.56 -13.36,-30.17 -13.36,-49.82 0,-14.04 3.37,-26.79 10.11,-38.25 6.74,-11.46 15.89,-21.17 27.44,-29.12 11.56,-7.96 25.4,-14.15 41.53,-18.6 16.14,-4.44 33.59,-6.67 52.36,-6.67 26,0 50.19,1.99 72.58,5.97 22.39,3.98 42.01,9.47 58.86,16.49 -1.93,14.97 -5.77,31 -11.56,48.07 -5.77,17.08 -11.31,32.63 -16.61,46.67l-24.55 0 -30.33 -71.58c-5.77,-2.34 -11.79,-3.86 -18.05,-4.56 -6.27,-0.7 -13.25,-1.06 -20.95,-1.06 -14.44,0 -25.39,4.1 -32.86,12.29 -7.47,8.18 -11.19,17.42 -11.19,27.72 0,11.69 4.45,21.87 13.36,30.52 8.9,8.66 19.97,16.73 33.22,24.21 13.24,7.49 27.68,14.97 43.33,22.46 15.65,7.49 30.09,16.02 43.33,25.61 13.24,9.6 24.32,20.94 33.22,34.04 8.91,13.1 13.37,28.77 13.37,47.02 0,32.28 -13.48,57.66 -40.45,76.14 -26.96,18.48 -63.07,27.72 -108.33,27.72 -23.11,0 -46.94,-2.34 -71.49,-7.02 -24.56,-4.67 -45.75,-11.22 -63.56,-19.65 0.96,-16.84 5.05,-33.91 12.27,-51.23 7.23,-17.31 14.93,-32.74 23.12,-46.31l24.55 0 35.38 76.49c5.3,3.74 11.2,5.97 17.7,6.67 6.5,0.7 12.64,1.05 18.42,1.05 13.96,0 26.72,-3.98 38.28,-11.93 11.56,-7.95 17.33,-18.95 17.33,-32.98zm124.21 -256.85c18.3,-11.58 37.57,-19.77 57.79,-24.56l0 -56.85c2.88,-2.8 7.82,-5.49 14.8,-8.07 6.98,-2.57 14.45,-4.91 22.39,-7.01 7.95,-2.11 15.77,-4.1 23.46,-5.97 7.71,-1.87 13.97,-3.27 18.79,-4.21l24.55 0 0 89.12 95.33 0 0 45.62 -95.33 0 0 180.82c0,28.78 3.74,48.78 11.2,60 7.46,11.12 19.86,16.73 37.19,16.73 8.66,0 18.41,-0.59 29.25,-1.75 10.83,-1.17 20.83,-3.4 29.96,-6.67l5.07 23.16c-4.33,4.21 -10.72,8.65 -19.14,13.33 -8.43,4.68 -18.05,9.12 -28.89,13.33 -10.84,4.21 -22.63,7.72 -35.39,10.53 -12.76,2.81 -26.12,4.21 -40.09,4.21 -31.29,0 -54.64,-7.95 -70.05,-23.74 -15.4,-15.91 -23.1,-41.52 -23.1,-76.85l0 -213.1 -57.79 0 0 -28.07zm686.82 63.16c-5.77,2.81 -12.51,7.48 -20.22,14.03 -7.7,6.55 -14.68,17.43 -20.94,32.4l0 180.24c9.63,0.94 19.27,2.69 28.89,5.26 9.63,2.58 19.26,6.44 28.88,11.58l0 26.67 -209.43 0 0 -26.67c8.66,-4.68 16.86,-8.18 24.55,-10.52 7.71,-2.46 15.41,-4.57 23.12,-6.44l0 -258.13 -47.67 -5.62 0 -26.66c7.71,-3.28 17.22,-6.32 28.53,-9.13 11.32,-2.8 22.99,-5.26 35.03,-7.36 12.03,-2.11 23.71,-3.86 35.02,-5.27 11.32,-1.4 20.83,-2.57 28.53,-3.51l24.55 0 0 93.34 2.89 0c3.85,-10.29 9.51,-21.05 16.97,-32.28 7.46,-11.23 16.25,-21.52 26.37,-30.88 10.1,-9.36 21.18,-16.84 33.22,-22.46 12.03,-5.61 24.55,-8.18 37.55,-7.72 5.3,6.55 9.87,15.79 13.72,27.72 3.86,11.93 6.99,23.28 9.39,34.04l0 27.37 -98.95 0zm452.83 211.23c-3.85,7.95 -10,16.03 -18.41,24.21 -8.43,8.19 -18.79,15.44 -31.06,21.76 -12.28,6.31 -26.48,11.46 -42.62,15.44 -16.13,3.97 -33.58,5.96 -52.35,5.96 -29.86,0 -56.33,-4.33 -79.45,-12.98 -23.11,-8.66 -42.37,-21.05 -57.77,-37.2 -15.41,-16.14 -27.09,-35.43 -35.03,-57.89 -7.95,-22.46 -11.92,-47.72 -11.92,-75.79 0,-59.89 16.14,-105.5 48.39,-136.85 32.26,-31.34 77.04,-47.02 134.33,-47.02 24.55,0 47.54,3.28 68.97,9.83 21.43,6.55 39.24,17.31 53.44,32.28 14.2,14.97 24.08,34.62 29.62,58.95 5.54,24.33 5.17,54.03 -1.09,89.12l-221.71 0c0.48,36.96 10.23,66.44 29.24,88.43 19.02,21.99 47.07,32.98 84.14,32.98 15.89,0 32.38,-2.34 49.47,-7.02 17.1,-4.68 30.46,-10.76 40.09,-18.24l13.72 14.03zm-149.14 -260.36c-9.63,0 -18.05,1.64 -25.52,4.92 -7.46,3.27 -13.84,9.24 -19.37,17.89 -5.54,8.66 -10,20.35 -13.25,35.09 -3.36,14.74 -5.77,33.33 -7.22,55.79l115.56 0c3.36,-36.49 1.2,-64.56 -6.51,-84.21 -7.58,-19.65 -22.14,-29.48 -43.69,-29.48zm525.4 217.55c0,10.3 0.12,19.19 0.36,26.67 0.25,7.49 0.85,15.44 1.81,23.86l49.83 7.02 0 24.56c-5.77,2.81 -13.6,5.61 -23.47,8.42 -9.87,2.81 -20.22,5.5 -31.05,8.07 -10.84,2.58 -21.55,4.68 -32.14,6.32 -10.6,1.64 -19.98,2.92 -28.17,3.86l-24.55 0c-4.82,-10.76 -7.71,-21.52 -8.67,-32.28 -0.96,-10.76 -1.68,-23.86 -2.17,-39.3l-3.61 0c-2.41,9.35 -6.49,18.36 -12.28,27.02 -5.77,8.65 -13.12,16.37 -22.02,23.15 -8.91,6.79 -19.38,12.28 -31.42,16.5 -12.03,4.21 -25.51,6.31 -40.44,6.31 -15.89,0 -30.58,-2.34 -44.06,-7.02 -13.48,-4.67 -25.27,-11.22 -35.38,-19.65 -10.12,-8.42 -18.06,-18.59 -23.84,-30.52 -5.78,-11.93 -8.66,-25.38 -8.66,-40.35 0,-21.06 4.09,-38.37 12.28,-51.94 8.18,-13.56 21.06,-24.67 38.63,-33.33 17.58,-8.66 40.21,-15.09 67.89,-19.3 27.68,-4.21 61.26,-7.25 100.75,-9.12 3.85,-40.24 2.16,-69.71 -5.06,-88.42 -7.22,-18.72 -22.87,-28.08 -46.94,-28.08 -14.92,0 -28.65,2.34 -41.16,7.02l-33.96 84.21 -31.76 0c-3.86,-5.61 -7.59,-12.04 -11.2,-19.29 -3.61,-7.26 -6.98,-14.98 -10.12,-23.16 -3.13,-8.19 -5.77,-16.49 -7.94,-24.92 -2.16,-8.42 -3.73,-16.6 -4.69,-24.56 18.29,-12.16 41.89,-21.75 70.78,-28.77 28.89,-7.02 59.46,-10.53 91.71,-10.53 27.45,0 49.83,2.93 67.17,8.78 17.33,5.84 30.94,13.8 40.81,23.86 9.87,10.05 16.72,21.87 20.58,35.44 3.85,13.56 5.77,28.07 5.77,43.51 0,28.07 -0.59,53.45 -1.8,76.14 -1.2,22.69 -1.81,45.96 -1.81,69.82zm-162.5 54.04c10.12,0 18.79,-1.87 26.01,-5.61 7.22,-3.75 13.36,-8.19 18.41,-13.34 5.05,-5.14 8.91,-10.76 11.56,-16.84 2.64,-6.08 4.69,-11.46 6.14,-16.14l0 -70.18c-22.63,0.47 -41.17,1.87 -55.61,4.21 -14.45,2.34 -25.76,6.2 -33.94,11.58 -8.19,5.38 -13.84,12.17 -16.98,20.35 -3.13,8.19 -4.7,18.13 -4.7,29.83 0,17.78 4.34,31.58 13.01,41.4 8.67,9.83 20.7,14.74 36.1,14.74zm447.05 47.72l-199.33 0 0 -26.67c15.89,-7.48 31.78,-13.1 47.67,-16.84l0 -426.68 -54.88 -5.61 0 -26.67c6.26,-2.8 14.92,-5.61 25.99,-8.42 11.08,-2.81 22.99,-5.26 35.76,-7.37 12.76,-2.1 25.51,-3.97 38.27,-5.61 12.76,-1.64 24.19,-2.93 34.31,-3.86l24.55 0 0 484.22c15.89,3.74 31.77,9.36 47.66,16.84l0 26.67zm564.05 -58.95c-3.85,7.95 -9.99,16.03 -18.41,24.21 -8.43,8.19 -18.78,15.44 -31.06,21.76 -12.28,6.31 -26.48,11.46 -42.62,15.44 -16.12,3.97 -33.58,5.96 -52.35,5.96 -29.85,0 -56.33,-4.33 -79.44,-12.98 -23.12,-8.66 -42.37,-21.05 -57.78,-37.2 -15.4,-16.14 -27.09,-35.43 -35.03,-57.89 -7.94,-22.46 -11.92,-47.72 -11.92,-75.79 0,-59.89 16.14,-105.5 48.39,-136.85 32.26,-31.34 77.04,-47.02 134.33,-47.02 24.56,0 47.55,3.28 68.97,9.83 21.43,6.55 39.24,17.31 53.45,32.28 14.2,14.97 24.08,34.62 29.61,58.95 5.54,24.33 5.17,54.03 -1.09,89.12l-221.71 0c0.48,36.96 10.23,66.44 29.25,88.43 19.02,21.99 47.06,32.98 84.14,32.98 15.89,0 32.37,-2.34 49.47,-7.02 17.09,-4.68 30.45,-10.76 40.08,-18.24l13.72 14.03zm-149.14 -260.36c-9.62,0 -18.05,1.64 -25.51,4.92 -7.46,3.27 -13.84,9.24 -19.38,17.89 -5.54,8.66 -9.99,20.35 -13.24,35.09 -3.37,14.74 -5.78,33.33 -7.23,55.79l115.56 0c3.37,-36.49 1.2,-64.56 -6.5,-84.21 -7.59,-19.65 -22.15,-29.48 -43.7,-29.48zm393.97 242.82c0,-12.17 -4.46,-22.69 -13.36,-31.58 -8.91,-8.89 -19.99,-17.08 -33.22,-24.56 -13.25,-7.49 -27.69,-14.98 -43.34,-22.46 -15.65,-7.49 -30.09,-16.26 -43.33,-26.32 -13.24,-10.06 -24.31,-21.87 -33.22,-35.44 -8.91,-13.56 -13.36,-30.17 -13.36,-49.82 0,-14.04 3.36,-26.79 10.1,-38.25 6.75,-11.46 15.89,-21.17 27.45,-29.12 11.56,-7.96 25.4,-14.15 41.53,-18.6 16.13,-4.44 33.59,-6.67 52.36,-6.67 25.99,0 50.19,1.99 72.58,5.97 22.38,3.98 42.01,9.47 58.86,16.49 -1.93,14.97 -5.78,31 -11.56,48.07 -5.77,17.08 -11.31,32.63 -16.61,46.67l-24.56 0 -30.32 -71.58c-5.78,-2.34 -11.8,-3.86 -18.05,-4.56 -6.27,-0.7 -13.25,-1.06 -20.96,-1.06 -14.44,0 -25.39,4.1 -32.86,12.29 -7.46,8.18 -11.18,17.42 -11.18,27.72 0,11.69 4.44,21.87 13.35,30.52 8.91,8.66 19.98,16.73 33.22,24.21 13.25,7.49 27.69,14.97 43.34,22.46 15.64,7.49 30.09,16.02 43.33,25.61 13.24,9.6 24.31,20.94 33.22,34.04 8.91,13.1 13.36,28.77 13.36,47.02 0,32.28 -13.48,57.66 -40.44,76.14 -26.96,18.48 -63.07,27.72 -108.33,27.72 -23.11,0 -46.94,-2.34 -71.5,-7.02 -24.55,-4.67 -45.74,-11.22 -63.56,-19.65 0.97,-16.84 5.06,-33.91 12.28,-51.23 7.23,-17.31 14.92,-32.74 23.12,-46.31l24.55 0 35.38 76.49c5.3,3.74 11.2,5.97 17.7,6.67 6.5,0.7 12.64,1.05 18.41,1.05 13.97,0 26.73,-3.98 38.29,-11.93 11.55,-7.95 17.33,-18.95 17.33,-32.98zm124.21 -256.85c18.3,-11.58 37.56,-19.77 57.79,-24.56l0 -56.85c2.88,-2.8 7.82,-5.49 14.79,-8.07 6.99,-2.57 14.45,-4.91 22.4,-7.01 7.94,-2.11 15.76,-4.1 23.46,-5.97 7.71,-1.87 13.97,-3.27 18.78,-4.21l24.56 0 0 89.12 95.32 0 0 45.62 -95.32 0 0 180.82c0,28.78 3.73,48.78 11.19,60 7.47,11.12 19.87,16.73 37.2,16.73 8.66,0 18.41,-0.59 29.24,-1.75 10.84,-1.17 20.83,-3.4 29.97,-6.67l5.07 23.16c-4.34,4.21 -10.72,8.65 -19.15,13.33 -8.42,4.68 -18.05,9.12 -28.88,13.33 -10.84,4.21 -22.63,7.72 -35.39,10.53 -12.77,2.81 -26.12,4.21 -40.09,4.21 -31.29,0 -54.64,-7.95 -70.05,-23.74 -15.41,-15.91 -23.1,-41.52 -23.1,-76.85l0 -213.1 -57.79 0 0 -28.07zm621.82 231.58c0,10.3 0.13,19.19 0.36,26.67 0.25,7.49 0.85,15.44 1.81,23.86l49.83 7.02 0 24.56c-5.77,2.81 -13.6,5.61 -23.47,8.42 -9.87,2.81 -20.22,5.5 -31.05,8.07 -10.83,2.58 -21.55,4.68 -32.14,6.32 -10.6,1.64 -19.98,2.92 -28.16,3.86l-24.56 0c-4.82,-10.76 -7.71,-21.52 -8.66,-32.28 -0.97,-10.76 -1.69,-23.86 -2.18,-39.3l-3.61 0c-2.41,9.35 -6.49,18.36 -12.28,27.02 -5.77,8.65 -13.12,16.37 -22.02,23.15 -8.91,6.79 -19.38,12.28 -31.42,16.5 -12.03,4.21 -25.51,6.31 -40.44,6.31 -15.89,0 -30.58,-2.34 -44.06,-7.02 -13.48,-4.67 -25.27,-11.22 -35.38,-19.65 -10.11,-8.42 -18.06,-18.59 -23.83,-30.52 -5.79,-11.93 -8.67,-25.38 -8.67,-40.35 0,-21.06 4.09,-38.37 12.28,-51.94 8.18,-13.56 21.07,-24.67 38.63,-33.33 17.58,-8.66 40.21,-15.09 67.89,-19.3 27.69,-4.21 61.27,-7.25 100.75,-9.12 3.85,-40.24 2.16,-69.71 -5.06,-88.42 -7.21,-18.72 -22.87,-28.08 -46.94,-28.08 -14.92,0 -28.65,2.34 -41.16,7.02l-33.95 84.21 -31.77 0c-3.86,-5.61 -7.59,-12.04 -11.2,-19.29 -3.61,-7.26 -6.98,-14.98 -10.11,-23.16 -3.13,-8.19 -5.78,-16.49 -7.95,-24.92 -2.16,-8.42 -3.72,-16.6 -4.69,-24.56 18.3,-12.16 41.89,-21.75 70.78,-28.77 28.89,-7.02 59.46,-10.53 91.72,-10.53 27.44,0 49.82,2.93 67.17,8.78 17.33,5.84 30.93,13.8 40.8,23.86 9.87,10.05 16.72,21.87 20.58,35.44 3.85,13.56 5.78,28.07 5.78,43.51 0,28.07 -0.6,53.45 -1.81,76.14 -1.2,22.69 -1.81,45.96 -1.81,69.82zm-162.49 54.04c10.11,0 18.78,-1.87 26,-5.61 7.23,-3.75 13.36,-8.19 18.41,-13.34 5.06,-5.14 8.91,-10.76 11.56,-16.84 2.64,-6.08 4.69,-11.46 6.14,-16.14l0 -70.18c-22.63,0.47 -41.17,1.87 -55.61,4.21 -14.45,2.34 -25.76,6.2 -33.94,11.58 -8.19,5.38 -13.84,12.17 -16.98,20.35 -3.13,8.19 -4.69,18.13 -4.69,29.83 0,17.78 4.33,31.58 13,41.4 8.67,9.83 20.7,14.74 36.11,14.74zm231.1 -285.62c18.3,-11.58 37.57,-19.77 57.79,-24.56l0 -56.85c2.88,-2.8 7.82,-5.49 14.8,-8.07 6.99,-2.57 14.45,-4.91 22.39,-7.01 7.95,-2.11 15.77,-4.1 23.47,-5.97 7.7,-1.87 13.96,-3.27 18.78,-4.21l24.55 0 0 89.12 95.33 0 0 45.62 -95.33 0 0 180.82c0,28.78 3.74,48.78 11.2,60 7.46,11.12 19.86,16.73 37.19,16.73 8.67,0 18.41,-0.59 29.25,-1.75 10.83,-1.17 20.83,-3.4 29.97,-6.67l5.06 23.16c-4.33,4.21 -10.71,8.65 -19.14,13.33 -8.43,4.68 -18.05,9.12 -28.89,13.33 -10.84,4.21 -22.63,7.72 -35.39,10.53 -12.76,2.81 -26.12,4.21 -40.09,4.21 -31.29,0 -54.64,-7.95 -70.05,-23.74 -15.4,-15.91 -23.1,-41.52 -23.1,-76.85l0 -213.1 -57.79 0 0 -28.07zm633.38 274.39c-3.84,7.95 -9.99,16.03 -18.41,24.21 -8.43,8.19 -18.78,15.44 -31.06,21.76 -12.27,6.31 -26.47,11.46 -42.61,15.44 -16.13,3.97 -33.58,5.96 -52.35,5.96 -29.86,0 -56.34,-4.33 -79.45,-12.98 -23.11,-8.66 -42.37,-21.05 -57.77,-37.2 -15.41,-16.14 -27.09,-35.43 -35.04,-57.89 -7.94,-22.46 -11.91,-47.72 -11.91,-75.79 0,-59.89 16.13,-105.5 48.39,-136.85 32.26,-31.34 77.04,-47.02 134.33,-47.02 24.55,0 47.54,3.28 68.97,9.83 21.42,6.55 39.24,17.31 53.44,32.28 14.2,14.97 24.08,34.62 29.62,58.95 5.53,24.33 5.16,54.03 -1.09,89.12l-221.72 0c0.49,36.96 10.23,66.44 29.25,88.43 19.02,21.99 47.06,32.98 84.14,32.98 15.89,0 32.38,-2.34 49.47,-7.02 17.1,-4.68 30.45,-10.76 40.09,-18.24l13.71 14.03zm-149.14 -260.36c-9.62,0 -18.05,1.64 -25.51,4.92 -7.46,3.27 -13.84,9.24 -19.38,17.89 -5.53,8.66 -9.99,20.35 -13.24,35.09 -3.37,14.74 -5.77,33.33 -7.22,55.79l115.55 0c3.37,-36.49 1.21,-64.56 -6.5,-84.21 -7.58,-19.65 -22.15,-29.48 -43.7,-29.48z"/>
   <path class="fil1" d="M3943.88 4420.12c0,10.3 0.13,19.19 0.36,26.67 0.25,7.49 0.85,15.44 1.81,23.86l49.83 7.02 0 24.56c-5.77,2.81 -13.6,5.61 -23.47,8.42 -9.87,2.81 -20.22,5.5 -31.05,8.07 -10.83,2.58 -21.55,4.68 -32.14,6.32 -10.6,1.64 -19.98,2.92 -28.16,3.86l-24.56 0c-4.82,-10.76 -7.71,-21.52 -8.66,-32.28 -0.97,-10.76 -1.69,-23.86 -2.18,-39.3l-3.61 0c-2.41,9.35 -6.49,18.36 -12.28,27.02 -5.77,8.65 -13.12,16.37 -22.02,23.15 -8.91,6.79 -19.38,12.28 -31.42,16.5 -12.03,4.21 -25.51,6.31 -40.44,6.31 -15.89,0 -30.58,-2.34 -44.06,-7.02 -13.48,-4.67 -25.27,-11.22 -35.38,-19.65 -10.12,-8.42 -18.06,-18.59 -23.83,-30.52 -5.79,-11.93 -8.67,-25.38 -8.67,-40.35 0,-21.06 4.09,-38.37 12.28,-51.94 8.18,-13.56 21.06,-24.67 38.63,-33.33 17.58,-8.66 40.21,-15.09 67.89,-19.3 27.69,-4.21 61.27,-7.25 100.75,-9.12 3.85,-40.24 2.16,-69.71 -5.06,-88.42 -7.21,-18.72 -22.87,-28.08 -46.94,-28.08 -14.92,0 -28.65,2.34 -41.16,7.02l-33.95 84.21 -31.77 0c-3.86,-5.61 -7.59,-12.04 -11.2,-19.29 -3.61,-7.26 -6.98,-14.98 -10.12,-23.16 -3.12,-8.19 -5.77,-16.49 -7.94,-24.92 -2.16,-8.42 -3.73,-16.6 -4.69,-24.56 18.29,-12.16 41.89,-21.75 70.78,-28.77 28.89,-7.02 59.46,-10.53 91.71,-10.53 27.45,0 49.83,2.93 67.18,8.78 17.33,5.84 30.93,13.8 40.8,23.86 9.87,10.05 16.72,21.87 20.58,35.44 3.85,13.56 5.78,28.07 5.78,43.51 0,28.07 -0.6,53.45 -1.81,76.14 -1.2,22.69 -1.81,45.96 -1.81,69.82zm-162.49 54.04c10.11,0 18.78,-1.87 26,-5.61 7.23,-3.75 13.36,-8.19 18.41,-13.34 5.06,-5.14 8.91,-10.76 11.56,-16.84 2.64,-6.08 4.69,-11.46 6.14,-16.14l0 -70.18c-22.63,0.47 -41.17,1.87 -55.61,4.21 -14.45,2.34 -25.76,6.2 -33.94,11.58 -8.19,5.38 -13.84,12.17 -16.98,20.35 -3.13,8.19 -4.69,18.13 -4.69,29.83 0,17.78 4.33,31.58 13,41.4 8.67,9.83 20.7,14.74 36.11,14.74zm416 -311.59c31.29,0 57.29,3.16 77.99,9.48 20.71,6.31 36.35,14.15 46.94,23.51 22.63,-23.86 48.64,-40.47 78,-49.83 3.37,2.34 6.74,5.73 10.11,10.18 3.37,4.44 6.26,9.24 8.67,14.38 2.41,5.15 4.33,10.3 5.77,15.44 1.45,5.15 2.17,9.36 2.17,12.63l-9.38 16.85 -75.84 0c5.3,6.55 10.23,15.08 14.81,25.61 4.57,10.53 6.85,23.04 6.85,37.55 0,15.43 -3.36,29.94 -10.1,43.51 -6.74,13.56 -16.97,25.61 -30.7,36.14 -13.72,10.52 -31.05,18.83 -51.99,24.91 -20.94,6.08 -45.39,9.12 -73.3,9.12 -8.2,0 -15.53,-0.11 -22.04,-0.35 -6.49,-0.23 -12.15,-0.82 -16.97,-1.75 -1.92,2.8 -3.97,6.2 -6.13,10.17 -2.17,3.98 -3.25,7.84 -3.25,11.58 0,7.96 5.77,14.27 17.33,18.95 11.55,4.68 26.24,8.89 44.05,12.63 17.82,3.74 36.96,7.96 57.42,12.63 20.46,4.68 39.6,10.88 57.41,18.6 17.82,7.72 32.74,17.78 44.78,30.18 12.04,12.39 18.3,28.42 18.78,48.07 0.47,18.71 -4.33,35.32 -14.45,49.82 -10.11,14.51 -23.95,26.79 -41.52,36.85 -17.58,10.06 -38.28,17.77 -62.11,23.15 -23.84,5.39 -49.23,8.08 -76.2,8.08 -31.78,0 -58.85,-2.46 -81.25,-7.37 -22.38,-4.92 -40.56,-11.58 -54.52,-20 -13.96,-8.43 -24.19,-18.02 -30.7,-28.78 -6.49,-10.76 -9.74,-21.99 -9.74,-33.68 0,-13.1 2.64,-24.33 7.94,-33.69 5.29,-9.35 12.76,-17.54 22.39,-24.56 9.63,-7.02 20.83,-12.86 33.58,-17.54 12.76,-4.68 26.85,-8.89 42.25,-12.63 -7.22,-1.88 -14.2,-4.21 -20.94,-7.02 -6.74,-2.81 -12.76,-6.2 -18.06,-10.18 -5.29,-3.97 -9.62,-8.65 -13,-14.03 -3.37,-5.38 -5.05,-11.58 -5.05,-18.6 0,-6.08 1.92,-12.05 5.77,-17.9 3.86,-5.84 8.91,-11.22 15.17,-16.14 6.26,-4.91 13,-9.35 20.22,-13.33 7.23,-3.98 14.44,-7.37 21.66,-10.18 -30.32,-6.55 -54.39,-19.29 -72.21,-38.24 -17.81,-18.95 -26.72,-43.16 -26.72,-72.63 0,-35.09 14.92,-62.46 44.77,-82.11 29.86,-19.65 70.3,-29.48 121.34,-29.48zm90.99 412.64c0,-12.63 -3.97,-22.8 -11.92,-30.52 -7.94,-7.72 -18.17,-14.04 -30.69,-18.95 -12.52,-4.91 -26.6,-9.12 -42.25,-12.63 -15.64,-3.51 -31.17,-7.6 -46.58,-12.28 -12.52,9.35 -21.43,18.71 -26.73,28.07 -5.29,9.35 -7.94,20.58 -7.94,33.68 0,21.52 7.58,38.25 22.75,50.18 15.17,11.93 36.48,17.89 63.92,17.89 26.96,0 46.94,-5.49 59.94,-16.49 13,-10.99 19.5,-23.97 19.5,-38.95zm-153.1 -297.55c0,24.33 4.21,42.81 12.64,55.44 8.41,12.64 24.91,18.95 49.47,18.95 23.58,0 39.83,-6.43 48.74,-19.3 8.91,-12.86 13.36,-31.23 13.36,-55.09 0,-25.26 -4.58,-44.09 -13.72,-56.49 -9.14,-12.4 -25.28,-18.6 -48.38,-18.6 -24.09,0 -40.45,6.09 -49.11,18.25 -8.67,12.16 -13,31.11 -13,56.84zm629.75 185.27c-3.84,7.95 -9.99,16.03 -18.41,24.21 -8.42,8.19 -18.78,15.44 -31.05,21.76 -12.28,6.31 -26.48,11.46 -42.62,15.44 -16.13,3.97 -33.58,5.96 -52.35,5.96 -29.86,0 -56.34,-4.33 -79.45,-12.98 -23.11,-8.66 -42.37,-21.05 -57.77,-37.2 -15.41,-16.14 -27.09,-35.43 -35.03,-57.89 -7.95,-22.46 -11.92,-47.72 -11.92,-75.79 0,-59.89 16.13,-105.5 48.39,-136.85 32.26,-31.34 77.04,-47.02 134.33,-47.02 24.55,0 47.54,3.28 68.97,9.83 21.43,6.55 39.24,17.31 53.44,32.28 14.2,14.97 24.08,34.62 29.62,58.95 5.54,24.33 5.16,54.03 -1.09,89.12l-221.71 0c0.48,36.96 10.22,66.44 29.24,88.43 19.02,21.99 47.06,32.98 84.14,32.98 15.89,0 32.38,-2.34 49.47,-7.02 17.1,-4.68 30.45,-10.76 40.09,-18.24l13.71 14.03zm-149.13 -260.36c-9.63,0 -18.06,1.64 -25.52,4.92 -7.46,3.27 -13.84,9.24 -19.37,17.89 -5.54,8.66 -10,20.35 -13.25,35.09 -3.36,14.74 -5.77,33.33 -7.22,55.79l115.56 0c3.36,-36.49 1.2,-64.56 -6.51,-84.21 -7.58,-19.65 -22.14,-29.48 -43.69,-29.48zm642.4 319.31l-191.38 0 0 -26.67c6.25,-3.27 12.4,-6.2 18.41,-8.77 6.02,-2.57 13.12,-5.26 21.31,-8.07l0 -165.38c0,-29.59 -4.33,-52.64 -13,-69.24 -8.67,-16.73 -24.08,-25.03 -46.23,-25.03 -18.29,0 -34.06,5.73 -47.29,17.19 -13.25,11.58 -23.24,27.13 -29.98,46.78l0 195.68c7.71,1.87 14.56,4.09 20.58,6.67 6.02,2.57 12.4,5.96 19.14,10.17l0 26.67 -191.38 0 0 -26.67c12.04,-6.08 27.93,-11.81 47.67,-16.96l0 -258.13 -47.67 -5.62 0 -26.66c6.25,-2.81 14.45,-5.5 24.55,-8.07 10.12,-2.58 21.07,-5.03 32.86,-7.37 11.79,-2.34 23.84,-4.33 36.11,-5.97 12.28,-1.63 23.48,-2.92 33.58,-3.86l24.56 0 0 72.29 0.72 0c10.11,-19.65 25.28,-36.61 45.51,-50.88 20.22,-14.27 44.77,-21.41 73.66,-21.41 18.77,0 35.63,2.23 50.55,6.67 14.92,4.45 27.56,12.28 37.91,23.63 10.36,11.23 18.3,26.31 23.84,45.26 5.53,19.07 8.3,43.04 8.3,72.17l0 168.07c19.27,3.28 35.15,8.89 47.67,16.84l0 26.67zm337.99 -56.84c-3.37,9.35 -8.91,17.89 -16.61,25.61 -7.71,7.72 -16.98,14.62 -27.8,20.7 -10.84,6.09 -23.12,10.76 -36.84,14.04 -13.72,3.27 -28.04,4.91 -42.97,4.91 -31.78,0 -59.1,-4.33 -81.97,-12.98 -22.87,-8.66 -41.76,-21.05 -56.69,-37.2 -14.93,-16.14 -26,-35.55 -33.22,-58.24 -7.23,-22.69 -10.84,-47.84 -10.84,-75.44 0,-59.42 16.73,-104.92 50.2,-136.5 33.46,-31.58 81,-47.37 142.63,-47.37 23.59,0 45.27,2.46 65,7.37 19.74,4.91 36.12,10.65 49.11,17.2 -0.96,7.95 -2.29,16.72 -3.97,26.31 -1.69,9.59 -3.61,19.18 -5.78,28.77 -2.16,9.6 -4.7,18.95 -7.59,28.08 -2.88,9.12 -5.77,16.72 -8.66,22.8l-35.38 0 -30.34 -83.51c-3.37,-2.34 -6.98,-4.09 -10.83,-5.26 -3.86,-1.17 -9.63,-1.76 -17.34,-1.76 -12.51,0 -23.35,2.23 -32.5,6.67 -9.15,4.45 -16.97,12.05 -23.46,22.81 -6.51,10.76 -11.32,25.03 -14.45,42.81 -3.13,17.78 -4.69,39.76 -4.69,65.96 0,19.19 2.16,36.85 6.5,52.99 4.33,16.14 10.95,30.17 19.85,42.1 8.91,11.93 20.11,21.29 33.59,28.07 13.48,6.79 29.36,10.18 47.66,10.18 16.86,0 31.54,-2.34 44.06,-7.02 12.51,-4.68 23.11,-10.29 31.78,-16.84l11.55 14.74zm47.67 -250.54c-7.22,-1.87 -13.84,-4.21 -19.86,-7.01 -6.02,-2.81 -12.15,-6.08 -18.42,-9.83l0 -26.67 189.94 0 0 25.97c-10.11,6.55 -23.83,12.4 -41.16,17.54l72.94 176.73 12.28 45.03 1.44 0 11.56 -45.73 56.33 -176.03c-14.45,-2.8 -27.68,-8.42 -39.72,-16.84l0 -26.67 139.38 0 0 26.67c-10.11,6.55 -23.83,12.17 -41.16,16.84l-117.73 307.38c-11.55,29.94 -23.1,54.39 -34.66,73.33 -11.55,18.95 -23.11,34.04 -34.67,45.27 -11.55,11.23 -23.1,19.06 -34.66,23.51 -11.55,4.44 -23.11,7.37 -34.67,8.77 -4.81,-4.21 -9.15,-9.47 -13,-15.79 -3.84,-6.32 -7.22,-13.1 -10.1,-20.35 -2.89,-7.25 -5.3,-14.62 -7.23,-22.11 -1.92,-7.48 -3.12,-14.5 -3.61,-21.05l9.39 -16.84 88.11 0c4.33,-6.55 8.06,-13.57 11.2,-21.06 3.13,-7.48 6.85,-18.71 11.18,-33.68l-153.1 -307.38zm650.7 -28.07l-24.55 0c-2.9,-7.01 -6.15,-15.2 -9.75,-24.56 -3.61,-9.35 -7.35,-19.18 -11.2,-29.47 -3.84,-10.29 -7.46,-20.47 -10.83,-30.53 -3.37,-10.06 -6.02,-19.3 -7.95,-27.72 16.86,-14.03 38.4,-26.2 64.64,-36.49 26.24,-10.29 58.14,-15.44 95.69,-15.44 26.49,0 49.35,3.27 68.61,9.82 19.26,6.55 35.27,15.68 48.03,27.37 12.76,11.7 22.15,25.27 28.17,40.71 6.02,15.44 9.02,32.04 9.02,49.82 0,28.54 -6.74,55.56 -20.22,81.06 -13.48,25.49 -30.09,49.35 -49.83,71.58 -19.74,22.22 -40.93,42.8 -63.56,61.75 -22.62,18.95 -43.09,36.14 -61.39,51.58l-37.55 24.56 0 2.81 44.06 -4.21 124.21 0 35.39 -78.6 24.56 0c1.44,11.23 3.01,24.33 4.69,39.3 1.69,14.97 3.25,30.06 4.69,45.27 1.45,15.2 2.66,29.7 3.62,43.51 0.96,13.8 1.45,24.91 1.45,33.33l-330.77 0 0 -44.91c12.51,-10.76 26.71,-23.28 42.6,-37.55 15.89,-14.27 32.02,-29.94 48.39,-47.02 16.38,-17.07 32.5,-35.2 48.39,-54.38 15.89,-19.19 30.09,-38.72 42.61,-58.6 12.52,-19.89 22.5,-40.12 29.98,-60.7 7.46,-20.59 11.18,-40.71 11.18,-60.36 0,-25.73 -7.1,-46.66 -21.3,-62.81 -14.2,-16.14 -34.3,-24.21 -60.31,-24.21 -8.18,0 -15.53,0.47 -22.02,1.41 -6.5,0.93 -13.84,2.57 -22.02,4.91l-26.73 108.77zm322.82 89.83c0,-42.11 4.7,-78.95 14.09,-110.53 9.39,-31.58 22.39,-58.01 39,-79.3 16.61,-21.29 36.34,-37.31 59.22,-48.07 22.87,-10.76 47.78,-16.14 74.75,-16.14 57.77,0 103.52,21.17 137.22,63.51 33.69,42.34 50.55,105.85 50.55,190.53 0,42.11 -4.69,78.95 -14.09,110.53 -9.39,31.58 -22.62,58.01 -39.71,79.3 -17.1,21.29 -37.44,37.31 -61.03,48.07 -23.6,10.76 -49.36,16.14 -77.28,16.14 -29.37,0 -55.36,-5.73 -77.99,-17.19 -22.63,-11.46 -41.77,-28.07 -57.42,-49.83 -15.65,-21.75 -27.44,-48.3 -35.39,-79.65 -7.94,-31.34 -11.92,-67.13 -11.92,-107.37zm108.34 0c0,33.45 1.08,63.39 3.24,89.94 2.17,26.44 6.15,48.89 11.92,67.26 5.78,18.36 13.37,32.4 22.75,42.22 9.39,9.71 21.3,14.62 35.75,14.62 16.85,0 30.69,-3.98 41.53,-11.81 10.83,-7.96 19.5,-20.47 25.99,-37.66 6.51,-17.2 10.96,-39.3 13.36,-66.32 2.41,-26.9 3.61,-59.65 3.61,-98.25 0,-33.45 -0.95,-63.39 -2.88,-89.94 -1.92,-26.44 -5.66,-48.89 -11.19,-67.26 -5.54,-18.36 -13.49,-32.39 -23.84,-42.22 -10.35,-9.71 -24.19,-14.62 -41.52,-14.62 -15.41,0 -28.17,3.98 -38.28,11.81 -10.11,7.96 -18.18,20.47 -24.19,37.67 -6.02,17.19 -10.24,39.41 -12.64,66.55 -2.41,27.25 -3.61,59.88 -3.61,98.01zm619.64 245.62l-249.88 0 0 -30.18c12.04,-5.14 24.2,-9.7 36.47,-13.68 12.28,-3.98 24.68,-7.37 37.19,-10.18l0 -322.11 2.9 -41.4c-13.48,4.21 -27.45,7.01 -41.89,8.42 -14.45,1.4 -29.37,1.87 -44.78,1.4l-3.61 -25.96c25.51,-6.55 53.32,-15.44 83.41,-26.67 30.09,-11.23 57.9,-24.33 83.42,-39.3l24.56 0 0 445.62c12.03,2.81 24.07,6.2 36.11,10.18 12.03,3.98 24.07,8.54 36.1,13.68l0 30.18zm98.95 -338.25c0,-23.86 4.33,-45.62 13,-65.27 8.66,-19.65 20.82,-36.61 36.47,-50.88 15.64,-14.27 34.3,-25.38 55.97,-33.33 21.67,-7.95 45.74,-11.93 72.22,-11.93 27.93,0 52.96,4.56 75.11,13.68 22.15,9.13 40.92,21.88 56.32,38.25 15.42,16.38 27.09,36.38 35.04,60 7.94,23.63 11.91,49.71 11.91,78.25 0,43.51 -6.74,83.63 -20.22,120.35 -13.48,36.73 -32.5,69.01 -57.05,96.85 -24.56,27.83 -54.05,50.52 -88.48,68.07 -34.42,17.54 -72.33,28.42 -113.74,32.63l-16.61 -30.17c55.37,-14.04 97.98,-39.3 127.83,-75.8 29.85,-36.49 48.63,-81.4 56.34,-134.74 -9.15,11.7 -21.19,21.29 -36.12,28.78 -14.93,7.48 -34.18,11.23 -57.77,11.23 -20.71,0 -40.08,-3.05 -58.15,-9.13 -18.05,-6.08 -33.94,-15.32 -47.65,-27.72 -13.73,-12.4 -24.56,-27.72 -32.5,-45.96 -7.95,-18.25 -11.92,-39.3 -11.92,-63.16zm108.32 -4.21c0,13.56 1.57,26.43 4.7,38.59 3.14,12.17 7.83,22.93 14.09,32.29 6.25,9.35 13.96,16.72 23.11,22.1 9.14,5.38 19.97,8.07 32.5,8.07 14.44,0 27.2,-2.69 38.27,-8.07 11.08,-5.38 19.5,-12.75 25.28,-22.1 0.96,-6.09 1.68,-13.57 2.17,-22.46 0.47,-8.89 0.72,-17.55 0.72,-25.97 0,-18.24 -1.33,-35.67 -3.97,-52.28 -2.65,-16.61 -6.87,-31.11 -12.64,-43.51 -5.78,-12.4 -13.25,-22.34 -22.39,-29.82 -9.15,-7.49 -20.46,-11.23 -33.94,-11.23 -24.08,0 -41.42,9.47 -52.01,28.42 -10.59,18.95 -15.89,47.6 -15.89,85.97z"/>
   <g>
    <g>
     <polygon class="fil1" points="3707.39,2087.22 3616.18,2087.22 3616.18,1668.51 3192.92,1668.51 3192.92,2087.22 3101.71,2087.22 3101.71,1204.37 3192.92,1204.37 3192.92,1589.05 3616.18,1589.05 3616.18,1204.37 3707.39,1204.37 "/>
     <path class="fil1" d="M4671.93 1802.18c0,88.29 -24.83,160.39 -74.48,216.31 -49.67,55.91 -124.18,83.87 -223.5,83.87 -98.55,0 -172.65,-27.96 -222.33,-83.87 -49.65,-55.92 -74.49,-128.02 -74.49,-216.31l0 -597.81 87.99 0 0 599.08c0,67.26 17.02,121.08 51.04,161.43 34.01,40.37 86.61,60.54 157.79,60.54 71.95,0 124.95,-20.17 158.96,-60.54 34.03,-40.35 51.03,-94.17 51.03,-161.43l0 -599.08 87.99 0 0 597.81z"/>
     <polygon class="fil1" points="5560.12,1282.56 5312.02,1282.56 5312.02,2087.22 5222.99,2087.22 5222.99,1282.56 4976.09,1282.56 4976.09,1204.37 5560.12,1204.37 "/>
     <polygon class="fil1" points="6436.25,1282.56 6178.23,1282.56 6178.23,2087.22 6085.63,2087.22 6085.63,1282.56 5828.85,1282.56 5828.85,1204.37 6436.25,1204.37 "/>
     <path class="fil1" d="M6974.85 1189.24c105.83,0 185.16,33.22 238.08,99.64 52.9,66.42 79.35,153.86 79.35,262.33l0 194.22c0,68.11 -11.48,129.06 -34.44,182.88 -22.95,53.8 -58.14,96.27 -105.59,127.38 -47.45,31.11 -106.59,46.67 -177.4,46.67 -70.78,0 -129.91,-15.56 -177.37,-46.67 -47.45,-31.11 -82.66,-73.58 -105.59,-127.38 -22.95,-53.82 -34.44,-114.77 -34.44,-182.88l0 -194.22c0,-109.3 26.64,-196.97 79.94,-262.97 53.29,-65.99 132.44,-99 237.46,-99zm0 76.94c-77.01,0 -134.56,25.63 -172.69,76.92 -38.12,51.3 -57.19,120.24 -57.19,206.85l0 198.01c0,82.39 19.07,149.25 57.19,200.53 38.13,51.29 95.68,76.93 172.69,76.93 77.03,0 134.59,-25.64 172.72,-76.93 38.12,-51.28 57.19,-118.14 57.19,-200.53l0 -198.01c0,-85.76 -18.87,-154.5 -56.6,-206.21 -37.73,-51.72 -95.49,-77.56 -173.31,-77.56z"/>
     <polygon class="fil1" points="8284.95,1204.37 8284.95,2087.22 8167.87,2087.22 7729.46,1322.93 7729.46,2087.22 7641.01,2087.22 7641.01,1204.37 7760.69,1204.37 8196.49,1966.15 8196.49,1204.37 "/>
     <g>
      <path class="fil1" d="M3707.39 2113.5l-118.01 0 0 -418.72 -369.66 0 0 418.72 -144.8 0 0 -935.4 144.8 0 0 384.67 369.66 0 0 -384.67 144.8 0 0 935.4 -26.79 0zm-64.42 -52.56l37.63 0 0 -830.29 -37.63 0 0 384.68 -476.84 0 0 -384.68 -37.62 0 0 830.29 37.62 0 0 -418.71 476.84 0 0 418.71z"/>
      <path class="fil1" d="M4698.73 1802.18c0,46.85 -6.72,89.75 -20.08,128.6 -13.6,39.46 -33.95,74.48 -61,104.96 -27.74,31.22 -62.37,54.64 -103.81,70.18 -40.34,15.13 -87,22.71 -139.89,22.71 -52.36,0 -98.72,-7.61 -139.02,-22.82 -41.24,-15.55 -75.75,-38.94 -103.41,-70.07 -27.15,-30.46 -47.52,-65.48 -61.1,-104.96 -13.37,-38.85 -20.08,-81.75 -20.08,-128.6l0 -624.08 141.58 0 0 625.35c0,60.99 14.96,109.25 44.85,144.7 14.05,16.7 32.11,29.29 54.08,37.7 23.08,8.85 50.81,13.29 83.1,13.29 32.79,0 60.85,-4.44 84.09,-13.29 22.07,-8.4 40.17,-20.99 54.25,-37.7 14.8,-17.56 25.95,-38.12 33.36,-61.59 7.65,-24.24 11.5,-51.96 11.5,-83.11l0 -625.35 141.58 0 0 624.08zm-70.75 111.98c11.42,-33.22 17.16,-70.56 17.16,-111.98l0 -571.53 -34.4 0 0 572.8c0,36.08 -4.68,68.95 -14.02,98.51 -9.57,30.28 -23.99,56.86 -43.2,79.65 -19.9,23.62 -45.33,41.35 -76.22,53.1 -29.7,11.31 -64.18,16.98 -103.35,16.98 -38.87,0 -73.08,-5.67 -102.58,-16.98 -30.6,-11.74 -55.91,-29.46 -75.82,-53.1 -38.13,-45.23 -57.22,-104.65 -57.22,-178.16l0 -572.8 -34.4 0 0 571.53c0,41.42 5.74,78.76 17.16,111.98 11.21,32.59 28.15,61.65 50.73,87.08 21.92,24.76 49.35,43.35 82.16,55.71 33.77,12.75 73.79,19.13 119.97,19.13 46.4,0 86.7,-6.42 120.85,-19.23 33.02,-12.38 60.53,-30.94 82.44,-55.61 22.57,-25.43 39.5,-54.47 50.74,-87.08z"/>
      <path class="fil1" d="M5560.12 1308.84l-221.31 0 0 804.66 -142.61 0 0 -804.66 -246.91 0 0 -130.74 637.63 0 0 130.74 -26.8 0zm-248.1 -52.55l221.31 0 0 -25.64 -530.45 0 0 25.64 246.91 0 0 804.65 35.43 0 0 -804.65 26.8 0z"/>
      <path class="fil1" d="M6436.25 1308.84l-231.23 0 0 804.66 -146.18 0 0 -804.66 -256.78 0 0 -130.74 660.98 0 0 130.74 -26.79 0zm-258.02 -52.55l231.22 0 0 -25.64 -553.8 0 0 25.64 256.77 0 0 804.65 39.01 0 0 -804.65 26.8 0z"/>
      <path class="fil1" d="M6974.85 1162.96c56.41,0 106.24,9.03 149.34,27.07 43.85,18.35 80.48,45.95 109.78,82.73 28.54,35.84 49.92,77.25 64.11,124.13 13.99,46.25 20.99,97.73 20.99,154.32l0 194.22c0,35.36 -3.05,69.22 -9.13,101.52 -6.1,32.41 -15.26,62.9 -27.4,91.41 -12.44,29.17 -28.33,55.42 -47.6,78.69 -19.28,23.26 -41.91,43.4 -67.84,60.4 -26.26,17.2 -55.59,30.1 -87.88,38.6 -31.89,8.38 -66.7,12.58 -104.37,12.58 -37.64,0 -72.47,-4.2 -104.35,-12.58 -32.29,-8.5 -61.61,-21.4 -87.87,-38.6 -25.93,-17 -48.59,-37.17 -67.85,-60.42 -19.26,-23.24 -35.17,-49.5 -47.59,-78.67 -12.17,-28.52 -21.3,-59 -27.4,-91.41 -6.08,-32.3 -9.13,-66.16 -9.13,-101.52l0 -194.22c0,-57.11 7.06,-108.87 21.14,-155.23 14.26,-46.92 35.83,-88.26 64.66,-123.96 29.5,-36.54 66.14,-63.95 109.79,-82.14 43.03,-17.93 92.58,-26.92 148.6,-26.92zm128.41 75.3c-36.22,-15.16 -79.06,-22.74 -128.41,-22.74 -48.97,0 -91.56,7.53 -127.67,22.59 -35.43,14.77 -65.08,36.92 -88.86,66.35 -24.43,30.27 -42.87,65.8 -55.24,106.51 -12.55,41.29 -18.83,88.06 -18.83,140.24l0 194.22c0,32.74 2.7,63.44 8.09,92.07 5.36,28.51 13.46,55.46 24.24,80.75 10.49,24.6 23.72,46.56 39.63,65.74 15.89,19.17 34.64,35.84 56.13,49.93 21.17,13.87 45.19,24.37 71.98,31.42 27.21,7.15 57.42,10.74 90.53,10.74 33.14,0 63.36,-3.59 90.54,-10.74 26.8,-7.05 50.83,-17.55 72,-31.42 21.5,-14.09 40.24,-30.76 56.11,-49.91 15.92,-19.2 29.15,-41.15 39.65,-65.76 10.77,-25.27 18.88,-52.22 24.24,-80.75 5.39,-28.63 8.1,-59.33 8.1,-92.07l0 -194.22c0,-51.85 -6.23,-98.38 -18.69,-139.54 -12.26,-40.53 -30.59,-76.14 -54.91,-106.67 -23.6,-29.63 -53.16,-51.9 -88.63,-66.74zm-128.41 54.19c-34.69,0 -64.69,5.64 -89.94,16.88 -24.56,10.94 -44.97,27.35 -61.19,49.17 -17,22.87 -29.88,50.11 -38.6,81.66 -8.9,32.18 -13.35,68.79 -13.35,109.79l0 198.01c0,76.82 17.33,138.55 51.95,185.13 16.22,21.81 36.65,38.24 61.19,49.17 25.25,11.25 55.25,16.88 89.94,16.88 34.69,0 64.71,-5.63 89.95,-16.88 24.55,-10.93 44.99,-27.35 61.22,-49.17 17.11,-23.01 30.03,-49.77 38.7,-80.18 8.81,-30.97 13.24,-65.96 13.24,-104.95l0 -198.01c0,-80.22 -17.21,-143.93 -51.56,-191.01 -16.08,-22.05 -36.43,-38.59 -60.94,-49.56 -25.22,-11.26 -55.45,-16.93 -90.61,-16.93zm-111.93 -30.96c32.29,-14.39 69.63,-21.59 111.93,-21.59 42.61,0 80.25,7.3 112.78,21.84 33.21,14.87 60.67,37.16 82.3,66.81 41.07,56.28 61.62,130.12 61.62,221.4l0 198.01c0,43.41 -5.13,83.06 -15.34,118.92 -10.39,36.42 -26.09,68.79 -47.09,97.02 -21.87,29.42 -49.33,51.52 -82.32,66.21 -32.3,14.39 -69.65,21.58 -111.95,21.58 -42.3,0 -79.64,-7.19 -111.93,-21.58 -32.98,-14.7 -60.44,-36.79 -82.31,-66.21 -41.61,-55.98 -62.43,-127.99 -62.43,-215.94l0 -198.01c0,-45.54 5.09,-86.71 15.23,-123.45 10.33,-37.46 26.08,-70.38 47.2,-98.8 21.87,-29.44 49.35,-51.54 82.31,-66.21z"/>
      <path class="fil1" d="M8311.75 1204.37l0 909.13 -159.51 0 -395.98 -690.33 0 690.33 -142.04 0 0 -935.4 162.13 0 393.35 687.57 0 -687.57 142.05 0 0 26.27zm-53.59 856.57l0 -830.29 -34.87 0 0 830.29 34.87 0zm-74.66 0l36.53 0 -474.98 -830.29 -37.83 0 476.28 830.29zm-480.83 -738.01l0 -92.28 -34.86 0 0 830.29 34.86 0 0 -738.01z"/>
     </g>
    </g>
    <g>
     <path class="fil1" d="M3084.91 2603.64l0 -233.91 82.18 0c18.54,0 32.7,1.08 42.47,3.32 13.65,3.1 25.32,8.71 34.98,16.77 12.6,10.44 21.98,23.73 28.2,39.97 6.28,16.22 9.39,34.78 9.39,55.63 0,17.76 -2.11,33.49 -6.33,47.21 -4.23,13.73 -9.66,25.11 -16.27,34.1 -6.67,8.98 -13.88,16.05 -21.77,21.18 -7.83,5.17 -17.33,9.09 -28.43,11.75 -11.15,2.67 -23.93,3.98 -38.36,3.98l-86.06 0zm31.64 -27.44l50.87 0c15.71,0 28.04,-1.41 36.97,-4.3 8.95,-2.89 16.04,-6.92 21.37,-12.14 7.45,-7.36 13.28,-17.27 17.44,-29.68 4.16,-12.42 6.27,-27.45 6.27,-45.15 0,-24.5 -4.1,-43.33 -12.27,-56.51 -8.16,-13.17 -18.09,-22 -29.82,-26.46 -8.43,-3.22 -22.04,-4.8 -40.79,-4.8l-50.04 0 0 179.04zm482.63 27.44l0 -233.91 172.22 0 0 27.43 -140.58 0 0 71.88 131.59 0 0 27.44 -131.59 0 0 79.72 146.24 0 0 27.44 -177.88 0zm562.51 0l-92.17 -233.91 34.21 0 61.96 169.99c4.93,13.6 9.15,26.35 12.5,38.27 3.66,-12.8 7.93,-25.53 12.82,-38.27l64.29 -169.99 32.2 0 -93 233.91 -32.81 0zm427.93 0l0 -233.91 172.22 0 0 27.43 -140.58 0 0 71.88 131.59 0 0 27.44 -131.59 0 0 79.72 146.25 0 0 27.44 -177.89 0zm493.22 0l0 -233.91 31.65 0 0 206.47 117.27 0 0 27.44 -148.92 0zm449.97 -113.85c0,-38.78 10.66,-69.16 31.93,-91.11 21.26,-21.94 48.68,-32.87 82.33,-32.87 22.05,0 41.87,5.17 59.58,15.46 17.65,10.28 31.14,24.65 40.42,43.12 9.27,18.4 13.93,39.32 13.93,62.67 0,23.69 -4.89,44.93 -14.66,63.59 -9.76,18.74 -23.59,32.89 -41.46,42.49 -17.94,9.64 -37.26,14.42 -57.98,14.42 -22.48,0 -42.53,-5.34 -60.24,-15.96 -17.65,-10.62 -31.1,-25.1 -40.19,-43.49 -9.12,-18.36 -13.66,-37.79 -13.66,-58.32zm32.64 0.53c0,28.16 7.72,50.32 23.15,66.49 15.45,16.17 34.82,24.29 58.13,24.29 23.77,0 43.26,-8.18 58.65,-24.5 15.31,-16.34 22.98,-39.54 22.98,-69.6 0,-18.99 -3.28,-35.6 -9.83,-49.76 -6.56,-14.16 -16.16,-25.15 -28.77,-32.94 -12.65,-7.79 -26.81,-11.71 -42.53,-11.71 -22.31,0 -41.53,7.51 -57.63,22.54 -16.1,15.03 -24.15,40.08 -24.15,75.19zm509.15 113.32l0 -233.91 90.06 0c15.81,0 27.92,0.76 36.3,2.23 11.73,1.89 21.56,5.54 29.49,10.89 7.94,5.39 14.32,12.9 19.15,22.54 4.83,9.64 7.23,20.26 7.23,31.85 0,19.82 -6.44,36.64 -19.38,50.36 -12.88,13.78 -36.26,20.64 -70.02,20.64l-61.19 0 0 95.4 -31.64 0zm31.64 -122.83l61.64 0c20.43,0 34.86,-3.71 43.47,-11.18 8.55,-7.46 12.82,-17.9 12.82,-31.47 0,-9.74 -2.49,-18.13 -7.55,-25.1 -5.05,-6.97 -11.71,-11.59 -19.92,-13.82 -5.34,-1.38 -15.16,-2.08 -29.43,-2.08l-61.03 0 0 83.65zm462.92 122.83l0 -233.91 47.3 0 56.41 165.58c5.22,15.4 8.99,26.95 11.38,34.62 2.73,-8.49 7,-21.02 12.77,-37.51l57.42 -162.69 42.24 0 0 233.91 -30.3 0 0 -195.69 -69.63 195.69 -28.44 0 -68.84 -199.3 0 199.3 -30.31 0zm551.84 0l0 -233.91 172.22 0 0 27.43 -140.58 0 0 71.88 131.59 0 0 27.44 -131.59 0 0 79.72 146.25 0 0 27.44 -177.89 0zm494.22 0l0 -233.91 32.43 0 125.15 183.59 0 -183.59 30.3 0 0 233.91 -32.41 0 -125.15 -183.61 0 183.61 -30.32 0zm574.56 0l0 -206.48 -78.62 0 0 -27.43 188.89 0 0 27.43 -78.62 0 0 206.48 -31.65 0z"/>
     <path class="fil1" d="M3071.51 2603.64l0 -247.05 95.58 0c9.57,0 18.12,0.28 25.58,0.86 7.68,0.6 14.35,1.55 19.92,2.82 7.84,1.8 15.13,4.32 21.79,7.49 6.8,3.25 13.09,7.3 18.78,12.05 7.19,5.94 13.51,12.78 18.87,20.38 5.3,7.49 9.72,15.85 13.22,24.98 3.43,8.88 6.01,18.41 7.7,28.51 1.73,10.1 2.58,20.71 2.58,31.74 0,19.01 -2.31,36.01 -6.91,50.96 -2.25,7.35 -4.94,14.24 -7.96,20.6 -3.06,6.43 -6.52,12.23 -10.3,17.39 -3.77,5.09 -7.7,9.65 -11.85,13.69 -4.24,4.14 -8.73,7.76 -13.37,10.78 -4.73,3.09 -9.82,5.78 -15.18,7.99 -5.43,2.19 -11.24,4.06 -17.44,5.55 -6.28,1.48 -12.85,2.6 -19.73,3.31 -7.08,0.72 -14.37,1.09 -21.82,1.09l-99.46 0 0 -13.14zm26.8 -220.78l0 207.64 72.66 0c6.96,0 13.33,-0.3 18.99,-0.88 5.86,-0.61 11.3,-1.52 16.18,-2.66 4.9,-1.2 9.42,-2.64 13.46,-4.31 4.07,-1.71 7.67,-3.6 10.74,-5.61 3.25,-2.15 6.37,-4.68 9.34,-7.57 3.08,-3.01 6.12,-6.54 9.06,-10.49 2.81,-3.8 5.4,-8.18 7.74,-13.08 2.35,-4.96 4.54,-10.66 6.5,-17.02 3.83,-12.46 5.75,-26.95 5.75,-43.46 0,-9.83 -0.71,-18.99 -2.14,-27.42 -1.39,-8.42 -3.54,-16.3 -6.35,-23.6 -2.72,-7.09 -6.13,-13.55 -10.2,-19.32 -4,-5.67 -8.74,-10.8 -14.13,-15.25 -3.96,-3.31 -8.42,-6.15 -13.26,-8.47 -4.94,-2.36 -10.33,-4.24 -16.07,-5.53 -4.24,-0.95 -9.59,-1.7 -16.01,-2.19 -6.67,-0.51 -14.54,-0.78 -23.48,-0.78l-68.78 0zm31.64 180.2l37.47 0c7.41,0 13.91,-0.33 19.46,-0.97 5.24,-0.59 9.7,-1.5 13.32,-2.66 3.66,-1.18 6.87,-2.55 9.54,-4.07 2.47,-1.37 4.68,-3.04 6.58,-4.87 2.91,-2.89 5.55,-6.33 7.85,-10.22 2.35,-4.01 4.48,-8.8 6.32,-14.3 1.85,-5.48 3.25,-11.59 4.17,-18.28 0.93,-6.76 1.42,-14.36 1.42,-22.76 0,-11.39 -0.93,-21.33 -2.75,-29.76 -1.73,-8 -4.26,-14.67 -7.52,-19.95 -3.46,-5.54 -7.19,-10.11 -11.14,-13.61 -3.7,-3.29 -7.76,-5.8 -12.1,-7.43 -3.11,-1.18 -7.55,-2.13 -13.28,-2.79 -6.19,-0.73 -13.79,-1.09 -22.7,-1.09l-36.64 0 0 152.76zm37.47 26.28l-64.27 0 0 -205.31 63.44 0c9.81,0 18.45,0.43 25.83,1.29 7.86,0.91 14.46,2.4 19.78,4.43 7.35,2.77 14.17,6.97 20.37,12.46 5.95,5.29 11.33,11.8 16.04,19.38 4.87,7.93 8.53,17.33 10.87,28.13 2.25,10.38 3.39,22.15 3.39,35.21 0,9.25 -0.59,18.04 -1.72,26.25 -1.15,8.34 -2.93,16.04 -5.24,22.95 -2.3,6.95 -5.21,13.35 -8.62,19.19 -3.53,5.99 -7.57,11.23 -12.05,15.67 -3.48,3.38 -7.52,6.42 -12.12,9.03 -4.42,2.53 -9.3,4.65 -14.54,6.34 -5.3,1.72 -11.52,3 -18.57,3.8 -6.75,0.78 -14.3,1.18 -22.59,1.18zm418.36 14.3l0 -247.05 199.02 0 0 53.71 -140.58 0 0 45.6 131.58 0 0 53.72 -131.58 0 0 53.44 146.24 0 0 53.72 -204.68 0 0 -13.14zm26.8 -220.78l0 207.64 151.09 0 0 -1.16 -146.25 0 0 -106 131.59 0 0 -1.16 -131.59 0 0 -98.15 140.58 0 0 -1.17 -145.42 0zm536.66 225.5l-99.21 -251.77 63.13 0c21.13,58.11 46.92,120.69 65.19,178.91 23.5,-58.88 45.1,-119.54 67.64,-178.91l61.09 0 -103.45 260.19 -22.6 0 -2.92 10.28 -2.89 -10.28 -22.66 0 -3.32 -8.42zm-60.23 -225.5l68.7 174.35 -63.41 -174.35 -5.29 0zm114.53 161.46l-3.24 8.64 67.63 -170.1 -3.3 0 -61.09 161.46zm372.69 59.32l0 -247.05 199.01 0 0 53.71 -140.58 0 0 45.6 131.59 0 0 53.72 -131.59 0 0 53.44 146.24 0 0 53.72 -204.67 0 0 -13.14zm26.79 -220.78l0 207.64 151.09 0 0 -1.16 -146.24 0 0 -106 131.58 0 0 -1.16 -131.58 0 0 -98.15 140.57 0 0 -1.17 -145.42 0zm466.42 220.78l0 -247.05 58.45 0 0 206.47 117.26 0 0 53.72 -175.71 0 0 -13.14zm26.8 -220.78l0 207.64 122.12 0 0 -1.16 -117.26 0 0 -206.48 -4.86 0zm423.17 106.93c0,-20.83 2.92,-39.58 8.72,-56.12 5.93,-16.92 14.93,-31.62 26.93,-44.01 11.99,-12.37 25.73,-21.65 41.17,-27.81 15.31,-6.11 32.27,-9.18 50.84,-9.18 12.09,0 23.72,1.46 34.83,4.33 11.11,2.89 21.69,7.23 31.56,12.98 9.95,5.79 18.77,12.78 26.4,20.91 7.56,8.08 14,17.34 19.2,27.71 5.12,10.19 9,21.06 11.54,32.52 2.51,11.38 3.8,23.39 3.8,35.94 0,12.69 -1.37,24.91 -4.03,36.56 -2.67,11.63 -6.76,22.67 -12.15,32.99 -5.5,10.53 -12.16,19.83 -19.94,27.8 -7.82,8 -16.86,14.78 -27.02,20.23 -10.01,5.36 -20.39,9.4 -31.04,12.05 -10.8,2.66 -21.93,4.01 -33.32,4.01 -12.38,0 -24.18,-1.51 -35.36,-4.46 -11.26,-2.98 -21.89,-7.49 -31.84,-13.45 -9.87,-5.93 -18.68,-13.06 -26.28,-21.29 -7.53,-8.16 -13.9,-17.39 -18.95,-27.66 -5,-10.01 -8.78,-20.42 -11.29,-31.16 -2.49,-10.74 -3.77,-21.73 -3.77,-32.89zm34.06 -47.59c-4.83,13.77 -7.26,29.67 -7.26,47.59 0,9.35 1.02,18.4 3.04,27.05 2.03,8.68 5.13,17.22 9.25,25.52 3.99,8.13 8.91,15.33 14.7,21.6 5.79,6.27 12.64,11.78 20.41,16.46 7.74,4.63 16.03,8.14 24.82,10.47 8.87,2.34 18.38,3.53 28.47,3.53 9.29,0 18.23,-1.06 26.73,-3.16 8.64,-2.17 16.95,-5.39 24.87,-9.62 7.67,-4.11 14.53,-9.27 20.52,-15.4 6.01,-6.16 11.18,-13.37 15.45,-21.54 4.34,-8.3 7.64,-17.28 9.84,-26.83 2.17,-9.54 3.29,-19.83 3.29,-30.81 0,-10.77 -1.07,-20.93 -3.15,-30.4 -2.09,-9.43 -5.25,-18.28 -9.36,-26.47 -4.06,-8.07 -9.05,-15.28 -14.92,-21.54 -5.85,-6.23 -12.65,-11.62 -20.32,-16.09 -7.81,-4.54 -16.09,-7.95 -24.76,-10.2 -8.73,-2.27 -18.09,-3.41 -28.02,-3.41 -15.1,0 -28.71,2.41 -40.79,7.24 -11.95,4.76 -22.6,11.96 -31.87,21.52 -9.23,9.53 -16.25,21.06 -20.94,34.49zm25.38 48.12c0,24.76 6.5,43.96 19.49,57.56 6.38,6.69 13.59,11.73 21.61,15.08 7.98,3.32 16.92,5 26.78,5 10.09,0 19.19,-1.69 27.22,-5.06 8.05,-3.37 15.28,-8.43 21.62,-15.15 6.3,-6.79 11.1,-15.08 14.33,-24.86 3.36,-10.19 5.06,-22.17 5.06,-35.89 0,-8.71 -0.74,-16.83 -2.2,-24.23 -1.43,-7.24 -3.57,-13.98 -6.43,-20.14 -2.74,-5.95 -6.13,-11.22 -10.07,-15.73 -3.9,-4.47 -8.47,-8.34 -13.62,-11.52 -5.18,-3.19 -10.74,-5.61 -16.6,-7.22 -5.87,-1.61 -12.15,-2.43 -18.81,-2.43 -9.52,0 -18.27,1.56 -26.23,4.66 -7.96,3.12 -15.39,7.88 -22.19,14.23 -6.35,5.91 -11.23,14.1 -14.55,24.47 -3.6,11.23 -5.41,25 -5.41,41.23zm0.02 75.41c-17.87,-18.71 -26.81,-43.87 -26.81,-75.41 0,-18.87 2.21,-35.21 6.65,-49.03 4.71,-14.66 11.95,-26.58 21.69,-35.65 9.28,-8.65 19.56,-15.21 30.76,-19.59 11.25,-4.39 23.3,-6.6 36.07,-6.6 9.04,0 17.74,1.17 26.04,3.44 8.26,2.28 16.16,5.72 23.62,10.33 7.42,4.57 14,10.17 19.67,16.64 5.65,6.46 10.39,13.82 14.17,21.98 3.69,8 6.47,16.69 8.31,26.01 1.81,9.16 2.72,18.9 2.72,29.15 0,16.31 -2.16,30.97 -6.43,43.95 -4.43,13.45 -11.15,24.95 -20.11,34.53 -9.08,9.57 -19.34,16.77 -30.79,21.55 -11.45,4.8 -24.04,7.21 -37.7,7.21 -13.44,0 -25.87,-2.38 -37.26,-7.15 -11.33,-4.74 -21.57,-11.89 -30.6,-21.36zm482.34 37.91l0 -247.05 103.45 0c7.95,0 15.21,0.22 21.71,0.61 6.33,0.39 11.94,1.01 16.74,1.85 6.72,1.05 12.98,2.68 18.69,4.79 6,2.24 11.43,4.96 16.18,8.18 4.97,3.38 9.46,7.42 13.46,12.14 3.84,4.51 7.24,9.7 10.13,15.45 2.87,5.69 5.04,11.77 6.49,18.14 1.42,6.36 2.17,12.89 2.17,19.49 0,11.44 -1.92,22.18 -5.74,32.11 -3.82,9.89 -9.57,18.99 -17.23,27.1 -8.05,8.67 -19.14,15.09 -33.14,19.2 -12.96,3.83 -28.54,5.73 -46.69,5.73l-47.79 0 0 95.4 -58.43 0 0 -13.14zm26.79 -220.78l0 207.64 4.85 0 0 -95.39 74.58 0c15.61,0 28.64,-1.54 39.03,-4.61 9.31,-2.72 16.38,-6.68 21.15,-11.78 5.3,-5.54 9.25,-11.78 11.87,-18.6 2.63,-6.84 3.95,-14.5 3.95,-22.88 0,-4.98 -0.48,-9.63 -1.44,-13.86 -0.94,-4.21 -2.43,-8.31 -4.37,-12.2 -1.93,-3.9 -4.18,-7.33 -6.69,-10.28 -2.34,-2.77 -5.04,-5.2 -8.02,-7.22 -3.16,-2.13 -6.67,-3.92 -10.48,-5.32 -4.11,-1.5 -8.67,-2.68 -13.61,-3.47l-0.21 -0.04c-3.54,-0.63 -8.19,-1.12 -13.87,-1.46 -5.59,-0.35 -12.27,-0.53 -20.08,-0.53l-76.66 0zm31.64 84.81l48.24 0c9.15,0 16.76,-0.78 22.77,-2.31 5.15,-1.34 9.13,-3.22 11.86,-5.59 2.68,-2.31 4.71,-5.15 6.05,-8.46 1.47,-3.62 2.22,-8.01 2.22,-13.15 0,-3.7 -0.44,-7.03 -1.31,-9.92 -0.82,-2.76 -2.08,-5.31 -3.74,-7.58 -1.64,-2.25 -3.52,-4.15 -5.57,-5.56 -2.01,-1.43 -4.38,-2.52 -7.02,-3.23 -1.79,-0.43 -4.74,-0.82 -8.78,-1.09 -4.48,-0.31 -10.18,-0.48 -17.09,-0.48l-47.63 0 0 57.37zm48.24 26.27l-75.03 0 0 -109.91 74.42 0c7.31,0 13.66,0.2 18.98,0.56 5.63,0.39 10.25,1.06 13.8,1.97l0.2 0.04c5.51,1.51 10.65,3.89 15.27,7.08 4.58,3.11 8.58,7.09 11.99,11.78 3.38,4.63 5.91,9.8 7.6,15.39 1.64,5.45 2.46,11.25 2.46,17.31 0,8.4 -1.4,16.04 -4.19,22.89 -2.9,7.14 -7.31,13.25 -13.13,18.34 -5.9,5.16 -13.5,8.92 -22.79,11.31 -8.48,2.16 -18.34,3.24 -29.58,3.24zm387.88 109.7l0 -247.05 30.32 0 11.02 0 28.97 0 58.39 171.42 60.51 -171.42 25.54 0 9.26 0 30.31 0 0 260.19 -57.1 0 0 -131.45 -46.75 131.45 -47.5 0 -45.86 -132.76 0 132.76 -57.11 0 0 -13.14zm26.79 -220.78l0 207.64 3.53 0 0 -207.64 -3.53 0zm24.29 0l-0.67 0 49.02 141.89 -48.35 -141.89zm176.44 0l-3.51 0 0 207.64 3.51 0 0 -207.64zm324.33 220.78l0 -247.05 199.01 0 0 53.71 -140.58 0 0 45.6 131.59 0 0 53.72 -131.59 0 0 53.44 146.24 0 0 53.72 -204.67 0 0 -13.14zm26.79 -220.78l0 207.64 151.09 0 0 -1.16 -146.24 0 0 -106 131.58 0 0 -1.16 -131.58 0 0 -98.15 140.57 0 0 -1.17 -145.42 0zm467.42 220.78l0 -247.05 52.94 0 104.64 153.53 0 -153.53 57.1 0 0 260.19 -52.91 0 -104.65 -153.54 0 153.54 -57.12 0 0 -13.14zm26.8 -220.78l0 207.64 3.52 0 0 -207.64 -3.52 0zm11.94 0l-4.3 0 141.52 207.64 4.3 0 -141.52 -207.64zm145.63 170.46l0 37.18 3.51 0 0 -207.64 -3.51 0 0 170.46zm390.19 50.32l0 -193.34 -78.62 0 0 -53.71 215.69 0 0 53.71 -78.62 0 0 206.48 -58.45 0 0 -13.14zm26.79 -206.48l0 193.34 4.87 0 0 -206.47 78.62 0 0 -1.17 -162.11 0 0 1.17 78.62 0 0 13.13z"/>
    </g>
   </g>
  </g>
 </g>
</svg>
