<svg width="49" height="59" viewBox="0 0 49 59" fill="none" xmlns="http://www.w3.org/2000/svg">
<circle cx="24.5" cy="24.5" r="24.5" fill="#165099"/>
<path d="M22.12 49.48C20.0667 49.48 18.24 49.1467 16.64 48.48C15.04 47.8133 13.7733 46.9067 12.84 45.76C11.9067 44.6133 11.44 43.2933 11.44 41.8C11.44 40.4133 11.7467 39.1733 12.36 38.08C12.9733 36.96 13.9467 35.92 15.28 34.96C16.6133 33.9733 18.3067 33.0133 20.36 32.08C21.8533 31.3867 23.0267 30.7733 23.88 30.24C24.7333 29.7067 25.3333 29.2 25.68 28.72C26.0267 28.2133 26.2 27.7067 26.2 27.2C26.2 26.5067 25.96 25.9467 25.48 25.52C25.0267 25.0933 24.3467 24.88 23.44 24.88C22.48 24.88 21.7333 25.12 21.2 25.6C20.6667 26.08 20.4 26.6933 20.4 27.44C20.4 27.84 20.48 28.24 20.64 28.64C20.8 29.0133 21.1067 29.4533 21.56 29.96C22.0133 30.44 22.6533 31.0667 23.48 31.84L38.24 45.52L34.84 49.48L18.56 34.36C17.6267 33.5067 16.88 32.7067 16.32 31.96C15.76 31.2133 15.3467 30.48 15.08 29.76C14.84 29.04 14.72 28.2933 14.72 27.52C14.72 26.16 15.08 24.96 15.8 23.92C16.52 22.88 17.5333 22.08 18.84 21.52C20.1467 20.9333 21.68 20.64 23.44 20.64C25.0667 20.64 26.4667 20.9067 27.64 21.44C28.84 21.9467 29.7733 22.68 30.44 23.64C31.1333 24.6 31.48 25.7467 31.48 27.08C31.48 28.2533 31.1867 29.3333 30.6 30.32C30.0133 31.28 29.0933 32.1867 27.84 33.04C26.6133 33.8933 25 34.76 23 35.64C21.64 36.2533 20.56 36.8533 19.76 37.44C18.9867 38 18.4267 38.5733 18.08 39.16C17.7333 39.7467 17.56 40.4 17.56 41.12C17.56 41.7867 17.76 42.3867 18.16 42.92C18.5867 43.4533 19.1733 43.8667 19.92 44.16C20.6667 44.4533 21.5467 44.6 22.56 44.6C24.1867 44.6 25.68 44.2267 27.04 43.48C28.4 42.7067 29.5467 41.5733 30.48 40.08C31.44 38.56 32.12 36.72 32.52 34.56L37.52 36.12C36.96 38.84 35.96 41.2 34.52 43.2C33.08 45.2 31.3067 46.7467 29.2 47.84C27.0933 48.9333 24.7333 49.48 22.12 49.48Z" fill="white"/>
</svg>
