<svg width="266" height="72" viewBox="0 0 266 72" fill="none" xmlns="http://www.w3.org/2000/svg">
<circle cx="241.5" cy="24.5" r="24.5" fill="#165099"/>
<path d="M22.04 51.12V31.28H12.44L12.32 35.36C12.24 37.0933 12.12 38.7333 11.96 40.28C11.8267 41.8267 11.6133 43.24 11.32 44.52C11.0267 45.7733 10.64 46.84 10.16 47.72C9.70667 48.6 9.13333 49.2267 8.44 49.6L1.52 48.72C2.48 48.7467 3.26667 48.4133 3.88 47.72C4.52 47.0267 5.02667 46.0533 5.4 44.8C5.77333 43.52 6.04 42.0267 6.2 40.32C6.38667 38.6133 6.52 36.76 6.6 34.76L6.92 26H28.44V51.12H22.04ZM0.6 59.8L0.64 48.72H32.36V59.8H26.36V54H6.6V59.8H0.6ZM49.1222 54V49.8L48.7222 48.88V41.36C48.7222 40.0267 48.3089 38.9867 47.4822 38.24C46.6822 37.4933 45.4422 37.12 43.7622 37.12C42.6155 37.12 41.4822 37.3067 40.3622 37.68C39.2689 38.0267 38.3355 38.5067 37.5622 39.12L35.3222 34.76C36.4955 33.9333 37.9089 33.2933 39.5622 32.84C41.2155 32.3867 42.8955 32.16 44.6022 32.16C47.8822 32.16 50.4289 32.9333 52.2422 34.48C54.0555 36.0267 54.9622 38.44 54.9622 41.72V54H49.1222ZM42.5622 54.32C40.8822 54.32 39.4422 54.04 38.2422 53.48C37.0422 52.8933 36.1222 52.1067 35.4822 51.12C34.8422 50.1333 34.5222 49.0267 34.5222 47.8C34.5222 46.52 34.8289 45.4 35.4422 44.44C36.0822 43.48 37.0822 42.7333 38.4422 42.2C39.8022 41.64 41.5755 41.36 43.7622 41.36H49.4822V45H44.4422C42.9755 45 41.9622 45.24 41.4022 45.72C40.8689 46.2 40.6022 46.8 40.6022 47.52C40.6022 48.32 40.9089 48.96 41.5222 49.44C42.1622 49.8933 43.0289 50.12 44.1222 50.12C45.1622 50.12 46.0955 49.88 46.9222 49.4C47.7489 48.8933 48.3489 48.16 48.7222 47.2L49.6822 50.08C49.2289 51.4667 48.4022 52.52 47.2022 53.24C46.0022 53.96 44.4555 54.32 42.5622 54.32ZM80.8309 54.48C78.7776 54.48 76.9509 54.1467 75.3509 53.48C73.7509 52.8133 72.4843 51.9067 71.5509 50.76C70.6176 49.6133 70.1509 48.2933 70.1509 46.8C70.1509 45.4133 70.4576 44.1733 71.0709 43.08C71.6843 41.96 72.6576 40.92 73.9909 39.96C75.3243 38.9733 77.0176 38.0133 79.0709 37.08C80.5643 36.3867 81.7376 35.7733 82.5909 35.24C83.4443 34.7067 84.0443 34.2 84.3909 33.72C84.7376 33.2133 84.9109 32.7067 84.9109 32.2C84.9109 31.5067 84.6709 30.9467 84.1909 30.52C83.7376 30.0933 83.0576 29.88 82.1509 29.88C81.1909 29.88 80.4443 30.12 79.9109 30.6C79.3776 31.08 79.1109 31.6933 79.1109 32.44C79.1109 32.84 79.1909 33.24 79.3509 33.64C79.5109 34.0133 79.8176 34.4533 80.2709 34.96C80.7243 35.44 81.3643 36.0667 82.1909 36.84L96.9509 50.52L93.5509 54.48L77.2709 39.36C76.3376 38.5067 75.5909 37.7067 75.0309 36.96C74.4709 36.2133 74.0576 35.48 73.7909 34.76C73.5509 34.04 73.4309 33.2933 73.4309 32.52C73.4309 31.16 73.7909 29.96 74.5109 28.92C75.2309 27.88 76.2443 27.08 77.5509 26.52C78.8576 25.9333 80.3909 25.64 82.1509 25.64C83.7776 25.64 85.1776 25.9067 86.3509 26.44C87.5509 26.9467 88.4843 27.68 89.1509 28.64C89.8443 29.6 90.1909 30.7467 90.1909 32.08C90.1909 33.2533 89.8976 34.3333 89.3109 35.32C88.7243 36.28 87.8043 37.1867 86.5509 38.04C85.3243 38.8933 83.7109 39.76 81.7109 40.64C80.3509 41.2533 79.2709 41.8533 78.4709 42.44C77.6976 43 77.1376 43.5733 76.7909 44.16C76.4443 44.7467 76.2709 45.4 76.2709 46.12C76.2709 46.7867 76.4709 47.3867 76.8709 47.92C77.2976 48.4533 77.8843 48.8667 78.6309 49.16C79.3776 49.4533 80.2576 49.6 81.2709 49.6C82.8976 49.6 84.3909 49.2267 85.7509 48.48C87.1109 47.7067 88.2576 46.5733 89.1909 45.08C90.1509 43.56 90.8309 41.72 91.2309 39.56L96.2309 41.12C95.6709 43.84 94.6709 46.2 93.2309 48.2C91.7909 50.2 90.0176 51.7467 87.9109 52.84C85.8043 53.9333 83.4443 54.48 80.8309 54.48ZM118.661 54V29.8L120.141 31.28H109.741V26H134.021V31.28H123.621L125.061 29.8V54H118.661ZM145.502 54.32C143.209 54.32 141.169 53.84 139.382 52.88C137.622 51.92 136.222 50.6133 135.182 48.96C134.169 47.28 133.662 45.3733 133.662 43.24C133.662 41.08 134.169 39.1733 135.182 37.52C136.222 35.84 137.622 34.5333 139.382 33.6C141.169 32.64 143.209 32.16 145.502 32.16C147.769 32.16 149.795 32.64 151.582 33.6C153.369 34.5333 154.769 35.8267 155.782 37.48C156.795 39.1333 157.302 41.0533 157.302 43.24C157.302 45.3733 156.795 47.28 155.782 48.96C154.769 50.6133 153.369 51.92 151.582 52.88C149.795 53.84 147.769 54.32 145.502 54.32ZM145.502 49.2C146.542 49.2 147.475 48.96 148.302 48.48C149.129 48 149.782 47.32 150.262 46.44C150.742 45.5333 150.982 44.4667 150.982 43.24C150.982 41.9867 150.742 40.92 150.262 40.04C149.782 39.16 149.129 38.48 148.302 38C147.475 37.52 146.542 37.28 145.502 37.28C144.462 37.28 143.529 37.52 142.702 38C141.875 38.48 141.209 39.16 140.702 40.04C140.222 40.92 139.982 41.9867 139.982 43.24C139.982 44.4667 140.222 45.5333 140.702 46.44C141.209 47.32 141.875 48 142.702 48.48C143.529 48.96 144.462 49.2 145.502 49.2ZM175.154 45.76C174.274 46.24 173.3 46.6267 172.234 46.92C171.167 47.2133 169.994 47.36 168.714 47.36C165.887 47.36 163.714 46.72 162.194 45.44C160.674 44.1333 159.914 42.0667 159.914 39.24V32.48H166.154V38.84C166.154 40.1733 166.5 41.1333 167.194 41.72C167.887 42.28 168.86 42.56 170.114 42.56C171.02 42.56 171.887 42.4533 172.714 42.24C173.567 42.0267 174.38 41.72 175.154 41.32V45.76ZM174.714 54V32.48H180.954V54H174.714ZM202.185 54L194.985 43.8L200.065 40.8L209.545 54H202.185ZM186.945 54V32.48H193.185V54H186.945ZM191.345 45.84V40.84H198.865V45.84H191.345ZM200.665 43.96L194.825 43.32L202.385 32.48H209.025L200.665 43.96ZM225.099 54V49.8L224.699 48.88V41.36C224.699 40.0267 224.285 38.9867 223.459 38.24C222.659 37.4933 221.419 37.12 219.739 37.12C218.592 37.12 217.459 37.3067 216.339 37.68C215.245 38.0267 214.312 38.5067 213.539 39.12L211.299 34.76C212.472 33.9333 213.885 33.2933 215.539 32.84C217.192 32.3867 218.872 32.16 220.579 32.16C223.859 32.16 226.405 32.9333 228.219 34.48C230.032 36.0267 230.939 38.44 230.939 41.72V54H225.099ZM218.539 54.32C216.859 54.32 215.419 54.04 214.219 53.48C213.019 52.8933 212.099 52.1067 211.459 51.12C210.819 50.1333 210.499 49.0267 210.499 47.8C210.499 46.52 210.805 45.4 211.419 44.44C212.059 43.48 213.059 42.7333 214.419 42.2C215.779 41.64 217.552 41.36 219.739 41.36H225.459V45H220.419C218.952 45 217.939 45.24 217.379 45.72C216.845 46.2 216.579 46.8 216.579 47.52C216.579 48.32 216.885 48.96 217.499 49.44C218.139 49.8933 219.005 50.12 220.099 50.12C221.139 50.12 222.072 49.88 222.899 49.4C223.725 48.8933 224.325 48.16 224.699 47.2L225.659 50.08C225.205 51.4667 224.379 52.52 223.179 53.24C221.979 53.96 220.432 54.32 218.539 54.32Z" fill="#343434"/>
<path d="M154.044 69V60.6H155.976V66.072L159.984 60.6H161.808V69H159.888V63.54L155.88 69H154.044ZM163.755 69V62.544H165.615V65.064H168.423V62.544H170.295V69H168.423V66.588H165.615V69H163.755ZM172.088 69V62.544H175.388C176.196 62.544 176.828 62.692 177.284 62.988C177.74 63.276 177.967 63.684 177.967 64.212C177.967 64.74 177.752 65.156 177.32 65.46C176.896 65.756 176.332 65.904 175.628 65.904L175.82 65.472C176.604 65.472 177.188 65.616 177.572 65.904C177.964 66.192 178.16 66.612 178.16 67.164C178.16 67.732 177.944 68.18 177.512 68.508C177.08 68.836 176.42 69 175.532 69H172.088ZM173.804 67.728H175.376C175.72 67.728 175.976 67.672 176.144 67.56C176.32 67.44 176.408 67.26 176.408 67.02C176.408 66.772 176.328 66.592 176.168 66.48C176.008 66.36 175.756 66.3 175.412 66.3H173.804V67.728ZM173.804 65.196H175.22C175.548 65.196 175.792 65.136 175.952 65.016C176.12 64.896 176.204 64.724 176.204 64.5C176.204 64.268 176.12 64.096 175.952 63.984C175.792 63.872 175.548 63.816 175.22 63.816H173.804V65.196ZM182.708 69.096C181.972 69.096 181.324 68.952 180.764 68.664C180.212 68.376 179.784 67.984 179.48 67.488C179.176 66.984 179.024 66.412 179.024 65.772C179.024 65.124 179.172 64.552 179.468 64.056C179.772 63.552 180.184 63.16 180.704 62.88C181.224 62.592 181.812 62.448 182.468 62.448C183.1 62.448 183.668 62.584 184.172 62.856C184.684 63.12 185.088 63.504 185.384 64.008C185.68 64.504 185.828 65.1 185.828 65.796C185.828 65.868 185.824 65.952 185.816 66.048C185.808 66.136 185.8 66.22 185.792 66.3H180.548V65.208H184.808L184.088 65.532C184.088 65.196 184.02 64.904 183.884 64.656C183.748 64.408 183.56 64.216 183.32 64.08C183.08 63.936 182.8 63.864 182.48 63.864C182.16 63.864 181.876 63.936 181.628 64.08C181.388 64.216 181.2 64.412 181.064 64.668C180.928 64.916 180.86 65.212 180.86 65.556V65.844C180.86 66.196 180.936 66.508 181.088 66.78C181.248 67.044 181.468 67.248 181.748 67.392C182.036 67.528 182.372 67.596 182.756 67.596C183.1 67.596 183.4 67.544 183.656 67.44C183.92 67.336 184.16 67.18 184.376 66.972L185.372 68.052C185.076 68.388 184.704 68.648 184.256 68.832C183.808 69.008 183.292 69.096 182.708 69.096ZM190.335 69.096C189.639 69.096 189.019 68.956 188.475 68.676C187.931 68.388 187.503 67.992 187.191 67.488C186.887 66.984 186.735 66.412 186.735 65.772C186.735 65.124 186.887 64.552 187.191 64.056C187.503 63.552 187.931 63.16 188.475 62.88C189.019 62.592 189.639 62.448 190.335 62.448C191.015 62.448 191.607 62.592 192.111 62.88C192.615 63.16 192.987 63.564 193.227 64.092L191.775 64.872C191.607 64.568 191.395 64.344 191.139 64.2C190.891 64.056 190.619 63.984 190.323 63.984C190.003 63.984 189.715 64.056 189.459 64.2C189.203 64.344 188.999 64.548 188.847 64.812C188.703 65.076 188.631 65.396 188.631 65.772C188.631 66.148 188.703 66.468 188.847 66.732C188.999 66.996 189.203 67.2 189.459 67.344C189.715 67.488 190.003 67.56 190.323 67.56C190.619 67.56 190.891 67.492 191.139 67.356C191.395 67.212 191.607 66.984 191.775 66.672L193.227 67.464C192.987 67.984 192.615 68.388 192.111 68.676C191.607 68.956 191.015 69.096 190.335 69.096ZM195.733 69V63.648L196.153 64.08H193.549V62.544H199.777V64.08H197.173L197.593 63.648V69H195.733ZM200.775 69V62.544H202.635V66.384L205.779 62.544H207.495V69H205.635V65.16L202.503 69H200.775ZM209.295 69V62.544H211.155V67.464H213.759V62.544H215.631V69H209.295ZM214.827 70.392V68.976L215.259 69H213.759V67.464H216.567V70.392H214.827ZM217.744 69V62.544H219.604V66.384L222.748 62.544H224.464V69H222.604V65.16L219.472 69H217.744ZM226.263 69V62.544H228.123V66.384L231.267 62.544H232.983V69H231.123V65.16L227.991 69H226.263Z" fill="#6B6B6B"/>
</svg>
