<svg xmlns="http://www.w3.org/2000/svg" width="50" height="50" viewBox="0 0 50 50" fill="none" original-font-size="50px" original-border-color="rgb(129, 138, 145)" original-background-color="rgba(0, 0, 0, 0)" original-background-image="none" original-color="rgb(129, 138, 145)" original-box-shadow="none" original-text-shadow="none" original-font-family="My_Samsung_Sans" original-letter-spacing="0" original-line-height="50px"><path d="M43.5635 12.4881H32.7181V11.1169H33.6437C34.0483 11.1169 34.3762 10.7891 34.3762 10.3845V8.67051C34.3762 6.00576 32.2083 3.83789 29.5436 3.83789H20.4565C17.7918 3.83789 15.6239 6.00576 15.6239 8.67051V10.3845C15.6239 10.7891 15.9518 11.1169 16.3563 11.1169H17.282V12.4881H8.1582C7.75361 12.4881 7.42578 12.8159 7.42578 13.2205C7.42578 13.6251 7.75361 13.9529 8.1582 13.9529H18.0087C18.0106 13.9529 18.0125 13.9532 18.0144 13.9532C18.0162 13.9532 18.0181 13.9529 18.02 13.9529H22.717V25.199C21.8883 25.8674 21.3567 26.8901 21.3567 28.0353C21.3567 28.1378 21.3627 28.2395 21.3714 28.3405C14.2844 28.0549 7.51816 26.9146 2.22725 25.1066C1.77129 24.9506 1.46484 24.5243 1.46484 24.0457V18.9246C1.46484 16.5734 3.13369 14.5251 5.43311 14.0543C5.82939 13.9731 6.08486 13.5861 6.00371 13.1897C5.92246 12.7935 5.53535 12.5381 5.13916 12.6191C2.16133 13.229 0 15.8808 0 18.9246V24.0457C0 25.0943 0.635254 26.0324 1.59658 26.432V40.1009C1.59658 43.4429 4.31553 46.1617 7.65742 46.1617H23.4494H26.5506H38.501C38.9056 46.1617 39.2334 45.8339 39.2334 45.4293C39.2334 45.0247 38.9056 44.6969 38.501 44.6969H27.283V35.7737C27.283 35.3691 26.9552 35.0413 26.5506 35.0413C26.146 35.0413 25.8182 35.3691 25.8182 35.7737V44.6969H24.1818V35.7737C24.1818 35.3691 23.854 35.0413 23.4494 35.0413C23.0448 35.0413 22.717 35.3691 22.717 35.7737V44.6969H7.65742C5.12314 44.6969 3.06143 42.6352 3.06143 40.1009V26.9178C8.44502 28.5868 14.8922 29.5865 21.8327 29.8237C22.1193 30.3291 22.5241 30.7668 23.02 31.0895V32.3279C23.02 33.4197 23.9083 34.3078 25 34.3078C26.0917 34.3078 26.98 33.4196 26.98 32.3279V31.0895C27.476 30.7668 27.8807 30.3291 28.1673 29.8237C35.1077 29.5865 41.5548 28.5868 46.9386 26.9177V40.1009C46.9386 42.6352 44.8769 44.6969 42.3426 44.6969H41.4303C41.0257 44.6969 40.6979 45.0247 40.6979 45.4293C40.6979 45.8339 41.0257 46.1617 41.4303 46.1617H42.3426C45.6846 46.1617 48.4034 43.4428 48.4034 40.1009V26.432C49.3647 26.0325 50 25.0944 50 24.0457V18.9246C50 15.3755 47.1126 12.4881 43.5635 12.4881ZM17.0887 8.67051C17.0887 6.81348 18.5995 5.30273 20.4564 5.30273H29.5435C31.4005 5.30273 32.9112 6.81357 32.9112 8.67051V9.65205H31.0601V8.67051C31.0601 7.83428 30.3797 7.15391 29.5435 7.15391H20.4564C19.6202 7.15391 18.9398 7.83428 18.9398 8.67051V9.65205H17.0887V8.67051ZM18.7468 11.1169H19.6724C20.077 11.1169 20.4048 10.7891 20.4048 10.3845V8.67051C20.4048 8.64248 20.4285 8.61875 20.4565 8.61875H29.5436C29.5716 8.61875 29.5953 8.64248 29.5953 8.67051V10.3845C29.5953 10.7891 29.9231 11.1169 30.3277 11.1169H31.2533V12.4881H27.1058C26.8429 11.9813 26.3142 11.6338 25.705 11.6338H24.2952C23.6859 11.6338 23.1573 11.9813 22.8944 12.4881H18.7469V11.1169H18.7468ZM25.9328 30.0007C25.6777 30.1222 25.5152 30.3795 25.5152 30.662V32.3279C25.5152 32.6119 25.2842 32.843 25.0001 32.843C24.716 32.843 24.485 32.6119 24.485 32.3279V30.662C24.485 30.3794 24.3225 30.1222 24.0674 30.0007C23.3107 29.6405 22.8218 28.869 22.8218 28.0353C22.8218 26.8341 23.799 25.8568 25.0002 25.8568C26.2014 25.8568 27.1786 26.8341 27.1786 28.0353C27.1784 28.869 26.6895 29.6405 25.9328 30.0007ZM48.5352 24.0457C48.5352 24.5242 48.2287 24.9506 47.7729 25.1065C42.4817 26.9146 35.7155 28.0549 28.6285 28.3405C28.6372 28.2394 28.6432 28.1377 28.6432 28.0353C28.6432 26.8901 28.1116 25.8674 27.2829 25.199V20.0514C27.2829 19.6468 26.9551 19.3189 26.5505 19.3189C26.1459 19.3189 25.8181 19.6468 25.8181 20.0514V24.4859C25.5549 24.4253 25.2812 24.3922 24.9999 24.3922C24.7186 24.3922 24.4449 24.4253 24.1817 24.4859V13.2119C24.1817 13.1494 24.2326 13.0986 24.295 13.0986H25.7048C25.7673 13.0986 25.8181 13.1495 25.8181 13.2119V17.0487C25.8181 17.4533 26.1459 17.7812 26.5505 17.7812C26.9551 17.7812 27.2829 17.4533 27.2829 17.0487V13.9529H31.9799C31.9818 13.9529 31.9837 13.9532 31.9855 13.9532C31.9874 13.9532 31.9893 13.9529 31.9912 13.9529H43.5635C46.3049 13.9529 48.5352 16.1832 48.5352 18.9246V24.0457Z" fill="url(#paint0_radial)" original-font-size="50px" original-border-color="rgb(129, 138, 145)" original-background-color="rgba(0, 0, 0, 0)" original-background-image="none" original-color="rgb(129, 138, 145)" original-box-shadow="none" original-text-shadow="none" original-font-family="My_Samsung_Sans" original-letter-spacing="0" original-line-height="50px"></path><defs original-font-size="50px" original-border-color="rgb(129, 138, 145)" original-background-color="rgba(0, 0, 0, 0)" original-background-image="none" original-color="rgb(129, 138, 145)" original-box-shadow="none" original-text-shadow="none" original-font-family="My_Samsung_Sans" original-letter-spacing="0" original-line-height="50px"><radialGradient id="paint0_radial" cx="0" cy="0" r="1" gradientUnits="userSpaceOnUse" gradientTransform="translate(50 46.1617) rotate(-139.753) scale(65.5081 363.1)" original-font-size="50px" original-border-color="rgb(129, 138, 145)" original-background-color="rgba(0, 0, 0, 0)" original-background-image="none" original-color="rgb(129, 138, 145)" original-box-shadow="none" original-text-shadow="none" original-font-family="My_Samsung_Sans" original-letter-spacing="0" original-line-height="50px"><stop stop-color="#B57EFE" original-font-size="50px" original-border-color="rgb(129, 138, 145)" original-background-color="rgba(0, 0, 0, 0)" original-background-image="none" original-color="rgb(129, 138, 145)" original-box-shadow="none" original-text-shadow="none" original-font-family="My_Samsung_Sans" original-letter-spacing="0" original-line-height="50px"></stop><stop offset="0.760417" stop-color="#68C5FE" original-font-size="50px" original-border-color="rgb(129, 138, 145)" original-background-color="rgba(0, 0, 0, 0)" original-background-image="none" original-color="rgb(129, 138, 145)" original-box-shadow="none" original-text-shadow="none" original-font-family="My_Samsung_Sans" original-letter-spacing="0" original-line-height="50px"></stop><stop offset="1" stop-color="#7AB6FF" original-font-size="50px" original-border-color="rgb(129, 138, 145)" original-background-color="rgba(0, 0, 0, 0)" original-background-image="none" original-color="rgb(129, 138, 145)" original-box-shadow="none" original-text-shadow="none" original-font-family="My_Samsung_Sans" original-letter-spacing="0" original-line-height="50px"></stop></radialGradient></defs></svg>