<svg xmlns="http://www.w3.org/2000/svg" width="267" height="60" viewBox="0 0 267 60" fill="none"><g clip-path="url(#clip0)"><path d="M68.2898 30.9541C66.9382 29.6585 64.9762 28.9535 62.4037 28.8388C64.571 28.5216 66.2185 27.8685 67.3461 26.8795C67.8642 26.471 68.2848 25.9522 68.5774 25.3608C68.87 24.7694 69.0272 24.1203 69.0375 23.4606C69.0375 21.9038 68.3271 20.6349 66.9062 19.6539C65.5947 18.7502 63.5434 18.2663 60.7683 18.1984V14.8675H57.4934V18.2264C57.2184 18.2211 56.9434 18.2318 56.6697 18.2583C55.7939 18.2983 54.9622 18.3223 54.1545 18.3303V14.8555H50.8756V18.3063L50.0758 18.2783C48.9002 18.217 47.7606 18.1877 46.657 18.1904C46.589 18.1904 46.529 18.2783 46.4731 18.4583C46.4207 18.6115 46.3937 18.7722 46.3931 18.9341C46.3966 19.0844 46.425 19.233 46.4771 19.374C46.533 19.5539 46.593 19.6539 46.661 19.6819C47.9939 19.8392 48.8656 20.1204 49.2761 20.5256C49.5106 20.7995 49.6883 21.1173 49.7989 21.4606C49.9094 21.8038 49.9505 22.1656 49.9199 22.5249V27.7232C49.6455 27.7284 49.3744 27.7839 49.1202 27.8871C48.4344 27.0362 47.6729 26.2492 46.8449 25.5359L41.5947 21.0494L39.8233 19.5059L38.5597 18.3343L36.4604 16.335L35.6886 15.5952C35.6084 15.5184 35.5056 15.4695 35.3953 15.4558C35.2851 15.4421 35.1734 15.4644 35.0769 15.5193C35.031 15.547 34.9926 15.5854 34.9649 15.6312C34.912 15.7307 34.8932 15.8447 34.9112 15.9559C34.9293 16.0671 34.9832 16.1694 35.0649 16.247L35.8286 16.9908L37.8719 19.0661L39.0715 20.2657L40.671 21.9571L45.3214 27.0594C45.9355 27.7357 46.6042 28.3603 47.3208 28.9268H45.5933L43.2781 29.1027L42.7943 29.1667L40.7949 29.3786L39.9952 29.4146C39.9595 29.4164 39.924 29.4074 39.8934 29.3889C39.8627 29.3704 39.8383 29.3431 39.8233 29.3107L39.7833 29.2107C39.7017 29.0587 39.5835 28.9295 39.4394 28.8348H39.4154C39.2294 28.7281 39.0118 28.6901 38.8006 28.7274C38.5895 28.7646 38.398 28.8748 38.2598 29.0388L38.2198 29.0747C37.6879 29.336 37.1008 29.465 36.5084 29.4506L35.6727 29.5146L34.8729 29.4906C34.7942 29.4917 34.7169 29.5114 34.6474 29.5483C34.5779 29.5851 34.5181 29.638 34.4731 29.7025C34.4067 29.7961 34.3704 29.9077 34.3691 30.0224C34.3712 30.1358 34.4074 30.2459 34.4731 30.3383C34.5169 30.4041 34.5764 30.4579 34.6462 30.4949C34.716 30.5319 34.7939 30.5509 34.8729 30.5503L35.6727 30.5303L36.4724 30.5662C37.0645 30.5505 37.6516 30.678 38.1838 30.9381L38.2238 30.9821C38.3638 31.1451 38.5564 31.2539 38.7682 31.2896C38.98 31.3254 39.1977 31.286 39.3834 31.178H39.4074C39.5512 31.0858 39.6684 30.9576 39.7473 30.8062L39.8073 30.7022C39.8205 30.669 39.8439 30.6407 39.874 30.6213C39.9041 30.602 39.9395 30.5925 39.9752 30.5942L40.775 30.6342L42.7743 30.8462L43.2021 30.9141H43.2261L45.5374 31.0901C46.3651 31.1181 47.1608 31.0901 47.8606 31.0661C48.0512 31.4334 48.3377 31.7422 48.6898 31.9598C49.0418 32.1773 49.4461 32.2955 49.8599 32.3017V37.356C49.8599 38.2837 49.6507 38.9501 49.2321 39.3553C48.8136 39.7605 47.9419 40.0431 46.617 40.203C46.553 40.227 46.493 40.327 46.4371 40.5069C46.386 40.6483 46.3563 40.7966 46.3491 40.9468C46.352 41.1092 46.3818 41.2699 46.4371 41.4226C46.493 41.6026 46.553 41.6905 46.617 41.6905C47.726 41.6905 48.8989 41.6639 50.1358 41.6106C50.3797 41.6106 50.6197 41.5866 50.8556 41.5786V45.0814H54.1345V41.5266C55.0262 41.5266 56.0019 41.5586 57.0895 41.6106H57.4614V45.0734H60.7883V41.6785C64.4084 41.6785 66.8982 41.0428 68.2578 39.7712C68.914 39.1943 69.4383 38.4828 69.795 37.6852C70.1517 36.8875 70.3325 36.0224 70.3251 35.1487C70.3251 33.6506 69.6467 32.2524 68.2898 30.9541ZM49.7839 31.0701C49.5271 31.0727 49.2762 30.9928 49.0682 30.8422C49.0546 30.8351 49.0424 30.8256 49.0322 30.8142L48.9962 30.7902C48.957 30.7576 48.9196 30.7229 48.8842 30.6862L48.8563 30.6542L48.8203 30.6142L48.7803 30.5622L48.7483 30.5143C48.7138 30.4632 48.6831 30.4098 48.6563 30.3543L48.6243 30.2783C48.6126 30.254 48.6033 30.2285 48.5963 30.2024C48.5873 30.1763 48.5806 30.1496 48.5763 30.1224C48.5723 30.0959 48.5723 30.0689 48.5763 30.0424C48.5722 29.9892 48.5722 29.9357 48.5763 29.8825V29.8225C48.5758 29.5138 48.6901 29.2159 48.8971 28.9867C49.104 28.7576 49.3888 28.6137 49.696 28.5829H49.9279C50.2361 28.6132 50.5221 28.7571 50.7301 28.9866C50.9381 29.2161 51.0533 29.5148 51.0533 29.8245C51.0533 30.1342 50.9381 30.4329 50.7301 30.6624C50.5221 30.8918 50.2361 31.0357 49.9279 31.0661L49.7839 31.0701ZM56.5817 21.3973C56.5817 20.7655 56.7256 20.3497 57.0215 20.1457C57.3656 19.9298 57.7673 19.8238 58.1731 19.8418H58.573C59.7939 19.8418 60.675 20.1564 61.2161 20.7855C61.76 21.4173 62.0159 22.4569 62.0159 23.9085C62.0159 25.36 61.752 26.5236 61.1881 27.1914C60.6243 27.8591 59.6966 28.223 58.3891 28.223H56.5897L56.5817 21.3973ZM61.9159 38.7875C61.0819 39.5595 59.9932 39.9979 58.8569 40.0191C58.2607 40.0608 57.6692 39.8877 57.1895 39.5313C56.9743 39.3229 56.8086 39.0688 56.7048 38.7878C56.601 38.5068 56.5616 38.2061 56.5897 37.9078V29.8585H59.1248C60.5204 29.8585 61.58 30.2583 62.2878 31.1221C62.9955 31.9858 63.3474 33.1894 63.3474 34.8288C63.3474 36.6682 62.8703 37.9878 61.9159 38.7875Z" fill="#B02B54"></path><path d="M68.2898 30.9541C66.9382 29.6585 64.9762 28.9535 62.4037 28.8388C64.571 28.5216 66.2185 27.8685 67.3461 26.8795C67.8642 26.471 68.2848 25.9522 68.5774 25.3608C68.87 24.7694 69.0272 24.1203 69.0375 23.4606C69.0375 21.9038 68.3271 20.6349 66.9062 19.6539C65.5947 18.7502 63.5434 18.2663 60.7683 18.1984V14.8675H57.4934V18.2264C57.2184 18.2211 56.9434 18.2318 56.6697 18.2583C55.7939 18.2983 54.9622 18.3223 54.1545 18.3303V14.8555H50.8756V18.3063L50.0758 18.2783C48.9002 18.217 47.7606 18.1877 46.657 18.1904C46.589 18.1904 46.529 18.2783 46.4731 18.4583C46.4207 18.6115 46.3937 18.7722 46.3931 18.9341C46.3966 19.0844 46.425 19.233 46.4771 19.374C46.533 19.5539 46.593 19.6539 46.661 19.6819C47.9939 19.8392 48.8656 20.1204 49.2761 20.5256C49.5106 20.7995 49.6883 21.1173 49.7989 21.4606C49.9094 21.8038 49.9505 22.1656 49.9199 22.5249V27.7232C49.6455 27.7284 49.3744 27.7839 49.1202 27.8871C48.4344 27.0362 47.6729 26.2492 46.8449 25.5359L41.5947 21.0494L39.8233 19.5059L38.5597 18.3343L36.4604 16.335L35.6886 15.5952C35.6084 15.5184 35.5056 15.4695 35.3953 15.4558C35.2851 15.4421 35.1734 15.4644 35.0769 15.5193C35.031 15.547 34.9926 15.5854 34.9649 15.6312C34.912 15.7307 34.8932 15.8447 34.9112 15.9559C34.9293 16.0671 34.9832 16.1694 35.0649 16.247L35.8286 16.9908L37.8719 19.0661L39.0715 20.2657L40.671 21.9571L45.3214 27.0594C45.9355 27.7357 46.6042 28.3603 47.3208 28.9268H45.5933L43.2781 29.1027L42.7943 29.1667L40.7949 29.3786L39.9952 29.4146C39.9595 29.4164 39.924 29.4074 39.8934 29.3889C39.8627 29.3704 39.8383 29.3431 39.8233 29.3107L39.7833 29.2107C39.7017 29.0587 39.5835 28.9295 39.4394 28.8348H39.4154C39.2294 28.7281 39.0118 28.6901 38.8006 28.7274C38.5895 28.7646 38.398 28.8748 38.2598 29.0388L38.2198 29.0747C37.6879 29.336 37.1008 29.465 36.5084 29.4506L35.6727 29.5146L34.8729 29.4906C34.7942 29.4917 34.7169 29.5114 34.6474 29.5483C34.5779 29.5851 34.5181 29.638 34.4731 29.7025C34.4067 29.7961 34.3704 29.9077 34.3691 30.0224C34.3712 30.1358 34.4074 30.2459 34.4731 30.3383C34.5169 30.4041 34.5764 30.4579 34.6462 30.4949C34.716 30.5319 34.7939 30.5509 34.8729 30.5503L35.6727 30.5303L36.4724 30.5662C37.0645 30.5505 37.6516 30.678 38.1838 30.9381L38.2238 30.9821C38.3638 31.1451 38.5564 31.2539 38.7682 31.2896C38.98 31.3254 39.1977 31.286 39.3834 31.178H39.4074C39.5512 31.0858 39.6684 30.9576 39.7473 30.8062L39.8073 30.7022C39.8205 30.669 39.8439 30.6407 39.874 30.6213C39.9041 30.602 39.9395 30.5925 39.9752 30.5942L40.775 30.6342L42.7743 30.8462L43.2021 30.9141H43.2261L45.5374 31.0901C46.3651 31.1181 47.1608 31.0901 47.8606 31.0661C48.0512 31.4334 48.3377 31.7422 48.6898 31.9598C49.0418 32.1773 49.4461 32.2955 49.8599 32.3017V37.356C49.8599 38.2837 49.6507 38.9501 49.2321 39.3553C48.8136 39.7605 47.9419 40.0431 46.617 40.203C46.553 40.227 46.493 40.327 46.4371 40.5069C46.386 40.6483 46.3563 40.7966 46.3491 40.9468C46.352 41.1092 46.3818 41.2699 46.4371 41.4226C46.493 41.6026 46.553 41.6905 46.617 41.6905C47.726 41.6905 48.8989 41.6639 50.1358 41.6106C50.3797 41.6106 50.6197 41.5866 50.8556 41.5786V45.0814H54.1345V41.5266C55.0262 41.5266 56.0019 41.5586 57.0895 41.6106H57.4614V45.0734H60.7883V41.6785C64.4084 41.6785 66.8982 41.0428 68.2578 39.7712C68.914 39.1943 69.4383 38.4828 69.795 37.6852C70.1517 36.8875 70.3325 36.0224 70.3251 35.1487C70.3251 33.6506 69.6467 32.2524 68.2898 30.9541ZM49.7839 31.0701C49.5271 31.0727 49.2762 30.9928 49.0682 30.8422C49.0546 30.8351 49.0424 30.8256 49.0322 30.8142L48.9962 30.7902C48.957 30.7576 48.9196 30.7229 48.8842 30.6862L48.8563 30.6542L48.8203 30.6142L48.7803 30.5622L48.7483 30.5143C48.7138 30.4632 48.6831 30.4098 48.6563 30.3543L48.6243 30.2783C48.6126 30.254 48.6033 30.2285 48.5963 30.2024C48.5873 30.1763 48.5806 30.1496 48.5763 30.1224C48.5723 30.0959 48.5723 30.0689 48.5763 30.0424C48.5722 29.9892 48.5722 29.9357 48.5763 29.8825V29.8225C48.5758 29.5138 48.6901 29.2159 48.8971 28.9867C49.104 28.7576 49.3888 28.6137 49.696 28.5829H49.9279C50.2361 28.6132 50.5221 28.7571 50.7301 28.9866C50.9381 29.2161 51.0533 29.5148 51.0533 29.8245C51.0533 30.1342 50.9381 30.4329 50.7301 30.6624C50.5221 30.8918 50.2361 31.0357 49.9279 31.0661L49.7839 31.0701ZM56.5817 21.3973C56.5817 20.7655 56.7256 20.3497 57.0215 20.1457C57.3656 19.9298 57.7673 19.8238 58.1731 19.8418H58.573C59.7939 19.8418 60.675 20.1564 61.2161 20.7855C61.76 21.4173 62.0159 22.4569 62.0159 23.9085C62.0159 25.36 61.752 26.5236 61.1881 27.1914C60.6243 27.8591 59.6966 28.223 58.3891 28.223H56.5897L56.5817 21.3973ZM61.9159 38.7875C61.0819 39.5595 59.9932 39.9979 58.8569 40.0191C58.2607 40.0608 57.6692 39.8877 57.1895 39.5313C56.9743 39.3229 56.8086 39.0688 56.7048 38.7878C56.601 38.5068 56.5616 38.2061 56.5897 37.9078V29.8585H59.1248C60.5204 29.8585 61.58 30.2583 62.2878 31.1221C62.9955 31.9858 63.3474 33.1894 63.3474 34.8288C63.3474 36.6682 62.8703 37.9878 61.9159 38.7875Z" fill="url(#paint0_linear)"></path><path d="M45.6524 57.4609C40.6822 57.4751 35.8022 56.1341 31.5371 53.5822C35.9624 57.0551 41.2752 59.2134 46.8687 59.8106C52.4623 60.4077 58.111 59.4196 63.1697 56.9592C68.2283 54.4987 72.493 50.6651 75.4766 45.8962C78.4602 41.1272 80.0423 35.6153 80.0423 29.99C80.0423 24.3647 78.4602 18.8528 75.4766 14.0839C72.493 9.31497 68.2283 5.48133 63.1697 3.02087C58.111 0.560405 52.4623 -0.427682 46.8687 0.16947C41.2752 0.766623 35.9624 2.92494 31.5371 6.39788C35.1707 4.21737 39.2592 2.90639 43.4833 2.56734C47.7073 2.22829 51.9526 2.87035 55.8875 4.44338C59.8223 6.01641 63.3403 8.47781 66.1665 11.6353C68.9928 14.7929 71.0508 18.561 72.1799 22.6455C73.309 26.7299 73.4785 31.0201 72.6752 35.1809C71.872 39.3418 70.1177 43.2606 67.5494 46.6313C64.9811 50.0019 61.6684 52.7333 57.8699 54.6119C54.0714 56.4905 49.8901 57.4655 45.6524 57.4609Z" fill="#B02B54"></path><path d="M45.6524 57.4609C40.6822 57.4751 35.8022 56.1341 31.5371 53.5822C35.9624 57.0551 41.2752 59.2134 46.8687 59.8106C52.4623 60.4077 58.111 59.4196 63.1697 56.9592C68.2283 54.4987 72.493 50.6651 75.4766 45.8962C78.4602 41.1272 80.0423 35.6153 80.0423 29.99C80.0423 24.3647 78.4602 18.8528 75.4766 14.0839C72.493 9.31497 68.2283 5.48133 63.1697 3.02087C58.111 0.560405 52.4623 -0.427682 46.8687 0.16947C41.2752 0.766623 35.9624 2.92494 31.5371 6.39788C35.1707 4.21737 39.2592 2.90639 43.4833 2.56734C47.7073 2.22829 51.9526 2.87035 55.8875 4.44338C59.8223 6.01641 63.3403 8.47781 66.1665 11.6353C68.9928 14.7929 71.0508 18.561 72.1799 22.6455C73.309 26.7299 73.4785 31.0201 72.6752 35.1809C71.872 39.3418 70.1177 43.2606 67.5494 46.6313C64.9811 50.0019 61.6684 52.7333 57.8699 54.6119C54.0714 56.4905 49.8901 57.4655 45.6524 57.4609Z" fill="url(#paint1_linear)"></path><path d="M50.463 50.4321C50.6651 50.3413 50.8356 50.1925 50.953 50.0046C51.0705 49.8168 51.1296 49.5984 51.1228 49.3769C51.1161 49.1555 51.0438 48.941 50.9151 48.7607C50.7864 48.5804 50.6071 48.4423 50.3999 48.3639C50.1927 48.2855 49.9669 48.2703 49.7511 48.3203C49.5353 48.3703 49.3392 48.4831 49.1875 48.6446C49.0359 48.8061 48.9355 49.009 48.8992 49.2275C48.8629 49.4461 48.8922 49.6705 48.9835 49.8723C49.0864 50.1051 49.2675 50.2947 49.4953 50.4081V52.9193H48.7436C44.5572 52.9265 40.4491 51.784 36.8676 49.6164L38.1151 47.4451L37.2794 46.9653L36.0478 49.1166C33.2042 47.2253 30.8134 44.7293 29.0461 41.807L31.1974 40.5754L30.7136 39.7357L28.5623 40.9753C26.7976 37.7486 25.8374 34.1438 25.7632 30.4668H28.2984V30.4228C28.3298 30.4905 28.3701 30.5537 28.4183 30.6107C28.5571 30.7811 28.743 30.9069 28.9528 30.9724C29.1626 31.0379 29.387 31.0402 29.5981 30.979C29.8092 30.9179 29.9976 30.7959 30.1399 30.6284C30.2821 30.4609 30.3719 30.2553 30.3981 30.0371C30.4243 29.8189 30.3857 29.5978 30.2871 29.4014C30.1885 29.205 30.0343 29.0419 29.8437 28.9325C29.653 28.8232 29.4344 28.7723 29.2151 28.7863C28.9958 28.8003 28.7854 28.8785 28.6103 29.0113C28.4469 29.1347 28.3187 29.2987 28.2384 29.4871H25.7312C25.8037 25.747 26.7907 22.0814 28.6063 18.8107L30.7096 20.0103L31.1974 19.1945L29.0981 17.9949C30.8662 15.0972 33.2497 12.6236 36.0798 10.7494L37.2794 12.8687L38.1271 12.3968L36.8955 10.2415C40.4713 8.08547 44.5682 6.94751 48.7436 6.9506H49.4913V9.25783C49.2624 9.36752 49.0776 9.55174 48.9671 9.78027C48.8567 10.0088 48.8271 10.2681 48.8834 10.5156C48.9396 10.7631 49.0783 10.9842 49.2767 11.1426C49.4751 11.3009 49.7214 11.3872 49.9752 11.3872C50.229 11.3872 50.4753 11.3009 50.6737 11.1426C50.8721 10.9842 51.0107 10.7631 51.067 10.5156C51.1232 10.2681 51.0937 10.0088 50.9832 9.78027C50.8728 9.55174 50.6879 9.36752 50.459 9.25783V7.00658C54.0242 7.27098 57.4779 8.36654 60.5437 10.2055C56.843 7.30402 52.401 5.5016 47.7249 5.00405C43.0488 4.5065 38.327 5.33387 34.0986 7.3917C29.8702 9.44953 26.3057 12.6549 23.8121 16.6418C21.3184 20.6287 19.9961 25.2364 19.9961 29.939C19.9961 34.6415 21.3184 39.2492 23.8121 43.2361C26.3057 47.223 29.8702 50.4284 34.0986 52.4862C38.327 54.544 43.0488 55.3714 47.7249 54.8738C52.401 54.3763 56.843 52.5739 60.5437 49.6724C57.4787 51.5131 54.0246 52.6088 50.459 52.8713L50.463 50.4321ZM29.0141 29.3272C29.1235 29.2426 29.2556 29.1923 29.3935 29.1827C29.5315 29.1731 29.6692 29.2045 29.7893 29.2731C29.9093 29.3417 30.0064 29.4444 30.0682 29.5681C30.13 29.6918 30.1538 29.831 30.1365 29.9682C30.1192 30.1054 30.0616 30.2345 29.9711 30.339C29.8805 30.4435 29.761 30.5188 29.6277 30.5555C29.4943 30.5921 29.3531 30.5885 29.2219 30.5449C29.0906 30.5014 28.9752 30.4199 28.8902 30.3108C28.8336 30.2382 28.7919 30.1551 28.7674 30.0662C28.743 29.9774 28.7364 29.8847 28.7479 29.7933C28.7594 29.7019 28.7889 29.6137 28.8346 29.5337C28.8802 29.4537 28.9413 29.3835 29.0141 29.3272ZM50.623 10.3975C50.6238 10.5359 50.5835 10.6714 50.5073 10.7869C50.431 10.9024 50.3222 10.9927 50.1947 11.0464C50.0671 11.1001 49.9265 11.1148 49.7906 11.0886C49.6547 11.0623 49.5297 10.9964 49.4312 10.8991C49.3328 10.8018 49.2655 10.6775 49.2377 10.5419C49.2099 10.4063 49.223 10.2655 49.2752 10.1374C49.3274 10.0092 49.4165 9.89939 49.5311 9.82184C49.6457 9.74429 49.7808 9.70248 49.9192 9.70169C50.1045 9.70167 50.2823 9.77472 50.414 9.90498C50.5458 10.0353 50.6209 10.2122 50.623 10.3975ZM49.3554 49.3005C49.3455 49.1624 49.3767 49.0245 49.4451 48.9042C49.5136 48.7839 49.6162 48.6866 49.74 48.6246C49.8637 48.5626 50.0031 48.5387 50.1404 48.556C50.2778 48.5732 50.4069 48.6308 50.5115 48.7214C50.6162 48.812 50.6916 48.9317 50.7282 49.0651C50.7648 49.1986 50.761 49.34 50.7173 49.4713C50.6736 49.6026 50.5919 49.7181 50.4826 49.803C50.3733 49.8879 50.2412 49.9384 50.1031 49.9483C49.9198 49.9627 49.7382 49.9039 49.5981 49.7847C49.4579 49.6656 49.3707 49.4958 49.3554 49.3125V49.3005Z" fill="#B02B54"></path><path d="M50.463 50.4321C50.6651 50.3413 50.8356 50.1925 50.953 50.0046C51.0705 49.8168 51.1296 49.5984 51.1228 49.3769C51.1161 49.1555 51.0438 48.941 50.9151 48.7607C50.7864 48.5804 50.6071 48.4423 50.3999 48.3639C50.1927 48.2855 49.9669 48.2703 49.7511 48.3203C49.5353 48.3703 49.3392 48.4831 49.1875 48.6446C49.0359 48.8061 48.9355 49.009 48.8992 49.2275C48.8629 49.4461 48.8922 49.6705 48.9835 49.8723C49.0864 50.1051 49.2675 50.2947 49.4953 50.4081V52.9193H48.7436C44.5572 52.9265 40.4491 51.784 36.8676 49.6164L38.1151 47.4451L37.2794 46.9653L36.0478 49.1166C33.2042 47.2253 30.8134 44.7293 29.0461 41.807L31.1974 40.5754L30.7136 39.7357L28.5623 40.9753C26.7976 37.7486 25.8374 34.1438 25.7632 30.4668H28.2984V30.4228C28.3298 30.4905 28.3701 30.5537 28.4183 30.6107C28.5571 30.7811 28.743 30.9069 28.9528 30.9724C29.1626 31.0379 29.387 31.0402 29.5981 30.979C29.8092 30.9179 29.9976 30.7959 30.1399 30.6284C30.2821 30.4609 30.3719 30.2553 30.3981 30.0371C30.4243 29.8189 30.3857 29.5978 30.2871 29.4014C30.1885 29.205 30.0343 29.0419 29.8437 28.9325C29.653 28.8232 29.4344 28.7723 29.2151 28.7863C28.9958 28.8003 28.7854 28.8785 28.6103 29.0113C28.4469 29.1347 28.3187 29.2987 28.2384 29.4871H25.7312C25.8037 25.747 26.7907 22.0814 28.6063 18.8107L30.7096 20.0103L31.1974 19.1945L29.0981 17.9949C30.8662 15.0972 33.2497 12.6236 36.0798 10.7494L37.2794 12.8687L38.1271 12.3968L36.8955 10.2415C40.4713 8.08547 44.5682 6.94751 48.7436 6.9506H49.4913V9.25783C49.2624 9.36752 49.0776 9.55174 48.9671 9.78027C48.8567 10.0088 48.8271 10.2681 48.8834 10.5156C48.9396 10.7631 49.0783 10.9842 49.2767 11.1426C49.4751 11.3009 49.7214 11.3872 49.9752 11.3872C50.229 11.3872 50.4753 11.3009 50.6737 11.1426C50.8721 10.9842 51.0107 10.7631 51.067 10.5156C51.1232 10.2681 51.0937 10.0088 50.9832 9.78027C50.8728 9.55174 50.6879 9.36752 50.459 9.25783V7.00658C54.0242 7.27098 57.4779 8.36654 60.5437 10.2055C56.843 7.30402 52.401 5.5016 47.7249 5.00405C43.0488 4.5065 38.327 5.33387 34.0986 7.3917C29.8702 9.44953 26.3057 12.6549 23.8121 16.6418C21.3184 20.6287 19.9961 25.2364 19.9961 29.939C19.9961 34.6415 21.3184 39.2492 23.8121 43.2361C26.3057 47.223 29.8702 50.4284 34.0986 52.4862C38.327 54.544 43.0488 55.3714 47.7249 54.8738C52.401 54.3763 56.843 52.5739 60.5437 49.6724C57.4787 51.5131 54.0246 52.6088 50.459 52.8713L50.463 50.4321ZM29.0141 29.3272C29.1235 29.2426 29.2556 29.1923 29.3935 29.1827C29.5315 29.1731 29.6692 29.2045 29.7893 29.2731C29.9093 29.3417 30.0064 29.4444 30.0682 29.5681C30.13 29.6918 30.1538 29.831 30.1365 29.9682C30.1192 30.1054 30.0616 30.2345 29.9711 30.339C29.8805 30.4435 29.761 30.5188 29.6277 30.5555C29.4943 30.5921 29.3531 30.5885 29.2219 30.5449C29.0906 30.5014 28.9752 30.4199 28.8902 30.3108C28.8336 30.2382 28.7919 30.1551 28.7674 30.0662C28.743 29.9774 28.7364 29.8847 28.7479 29.7933C28.7594 29.7019 28.7889 29.6137 28.8346 29.5337C28.8802 29.4537 28.9413 29.3835 29.0141 29.3272ZM50.623 10.3975C50.6238 10.5359 50.5835 10.6714 50.5073 10.7869C50.431 10.9024 50.3222 10.9927 50.1947 11.0464C50.0671 11.1001 49.9265 11.1148 49.7906 11.0886C49.6547 11.0623 49.5297 10.9964 49.4312 10.8991C49.3328 10.8018 49.2655 10.6775 49.2377 10.5419C49.2099 10.4063 49.223 10.2655 49.2752 10.1374C49.3274 10.0092 49.4165 9.89939 49.5311 9.82184C49.6457 9.74429 49.7808 9.70248 49.9192 9.70169C50.1045 9.70167 50.2823 9.77472 50.414 9.90498C50.5458 10.0353 50.6209 10.2122 50.623 10.3975ZM49.3554 49.3005C49.3455 49.1624 49.3767 49.0245 49.4451 48.9042C49.5136 48.7839 49.6162 48.6866 49.74 48.6246C49.8637 48.5626 50.0031 48.5387 50.1404 48.556C50.2778 48.5732 50.4069 48.6308 50.5115 48.7214C50.6162 48.812 50.6916 48.9317 50.7282 49.0651C50.7648 49.1986 50.761 49.34 50.7173 49.4713C50.6736 49.6026 50.5919 49.7181 50.4826 49.803C50.3733 49.8879 50.2412 49.9384 50.1031 49.9483C49.9198 49.9627 49.7382 49.9039 49.5981 49.7847C49.4579 49.6656 49.3707 49.4958 49.3554 49.3125V49.3005Z" fill="url(#paint2_linear)"></path><path d="M98.1649 11.5798C98.1649 12.2211 98.0869 12.8191 97.9309 13.3738C97.7749 13.9285 97.5409 14.4095 97.2289 14.8168C96.9256 15.2155 96.5399 15.5318 96.0719 15.7658C95.6126 15.9911 95.0796 16.1038 94.4729 16.1038C93.7796 16.1038 93.1902 15.9998 92.7049 15.7918C92.2282 15.5751 91.8339 15.2718 91.5219 14.8818C91.2186 14.4918 90.9976 14.0238 90.8589 13.4778C90.7202 12.9231 90.6509 12.3035 90.6509 11.6188C90.6509 11.0035 90.7159 10.4141 90.8459 9.85084C90.9846 9.28751 91.2012 8.79351 91.4959 8.36884C91.7992 7.93551 92.1936 7.59317 92.6789 7.34184C93.1729 7.09051 93.7709 6.96484 94.4729 6.96484C95.1836 6.96484 95.7772 7.09484 96.2539 7.35484C96.7306 7.60617 97.1076 7.94417 97.3849 8.36884C97.6709 8.79351 97.8702 9.28317 97.9829 9.83784C98.1042 10.3925 98.1649 10.9731 98.1649 11.5798ZM97.0209 11.6188C97.0209 11.1768 96.9862 10.7348 96.9169 10.2928C96.8562 9.84217 96.7349 9.43917 96.5529 9.08384C96.3709 8.71984 96.1109 8.42517 95.7729 8.19984C95.4436 7.96584 95.0102 7.84884 94.4729 7.84884C93.9356 7.84884 93.4936 7.95717 93.1469 8.17384C92.8002 8.38184 92.5272 8.66351 92.3279 9.01884C92.1286 9.36551 91.9899 9.76851 91.9119 10.2278C91.8339 10.6785 91.7949 11.1465 91.7949 11.6318C91.7949 12.8191 92.0029 13.7161 92.4189 14.3228C92.8349 14.9208 93.5196 15.2198 94.4729 15.2198C94.9062 15.2198 95.2832 15.1288 95.6039 14.9468C95.9246 14.7561 96.1889 14.5005 96.3969 14.1798C96.6049 13.8505 96.7609 13.4691 96.8649 13.0358C96.9689 12.5938 97.0209 12.1215 97.0209 11.6188ZM100.488 15.2328H101.307V10.4098H99.8514V11.3068H99.0714V9.65584H104.57V11.3068H103.79V10.4098H102.347V15.2328H103.205V15.9998H100.488V15.2328ZM110.613 15.2328H111.237V17.7678H110.405V15.9998H105.543V17.7678H104.698V15.2328H105.296C105.53 15.0595 105.712 14.8038 105.842 14.4658C105.972 14.1278 106.068 13.7508 106.128 13.3348C106.198 12.9188 106.241 12.4898 106.258 12.0478C106.284 11.6058 106.297 11.1985 106.297 10.8258V10.4098H105.517V9.65584H110.626L110.613 15.2328ZM107.285 10.4098V10.8648C107.285 11.2375 107.277 11.6361 107.259 12.0608C107.242 12.4768 107.203 12.8841 107.142 13.2828C107.082 13.6815 106.999 14.0541 106.895 14.4008C106.791 14.7388 106.653 15.0161 106.479 15.2328H109.573V10.4098H107.285ZM115.113 10.3448C114.836 10.3448 114.593 10.4011 114.385 10.5138C114.186 10.6178 114.021 10.7608 113.891 10.9428C113.761 11.1161 113.661 11.3241 113.592 11.5668C113.523 11.8008 113.479 12.0478 113.462 12.3078H116.621C116.612 12.0305 116.582 11.7748 116.53 11.5408C116.487 11.2981 116.404 11.0901 116.283 10.9168C116.17 10.7348 116.019 10.5961 115.828 10.5008C115.637 10.3968 115.399 10.3448 115.113 10.3448ZM115.126 9.51284C115.533 9.51284 115.88 9.56917 116.166 9.68184C116.452 9.79451 116.686 9.94184 116.868 10.1238C117.059 10.3058 117.206 10.5095 117.31 10.7348C117.414 10.9601 117.492 11.1855 117.544 11.4108C117.596 11.6361 117.626 11.8485 117.635 12.0478C117.644 12.2471 117.648 12.4118 117.648 12.5418V13.1138H113.436C113.436 13.4171 113.462 13.6988 113.514 13.9588C113.566 14.2188 113.657 14.4485 113.787 14.6478C113.926 14.8385 114.108 14.9901 114.333 15.1028C114.567 15.2155 114.862 15.2718 115.217 15.2718C115.59 15.2718 115.923 15.2371 116.218 15.1678C116.521 15.0898 116.855 14.9771 117.219 14.8298L117.505 15.5188C117.124 15.7181 116.738 15.8655 116.348 15.9608C115.967 16.0561 115.564 16.1038 115.139 16.1038C114.576 16.1038 114.112 16.0128 113.748 15.8308C113.384 15.6488 113.098 15.4061 112.89 15.1028C112.682 14.7995 112.539 14.4528 112.461 14.0628C112.383 13.6728 112.344 13.2655 112.344 12.8408C112.344 12.5548 112.379 12.2211 112.448 11.8398C112.517 11.4585 112.652 11.0988 112.851 10.7608C113.05 10.4141 113.332 10.1195 113.696 9.87684C114.06 9.63417 114.537 9.51284 115.126 9.51284ZM122.203 15.9998V15.2328H122.996V10.4098H120.916V10.9558C120.916 11.6405 120.894 12.2775 120.851 12.8668C120.816 13.4561 120.721 13.9848 120.565 14.4528C120.417 14.9121 120.192 15.3021 119.889 15.6228C119.594 15.9348 119.182 16.1558 118.654 16.2858L118.329 15.4668C118.675 15.3021 118.953 15.1071 119.161 14.8818C119.369 14.6478 119.529 14.3618 119.642 14.0238C119.754 13.6771 119.824 13.2698 119.85 12.8018C119.884 12.3251 119.902 11.7661 119.902 11.1248V10.4098H118.914V9.65584H124.049V15.2328H124.855V15.9998H122.203ZM131.06 10.4878V15.9998H130.007V10.4878H129.045V9.66884H136.117V10.4878H135.129V15.1938H136.078V15.8308C135.914 15.9088 135.723 15.9695 135.506 16.0128C135.298 16.0561 135.121 16.0778 134.973 16.0778C134.67 16.0778 134.445 16.0171 134.297 15.8958C134.159 15.7658 134.085 15.5231 134.076 15.1678V10.4878H131.06ZM142.551 12.8408C142.551 13.2481 142.503 13.6468 142.408 14.0368C142.321 14.4268 142.165 14.7778 141.94 15.0898C141.723 15.3931 141.428 15.6401 141.056 15.8308C140.692 16.0128 140.232 16.1038 139.678 16.1038C139.158 16.1038 138.724 16.0171 138.378 15.8438C138.031 15.6618 137.749 15.4235 137.533 15.1288C137.325 14.8341 137.173 14.4918 137.078 14.1018C136.991 13.7118 136.948 13.3001 136.948 12.8668C136.948 12.4421 137 12.0305 137.104 11.6318C137.208 11.2331 137.372 10.8778 137.598 10.5658C137.823 10.2538 138.113 10.0025 138.469 9.81184C138.833 9.62117 139.275 9.52584 139.795 9.52584C140.323 9.52584 140.765 9.62117 141.121 9.81184C141.476 10.0025 141.758 10.2538 141.966 10.5658C142.182 10.8691 142.334 11.2201 142.421 11.6188C142.507 12.0175 142.551 12.4248 142.551 12.8408ZM141.459 12.8668C141.459 12.5895 141.437 12.3035 141.394 12.0088C141.35 11.7141 141.268 11.4498 141.147 11.2158C141.034 10.9731 140.869 10.7738 140.653 10.6178C140.445 10.4618 140.172 10.3838 139.834 10.3838C139.478 10.3838 139.184 10.4575 138.95 10.6048C138.724 10.7521 138.542 10.9428 138.404 11.1768C138.274 11.4108 138.183 11.6751 138.131 11.9698C138.079 12.2645 138.053 12.5635 138.053 12.8668C138.053 13.1788 138.07 13.4821 138.105 13.7768C138.148 14.0628 138.23 14.3185 138.352 14.5438C138.482 14.7605 138.659 14.9338 138.885 15.0638C139.11 15.1938 139.409 15.2588 139.782 15.2588C140.128 15.2588 140.41 15.1895 140.627 15.0508C140.843 14.9035 141.012 14.7171 141.134 14.4918C141.255 14.2665 141.337 14.0108 141.381 13.7248C141.433 13.4388 141.459 13.1528 141.459 12.8668ZM147.038 15.9998V15.2328H147.714V10.4098H147.077V9.65584H152.056V11.5148H151.276V10.4098H148.754V15.2328H149.716V15.9998H147.038ZM154.339 15.3888C154.339 15.5968 154.265 15.7745 154.118 15.9218C153.979 16.0605 153.814 16.1298 153.624 16.1298C153.416 16.1298 153.238 16.0605 153.091 15.9218C152.952 15.7745 152.883 15.5968 152.883 15.3888C152.883 15.1895 152.952 15.0205 153.091 14.8818C153.229 14.7431 153.398 14.6738 153.598 14.6738C153.806 14.6738 153.979 14.7431 154.118 14.8818C154.265 15.0205 154.339 15.1895 154.339 15.3888ZM161.567 9.00584H160.722V7.90084H157.446V10.7738H159.552C160.054 10.7738 160.488 10.8388 160.852 10.9688C161.216 11.0988 161.515 11.2765 161.749 11.5018C161.983 11.7271 162.156 11.9958 162.269 12.3078C162.381 12.6111 162.438 12.9405 162.438 13.2958C162.438 13.7378 162.368 14.1278 162.23 14.4658C162.1 14.7951 161.913 15.0768 161.671 15.3108C161.428 15.5361 161.142 15.7095 160.813 15.8308C160.492 15.9435 160.137 15.9998 159.747 15.9998H155.522V15.2068H156.354V7.90084H155.522V7.10784H161.567V9.00584ZM157.446 11.5668V15.2068H159.604C159.846 15.2068 160.072 15.1678 160.28 15.0898C160.488 15.0031 160.67 14.8818 160.826 14.7258C160.982 14.5611 161.103 14.3661 161.19 14.1408C161.285 13.9068 161.333 13.6381 161.333 13.3348C161.333 13.0141 161.281 12.7411 161.177 12.5158C161.073 12.2905 160.934 12.1085 160.761 11.9698C160.587 11.8311 160.384 11.7315 160.15 11.6708C159.924 11.6015 159.686 11.5668 159.435 11.5668H157.446ZM163.13 17.8978H164.118V10.4878H163.13V9.66884H165.119V10.2668L165.145 10.2798C165.396 10.0805 165.7 9.91584 166.055 9.78584C166.419 9.64717 166.77 9.57784 167.108 9.57784C167.559 9.57784 167.936 9.66451 168.239 9.83784C168.551 10.0025 168.802 10.2278 168.993 10.5138C169.184 10.7998 169.318 11.1335 169.396 11.5148C169.474 11.8961 169.513 12.2991 169.513 12.7238C169.513 13.2091 169.465 13.6598 169.37 14.0758C169.283 14.4918 169.136 14.8515 168.928 15.1548C168.729 15.4581 168.464 15.6965 168.135 15.8698C167.806 16.0431 167.407 16.1298 166.939 16.1298C166.696 16.1298 166.419 16.0995 166.107 16.0388C165.795 15.9781 165.487 15.8655 165.184 15.7008V17.8978H166.25V18.7168H163.13V17.8978ZM166.783 15.2328C167 15.2328 167.208 15.1981 167.407 15.1288C167.606 15.0508 167.78 14.9208 167.927 14.7388C168.083 14.5481 168.204 14.2925 168.291 13.9718C168.378 13.6425 168.421 13.2265 168.421 12.7238C168.421 12.2818 168.382 11.9221 168.304 11.6448C168.226 11.3588 168.118 11.1335 167.979 10.9688C167.849 10.7955 167.684 10.6785 167.485 10.6178C167.294 10.5485 167.082 10.5138 166.848 10.5138C166.692 10.5138 166.532 10.5355 166.367 10.5788C166.211 10.6135 166.055 10.6655 165.899 10.7348C165.752 10.7955 165.613 10.8648 165.483 10.9428C165.362 11.0121 165.262 11.0858 165.184 11.1638V14.7648C165.253 14.8168 165.349 14.8731 165.47 14.9338C165.591 14.9858 165.726 15.0335 165.873 15.0768C166.02 15.1201 166.172 15.1591 166.328 15.1938C166.484 15.2198 166.636 15.2328 166.783 15.2328ZM173.258 10.3448C172.98 10.3448 172.738 10.4011 172.53 10.5138C172.33 10.6178 172.166 10.7608 172.036 10.9428C171.906 11.1161 171.806 11.3241 171.737 11.5668C171.667 11.8008 171.624 12.0478 171.607 12.3078H174.766C174.757 12.0305 174.727 11.7748 174.675 11.5408C174.631 11.2981 174.549 11.0901 174.428 10.9168C174.315 10.7348 174.163 10.5961 173.973 10.5008C173.782 10.3968 173.544 10.3448 173.258 10.3448ZM173.271 9.51284C173.678 9.51284 174.025 9.56917 174.311 9.68184C174.597 9.79451 174.831 9.94184 175.013 10.1238C175.203 10.3058 175.351 10.5095 175.455 10.7348C175.559 10.9601 175.637 11.1855 175.689 11.4108C175.741 11.6361 175.771 11.8485 175.78 12.0478C175.788 12.2471 175.793 12.4118 175.793 12.5418V13.1138H171.581C171.581 13.4171 171.607 13.6988 171.659 13.9588C171.711 14.2188 171.802 14.4485 171.932 14.6478C172.07 14.8385 172.252 14.9901 172.478 15.1028C172.712 15.2155 173.006 15.2718 173.362 15.2718C173.734 15.2718 174.068 15.2371 174.363 15.1678C174.666 15.0898 175 14.9771 175.364 14.8298L175.65 15.5188C175.268 15.7181 174.883 15.8655 174.493 15.9608C174.111 16.0561 173.708 16.1038 173.284 16.1038C172.72 16.1038 172.257 16.0128 171.893 15.8308C171.529 15.6488 171.243 15.4061 171.035 15.1028C170.827 14.7995 170.684 14.4528 170.606 14.0628C170.528 13.6728 170.489 13.2655 170.489 12.8408C170.489 12.5548 170.523 12.2211 170.593 11.8398C170.662 11.4585 170.796 11.0988 170.996 10.7608C171.195 10.4141 171.477 10.1195 171.841 9.87684C172.205 9.63417 172.681 9.51284 173.271 9.51284ZM179.671 9.51284C180.391 9.51284 181.015 9.62551 181.543 9.85084V11.5278H180.737V10.5268C180.599 10.4835 180.451 10.4531 180.295 10.4358C180.139 10.4185 180.001 10.4098 179.879 10.4098C179.195 10.4098 178.688 10.6265 178.358 11.0598C178.038 11.4931 177.877 12.1041 177.877 12.8928C177.877 13.6295 178.012 14.2058 178.28 14.6218C178.558 15.0291 179.021 15.2328 179.671 15.2328C180.001 15.2328 180.313 15.2025 180.607 15.1418C180.902 15.0725 181.214 14.9728 181.543 14.8428L181.803 15.5838C181.526 15.7398 181.192 15.8655 180.802 15.9608C180.412 16.0561 180.009 16.1038 179.593 16.1038C179.056 16.1038 178.61 16.0215 178.254 15.8568C177.899 15.6921 177.613 15.4668 177.396 15.1808C177.18 14.8948 177.024 14.5568 176.928 14.1668C176.842 13.7768 176.798 13.3565 176.798 12.9058C176.798 12.5678 176.837 12.2038 176.915 11.8138C176.993 11.4151 177.136 11.0468 177.344 10.7088C177.552 10.3621 177.843 10.0761 178.215 9.85084C178.588 9.62551 179.073 9.51284 179.671 9.51284ZM183.846 15.2328H184.665V10.4098H183.209V11.3068H182.429V9.65584H187.928V11.3068H187.148V10.4098H185.705V15.2328H186.563V15.9998H183.846V15.2328ZM192.061 13.8938L193.192 10.4358H192.386V9.65584H194.869V10.4358H194.219L191.983 17.0008C191.905 17.2348 191.822 17.4601 191.736 17.6768C191.649 17.8935 191.536 18.0841 191.398 18.2488C191.259 18.4135 191.086 18.5435 190.878 18.6388C190.67 18.7341 190.397 18.7818 190.059 18.7818C189.955 18.7818 189.799 18.7688 189.591 18.7428C189.383 18.7255 189.105 18.6648 188.759 18.5608L188.915 17.8198C189.114 17.8631 189.3 17.8978 189.474 17.9238C189.656 17.9498 189.82 17.9628 189.968 17.9628C190.271 17.9628 190.505 17.8458 190.67 17.6118C190.843 17.3865 190.99 17.0918 191.112 16.7278L191.359 15.9608H190.839C190.535 15.0421 190.232 14.1278 189.929 13.2178C189.634 12.2991 189.335 11.3805 189.032 10.4618H188.382V9.65584H189.851L191.164 13.9068L191.554 15.2588H191.619L192.061 13.8938ZM203.951 11.1508C203.934 11.1855 203.847 11.3241 203.691 11.5668C203.535 11.8008 203.349 12.0911 203.132 12.4378C202.916 12.7758 202.677 13.1441 202.417 13.5428C202.166 13.9415 201.928 14.3141 201.702 14.6608C201.486 15.0075 201.295 15.3065 201.13 15.5578C200.974 15.8091 200.879 15.9565 200.844 15.9998H199.856V10.4228H198.933V9.65584H200.896V14.4788H200.948C201.052 14.3228 201.152 14.1625 201.247 13.9978C201.343 13.8331 201.442 13.6728 201.546 13.5168L202.911 11.4108L204.029 9.65584H205.043C205.043 10.5831 205.043 11.5061 205.043 12.4248C205.052 13.3435 205.056 14.2665 205.056 15.1938H205.979V15.8308C205.806 15.9088 205.615 15.9651 205.407 15.9998C205.208 16.0431 205.035 16.0648 204.887 16.0648C204.593 16.0648 204.367 15.9911 204.211 15.8438C204.064 15.6878 203.99 15.4755 203.99 15.2068V11.1508H203.951ZM96.5919 25.0058H95.7469V23.9008H92.4709V26.7738H94.5769C95.0796 26.7738 95.5129 26.8388 95.8769 26.9688C96.2409 27.0988 96.5399 27.2765 96.7739 27.5018C97.0079 27.7271 97.1812 27.9958 97.2939 28.3078C97.4066 28.6111 97.4629 28.9405 97.4629 29.2958C97.4629 29.7378 97.3936 30.1278 97.2549 30.4658C97.1249 30.7951 96.9386 31.0768 96.6959 31.3108C96.4532 31.5361 96.1672 31.7095 95.8379 31.8308C95.5172 31.9435 95.1619 31.9998 94.7719 31.9998H90.5469V31.2068H91.3789V23.9008H90.5469V23.1078H96.5919V25.0058ZM92.4709 27.5668V31.2068H94.6289C94.8716 31.2068 95.0969 31.1678 95.3049 31.0898C95.5129 31.0031 95.6949 30.8818 95.8509 30.7258C96.0069 30.5611 96.1282 30.3661 96.2149 30.1408C96.3102 29.9068 96.3579 29.6381 96.3579 29.3348C96.3579 29.0141 96.3059 28.7411 96.2019 28.5158C96.0979 28.2905 95.9592 28.1085 95.7859 27.9698C95.6126 27.8311 95.4089 27.7315 95.1749 27.6708C94.9496 27.6015 94.7112 27.5668 94.4599 27.5668H92.4709ZM98.1553 33.8978H99.1433V26.4878H98.1553V25.6688H100.144V26.2668L100.17 26.2798C100.422 26.0805 100.725 25.9158 101.08 25.7858C101.444 25.6471 101.795 25.5778 102.133 25.5778C102.584 25.5778 102.961 25.6645 103.264 25.8378C103.576 26.0025 103.828 26.2278 104.018 26.5138C104.209 26.7998 104.343 27.1335 104.421 27.5148C104.499 27.8961 104.538 28.2991 104.538 28.7238C104.538 29.2091 104.491 29.6598 104.395 30.0758C104.309 30.4918 104.161 30.8515 103.953 31.1548C103.754 31.4581 103.49 31.6965 103.16 31.8698C102.831 32.0431 102.432 32.1298 101.964 32.1298C101.722 32.1298 101.444 32.0995 101.132 32.0388C100.82 31.9781 100.513 31.8655 100.209 31.7008V33.8978H101.275V34.7168H98.1553V33.8978ZM101.808 31.2328C102.025 31.2328 102.233 31.1981 102.432 31.1288C102.632 31.0508 102.805 30.9208 102.952 30.7388C103.108 30.5481 103.23 30.2925 103.316 29.9718C103.403 29.6425 103.446 29.2265 103.446 28.7238C103.446 28.2818 103.407 27.9221 103.329 27.6448C103.251 27.3588 103.143 27.1335 103.004 26.9688C102.874 26.7955 102.71 26.6785 102.51 26.6178C102.32 26.5485 102.107 26.5138 101.873 26.5138C101.717 26.5138 101.557 26.5355 101.392 26.5788C101.236 26.6135 101.08 26.6655 100.924 26.7348C100.777 26.7955 100.638 26.8648 100.508 26.9428C100.387 27.0121 100.287 27.0858 100.209 27.1638V30.7648C100.279 30.8168 100.374 30.8731 100.495 30.9338C100.617 30.9858 100.751 31.0335 100.898 31.0768C101.046 31.1201 101.197 31.1591 101.353 31.1938C101.509 31.2198 101.661 31.2328 101.808 31.2328ZM108.283 26.3448C108.006 26.3448 107.763 26.4011 107.555 26.5138C107.356 26.6178 107.191 26.7608 107.061 26.9428C106.931 27.1161 106.831 27.3241 106.762 27.5668C106.693 27.8008 106.649 28.0478 106.632 28.3078H109.791C109.782 28.0305 109.752 27.7748 109.7 27.5408C109.657 27.2981 109.574 27.0901 109.453 26.9168C109.34 26.7348 109.189 26.5961 108.998 26.5008C108.807 26.3968 108.569 26.3448 108.283 26.3448ZM108.296 25.5128C108.703 25.5128 109.05 25.5691 109.336 25.6818C109.622 25.7945 109.856 25.9418 110.038 26.1238C110.229 26.3058 110.376 26.5095 110.48 26.7348C110.584 26.9601 110.662 27.1855 110.714 27.4108C110.766 27.6361 110.796 27.8485 110.805 28.0478C110.814 28.2471 110.818 28.4118 110.818 28.5418V29.1138H106.606C106.606 29.4171 106.632 29.6988 106.684 29.9588C106.736 30.2188 106.827 30.4485 106.957 30.6478C107.096 30.8385 107.278 30.9901 107.503 31.1028C107.737 31.2155 108.032 31.2718 108.387 31.2718C108.76 31.2718 109.093 31.2371 109.388 31.1678C109.691 31.0898 110.025 30.9771 110.389 30.8298L110.675 31.5188C110.294 31.7181 109.908 31.8655 109.518 31.9608C109.137 32.0561 108.734 32.1038 108.309 32.1038C107.746 32.1038 107.282 32.0128 106.918 31.8308C106.554 31.6488 106.268 31.4061 106.06 31.1028C105.852 30.7995 105.709 30.4528 105.631 30.0628C105.553 29.6728 105.514 29.2655 105.514 28.8408C105.514 28.5548 105.549 28.2211 105.618 27.8398C105.687 27.4585 105.822 27.0988 106.021 26.7608C106.22 26.4141 106.502 26.1195 106.866 25.8768C107.23 25.6341 107.707 25.5128 108.296 25.5128ZM114.697 25.5128C115.416 25.5128 116.04 25.6255 116.569 25.8508V27.5278H115.763V26.5268C115.624 26.4835 115.477 26.4531 115.321 26.4358C115.165 26.4185 115.026 26.4098 114.905 26.4098C114.22 26.4098 113.713 26.6265 113.384 27.0598C113.063 27.4931 112.903 28.1041 112.903 28.8928C112.903 29.6295 113.037 30.2058 113.306 30.6218C113.583 31.0291 114.047 31.2328 114.697 31.2328C115.026 31.2328 115.338 31.2025 115.633 31.1418C115.927 31.0725 116.239 30.9728 116.569 30.8428L116.829 31.5838C116.551 31.7398 116.218 31.8655 115.828 31.9608C115.438 32.0561 115.035 32.1038 114.619 32.1038C114.081 32.1038 113.635 32.0215 113.28 31.8568C112.924 31.6921 112.638 31.4668 112.422 31.1808C112.205 30.8948 112.049 30.5568 111.954 30.1668C111.867 29.7768 111.824 29.3565 111.824 28.9058C111.824 28.5678 111.863 28.2038 111.941 27.8138C112.019 27.4151 112.162 27.0468 112.37 26.7088C112.578 26.3621 112.868 26.0761 113.241 25.8508C113.613 25.6255 114.099 25.5128 114.697 25.5128ZM118.871 31.2328H119.69V26.4098H118.234V27.3068H117.454V25.6558H122.953V27.3068H122.173V26.4098H120.73V31.2328H121.588V31.9998H118.871V31.2328ZM126.478 25.5128C127.197 25.5128 127.821 25.6255 128.35 25.8508V27.5278H127.544V26.5268C127.405 26.4835 127.258 26.4531 127.102 26.4358C126.946 26.4185 126.807 26.4098 126.686 26.4098C126.001 26.4098 125.494 26.6265 125.165 27.0598C124.844 27.4931 124.684 28.1041 124.684 28.8928C124.684 29.6295 124.818 30.2058 125.087 30.6218C125.364 31.0291 125.828 31.2328 126.478 31.2328C126.807 31.2328 127.119 31.2025 127.414 31.1418C127.709 31.0725 128.021 30.9728 128.35 30.8428L128.61 31.5838C128.333 31.7398 127.999 31.8655 127.609 31.9608C127.219 32.0561 126.816 32.1038 126.4 32.1038C125.863 32.1038 125.416 32.0215 125.061 31.8568C124.706 31.6921 124.42 31.4668 124.203 31.1808C123.986 30.8948 123.83 30.5568 123.735 30.1668C123.648 29.7768 123.605 29.3565 123.605 28.9058C123.605 28.5678 123.644 28.2038 123.722 27.8138C123.8 27.4151 123.943 27.0468 124.151 26.7088C124.359 26.3621 124.649 26.0761 125.022 25.8508C125.395 25.6255 125.88 25.5128 126.478 25.5128ZM129.34 31.2328H130.224V26.4098H129.21V25.6558H131.277V31.2328H132.135V31.9998H129.34V31.2328ZM134.579 31.2458L135.489 31.3498V31.8958C135.367 31.9651 135.211 32.0171 135.021 32.0518C134.839 32.0865 134.683 32.1038 134.553 32.1038C134.379 32.1038 134.228 32.0778 134.098 32.0258C133.976 31.9738 133.855 31.8698 133.734 31.7138L131.511 28.7888V28.5808L133.63 25.9678C133.751 25.7945 133.872 25.6818 133.994 25.6298C134.124 25.5778 134.271 25.5518 134.436 25.5518C134.583 25.5518 134.735 25.5735 134.891 25.6168C135.055 25.6515 135.19 25.7035 135.294 25.7728L135.242 26.3448L134.436 26.3968L132.551 28.6328L134.579 31.2458ZM141.84 28.8408C141.84 29.2481 141.792 29.6468 141.697 30.0368C141.61 30.4268 141.454 30.7778 141.229 31.0898C141.012 31.3931 140.717 31.6401 140.345 31.8308C139.981 32.0128 139.521 32.1038 138.967 32.1038C138.447 32.1038 138.013 32.0171 137.667 31.8438C137.32 31.6618 137.038 31.4235 136.822 31.1288C136.614 30.8341 136.462 30.4918 136.367 30.1018C136.28 29.7118 136.237 29.3001 136.237 28.8668C136.237 28.4421 136.289 28.0305 136.393 27.6318C136.497 27.2331 136.661 26.8778 136.887 26.5658C137.112 26.2538 137.402 26.0025 137.758 25.8118C138.122 25.6211 138.564 25.5258 139.084 25.5258C139.612 25.5258 140.054 25.6211 140.41 25.8118C140.765 26.0025 141.047 26.2538 141.255 26.5658C141.471 26.8691 141.623 27.2201 141.71 27.6188C141.796 28.0175 141.84 28.4248 141.84 28.8408ZM140.748 28.8668C140.748 28.5895 140.726 28.3035 140.683 28.0088C140.639 27.7141 140.557 27.4498 140.436 27.2158C140.323 26.9731 140.158 26.7738 139.942 26.6178C139.734 26.4618 139.461 26.3838 139.123 26.3838C138.767 26.3838 138.473 26.4575 138.239 26.6048C138.013 26.7521 137.831 26.9428 137.693 27.1768C137.563 27.4108 137.472 27.6751 137.42 27.9698C137.368 28.2645 137.342 28.5635 137.342 28.8668C137.342 29.1788 137.359 29.4821 137.394 29.7768C137.437 30.0628 137.519 30.3185 137.641 30.5438C137.771 30.7605 137.948 30.9338 138.174 31.0638C138.399 31.1938 138.698 31.2588 139.071 31.2588C139.417 31.2588 139.699 31.1895 139.916 31.0508C140.132 30.9035 140.301 30.7171 140.423 30.4918C140.544 30.2665 140.626 30.0108 140.67 29.7248C140.722 29.4388 140.748 29.1528 140.748 28.8668ZM147.647 27.1508C147.63 27.1855 147.543 27.3241 147.387 27.5668C147.231 27.8008 147.045 28.0911 146.828 28.4378C146.612 28.7758 146.373 29.1441 146.113 29.5428C145.862 29.9415 145.624 30.3141 145.398 30.6608C145.182 31.0075 144.991 31.3065 144.826 31.5578C144.67 31.8091 144.575 31.9565 144.54 31.9998H143.552V26.4228H142.629V25.6558H144.592V30.4788H144.644C144.748 30.3228 144.848 30.1625 144.943 29.9978C145.039 29.8331 145.138 29.6728 145.242 29.5168L146.607 27.4108L147.725 25.6558H148.739C148.739 26.5831 148.739 27.5061 148.739 28.4248C148.748 29.3435 148.752 30.2665 148.752 31.1938H149.675V31.8308C149.502 31.9088 149.311 31.9651 149.103 31.9998C148.904 32.0431 148.731 32.0648 148.583 32.0648C148.289 32.0648 148.063 31.9911 147.907 31.8438C147.76 31.6878 147.686 31.4755 147.686 31.2068V27.1508H147.647ZM146.022 24.8628C145.797 24.8628 145.585 24.8238 145.385 24.7458C145.186 24.6591 145 24.5465 144.826 24.4078C144.653 24.2691 144.488 24.1131 144.332 23.9398C144.185 23.7665 144.046 23.5888 143.916 23.4068L144.527 22.9648C144.761 23.2941 145.013 23.5585 145.281 23.7578C145.55 23.9485 145.81 24.0438 146.061 24.0438C146.139 24.0438 146.235 24.0395 146.347 24.0308C146.469 24.0135 146.603 23.9745 146.75 23.9138C146.906 23.8445 147.08 23.7448 147.27 23.6148C147.461 23.4761 147.678 23.2898 147.92 23.0558L148.271 23.3808C147.89 23.9268 147.504 24.3125 147.114 24.5378C146.733 24.7545 146.369 24.8628 146.022 24.8628ZM159.626 28.8408C159.626 29.2481 159.578 29.6468 159.483 30.0368C159.396 30.4268 159.24 30.7778 159.015 31.0898C158.798 31.3931 158.504 31.6401 158.131 31.8308C157.767 32.0128 157.308 32.1038 156.753 32.1038C156.233 32.1038 155.8 32.0171 155.453 31.8438C155.106 31.6618 154.825 31.4235 154.608 31.1288C154.4 30.8341 154.248 30.4918 154.153 30.1018C154.066 29.7118 154.023 29.3001 154.023 28.8668C154.023 28.4421 154.075 28.0305 154.179 27.6318C154.283 27.2331 154.448 26.8778 154.673 26.5658C154.898 26.2538 155.189 26.0025 155.544 25.8118C155.908 25.6211 156.35 25.5258 156.87 25.5258C157.399 25.5258 157.841 25.6211 158.196 25.8118C158.551 26.0025 158.833 26.2538 159.041 26.5658C159.258 26.8691 159.409 27.2201 159.496 27.6188C159.583 28.0175 159.626 28.4248 159.626 28.8408ZM158.534 28.8668C158.534 28.5895 158.512 28.3035 158.469 28.0088C158.426 27.7141 158.343 27.4498 158.222 27.2158C158.109 26.9731 157.945 26.7738 157.728 26.6178C157.52 26.4618 157.247 26.3838 156.909 26.3838C156.554 26.3838 156.259 26.4575 156.025 26.6048C155.8 26.7521 155.618 26.9428 155.479 27.1768C155.349 27.4108 155.258 27.6751 155.206 27.9698C155.154 28.2645 155.128 28.5635 155.128 28.8668C155.128 29.1788 155.145 29.4821 155.18 29.7768C155.223 30.0628 155.306 30.3185 155.427 30.5438C155.557 30.7605 155.735 30.9338 155.96 31.0638C156.185 31.1938 156.484 31.2588 156.857 31.2588C157.204 31.2588 157.485 31.1895 157.702 31.0508C157.919 30.9035 158.088 30.7171 158.209 30.4918C158.33 30.2665 158.413 30.0108 158.456 29.7248C158.508 29.4388 158.534 29.1528 158.534 28.8668ZM163.471 23.1468C163.609 23.0861 163.77 23.0211 163.952 22.9518C164.142 22.8825 164.329 22.8088 164.511 22.7308C164.701 22.6528 164.883 22.5791 165.057 22.5098C165.239 22.4405 165.395 22.3755 165.525 22.3148L165.85 22.9908C165.546 23.1555 165.26 23.2941 164.992 23.4068C164.732 23.5108 164.541 23.5888 164.42 23.6408C163.978 23.8141 163.592 23.9875 163.263 24.1608C162.942 24.3341 162.665 24.5378 162.431 24.7718C162.205 25.0058 162.023 25.2875 161.885 25.6168C161.755 25.9461 161.664 26.3491 161.612 26.8258C161.62 26.8258 161.629 26.8301 161.638 26.8388C161.854 26.5008 162.145 26.2321 162.509 26.0328C162.873 25.8248 163.284 25.7208 163.744 25.7208C164.203 25.7208 164.593 25.8031 164.914 25.9678C165.234 26.1238 165.49 26.3448 165.681 26.6308C165.88 26.9168 166.023 27.2548 166.11 27.6448C166.196 28.0261 166.24 28.4378 166.24 28.8798C166.24 29.2611 166.192 29.6425 166.097 30.0238C166.01 30.4051 165.858 30.7518 165.642 31.0638C165.425 31.3671 165.13 31.6185 164.758 31.8178C164.385 32.0085 163.921 32.1038 163.367 32.1038C162.829 32.1038 162.387 32.0085 162.041 31.8178C161.694 31.6271 161.417 31.3845 161.209 31.0898C161.009 30.7951 160.866 30.4701 160.78 30.1148C160.702 29.7508 160.663 29.3955 160.663 29.0488C160.663 28.5461 160.667 28.1258 160.676 27.7878C160.684 27.4411 160.693 27.1551 160.702 26.9298C160.719 26.7045 160.736 26.5268 160.754 26.3968C160.771 26.2668 160.788 26.1585 160.806 26.0718C160.953 25.3785 161.252 24.7935 161.703 24.3168C162.153 23.8315 162.743 23.4415 163.471 23.1468ZM163.562 26.5138C163.232 26.5138 162.951 26.5961 162.717 26.7608C162.491 26.9255 162.305 27.1335 162.158 27.3848C162.019 27.6275 161.915 27.8961 161.846 28.1908C161.785 28.4855 161.755 28.7671 161.755 29.0358C161.755 29.2958 161.772 29.5601 161.807 29.8288C161.85 30.0975 161.932 30.3401 162.054 30.5568C162.175 30.7648 162.348 30.9381 162.574 31.0768C162.799 31.2155 163.098 31.2848 163.471 31.2848C163.809 31.2848 164.086 31.2155 164.303 31.0768C164.528 30.9381 164.701 30.7605 164.823 30.5438C164.944 30.3185 165.026 30.0671 165.07 29.7898C165.122 29.5125 165.148 29.2308 165.148 28.9448C165.148 28.6501 165.126 28.3555 165.083 28.0608C165.048 27.7661 164.97 27.5061 164.849 27.2808C164.736 27.0555 164.576 26.8735 164.368 26.7348C164.168 26.5875 163.9 26.5138 163.562 26.5138ZM170.445 31.9998V31.2328H171.238V26.4098H169.158V26.9558C169.158 27.6405 169.136 28.2775 169.093 28.8668C169.058 29.4561 168.963 29.9848 168.807 30.4528C168.66 30.9121 168.434 31.3021 168.131 31.6228C167.836 31.9348 167.425 32.1558 166.896 32.2858L166.571 31.4668C166.918 31.3021 167.195 31.1071 167.403 30.8818C167.611 30.6478 167.771 30.3618 167.884 30.0238C167.997 29.6771 168.066 29.2698 168.092 28.8018C168.127 28.3251 168.144 27.7661 168.144 27.1248V26.4098H167.156V25.6558H172.291V31.2328H173.097V31.9998H170.445ZM176.319 29.0748C175.903 29.1008 175.587 29.2178 175.37 29.4258C175.154 29.6251 175.045 29.8765 175.045 30.1798C175.045 30.5525 175.136 30.8255 175.318 30.9988C175.5 31.1635 175.799 31.2458 176.215 31.2458C176.484 31.2458 176.77 31.1765 177.073 31.0378C177.385 30.8991 177.663 30.7171 177.905 30.4918V28.9708L176.319 29.0748ZM178.932 31.1938H179.933L179.998 31.8048C179.92 31.8481 179.825 31.8871 179.712 31.9218C179.6 31.9478 179.483 31.9738 179.361 31.9998C179.24 32.0171 179.123 32.0301 179.01 32.0388C178.906 32.0561 178.815 32.0648 178.737 32.0648C178.495 32.0648 178.304 32.0171 178.165 31.9218C178.027 31.8265 177.953 31.6141 177.944 31.2848C177.936 31.2848 177.931 31.2848 177.931 31.2848C177.931 31.2761 177.927 31.2718 177.918 31.2718C177.676 31.4798 177.446 31.6401 177.229 31.7528C177.013 31.8655 176.809 31.9478 176.618 31.9998C176.436 32.0518 176.272 32.0821 176.124 32.0908C175.977 32.0995 175.856 32.1038 175.76 32.1038C175.396 32.1038 175.093 32.0431 174.85 31.9218C174.616 31.8005 174.43 31.6488 174.291 31.4668C174.153 31.2848 174.057 31.0898 174.005 30.8818C173.953 30.6651 173.927 30.4658 173.927 30.2838C173.927 29.7378 174.122 29.3001 174.512 28.9708C174.911 28.6328 175.509 28.4378 176.306 28.3858L177.918 28.2818V27.8658C177.918 27.3198 177.823 26.9428 177.632 26.7348C177.442 26.5268 177.086 26.4228 176.566 26.4228C176.254 26.4228 175.929 26.4531 175.591 26.5138C175.262 26.5745 174.937 26.6611 174.616 26.7738C174.573 26.6525 174.534 26.5355 174.499 26.4228C174.465 26.3015 174.43 26.1801 174.395 26.0588C174.759 25.8941 175.154 25.7685 175.578 25.6818C176.003 25.5951 176.415 25.5518 176.813 25.5518C177.481 25.5518 178.001 25.7078 178.373 26.0198C178.746 26.3318 178.932 26.8778 178.932 27.6578V31.1938ZM183.569 25.5128C184.288 25.5128 184.912 25.6255 185.441 25.8508V27.5278H184.635V26.5268C184.496 26.4835 184.349 26.4531 184.193 26.4358C184.037 26.4185 183.898 26.4098 183.777 26.4098C183.092 26.4098 182.585 26.6265 182.256 27.0598C181.935 27.4931 181.775 28.1041 181.775 28.8928C181.775 29.6295 181.909 30.2058 182.178 30.6218C182.455 31.0291 182.919 31.2328 183.569 31.2328C183.898 31.2328 184.21 31.2025 184.505 31.1418C184.799 31.0725 185.111 30.9728 185.441 30.8428L185.701 31.5838C185.423 31.7398 185.09 31.8655 184.7 31.9608C184.31 32.0561 183.907 32.1038 183.491 32.1038C182.953 32.1038 182.507 32.0215 182.152 31.8568C181.796 31.6921 181.51 31.4668 181.294 31.1808C181.077 30.8948 180.921 30.5568 180.826 30.1668C180.739 29.7768 180.696 29.3565 180.696 28.9058C180.696 28.5678 180.735 28.2038 180.813 27.8138C180.891 27.4151 181.034 27.0468 181.242 26.7088C181.45 26.3621 181.74 26.0761 182.113 25.8508C182.485 25.6255 182.971 25.5128 183.569 25.5128ZM187.743 31.2328H188.562V26.4098H187.106V27.3068H186.326V25.6558H191.825V27.3068H191.045V26.4098H189.602V31.2328H190.46V31.9998H187.743V31.2328ZM197.375 27.1508C197.358 27.1855 197.271 27.3241 197.115 27.5668C196.959 27.8008 196.773 28.0911 196.556 28.4378C196.339 28.7758 196.101 29.1441 195.841 29.5428C195.59 29.9415 195.351 30.3141 195.126 30.6608C194.909 31.0075 194.719 31.3065 194.554 31.5578C194.398 31.8091 194.303 31.9565 194.268 31.9998H193.28V26.4228H192.357V25.6558H194.32V30.4788H194.372C194.476 30.3228 194.576 30.1625 194.671 29.9978C194.766 29.8331 194.866 29.6728 194.97 29.5168L196.335 27.4108L197.453 25.6558H198.467C198.467 26.5831 198.467 27.5061 198.467 28.4248C198.476 29.3435 198.48 30.2665 198.48 31.1938H199.403V31.8308C199.23 31.9088 199.039 31.9651 198.831 31.9998C198.632 32.0431 198.458 32.0648 198.311 32.0648C198.016 32.0648 197.791 31.9911 197.635 31.8438C197.488 31.6878 197.414 31.4755 197.414 31.2068V27.1508H197.375ZM211.394 27.5798C211.394 28.2211 211.316 28.8191 211.16 29.3738C211.004 29.9285 210.77 30.4095 210.458 30.8168C210.155 31.2155 209.769 31.5318 209.301 31.7658C208.842 31.9911 208.309 32.1038 207.702 32.1038C207.009 32.1038 206.42 31.9998 205.934 31.7918C205.458 31.5751 205.063 31.2718 204.751 30.8818C204.448 30.4918 204.227 30.0238 204.088 29.4778C203.95 28.9231 203.88 28.3035 203.88 27.6188C203.88 27.0035 203.945 26.4141 204.075 25.8508C204.214 25.2875 204.431 24.7935 204.725 24.3688C205.029 23.9355 205.423 23.5931 205.908 23.3418C206.402 23.0905 207 22.9648 207.702 22.9648C208.413 22.9648 209.007 23.0948 209.483 23.3548C209.96 23.6061 210.337 23.9441 210.614 24.3688C210.9 24.7935 211.1 25.2831 211.212 25.8378C211.334 26.3925 211.394 26.9731 211.394 27.5798ZM210.25 27.6188C210.25 27.1768 210.216 26.7348 210.146 26.2928C210.086 25.8421 209.964 25.4391 209.782 25.0838C209.6 24.7198 209.34 24.4251 209.002 24.1998C208.673 23.9658 208.24 23.8488 207.702 23.8488C207.165 23.8488 206.723 23.9571 206.376 24.1738C206.03 24.3818 205.757 24.6635 205.557 25.0188C205.358 25.3655 205.219 25.7685 205.141 26.2278C205.063 26.6785 205.024 27.1465 205.024 27.6318C205.024 28.8191 205.232 29.7161 205.648 30.3228C206.064 30.9208 206.749 31.2198 207.702 31.2198C208.136 31.2198 208.513 31.1288 208.833 30.9468C209.154 30.7561 209.418 30.5005 209.626 30.1798C209.834 29.8505 209.99 29.4691 210.094 29.0358C210.198 28.5938 210.25 28.1215 210.25 27.6188ZM220.205 27.5798C220.205 28.2211 220.127 28.8191 219.971 29.3738C219.815 29.9285 219.581 30.4095 219.269 30.8168C218.966 31.2155 218.58 31.5318 218.112 31.7658C217.653 31.9911 217.12 32.1038 216.513 32.1038C215.82 32.1038 215.23 31.9998 214.745 31.7918C214.268 31.5751 213.874 31.2718 213.562 30.8818C213.259 30.4918 213.038 30.0238 212.899 29.4778C212.76 28.9231 212.691 28.3035 212.691 27.6188C212.691 27.0035 212.756 26.4141 212.886 25.8508C213.025 25.2875 213.241 24.7935 213.536 24.3688C213.839 23.9355 214.234 23.5931 214.719 23.3418C215.213 23.0905 215.811 22.9648 216.513 22.9648C217.224 22.9648 217.817 23.0948 218.294 23.3548C218.771 23.6061 219.148 23.9441 219.425 24.3688C219.711 24.7935 219.91 25.2831 220.023 25.8378C220.144 26.3925 220.205 26.9731 220.205 27.5798ZM219.061 27.6188C219.061 27.1768 219.026 26.7348 218.957 26.2928C218.896 25.8421 218.775 25.4391 218.593 25.0838C218.411 24.7198 218.151 24.4251 217.813 24.1998C217.484 23.9658 217.05 23.8488 216.513 23.8488C215.976 23.8488 215.534 23.9571 215.187 24.1738C214.84 24.3818 214.567 24.6635 214.368 25.0188C214.169 25.3655 214.03 25.7685 213.952 26.2278C213.874 26.6785 213.835 27.1465 213.835 27.6318C213.835 28.8191 214.043 29.7161 214.459 30.3228C214.875 30.9208 215.56 31.2198 216.513 31.2198C216.946 31.2198 217.323 31.1288 217.644 30.9468C217.965 30.7561 218.229 30.5005 218.437 30.1798C218.645 29.8505 218.801 29.4691 218.905 29.0358C219.009 28.5938 219.061 28.1215 219.061 27.6188ZM229.016 27.5798C229.016 28.2211 228.938 28.8191 228.782 29.3738C228.626 29.9285 228.392 30.4095 228.08 30.8168C227.776 31.2155 227.391 31.5318 226.923 31.7658C226.463 31.9911 225.93 32.1038 225.324 32.1038C224.63 32.1038 224.041 31.9998 223.556 31.7918C223.079 31.5751 222.685 31.2718 222.373 30.8818C222.069 30.4918 221.848 30.0238 221.71 29.4778C221.571 28.9231 221.502 28.3035 221.502 27.6188C221.502 27.0035 221.567 26.4141 221.697 25.8508C221.835 25.2875 222.052 24.7935 222.347 24.3688C222.65 23.9355 223.044 23.5931 223.53 23.3418C224.024 23.0905 224.622 22.9648 225.324 22.9648C226.034 22.9648 226.628 23.0948 227.105 23.3548C227.581 23.6061 227.958 23.9441 228.236 24.3688C228.522 24.7935 228.721 25.2831 228.834 25.8378C228.955 26.3925 229.016 26.9731 229.016 27.5798ZM227.872 27.6188C227.872 27.1768 227.837 26.7348 227.768 26.2928C227.707 25.8421 227.586 25.4391 227.404 25.0838C227.222 24.7198 226.962 24.4251 226.624 24.1998C226.294 23.9658 225.861 23.8488 225.324 23.8488C224.786 23.8488 224.344 23.9571 223.998 24.1738C223.651 24.3818 223.378 24.6635 223.179 25.0188C222.979 25.3655 222.841 25.7685 222.763 26.2278C222.685 26.6785 222.646 27.1465 222.646 27.6318C222.646 28.8191 222.854 29.7161 223.27 30.3228C223.686 30.9208 224.37 31.2198 225.324 31.2198C225.757 31.2198 226.134 31.1288 226.455 30.9468C226.775 30.7561 227.04 30.5005 227.248 30.1798C227.456 29.8505 227.612 29.4691 227.716 29.0358C227.82 28.5938 227.872 28.1215 227.872 27.6188ZM92.1979 41.7338L92.0159 39.0948H92.9649L92.7959 41.7338H92.1979ZM90.8069 41.7338L90.6249 39.0948H91.5869L91.3919 41.7338H90.8069ZM100.134 41.0058H99.2889V39.9008H96.0129V42.7738H98.1189C98.6216 42.7738 99.0549 42.8388 99.4189 42.9688C99.7829 43.0988 100.082 43.2765 100.316 43.5018C100.55 43.7271 100.723 43.9958 100.836 44.3078C100.949 44.6111 101.005 44.9405 101.005 45.2958C101.005 45.7378 100.936 46.1278 100.797 46.4658C100.667 46.7951 100.481 47.0768 100.238 47.3108C99.9952 47.5361 99.7092 47.7095 99.3799 47.8308C99.0592 47.9435 98.7039 47.9998 98.3139 47.9998H94.0889V47.2068H94.9209V39.9008H94.0889V39.1078H100.134V41.0058ZM96.0129 43.5668V47.2068H98.1709C98.4136 47.2068 98.6389 47.1678 98.8469 47.0898C99.0549 47.0031 99.2369 46.8818 99.3929 46.7258C99.5489 46.5611 99.6702 46.3661 99.7569 46.1408C99.8522 45.9068 99.8999 45.6381 99.8999 45.3348C99.8999 45.0141 99.8479 44.7411 99.7439 44.5158C99.6399 44.2905 99.5012 44.1085 99.3279 43.9698C99.1546 43.8311 98.9509 43.7315 98.7169 43.6708C98.4916 43.6015 98.2532 43.5668 98.0019 43.5668H96.0129ZM105.148 45.8938L106.279 42.4358H105.473V41.6558H107.956V42.4358H107.306L105.07 49.0008C104.992 49.2348 104.91 49.4601 104.823 49.6768C104.737 49.8935 104.624 50.0841 104.485 50.2488C104.347 50.4135 104.173 50.5435 103.965 50.6388C103.757 50.7341 103.484 50.7818 103.146 50.7818C103.042 50.7818 102.886 50.7688 102.678 50.7428C102.47 50.7255 102.193 50.6648 101.846 50.5608L102.002 49.8198C102.202 49.8631 102.388 49.8978 102.561 49.9238C102.743 49.9498 102.908 49.9628 103.055 49.9628C103.359 49.9628 103.593 49.8458 103.757 49.6118C103.931 49.3865 104.078 49.0918 104.199 48.7278L104.446 47.9608H103.926C103.623 47.0421 103.32 46.1278 103.016 45.2178C102.722 44.2991 102.423 43.3805 102.119 42.4618H101.469V41.6558H102.938L104.251 45.9068L104.641 47.2588H104.706L105.148 45.8938ZM111.859 41.6558H114.251V42.4878H113.523L112.015 44.6588L113.601 47.1938H114.485V47.9998H111.911V47.1938H112.392L111.3 45.3348L110.143 47.1938H110.715V47.9998H108.297V47.1938H108.947L110.702 44.6458L109.402 42.4878H108.44V41.6558H110.039L111.391 44.0088L112.366 42.4878H111.846L111.859 41.6558ZM115.008 47.9998V47.2328H115.684V42.4098H115.047V41.6558H120.026V43.5148H119.246V42.4098H116.724V47.2328H117.686V47.9998H115.008ZM122.821 45.0748C122.405 45.1008 122.089 45.2178 121.872 45.4258C121.656 45.6251 121.547 45.8765 121.547 46.1798C121.547 46.5525 121.638 46.8255 121.82 46.9988C122.002 47.1635 122.301 47.2458 122.717 47.2458C122.986 47.2458 123.272 47.1765 123.575 47.0378C123.887 46.8991 124.165 46.7171 124.407 46.4918V44.9708L122.821 45.0748ZM125.434 47.1938H126.435L126.5 47.8048C126.422 47.8481 126.327 47.8871 126.214 47.9218C126.102 47.9478 125.985 47.9738 125.863 47.9998C125.742 48.0171 125.625 48.0301 125.512 48.0388C125.408 48.0561 125.317 48.0648 125.239 48.0648C124.997 48.0648 124.806 48.0171 124.667 47.9218C124.529 47.8265 124.455 47.6141 124.446 47.2848C124.438 47.2848 124.433 47.2848 124.433 47.2848C124.433 47.2761 124.429 47.2718 124.42 47.2718C124.178 47.4798 123.948 47.6401 123.731 47.7528C123.515 47.8655 123.311 47.9478 123.12 47.9998C122.938 48.0518 122.774 48.0821 122.626 48.0908C122.479 48.0995 122.358 48.1038 122.262 48.1038C121.898 48.1038 121.595 48.0431 121.352 47.9218C121.118 47.8005 120.932 47.6488 120.793 47.4668C120.655 47.2848 120.559 47.0898 120.507 46.8818C120.455 46.6651 120.429 46.4658 120.429 46.2838C120.429 45.7378 120.624 45.3001 121.014 44.9708C121.413 44.6328 122.011 44.4378 122.808 44.3858L124.42 44.2818V43.8658C124.42 43.3198 124.325 42.9428 124.134 42.7348C123.944 42.5268 123.588 42.4228 123.068 42.4228C122.756 42.4228 122.431 42.4531 122.093 42.5138C121.764 42.5745 121.439 42.6611 121.118 42.7738C121.075 42.6525 121.036 42.5355 121.001 42.4228C120.967 42.3015 120.932 42.1801 120.897 42.0588C121.261 41.8941 121.656 41.7685 122.08 41.6818C122.505 41.5951 122.917 41.5518 123.315 41.5518C123.983 41.5518 124.503 41.7078 124.875 42.0198C125.248 42.3318 125.434 42.8778 125.434 43.6578V47.1938ZM130.747 47.9998V47.2328H131.54V42.4098H129.46V42.9558C129.46 43.6405 129.438 44.2775 129.395 44.8668C129.36 45.4561 129.265 45.9848 129.109 46.4528C128.961 46.9121 128.736 47.3021 128.433 47.6228C128.138 47.9348 127.726 48.1558 127.198 48.2858L126.873 47.4668C127.219 47.3021 127.497 47.1071 127.705 46.8818C127.913 46.6478 128.073 46.3618 128.186 46.0238C128.298 45.6771 128.368 45.2698 128.394 44.8018C128.428 44.3251 128.446 43.7661 128.446 43.1248V42.4098H127.458V41.6558H132.593V47.2328H133.399V47.9998H130.747ZM135.464 47.2328H136.283V42.4098H134.827V43.3068H134.047V41.6558H139.546V43.3068H138.766V42.4098H137.323V47.2328H138.181V47.9998H135.464V47.2328ZM142.84 42.3448C142.562 42.3448 142.32 42.4011 142.112 42.5138C141.912 42.6178 141.748 42.7608 141.618 42.9428C141.488 43.1161 141.388 43.3241 141.319 43.5668C141.249 43.8008 141.206 44.0478 141.189 44.3078H144.348C144.339 44.0305 144.309 43.7748 144.257 43.5408C144.213 43.2981 144.131 43.0901 144.01 42.9168C143.897 42.7348 143.745 42.5961 143.555 42.5008C143.364 42.3968 143.126 42.3448 142.84 42.3448ZM142.853 41.5128C143.26 41.5128 143.607 41.5691 143.893 41.6818C144.179 41.7945 144.413 41.9418 144.595 42.1238C144.785 42.3058 144.933 42.5095 145.037 42.7348C145.141 42.9601 145.219 43.1855 145.271 43.4108C145.323 43.6361 145.353 43.8485 145.362 44.0478C145.37 44.2471 145.375 44.4118 145.375 44.5418V45.1138H141.163C141.163 45.4171 141.189 45.6988 141.241 45.9588C141.293 46.2188 141.384 46.4485 141.514 46.6478C141.652 46.8385 141.834 46.9901 142.06 47.1028C142.294 47.2155 142.588 47.2718 142.944 47.2718C143.316 47.2718 143.65 47.2371 143.945 47.1678C144.248 47.0898 144.582 46.9771 144.946 46.8298L145.232 47.5188C144.85 47.7181 144.465 47.8655 144.075 47.9608C143.693 48.0561 143.29 48.1038 142.866 48.1038C142.302 48.1038 141.839 48.0128 141.475 47.8308C141.111 47.6488 140.825 47.4061 140.617 47.1028C140.409 46.7995 140.266 46.4528 140.188 46.0628C140.11 45.6728 140.071 45.2655 140.071 44.8408C140.071 44.5548 140.105 44.2211 140.175 43.8398C140.244 43.4585 140.378 43.0988 140.578 42.7608C140.777 42.4141 141.059 42.1195 141.423 41.8768C141.787 41.6341 142.263 41.5128 142.853 41.5128ZM146.029 49.8978H147.017V42.4878H146.029V41.6688H148.018V42.2668L148.044 42.2798C148.296 42.0805 148.599 41.9158 148.954 41.7858C149.318 41.6471 149.669 41.5778 150.007 41.5778C150.458 41.5778 150.835 41.6645 151.138 41.8378C151.45 42.0025 151.702 42.2278 151.892 42.5138C152.083 42.7998 152.217 43.1335 152.295 43.5148C152.373 43.8961 152.412 44.2991 152.412 44.7238C152.412 45.2091 152.365 45.6598 152.269 46.0758C152.183 46.4918 152.035 46.8515 151.827 47.1548C151.628 47.4581 151.364 47.6965 151.034 47.8698C150.705 48.0431 150.306 48.1298 149.838 48.1298C149.596 48.1298 149.318 48.0995 149.006 48.0388C148.694 47.9781 148.387 47.8655 148.083 47.7008V49.8978H149.149V50.7168H146.029V49.8978ZM149.682 47.2328C149.899 47.2328 150.107 47.1981 150.306 47.1288C150.506 47.0508 150.679 46.9208 150.826 46.7388C150.982 46.5481 151.104 46.2925 151.19 45.9718C151.277 45.6425 151.32 45.2265 151.32 44.7238C151.32 44.2818 151.281 43.9221 151.203 43.6448C151.125 43.3588 151.017 43.1335 150.878 42.9688C150.748 42.7955 150.584 42.6785 150.384 42.6178C150.194 42.5485 149.981 42.5138 149.747 42.5138C149.591 42.5138 149.431 42.5355 149.266 42.5788C149.11 42.6135 148.954 42.6655 148.798 42.7348C148.651 42.7955 148.512 42.8648 148.382 42.9428C148.261 43.0121 148.161 43.0858 148.083 43.1638V46.7648C148.153 46.8168 148.248 46.8731 148.369 46.9338C148.491 46.9858 148.625 47.0335 148.772 47.0768C148.92 47.1201 149.071 47.1591 149.227 47.1938C149.383 47.2198 149.535 47.2328 149.682 47.2328ZM156.261 41.5128C156.981 41.5128 157.605 41.6255 158.133 41.8508V43.5278H157.327V42.5268C157.189 42.4835 157.041 42.4531 156.885 42.4358C156.729 42.4185 156.591 42.4098 156.469 42.4098C155.785 42.4098 155.278 42.6265 154.948 43.0598C154.628 43.4931 154.467 44.1041 154.467 44.8928C154.467 45.6295 154.602 46.2058 154.87 46.6218C155.148 47.0291 155.611 47.2328 156.261 47.2328C156.591 47.2328 156.903 47.2025 157.197 47.1418C157.492 47.0725 157.804 46.9728 158.133 46.8428L158.393 47.5838C158.116 47.7398 157.782 47.8655 157.392 47.9608C157.002 48.0561 156.599 48.1038 156.183 48.1038C155.646 48.1038 155.2 48.0215 154.844 47.8568C154.489 47.6921 154.203 47.4668 153.986 47.1808C153.77 46.8948 153.614 46.5568 153.518 46.1668C153.432 45.7768 153.388 45.3565 153.388 44.9058C153.388 44.5678 153.427 44.2038 153.505 43.8138C153.583 43.4151 153.726 43.0468 153.934 42.7088C154.142 42.3621 154.433 42.0761 154.805 41.8508C155.178 41.6255 155.663 41.5128 156.261 41.5128ZM159.123 47.2328H160.007V42.4098H158.993V41.6558H161.06V47.2328H161.918V47.9998H159.123V47.2328ZM164.362 47.2458L165.272 47.3498V47.8958C165.15 47.9651 164.994 48.0171 164.804 48.0518C164.622 48.0865 164.466 48.1038 164.336 48.1038C164.162 48.1038 164.011 48.0778 163.881 48.0258C163.759 47.9738 163.638 47.8698 163.517 47.7138L161.294 44.7888V44.5808L163.413 41.9678C163.534 41.7945 163.655 41.6818 163.777 41.6298C163.907 41.5778 164.054 41.5518 164.219 41.5518C164.366 41.5518 164.518 41.5735 164.674 41.6168C164.838 41.6515 164.973 41.7035 165.077 41.7728L165.025 42.3448L164.219 42.3968L162.334 44.6328L164.362 47.2458ZM170.791 43.1508C170.774 43.1855 170.687 43.3241 170.531 43.5668C170.375 43.8008 170.189 44.0911 169.972 44.4378C169.755 44.7758 169.517 45.1441 169.257 45.5428C169.006 45.9415 168.767 46.3141 168.542 46.6608C168.325 47.0075 168.135 47.3065 167.97 47.5578C167.814 47.8091 167.719 47.9565 167.684 47.9998H166.696V42.4228H165.773V41.6558H167.736V46.4788H167.788C167.892 46.3228 167.992 46.1625 168.087 45.9978C168.182 45.8331 168.282 45.6728 168.386 45.5168L169.751 43.4108L170.869 41.6558H171.883C171.883 42.5831 171.883 43.5061 171.883 44.4248C171.892 45.3435 171.896 46.2665 171.896 47.1938H172.819V47.8308C172.646 47.9088 172.455 47.9651 172.247 47.9998C172.048 48.0431 171.874 48.0648 171.727 48.0648C171.432 48.0648 171.207 47.9911 171.051 47.8438C170.904 47.6878 170.83 47.4755 170.83 47.2068V43.1508H170.791ZM176.394 42.3448C176.116 42.3448 175.874 42.4011 175.666 42.5138C175.466 42.6178 175.302 42.7608 175.172 42.9428C175.042 43.1161 174.942 43.3241 174.873 43.5668C174.803 43.8008 174.76 44.0478 174.743 44.3078H177.902C177.893 44.0305 177.863 43.7748 177.811 43.5408C177.767 43.2981 177.685 43.0901 177.564 42.9168C177.451 42.7348 177.299 42.5961 177.109 42.5008C176.918 42.3968 176.68 42.3448 176.394 42.3448ZM176.407 41.5128C176.814 41.5128 177.161 41.5691 177.447 41.6818C177.733 41.7945 177.967 41.9418 178.149 42.1238C178.339 42.3058 178.487 42.5095 178.591 42.7348C178.695 42.9601 178.773 43.1855 178.825 43.4108C178.877 43.6361 178.907 43.8485 178.916 44.0478C178.924 44.2471 178.929 44.4118 178.929 44.5418V45.1138H174.717C174.717 45.4171 174.743 45.6988 174.795 45.9588C174.847 46.2188 174.938 46.4485 175.068 46.6478C175.206 46.8385 175.388 46.9901 175.614 47.1028C175.848 47.2155 176.142 47.2718 176.498 47.2718C176.87 47.2718 177.204 47.2371 177.499 47.1678C177.802 47.0898 178.136 46.9771 178.5 46.8298L178.786 47.5188C178.404 47.7181 178.019 47.8655 177.629 47.9608C177.247 48.0561 176.844 48.1038 176.42 48.1038C175.856 48.1038 175.393 48.0128 175.029 47.8308C174.665 47.6488 174.379 47.4061 174.171 47.1028C173.963 46.7995 173.82 46.4528 173.742 46.0628C173.664 45.6728 173.625 45.2655 173.625 44.8408C173.625 44.5548 173.659 44.2211 173.729 43.8398C173.798 43.4585 173.932 43.0988 174.132 42.7608C174.331 42.4141 174.613 42.1195 174.977 41.8768C175.341 41.6341 175.817 41.5128 176.407 41.5128ZM184.633 47.2328H185.452V42.4098H183.996V43.3068H183.216V41.6558H188.715V43.3068H187.935V42.4098H186.492V47.2328H187.35V47.9998H184.633V47.2328ZM192.009 42.3448C191.731 42.3448 191.489 42.4011 191.281 42.5138C191.081 42.6178 190.917 42.7608 190.787 42.9428C190.657 43.1161 190.557 43.3241 190.488 43.5668C190.418 43.8008 190.375 44.0478 190.358 44.3078H193.517C193.508 44.0305 193.478 43.7748 193.426 43.5408C193.382 43.2981 193.3 43.0901 193.179 42.9168C193.066 42.7348 192.914 42.5961 192.724 42.5008C192.533 42.3968 192.295 42.3448 192.009 42.3448ZM192.022 41.5128C192.429 41.5128 192.776 41.5691 193.062 41.6818C193.348 41.7945 193.582 41.9418 193.764 42.1238C193.954 42.3058 194.102 42.5095 194.206 42.7348C194.31 42.9601 194.388 43.1855 194.44 43.4108C194.492 43.6361 194.522 43.8485 194.531 44.0478C194.539 44.2471 194.544 44.4118 194.544 44.5418V45.1138H190.332C190.332 45.4171 190.358 45.6988 190.41 45.9588C190.462 46.2188 190.553 46.4485 190.683 46.6478C190.821 46.8385 191.003 46.9901 191.229 47.1028C191.463 47.2155 191.757 47.2718 192.113 47.2718C192.485 47.2718 192.819 47.2371 193.114 47.1678C193.417 47.0898 193.751 46.9771 194.115 46.8298L194.401 47.5188C194.019 47.7181 193.634 47.8655 193.244 47.9608C192.862 48.0561 192.459 48.1038 192.035 48.1038C191.471 48.1038 191.008 48.0128 190.644 47.8308C190.28 47.6488 189.994 47.4061 189.786 47.1028C189.578 46.7995 189.435 46.4528 189.357 46.0628C189.279 45.6728 189.24 45.2655 189.24 44.8408C189.24 44.5548 189.274 44.2211 189.344 43.8398C189.413 43.4585 189.547 43.0988 189.747 42.7608C189.946 42.4141 190.228 42.1195 190.592 41.8768C190.956 41.6341 191.432 41.5128 192.022 41.5128ZM198.682 41.6558H201.074V42.4878H200.346L198.838 44.6588L200.424 47.1938H201.308V47.9998H198.734V47.1938H199.215L198.123 45.3348L196.966 47.1938H197.538V47.9998H195.12V47.1938H195.77L197.525 44.6458L196.225 42.4878H195.263V41.6558H196.862L198.214 44.0088L199.189 42.4878H198.669L198.682 41.6558ZM207.616 41.6558V47.1938H208.552V47.8308C208.379 47.9088 208.188 47.9695 207.98 48.0128C207.781 48.0561 207.603 48.0778 207.447 48.0778C207.144 48.0778 206.919 48.0171 206.771 47.8958C206.633 47.7658 206.563 47.5231 206.563 47.1678V45.0228H203.495V47.9998H202.442V42.4098H201.597V41.6558H203.508V44.2818H206.563V41.6558H207.616ZM214.812 44.8408C214.812 45.2481 214.765 45.6468 214.669 46.0368C214.583 46.4268 214.427 46.7778 214.201 47.0898C213.985 47.3931 213.69 47.6401 213.317 47.8308C212.953 48.0128 212.494 48.1038 211.939 48.1038C211.419 48.1038 210.986 48.0171 210.639 47.8438C210.293 47.6618 210.011 47.4235 209.794 47.1288C209.586 46.8341 209.435 46.4918 209.339 46.1018C209.253 45.7118 209.209 45.3001 209.209 44.8668C209.209 44.4421 209.261 44.0305 209.365 43.6318C209.469 43.2331 209.634 42.8778 209.859 42.5658C210.085 42.2538 210.375 42.0025 210.73 41.8118C211.094 41.6211 211.536 41.5258 212.056 41.5258C212.585 41.5258 213.027 41.6211 213.382 41.8118C213.738 42.0025 214.019 42.2538 214.227 42.5658C214.444 42.8691 214.596 43.2201 214.682 43.6188C214.769 44.0175 214.812 44.4248 214.812 44.8408ZM213.72 44.8668C213.72 44.5895 213.699 44.3035 213.655 44.0088C213.612 43.7141 213.53 43.4498 213.408 43.2158C213.296 42.9731 213.131 42.7738 212.914 42.6178C212.706 42.4618 212.433 42.3838 212.095 42.3838C211.74 42.3838 211.445 42.4575 211.211 42.6048C210.986 42.7521 210.804 42.9428 210.665 43.1768C210.535 43.4108 210.444 43.6751 210.392 43.9698C210.34 44.2645 210.314 44.5635 210.314 44.8668C210.314 45.1788 210.332 45.4821 210.366 45.7768C210.41 46.0628 210.492 46.3185 210.613 46.5438C210.743 46.7605 210.921 46.9338 211.146 47.0638C211.372 47.1938 211.671 47.2588 212.043 47.2588C212.39 47.2588 212.672 47.1895 212.888 47.0508C213.105 46.9035 213.274 46.7171 213.395 46.4918C213.517 46.2665 213.599 46.0108 213.642 45.7248C213.694 45.4388 213.72 45.1528 213.72 44.8668ZM219.005 47.9998V47.2328H219.798V42.4098H217.718V42.9558C217.718 43.6405 217.696 44.2775 217.653 44.8668C217.618 45.4561 217.523 45.9848 217.367 46.4528C217.219 46.9121 216.994 47.3021 216.691 47.6228C216.396 47.9348 215.984 48.1558 215.456 48.2858L215.131 47.4668C215.477 47.3021 215.755 47.1071 215.963 46.8818C216.171 46.6478 216.331 46.3618 216.444 46.0238C216.556 45.6771 216.626 45.2698 216.652 44.8018C216.686 44.3251 216.704 43.7661 216.704 43.1248V42.4098H215.716V41.6558H220.851V47.2328H221.657V47.9998H219.005ZM228.168 44.8408C228.168 45.2481 228.12 45.6468 228.025 46.0368C227.938 46.4268 227.782 46.7778 227.557 47.0898C227.34 47.3931 227.046 47.6401 226.673 47.8308C226.309 48.0128 225.85 48.1038 225.295 48.1038C224.775 48.1038 224.342 48.0171 223.995 47.8438C223.648 47.6618 223.367 47.4235 223.15 47.1288C222.942 46.8341 222.79 46.4918 222.695 46.1018C222.608 45.7118 222.565 45.3001 222.565 44.8668C222.565 44.4421 222.617 44.0305 222.721 43.6318C222.825 43.2331 222.99 42.8778 223.215 42.5658C223.44 42.2538 223.731 42.0025 224.086 41.8118C224.45 41.6211 224.892 41.5258 225.412 41.5258C225.941 41.5258 226.383 41.6211 226.738 41.8118C227.093 42.0025 227.375 42.2538 227.583 42.5658C227.8 42.8691 227.951 43.2201 228.038 43.6188C228.125 44.0175 228.168 44.4248 228.168 44.8408ZM227.076 44.8668C227.076 44.5895 227.054 44.3035 227.011 44.0088C226.968 43.7141 226.885 43.4498 226.764 43.2158C226.651 42.9731 226.487 42.7738 226.27 42.6178C226.062 42.4618 225.789 42.3838 225.451 42.3838C225.096 42.3838 224.801 42.4575 224.567 42.6048C224.342 42.7521 224.16 42.9428 224.021 43.1768C223.891 43.4108 223.8 43.6751 223.748 43.9698C223.696 44.2645 223.67 44.5635 223.67 44.8668C223.67 45.1788 223.687 45.4821 223.722 45.7768C223.765 46.0628 223.848 46.3185 223.969 46.5438C224.099 46.7605 224.277 46.9338 224.502 47.0638C224.727 47.1938 225.026 47.2588 225.399 47.2588C225.746 47.2588 226.027 47.1895 226.244 47.0508C226.461 46.9035 226.63 46.7171 226.751 46.4918C226.872 46.2665 226.955 46.0108 226.998 45.7248C227.05 45.4388 227.076 45.1528 227.076 44.8668ZM229.114 47.9998V47.2328H229.79V42.4098H229.153V41.6558H234.132V43.5148H233.352V42.4098H230.83V47.2328H231.792V47.9998H229.114ZM239.638 43.1508C239.62 43.1855 239.534 43.3241 239.378 43.5668C239.222 43.8008 239.035 44.0911 238.819 44.4378C238.602 44.7758 238.364 45.1441 238.104 45.5428C237.852 45.9415 237.614 46.3141 237.389 46.6608C237.172 47.0075 236.981 47.3065 236.817 47.5578C236.661 47.8091 236.565 47.9565 236.531 47.9998H235.543V42.4228H234.62V41.6558H236.583V46.4788H236.635C236.739 46.3228 236.838 46.1625 236.934 45.9978C237.029 45.8331 237.129 45.6728 237.233 45.5168L238.598 43.4108L239.716 41.6558H240.73C240.73 42.5831 240.73 43.5061 240.73 44.4248C240.738 45.3435 240.743 46.2665 240.743 47.1938H241.666V47.8308C241.492 47.9088 241.302 47.9651 241.094 47.9998C240.894 48.0431 240.721 48.0648 240.574 48.0648C240.279 48.0648 240.054 47.9911 239.898 47.8438C239.75 47.6878 239.677 47.4755 239.677 47.2068V43.1508H239.638ZM247.242 43.1508C247.225 43.1855 247.138 43.3241 246.982 43.5668C246.826 43.8008 246.64 44.0911 246.423 44.4378C246.207 44.7758 245.968 45.1441 245.708 45.5428C245.457 45.9415 245.219 46.3141 244.993 46.6608C244.777 47.0075 244.586 47.3065 244.421 47.5578C244.265 47.8091 244.17 47.9565 244.135 47.9998H243.147V42.4228H242.224V41.6558H244.187V46.4788H244.239C244.343 46.3228 244.443 46.1625 244.538 45.9978C244.634 45.8331 244.733 45.6728 244.837 45.5168L246.202 43.4108L247.32 41.6558H248.334C248.334 42.5831 248.334 43.5061 248.334 44.4248C248.343 45.3435 248.347 46.2665 248.347 47.1938H249.27V47.8308C249.097 47.9088 248.906 47.9651 248.698 47.9998C248.499 48.0431 248.326 48.0648 248.178 48.0648C247.884 48.0648 247.658 47.9911 247.502 47.8438C247.355 47.6878 247.281 47.4755 247.281 47.2068V43.1508H247.242ZM251.753 41.7338L251.571 39.0948H252.52L252.351 41.7338H251.753ZM250.362 41.7338L250.18 39.0948H251.142L250.947 41.7338H250.362Z" fill="#251C23"></path></g><defs><linearGradient id="paint0_linear" x1="52.3472" y1="14.8555" x2="52.3472" y2="45.0814" gradientUnits="userSpaceOnUse"><stop stop-color="#F8044F"></stop><stop offset="1" stop-color="#B02B54"></stop></linearGradient><linearGradient id="paint1_linear" x1="55.7897" y1="2.03052e-08" x2="55.7897" y2="59.98" gradientUnits="userSpaceOnUse"><stop stop-color="#F8044F"></stop><stop offset="1" stop-color="#B02B54"></stop></linearGradient><linearGradient id="paint2_linear" x1="40.2699" y1="4.86328" x2="40.2699" y2="55.0146" gradientUnits="userSpaceOnUse"><stop stop-color="#F8044F"></stop><stop offset="1" stop-color="#B02B54"></stop></linearGradient><clipPath id="clip0"><rect width="247" height="60" fill="white" transform="translate(20)"></rect></clipPath></defs></svg>