<svg xmlns="http://www.w3.org/2000/svg" width="257" height="60" viewBox="0 0 257 60" fill="none"><g clip-path="url(#clip0)"><path d="M65.0244 26.906C65.3844 26.906 65.6844 26.81 65.9364 26.594C66.2004 26.378 66.3444 26.114 66.3684 25.802H67.2924C67.2804 26.126 67.1724 26.438 66.9564 26.738C66.7524 27.038 66.4764 27.266 66.1164 27.446C65.7804 27.614 65.4084 27.71 65.0364 27.71C64.2444 27.71 63.6324 27.446 63.1764 26.93C62.6901 26.3322 62.4421 25.5756 62.4804 24.806V24.638C62.4804 24.086 62.5884 23.594 62.7924 23.162C62.9857 22.7374 63.3015 22.3804 63.6992 22.1366C64.0969 21.8929 64.5584 21.7736 65.0244 21.794C65.6604 21.794 66.1884 21.986 66.6204 22.37C67.0404 22.754 67.2684 23.246 67.2924 23.858H66.3684C66.3528 23.5142 66.2036 23.1901 65.9526 22.9547C65.7015 22.7194 65.3685 22.5914 65.0244 22.598C64.5204 22.598 64.1364 22.766 63.8724 23.126C63.5964 23.486 63.4644 24.002 63.4644 24.686V24.854C63.4644 25.514 63.5964 26.018 63.8724 26.378C64.1364 26.738 64.5204 26.906 65.0244 26.906ZM68.1444 24.698C68.1444 24.134 68.2404 23.63 68.4564 23.186C68.6844 22.742 68.9844 22.394 69.3804 22.154C69.7764 21.914 70.2204 21.794 70.7244 21.794C71.0783 21.7807 71.4308 21.8459 71.7565 21.9849C72.0822 22.1239 72.3732 22.3333 72.6084 22.598C73.0884 23.138 73.3284 23.846 73.3284 24.746V24.818C73.3284 25.37 73.2204 25.862 73.0044 26.306C72.8069 26.74 72.4845 27.1054 72.0784 27.3555C71.6723 27.6055 71.2009 27.729 70.7244 27.71C70.3725 27.7215 70.0224 27.6554 69.6989 27.5165C69.3753 27.3775 69.0864 27.1691 68.8524 26.906C68.3724 26.366 68.1324 25.646 68.1324 24.77V24.698H68.1444ZM69.1044 24.818C69.1044 25.442 69.2604 25.958 69.5484 26.342C69.8484 26.714 70.2444 26.906 70.7364 26.906C71.2284 26.906 71.6244 26.714 71.9124 26.33C72.2004 25.946 72.3564 25.394 72.3564 24.698C72.3564 24.074 72.2004 23.57 71.9004 23.174C71.766 22.9896 71.5886 22.8408 71.3837 22.7405C71.1788 22.6401 70.9525 22.5912 70.7244 22.598C70.2444 22.598 69.8484 22.778 69.5604 23.162C69.2323 23.6492 69.0761 24.2319 69.1164 24.818H69.1044ZM77.6844 23.462C77.6844 23.186 77.5884 22.982 77.3844 22.826C77.1804 22.67 76.9044 22.586 76.5444 22.586C76.1964 22.586 75.9084 22.682 75.6804 22.85C75.4404 23.03 75.3324 23.246 75.3324 23.486H74.3724C74.3724 22.994 74.5764 22.586 74.9844 22.274C75.4044 21.95 75.9204 21.794 76.5444 21.794C77.2164 21.794 77.7324 21.938 78.1044 22.226C78.4764 22.514 78.6684 22.922 78.6684 23.45C78.6684 23.714 78.5844 23.942 78.4284 24.158C78.2724 24.374 78.0684 24.542 77.7684 24.674C78.4404 24.89 78.7644 25.334 78.7644 25.994C78.7644 26.522 78.5724 26.942 78.1644 27.242C77.7564 27.554 77.2164 27.698 76.5444 27.698C75.8844 27.698 75.3444 27.542 74.9124 27.218C74.7081 27.068 74.5435 26.8705 74.4327 26.6426C74.3218 26.4147 74.2682 26.1633 74.2764 25.91H75.2364C75.2364 26.198 75.3684 26.426 75.6204 26.63C75.8604 26.834 76.1724 26.93 76.5444 26.93C76.9164 26.93 77.2164 26.846 77.4444 26.666C77.5531 26.5911 77.6417 26.4907 77.7024 26.3735C77.7631 26.2563 77.794 26.1259 77.7924 25.994C77.7924 25.682 77.6964 25.454 77.5044 25.31C77.3124 25.178 77.0124 25.106 76.6044 25.106H75.6324V24.278H76.6884C77.3604 24.266 77.6844 23.99 77.6844 23.462ZM80.0004 26.81L80.3364 26.39C80.7204 25.898 80.9364 25.154 80.9844 24.17L81.0804 21.89H84.7524V26.81H85.4844V29.282H84.5124V27.602H80.5284V29.282H79.5564V26.81H80.0004ZM81.1524 26.81H83.7804V22.802H82.0164L81.9564 24.158C81.9576 25.0984 81.6777 26.0178 81.1524 26.798V26.81ZM90.0924 27.602C90.0143 27.4104 89.9657 27.2081 89.9484 27.002C89.4924 27.482 88.9524 27.71 88.3284 27.71C87.8208 27.7288 87.3245 27.5577 86.9364 27.23C86.7644 27.0814 86.627 26.897 86.5337 26.6897C86.4404 26.4824 86.3936 26.2573 86.3964 26.03C86.3964 25.43 86.6364 24.962 87.0804 24.638C87.5364 24.302 88.1604 24.146 88.9884 24.146H89.9364V23.69C89.9424 23.5417 89.9178 23.3938 89.8641 23.2555C89.8105 23.1171 89.7289 22.9914 89.6244 22.886C89.4204 22.682 89.1204 22.574 88.7244 22.574C88.3764 22.574 88.0884 22.67 87.8484 22.838C87.6084 23.018 87.4884 23.234 87.4884 23.474H86.5284C86.5284 23.198 86.6124 22.922 86.8164 22.658C87.0204 22.394 87.2964 22.178 87.6444 22.022C87.9924 21.866 88.3644 21.782 88.7844 21.782C89.4444 21.782 89.9604 21.95 90.3324 22.286C90.6924 22.61 90.8964 23.066 90.9084 23.642V26.27C90.9084 26.786 90.9804 27.206 91.1124 27.518V27.602H90.0924ZM88.4724 26.858C88.7724 26.858 89.0724 26.774 89.3364 26.618C89.6124 26.462 89.8164 26.258 89.9364 26.006V24.83H89.1684C87.9684 24.83 87.3684 25.19 87.3684 25.886C87.3684 26.186 87.4884 26.426 87.6804 26.606C87.8844 26.774 88.1604 26.858 88.4724 26.858ZM97.1124 27.602H96.1284V25.166H93.5004V27.602H92.5284V21.902H93.5004V24.374H96.1284V21.902H97.1004V27.602H97.1124ZM102.368 21.902H103.34V27.602H102.368V23.438L99.7164 27.602H98.7564V21.902H99.7164V26.066L102.356 21.902H102.368ZM107.276 27.71C106.496 27.71 105.872 27.458 105.38 26.954C104.9 26.438 104.66 25.754 104.66 24.914V24.722C104.66 24.158 104.768 23.654 104.984 23.21C105.2 22.766 105.5 22.418 105.884 22.166C106.262 21.9188 106.705 21.7893 107.156 21.794C107.9 21.794 108.476 22.034 108.884 22.514C109.292 23.018 109.496 23.714 109.496 24.626V25.034H105.632C105.644 25.586 105.812 26.042 106.124 26.39C106.436 26.75 106.844 26.906 107.324 26.906C107.672 26.906 107.96 26.846 108.2 26.702C108.44 26.558 108.656 26.378 108.824 26.138L109.424 26.606C109.195 26.9653 108.874 27.2569 108.494 27.451C108.115 27.645 107.69 27.7344 107.264 27.71H107.276ZM107.156 22.598C106.76 22.598 106.436 22.742 106.16 23.03C105.896 23.306 105.728 23.714 105.668 24.23H108.524V24.158C108.526 23.7402 108.387 23.3342 108.128 23.006C107.888 22.73 107.564 22.598 107.156 22.598ZM115.82 22.226C116.54 22.226 117.104 22.466 117.536 22.946C117.968 23.426 118.184 24.05 118.184 24.842V24.926C118.184 25.466 118.076 25.946 117.872 26.366C117.668 26.798 117.368 27.122 116.972 27.362C116.588 27.602 116.144 27.71 115.64 27.71C115.295 27.7225 114.951 27.6603 114.633 27.5278C114.314 27.3952 114.027 27.1954 113.792 26.942C113.312 26.426 113.084 25.742 113.084 24.878V24.398C113.084 23.198 113.312 22.25 113.744 21.554C114.2 20.834 114.848 20.414 115.724 20.258C116.204 20.174 116.552 20.066 116.72 19.934C116.888 19.814 116.972 19.634 116.972 19.418H117.776C117.776 19.85 117.68 20.198 117.476 20.438C117.284 20.678 116.96 20.858 116.528 20.966L115.808 21.122C115.22 21.266 114.788 21.494 114.488 21.818C114.2 22.142 114.008 22.574 113.924 23.114C114.153 22.8323 114.442 22.6061 114.77 22.4523C115.099 22.2985 115.458 22.2211 115.82 22.226ZM115.628 23.03C115.148 23.03 114.764 23.186 114.488 23.51C114.212 23.834 114.068 24.278 114.068 24.842V24.926C114.068 25.538 114.212 26.03 114.488 26.378C114.776 26.738 115.16 26.918 115.64 26.918C116.12 26.918 116.504 26.738 116.792 26.378C117.068 26.018 117.212 25.502 117.212 24.818C117.212 24.266 117.068 23.834 116.78 23.51C116.637 23.3487 116.459 23.2218 116.259 23.1387C116.06 23.0556 115.844 23.0184 115.628 23.03ZM122.876 21.902H123.848V27.602H122.888V23.438L120.224 27.602H119.252V21.902H120.212V26.066L122.852 21.902H122.876ZM128.552 23.462C128.552 23.186 128.456 22.982 128.252 22.826C128.048 22.67 127.772 22.586 127.412 22.586C127.064 22.586 126.776 22.682 126.548 22.85C126.32 23.03 126.2 23.246 126.2 23.486H125.24C125.24 22.994 125.444 22.586 125.852 22.274C126.272 21.95 126.788 21.794 127.412 21.794C128.084 21.794 128.612 21.938 128.972 22.226C129.344 22.514 129.536 22.922 129.536 23.45C129.536 23.714 129.452 23.942 129.296 24.158C129.152 24.374 128.936 24.542 128.636 24.674C129.308 24.89 129.644 25.334 129.644 25.994C129.644 26.522 129.44 26.942 129.032 27.242C128.624 27.554 128.084 27.698 127.412 27.698C126.752 27.698 126.212 27.542 125.78 27.218C125.576 27.068 125.411 26.8705 125.301 26.6426C125.19 26.4147 125.136 26.1633 125.144 25.91H126.116C126.116 26.198 126.236 26.426 126.476 26.63C126.74 26.834 127.04 26.93 127.412 26.93C127.784 26.93 128.084 26.846 128.312 26.666C128.552 26.498 128.66 26.27 128.66 25.994C128.66 25.682 128.564 25.454 128.372 25.31C128.18 25.178 127.892 25.106 127.472 25.106H126.512V24.278H127.556C128.228 24.266 128.552 23.99 128.552 23.462ZM135.56 27.602H134.6V25.166H131.96V27.602H131V21.902H131.96V24.374H134.6V21.902H135.56V27.602ZM139.508 27.71C138.728 27.71 138.104 27.458 137.612 26.954C137.132 26.438 136.892 25.754 136.892 24.914V24.722C136.892 24.158 137 23.654 137.216 23.21C137.432 22.766 137.732 22.418 138.116 22.166C138.494 21.9188 138.937 21.7893 139.388 21.794C140.12 21.794 140.708 22.034 141.116 22.514C141.524 23.018 141.728 23.714 141.728 24.626V25.034H137.864C137.876 25.586 138.044 26.042 138.356 26.39C138.668 26.75 139.076 26.906 139.556 26.906C139.904 26.906 140.192 26.846 140.432 26.702C140.672 26.558 140.888 26.378 141.056 26.138L141.656 26.606C141.427 26.9653 141.106 27.2569 140.726 27.451C140.347 27.645 139.922 27.7344 139.496 27.71H139.508ZM139.388 22.598C138.992 22.598 138.668 22.742 138.392 23.03C138.128 23.306 137.96 23.714 137.9 24.23H140.756V24.158C140.755 23.7388 140.611 23.3326 140.348 23.006C140.108 22.73 139.796 22.598 139.388 22.598ZM145.148 26.918C145.508 26.918 145.808 26.798 146.06 26.594C146.324 26.378 146.468 26.114 146.492 25.802H147.416C147.404 26.126 147.296 26.438 147.08 26.738C146.876 27.038 146.6 27.266 146.24 27.446C145.904 27.614 145.544 27.71 145.16 27.71C144.38 27.71 143.756 27.446 143.3 26.93C142.818 26.3305 142.575 25.5741 142.616 24.806V24.638C142.616 24.086 142.712 23.594 142.916 23.162C143.12 22.73 143.408 22.394 143.792 22.154C144.176 21.914 144.632 21.794 145.148 21.794C145.784 21.794 146.312 21.986 146.744 22.37C147.164 22.754 147.392 23.246 147.416 23.858H146.492C146.474 23.5152 146.324 23.1929 146.073 22.9582C145.823 22.7234 145.492 22.5944 145.148 22.598C144.656 22.598 144.272 22.766 143.996 23.126C143.72 23.486 143.588 24.002 143.588 24.686V24.854C143.588 25.514 143.72 26.018 143.996 26.378C144.26 26.738 144.656 26.906 145.148 26.906V26.918ZM152.036 27.602C151.988 27.482 151.94 27.29 151.904 27.002C151.448 27.482 150.908 27.71 150.284 27.71C149.777 27.7288 149.28 27.5577 148.892 27.23C148.72 27.0814 148.583 26.897 148.49 26.6897C148.396 26.4824 148.35 26.2573 148.352 26.03C148.352 25.43 148.58 24.962 149.024 24.638C149.48 24.302 150.116 24.146 150.944 24.146H151.892V23.69C151.898 23.5417 151.874 23.3938 151.82 23.2555C151.766 23.1171 151.685 22.9914 151.58 22.886C151.376 22.682 151.076 22.574 150.68 22.574C150.332 22.574 150.044 22.67 149.804 22.838C149.564 23.018 149.444 23.234 149.444 23.474H148.472C148.472 23.198 148.568 22.922 148.772 22.658C148.976 22.394 149.252 22.178 149.588 22.022C149.948 21.866 150.32 21.782 150.74 21.782C151.4 21.782 151.916 21.95 152.288 22.286C152.648 22.61 152.852 23.066 152.864 23.642V26.27C152.864 26.786 152.936 27.206 153.068 27.518V27.602H152.036ZM150.416 26.858C150.728 26.858 151.016 26.774 151.292 26.618C151.568 26.462 151.772 26.258 151.892 26.006V24.83H151.124C149.924 24.83 149.324 25.19 149.324 25.886C149.324 26.186 149.432 26.426 149.636 26.606C149.84 26.774 150.104 26.858 150.416 26.858ZM161.744 27.602H160.76V22.706H158.132V27.602H157.16V21.902H161.732V27.602H161.744ZM163.04 24.698C163.04 24.134 163.16 23.63 163.376 23.186C163.592 22.742 163.904 22.394 164.288 22.154C164.684 21.914 165.128 21.794 165.632 21.794C165.986 21.7807 166.339 21.8459 166.665 21.9849C166.99 22.1239 167.281 22.3333 167.516 22.598C167.996 23.138 168.236 23.846 168.236 24.746V24.818C168.236 25.37 168.128 25.862 167.912 26.306C167.719 26.7301 167.406 27.0887 167.012 27.338C166.616 27.578 166.16 27.698 165.644 27.698C165.291 27.7128 164.94 27.6494 164.614 27.5125C164.288 27.3756 163.997 27.1685 163.76 26.906C163.28 26.366 163.04 25.646 163.04 24.77V24.698ZM164.024 24.818C164.024 25.442 164.168 25.958 164.468 26.342C164.756 26.714 165.152 26.906 165.644 26.906C166.136 26.906 166.532 26.714 166.832 26.33C167.12 25.946 167.264 25.394 167.264 24.698C167.264 24.074 167.12 23.57 166.82 23.174C166.685 22.9879 166.506 22.8381 166.298 22.7376C166.091 22.6372 165.862 22.5892 165.632 22.598C165.152 22.598 164.768 22.778 164.468 23.162C164.14 23.6492 163.984 24.2319 164.024 24.818ZM169.04 26.81L169.376 26.39C169.748 25.898 169.976 25.154 170.024 24.17L170.108 21.89H173.792V26.81H174.512V29.282H173.552V27.602H169.568V29.282H168.584V26.81H169.04ZM170.192 26.81H172.808V22.802H171.056L170.996 24.158C170.998 25.0984 170.718 26.0178 170.192 26.798V26.81ZM180.056 25.166H179.336V27.602H178.376V21.902H179.336V24.302H179.984L181.904 21.902H183.08L180.824 24.638L183.272 27.602H182.036L180.056 25.166ZM188.792 21.902V27.602H187.808V22.706H185.864L185.744 24.842C185.684 25.814 185.528 26.522 185.264 26.942C185 27.362 184.568 27.59 183.992 27.602H183.608V26.738L183.884 26.726C184.208 26.69 184.424 26.498 184.568 26.174C184.7 25.838 184.796 25.226 184.832 24.338L184.94 21.902H188.78H188.792ZM191.432 24.314H192.788C192.834 23.6281 193.123 22.9811 193.604 22.49C193.836 22.2602 194.111 22.08 194.415 21.9604C194.718 21.8407 195.043 21.7841 195.368 21.794C195.709 21.7834 196.047 21.8454 196.362 21.9757C196.676 22.1061 196.959 22.3018 197.192 22.55C197.672 23.042 197.924 23.702 197.96 24.506L197.972 24.818C197.972 25.37 197.852 25.874 197.648 26.318C197.445 26.7469 197.121 27.1071 196.716 27.3544C196.311 27.6017 195.843 27.7253 195.368 27.71C195.035 27.7217 194.702 27.6638 194.392 27.5398C194.083 27.4158 193.802 27.2286 193.568 26.99C193.112 26.51 192.848 25.886 192.788 25.118H191.42V27.602H190.448V21.902H191.42V24.314H191.432ZM193.748 24.818C193.748 25.442 193.904 25.958 194.192 26.342C194.492 26.714 194.876 26.906 195.38 26.906C195.872 26.906 196.268 26.714 196.556 26.33C196.844 25.934 196.988 25.394 196.988 24.698C196.988 24.074 196.844 23.57 196.544 23.174C196.41 22.9896 196.233 22.8408 196.028 22.7405C195.823 22.6401 195.596 22.5912 195.368 22.598C194.888 22.598 194.492 22.778 194.192 23.162C193.864 23.6492 193.708 24.2319 193.748 24.818ZM203.48 27.602H202.508V25.538C202.076 25.658 201.632 25.706 201.188 25.706C200.468 25.706 199.928 25.526 199.544 25.154C199.184 24.794 198.98 24.266 198.98 23.594V21.89H199.952V23.63C199.976 24.47 200.384 24.902 201.188 24.902C201.632 24.902 202.076 24.842 202.508 24.734V21.902H203.48V27.602Z" fill="#088876"></path><path fill-rule="evenodd" clip-rule="evenodd" d="M42.8 48.792L20 51.984V54.864L42.8 52.992V48.792ZM42.8 55.764L20 57.12V60H42.8V55.764ZM42.8 0L20 16.056V18.936L42.8 4.236V0ZM42.8 6.972V11.22L20 24.06V21.18L42.8 6.972ZM42.8 13.932V18.168L20 29.196V26.316L42.8 13.944V13.932ZM42.8 20.916L20 31.44V34.32L42.8 25.128V20.904V20.916ZM42.8 27.876L20 36.576V39.456L42.8 32.112V27.876ZM42.8 34.848V39.084L20 44.604V41.724L42.8 34.848ZM42.8 41.832V46.056L20 49.728V46.848L42.8 41.832Z" fill="#FF3600"></path><path fill-rule="evenodd" clip-rule="evenodd" d="M42.8008 48.792L54.8008 51.984V54.864L42.8008 52.992V48.792ZM42.8008 55.764L54.8008 57.12V60H42.8008V55.764ZM42.8008 0L54.8008 16.056V18.936L42.8008 4.236V0ZM42.8008 6.972V11.22L54.8008 24.06V21.18L42.8008 6.972ZM42.8008 13.932V18.168L54.8008 29.196V26.316L42.8008 13.944V13.932ZM42.8008 20.916L54.8008 31.452V34.332L42.8008 25.14V20.916ZM42.8008 27.876L54.8008 36.576V39.456L42.8008 32.112V27.876ZM42.8008 34.848V39.084L54.8008 44.604V41.724L42.8008 34.848ZM42.8008 41.832V46.056L54.8008 49.728V46.848L42.8008 41.832Z" fill="#088876"></path><path fill-rule="evenodd" clip-rule="evenodd" d="M125.684 36.1211H133.664V37.8611H125.684V36.1331V36.1211ZM125.684 43.9811H133.664V45.7211H125.684V43.9811ZM133.844 53.5571H125.48V51.8411H133.82V53.5571H133.844Z" fill="#FF3600"></path><path fill-rule="evenodd" clip-rule="evenodd" d="M256.4 53.5783H254.48V38.9143H249.92C249.404 43.0423 248.984 45.9703 248.672 47.6743C248.477 48.9632 248.167 50.2322 247.748 51.4663C247.508 52.1743 247.064 52.7863 246.476 53.2663C245.912 53.6623 245.24 53.8663 244.556 53.8543C244.004 53.8663 243.476 53.7823 242.948 53.6143V51.7903C243.344 52.0183 243.788 52.1263 244.244 52.1263C244.517 52.1038 244.781 52.0157 245.013 51.8694C245.245 51.7232 245.438 51.5232 245.576 51.2863C245.996 50.7223 246.416 49.2463 246.848 46.8703C247.28 44.5063 247.76 41.2903 248.288 37.1743H256.364L256.4 53.5783ZM242.192 53.7103H240.056L238.316 49.1023H231.356L229.712 53.7103H227.576L233.9 37.2943H235.892L242.216 53.7103H242.18H242.192ZM237.68 47.3863L235.1 40.3903C234.992 40.0303 234.908 39.6703 234.86 39.2863H234.8C234.74 39.6583 234.656 40.0303 234.536 40.3903L231.98 47.3863H237.668H237.68ZM226.004 39.0343H221.252V53.7103H219.332V39.0343H214.604V37.2943H226.004V39.0343ZM204.512 47.5063V53.7103H202.592V37.2943H207.104C208.58 37.1983 210.032 37.6543 211.184 38.5783C211.677 39.0383 212.062 39.602 212.311 40.2286C212.56 40.8553 212.667 41.5294 212.624 42.2023C212.648 42.9147 212.52 43.624 212.246 44.2824C211.973 44.9407 211.562 45.5327 211.04 46.0183C209.84 47.0503 208.28 47.5783 206.684 47.5063H204.524H204.512ZM204.512 39.0343V45.7543H206.54C207.62 45.8383 208.7 45.5143 209.564 44.8543C209.924 44.5322 210.205 44.1326 210.388 43.6857C210.571 43.2388 210.65 42.7562 210.62 42.2743C210.62 40.1023 209.336 39.0223 206.78 39.0223H204.512V39.0343ZM199.832 53.7103H197.696L195.956 49.1023H188.996L187.352 53.7103H185.216L191.504 37.2943H193.508L199.82 53.7103H199.832ZM195.332 47.3863L192.752 40.3903C192.632 40.0303 192.56 39.6703 192.512 39.2863H192.464C192.404 39.6703 192.32 40.0303 192.2 40.3903L189.644 47.3863H195.332ZM172.76 53.7103V37.2943H177.428C178.628 37.2343 179.828 37.6063 180.8 38.3383C181.197 38.6672 181.514 39.0826 181.726 39.5526C181.938 40.0226 182.04 40.5349 182.024 41.0503C182.034 41.9159 181.762 42.7613 181.249 43.4584C180.736 44.1556 180.009 44.6667 179.18 44.9143V44.9623C180.204 45.0507 181.161 45.5119 181.868 46.2583C182.552 47.0143 182.912 48.0103 182.864 49.0183C182.888 49.6657 182.764 50.31 182.502 50.9025C182.24 51.4951 181.847 52.0202 181.352 52.4383C180.285 53.3296 178.925 53.7916 177.536 53.7343L172.76 53.7103ZM174.68 46.0663V51.9703H177.284C178.232 52.0303 179.156 51.7423 179.924 51.1783C180.234 50.9033 180.478 50.5619 180.638 50.1797C180.798 49.7975 180.869 49.3841 180.848 48.9703C180.848 47.0383 179.528 46.0663 176.864 46.0663H174.68ZM174.68 39.0343V44.3383H176.648C177.548 44.3743 178.424 44.0983 179.132 43.5463C179.435 43.2774 179.673 42.9434 179.829 42.5694C179.985 42.1954 180.054 41.7909 180.032 41.3863C180.032 39.7903 178.988 38.9983 176.876 38.9983L174.68 39.0343ZM170.396 53.7103H167.708L161.36 46.2103C161.202 46.029 161.058 45.8365 160.928 45.6343H160.88V53.7103H158.96V37.2943H160.88V45.0103H160.928C161.06 44.8063 161.204 44.6263 161.36 44.4463L167.504 37.2703H169.904L162.86 45.1663L170.396 53.7103ZM148.4 53.0263C146.992 53.7079 145.439 54.0374 143.876 53.9863C142.837 54.0298 141.801 53.851 140.836 53.462C139.872 53.0729 139.002 52.4826 138.284 51.7303C136.835 50.1096 136.077 47.9864 136.172 45.8143C136.126 44.6458 136.315 43.48 136.727 42.3856C137.14 41.2912 137.767 40.2905 138.572 39.4423C139.352 38.649 140.287 38.0261 141.32 37.613C142.353 37.1999 143.46 37.0056 144.572 37.0423C145.896 36.9998 147.215 37.2285 148.448 37.7143V39.7663C147.475 39.2208 146.396 38.8902 145.284 38.7971C144.173 38.7039 143.054 38.8503 142.004 39.2263C141.224 39.5503 140.504 40.0543 139.928 40.6783C138.707 42.065 138.074 43.8729 138.164 45.7183C138.07 47.4708 138.659 49.1914 139.808 50.5183C140.357 51.1083 141.028 51.5724 141.774 51.879C142.519 52.1855 143.322 52.3272 144.128 52.2943C145.625 52.3293 147.103 51.9515 148.4 51.2023V53.0263ZM120.08 53.7103H118.148V46.2343H109.64V53.7103H107.72V37.2943H109.64V44.4943H118.148V37.2943H120.068V53.7103H120.08ZM93.7518 53.0263V50.9383C95.0154 51.8709 96.5495 52.3641 98.1198 52.3423C99.1292 52.4009 100.127 52.1037 100.94 51.5023C101.283 51.2224 101.556 50.8662 101.738 50.462C101.919 50.0578 102.003 49.6169 101.984 49.1743C101.984 47.0503 100.556 45.9943 97.7118 45.9943H96.0078V44.3983H97.6038C98.6078 44.4574 99.602 44.174 100.424 43.5943C100.756 43.3281 101.02 42.9871 101.195 42.5992C101.371 42.2113 101.452 41.7875 101.432 41.3623C101.449 40.9937 101.387 40.6257 101.248 40.2838C101.109 39.9419 100.897 39.6343 100.628 39.3823C99.9869 38.8592 99.1739 38.594 98.3478 38.6383C96.9078 38.6623 95.5158 39.1183 94.3518 39.9223V38.0383C95.6317 37.3553 97.0654 37.0123 98.5158 37.0423C99.8358 36.9583 101.132 37.3543 102.188 38.1463C102.622 38.4958 102.969 38.9409 103.202 39.4468C103.435 39.9526 103.548 40.5056 103.532 41.0623C103.603 42.0014 103.324 42.9335 102.747 43.6783C102.171 44.4232 101.339 44.9277 100.412 45.0943V45.1423C101.408 45.2383 102.332 45.6943 103.004 46.4023C103.676 47.1223 104.024 48.0823 104 49.0663C104.029 49.7487 103.9 50.4286 103.623 51.0529C103.346 51.6773 102.929 52.2294 102.404 52.6663C101.147 53.613 99.5952 54.0848 98.0238 53.9983C96.5385 54.0785 95.06 53.7462 93.7518 53.0383V53.0263ZM90.0558 53.7103H88.1358V41.8543C88.1238 41.0983 88.1598 40.3423 88.2558 39.5983H88.1838C88.0398 39.9583 87.8718 40.3063 87.6558 40.6303L79.1958 53.7103H76.7958V37.2943H78.7398V48.8623C78.7638 49.6543 78.7398 50.4583 78.6558 51.2623H78.6918C78.8838 50.8663 79.0998 50.5063 79.3398 50.1463L87.5838 37.3063H90.0558V53.7103ZM62.9238 53.7103V37.2943H71.6958V39.0343H64.8438V44.2543H67.9638C69.3362 44.1731 70.6904 44.6003 71.7678 45.4543C72.2344 45.8802 72.5995 46.4053 72.8362 46.9909C73.073 47.5766 73.1753 48.2079 73.1358 48.8383C73.1667 49.5028 73.054 50.1662 72.8055 50.7833C72.557 51.4003 72.1786 51.9566 71.6958 52.4143C70.6141 53.3314 69.2243 53.8033 67.8078 53.7343L62.9238 53.7103ZM64.8438 45.9943V51.9703H67.5438C68.5038 52.0303 69.4278 51.7423 70.1838 51.1783C70.4925 50.8931 70.7334 50.5425 70.8892 50.1522C71.0449 49.7619 71.1114 49.3417 71.0838 48.9223C71.0838 46.9663 69.9078 45.9943 67.5198 45.9943H64.8438Z" fill="#088876"></path></g><defs><clipPath id="clip0"><rect width="236.4" height="60" fill="white" transform="translate(20)"></rect></clipPath></defs></svg>