<svg xmlns="http://www.w3.org/2000/svg" width="163" height="80" viewBox="0 0 163 80" fill="none"><g clip-path="url(#clip0)"><path fill-rule="evenodd" clip-rule="evenodd" d="M160.878 32.9289C160.893 33.0837 160.95 33.2315 161.043 33.3565C161.09 33.3937 161.146 33.419 161.205 33.4303C161.264 33.4416 161.325 33.4386 161.383 33.4214C161.462 33.4094 161.537 33.3778 161.601 33.3294C161.655 33.2763 161.688 33.205 161.693 33.1292C161.702 33.0131 161.694 32.8964 161.669 32.7828L161.447 31.5623C161.432 31.4033 161.373 31.2516 161.277 31.1239C161.233 31.0854 161.179 31.0588 161.122 31.0465C161.064 31.0342 161.005 31.0366 160.948 31.0535C160.889 31.0586 160.832 31.078 160.783 31.11C160.733 31.1421 160.692 31.1859 160.662 31.2376C160.618 31.3904 160.618 31.5528 160.662 31.7057L160.878 32.9289ZM161.391 34.6176C161.211 34.659 161.024 34.6468 160.851 34.5824C160.679 34.5018 160.54 34.3642 160.457 34.1927C160.324 33.9299 160.233 33.6477 160.188 33.3565L159.918 31.9195C159.885 31.7808 159.885 31.6361 159.918 31.4973C159.959 31.3797 160.033 31.2764 160.131 31.1997L159.691 31.2809C159.624 31.2858 159.56 31.3084 159.504 31.3464C159.449 31.3844 159.405 31.4365 159.376 31.4973C159.333 31.6752 159.333 31.8608 159.376 32.0386L159.602 33.2753C159.619 33.4019 159.652 33.5257 159.702 33.6433C159.717 33.6701 159.741 33.6911 159.769 33.7028C159.798 33.7146 159.829 33.7165 159.859 33.7083L159.972 33.6893L160.177 34.8178C160.037 34.851 159.891 34.8515 159.751 34.8191C159.61 34.7867 159.479 34.7224 159.368 34.6311C159.146 34.4498 158.99 34.0899 158.896 33.5757L158.575 31.8248C158.508 31.5282 158.508 31.2203 158.575 30.9236C158.628 30.7021 158.751 30.5037 158.925 30.358C159.103 30.2177 159.314 30.1246 159.538 30.0874L161.82 29.668L162.038 30.856L161.639 30.929C161.777 30.9958 161.903 31.0875 162.008 31.1997C162.099 31.3223 162.156 31.4671 162.173 31.6191L162.464 33.2076C162.538 33.5121 162.514 33.8321 162.397 34.1223C162.34 34.2417 162.253 34.3445 162.146 34.4212C162.038 34.4978 161.913 34.5459 161.782 34.5607L161.391 34.6176ZM162.173 39.9L158.637 39.3344L158.825 38.1437L160.093 38.344L160.161 37.9137L159.082 36.5119L159.295 35.1588L160.673 37.0802L162.855 35.5728L162.629 36.9936L160.897 38.0219L160.827 38.4603L162.359 38.7039L162.173 39.9ZM158.076 43.4911L158.685 43.7239L159.303 42.1001C159.4 41.8295 159.335 41.6699 159.109 41.5833C158.928 41.5156 158.785 41.6184 158.682 41.8972L158.076 43.4911ZM159.311 43.9593L160.037 44.2299L160.662 42.5683C160.711 42.4538 160.722 42.327 160.695 42.2057C160.68 42.1523 160.652 42.1035 160.613 42.0638C160.574 42.0241 160.526 41.9948 160.474 41.9784C160.228 41.8864 160.047 42 159.934 42.3221L159.311 43.9593ZM160.309 45.629L156.951 44.3544L158.03 41.5183C158.121 41.2461 158.257 40.9909 158.432 40.7633C158.548 40.612 158.714 40.5082 158.901 40.471C159.105 40.4484 159.311 40.4791 159.5 40.5603C159.656 40.5999 159.794 40.6912 159.892 40.8194C159.99 40.9476 160.042 41.1052 160.039 41.2666C160.264 40.9473 160.589 40.8679 161.013 41.0285C161.205 41.0931 161.37 41.2185 161.485 41.3857C161.585 41.5543 161.629 41.7507 161.609 41.9459C161.585 42.2136 161.521 42.4762 161.42 42.7253L160.309 45.629ZM156.638 48.4678C156.537 48.5947 156.475 48.7477 156.457 48.9089C156.465 48.9706 156.488 49.0295 156.524 49.0804C156.559 49.1313 156.607 49.1727 156.662 49.2012C156.73 49.2515 156.81 49.2824 156.894 49.2905C156.972 49.2893 157.047 49.2595 157.104 49.2066C157.194 49.1273 157.272 49.0363 157.336 48.9359L158.043 47.8535C158.144 47.7229 158.208 47.5679 158.229 47.4043C158.223 47.3434 158.202 47.285 158.167 47.2344C158.133 47.1839 158.087 47.1427 158.032 47.1147C157.984 47.0763 157.927 47.0502 157.867 47.0384C157.806 47.0266 157.744 47.0296 157.684 47.047C157.541 47.1278 157.423 47.248 157.344 47.3934L156.638 48.4678ZM155.877 50.1808C155.715 50.082 155.585 49.9382 155.502 49.7667C155.431 49.5832 155.424 49.3809 155.483 49.193C155.573 48.9032 155.708 48.6293 155.882 48.3812L156.713 47.1147C156.789 46.9874 156.895 46.8805 157.021 46.8035C157.137 46.7446 157.267 46.7202 157.396 46.7331L157.007 46.4625C156.953 46.4186 156.889 46.3898 156.82 46.3789C156.751 46.368 156.681 46.3753 156.616 46.4003C156.462 46.5018 156.334 46.6392 156.244 46.8008L155.529 47.8832C155.45 47.9903 155.387 48.1078 155.34 48.2323C155.333 48.2634 155.335 48.2961 155.348 48.3254C155.361 48.3547 155.383 48.3791 155.41 48.3947L155.51 48.4597L154.857 49.4555C154.729 49.3799 154.62 49.2756 154.538 49.1508C154.456 49.026 154.404 48.884 154.385 48.7357C154.348 48.4407 154.483 48.0619 154.785 47.6018L155.799 46.0566C155.961 45.7868 156.181 45.5566 156.444 45.3827C156.642 45.2546 156.877 45.1939 157.113 45.2095C157.345 45.2364 157.567 45.32 157.76 45.4531L159.775 46.7818L159.082 47.8481L158.731 47.6153C158.789 47.762 158.821 47.9177 158.825 48.0754C158.804 48.2335 158.743 48.3835 158.647 48.5111L157.73 49.9102C157.567 50.1913 157.321 50.4145 157.026 50.5488C156.898 50.5976 156.759 50.6127 156.623 50.5928C156.487 50.573 156.359 50.5187 156.249 50.4352L155.877 50.1808ZM154.048 53.9316L154.976 53.163L153.225 51.0305L154.558 49.9291L154.019 49.2905L150.45 52.2564L150.976 52.8978L152.308 51.7964L154.048 53.9316ZM150.911 54.3104L150.957 54.4051C151.065 54.6069 151.124 54.8312 151.13 55.06C151.118 55.2734 151.027 55.4746 150.873 55.6229C150.638 55.8507 150.364 56.0341 150.064 56.1642L148.524 56.9138C148.284 57.0393 148.015 57.1008 147.744 57.0924C147.509 57.0833 147.282 57.0073 147.089 56.8732C146.899 56.7382 146.748 56.5564 146.649 56.3455L146.271 55.5661C146.182 55.4022 146.126 55.2214 146.11 55.0351C146.093 54.8487 146.115 54.661 146.174 54.4836C146.252 54.3005 146.365 54.1345 146.506 53.9952C146.648 53.8559 146.816 53.746 147 53.6718L148.467 52.96C148.751 52.8138 149.056 52.7134 149.371 52.6624C149.586 52.6248 149.807 52.664 149.997 52.7733C150.192 52.908 150.346 53.0957 150.439 53.3145L150.471 53.3795L149.427 53.8801L149.4 53.8233C149.381 53.7755 149.35 53.7334 149.31 53.7012C149.27 53.6689 149.222 53.6476 149.171 53.6393C149.022 53.64 148.875 53.6791 148.745 53.7529L147.709 54.259C147.626 54.2924 147.55 54.3428 147.487 54.4071C147.424 54.4714 147.374 54.5481 147.342 54.6325C147.316 54.7223 147.308 54.8167 147.319 54.9098C147.33 55.0029 147.36 55.0927 147.407 55.1737L147.677 55.7149C147.71 55.793 147.76 55.863 147.822 55.9204C147.884 55.9778 147.958 56.0212 148.038 56.0478C148.2 56.096 148.375 56.0785 148.524 55.9991L149.568 55.493C149.712 55.4379 149.839 55.3443 149.935 55.2224C149.958 55.1724 149.969 55.1173 149.966 55.062C149.964 55.0067 149.947 54.953 149.918 54.9058L149.883 54.8192L150.911 54.3104ZM143.96 56.1858C143.843 55.7456 143.537 55.5859 143.043 55.7068L142.233 55.9044C142.016 55.9401 141.817 56.0489 141.67 56.2129C141.619 56.2922 141.586 56.3819 141.574 56.4755C141.562 56.5692 141.57 56.6643 141.599 56.7541L141.74 57.3251C141.754 57.4161 141.79 57.5024 141.844 57.577C141.898 57.6517 141.968 57.7128 142.05 57.7554C142.258 57.824 142.483 57.824 142.692 57.7554L143.488 57.5578C143.695 57.5279 143.886 57.4265 144.027 57.271C144.076 57.1909 144.108 57.1011 144.119 57.0077C144.131 56.9143 144.123 56.8195 144.095 56.7297L143.96 56.1858ZM141.613 55.2062L143.248 54.8029C143.532 54.7233 143.832 54.714 144.122 54.7759C144.362 54.8297 144.581 54.9563 144.747 55.1385C144.916 55.3287 145.037 55.5571 145.098 55.8042L145.279 56.5403C145.341 56.7863 145.341 57.044 145.279 57.2899C145.21 57.5289 145.073 57.7425 144.885 57.9042C144.662 58.0931 144.396 58.2241 144.111 58.2858L142.476 58.689C142.195 58.7661 141.899 58.7754 141.613 58.7161C141.367 58.6642 141.143 58.5398 140.968 58.3589C140.794 58.1693 140.67 57.9383 140.609 57.6877L140.431 56.9598C140.368 56.7149 140.368 56.4578 140.431 56.2129C140.497 55.9708 140.634 55.7546 140.825 55.5931C141.054 55.4046 141.324 55.2738 141.613 55.2116V55.2062ZM138.524 58.5402L138.384 56.6107L136.633 56.7379L136.685 57.4198C136.736 57.8628 136.641 58.3105 136.415 58.6944L138.524 58.5402ZM135.134 58.7864C135.286 58.5943 135.399 58.3734 135.465 58.1369C135.532 57.9003 135.55 57.6528 135.519 57.409L135.417 55.9964L139.525 55.696L139.725 58.4509L140.264 58.413L140.402 60.3073L139.304 60.3885L139.226 59.306L135.884 59.5631L135.962 60.6456L134.864 60.7268L134.724 58.8324L135.134 58.7864Z" fill="#F4DA33"></path><path d="M87.8362 51.3148C87.5962 56.3294 86.8786 59.2223 85.0713 62.5103C82.8361 66.5346 79.7432 70.0145 76.0133 72.7017C71.8619 75.6785 66.6288 77.8137 60.8887 78.9043C58.0248 79.4447 55.117 79.7165 52.2029 79.7161C49.4686 79.7243 46.7398 79.4696 44.0539 78.9557C39.3435 78.0443 34.8691 76.1747 30.9065 73.4622C27.2271 70.9292 24.6834 68.1337 22.9058 64.6454C21.0392 60.9894 20.0762 56.5864 20.3244 52.906C20.5409 49.381 21.9176 46.0278 24.2384 43.3722C25.3796 42.0946 26.6807 40.9703 28.1092 40.0273C28.1335 40.1248 28.1605 40.2195 28.1901 40.3223C28.2792 40.6281 28.3763 40.9366 28.4949 41.237C28.5246 41.329 28.557 41.4183 28.5921 41.5076C27.4049 42.3241 26.3184 43.2788 25.3551 44.3518C23.2533 46.7673 22.0054 49.8115 21.8053 53.0116C21.5787 56.443 22.485 60.5456 24.233 63.9716C25.8973 67.219 28.2792 69.8494 31.7508 72.2363C35.5465 74.8312 39.8318 76.6189 44.3425 77.489C49.411 78.4848 55.1863 78.4659 60.6108 77.4375C66.1433 76.3875 71.1714 74.3308 75.1447 71.4839C78.7006 68.9301 81.6485 65.6178 83.7766 61.785C85.449 58.746 86.1207 56.0317 86.3526 51.3175L87.8362 51.3148Z" fill="#383D3D"></path><path d="M155.364 24.9981C155.265 24.8493 155.162 24.7086 155.054 24.5597C154.731 24.124 154.385 23.691 154.013 23.277C153.91 23.1443 153.8 23.017 153.684 22.8954C153.598 22.2189 153.498 21.5721 153.379 20.9578C152.84 18.1975 152.2 16.2436 150.444 13.8568C148.98 11.8596 146.277 8.96131 141.726 6.5014C137.823 4.4014 132.104 2.69651 126.766 2.06597C122.72 1.58698 119.173 1.70876 115.628 2.45837C112.521 3.11597 109.999 4.11726 107.174 5.41622C104.095 6.85402 101.275 8.79455 98.8285 11.1587C96.0405 13.8311 93.6235 16.8676 91.6425 20.1865C91.6101 20.2434 91.575 20.3056 91.54 20.3624C91.4879 20.2755 91.4273 20.1939 91.3592 20.1189C91.155 19.8768 90.9148 19.6678 90.6471 19.4992C90.5662 19.4477 90.4826 19.4017 90.3962 19.3557C92.4461 15.9456 94.9368 12.8226 97.8034 10.0681C100.367 7.59265 103.323 5.56236 106.551 4.06043C109.076 2.89406 111.884 1.71958 115.323 0.997034C119.03 0.212243 122.723 0.0823453 126.922 0.577576C132.431 1.22976 138.365 2.9969 142.414 5.17808C146.212 7.22936 149.4 9.92201 151.631 12.961C153.541 15.5671 154.248 17.7564 154.825 20.6574C155.107 22.0896 155.288 23.5402 155.364 24.9981Z" fill="#383D3D"></path><path d="M86.066 51.3147C85.8313 55.9721 85.1651 58.6539 83.5223 61.6469C81.4141 65.4392 78.4993 68.7192 74.9849 71.2538C71.0439 74.071 66.0536 76.1087 60.5616 77.156C55.1667 78.1762 49.4373 78.1952 44.3958 77.2047C39.9232 76.3413 35.6746 74.5674 31.9119 71.9926C28.4862 69.6383 26.1259 67.0484 24.4885 63.8335C22.7622 60.4535 21.8666 56.4105 22.0932 53.025C22.2912 49.8903 23.5154 46.909 25.5756 44.5439C26.5097 43.5031 27.5606 42.5741 28.7074 41.7755C28.6777 41.7132 28.6507 41.6564 28.6264 41.5941L28.5941 41.5102C28.559 41.4182 28.5266 41.3289 28.497 41.2396C27.2656 42.0742 26.1421 43.0586 25.1521 44.1704C23.0044 46.6254 21.731 49.7269 21.5321 52.9871C21.2948 56.4754 22.2119 60.6267 23.9841 64.0987C25.6673 67.3975 28.0842 70.0523 31.5936 72.4662C35.42 75.0835 39.7402 76.8868 44.2878 77.7649C49.3968 78.7716 55.2125 78.7472 60.6641 77.7135C66.237 76.6581 71.3028 74.5797 75.3113 71.7166C78.8962 69.137 81.8686 65.7946 84.0159 61.9283C85.7126 58.8379 86.3978 56.0884 86.6298 51.3174L86.066 51.3147ZM87.5604 51.3147C87.323 56.2724 86.6028 59.1302 84.8306 62.3695C82.6128 66.3566 79.5469 69.8048 75.8507 72.4689C71.7344 75.4105 66.5418 77.5403 60.834 78.6255C57.9884 79.1663 55.0984 79.4381 52.2022 79.4373C49.4865 79.4479 46.7763 79.1933 44.1098 78.6769C39.4384 77.7751 35.0013 75.921 31.073 73.2293C27.4477 70.7234 24.9201 67.9523 23.1587 64.5154C21.3163 60.9027 20.3614 56.5674 20.6042 52.9222C20.8227 49.4614 22.1761 46.1702 24.4535 43.5615C25.5541 42.321 26.8109 41.2294 28.1921 40.3141C28.1625 40.2113 28.1355 40.1166 28.1112 40.0191C28.0869 39.9217 28.0627 39.827 28.0384 39.7296C26.5563 40.6982 25.2069 41.8573 24.0246 43.1772C21.6664 45.8794 20.2664 49.289 20.0431 52.8735C19.7896 56.6161 20.7688 61.0651 22.6543 64.7807C24.4589 68.2987 27.0295 71.1429 30.7466 73.711C34.7378 76.4478 39.2467 78.3333 43.9938 79.2506C46.6983 79.7685 49.4461 80.0249 52.1995 80.0164C55.1306 80.0181 58.0556 79.7463 60.9365 79.2046C66.7226 78.1032 71.9961 75.9436 76.1744 72.956C79.9382 70.2433 83.0602 66.7324 85.3188 62.6725C87.1477 59.3358 87.876 56.4105 88.1134 51.3391L87.5604 51.3147ZM155.121 20.5942C154.538 17.6526 153.818 15.4308 151.884 12.7896C149.623 9.7262 146.405 7.0065 142.567 4.93356C138.491 2.73344 132.511 0.950072 126.984 0.297884C122.738 -0.208171 119.018 -0.0701565 115.274 0.717341C111.816 1.4453 108.992 2.6279 106.448 3.79697C103.192 5.31328 100.211 7.36383 97.6273 9.86422C94.7236 12.6369 92.2074 15.7911 90.1472 19.2411C90.2309 19.2817 90.3172 19.3169 90.4008 19.3602C90.4844 19.4035 90.5707 19.4522 90.6517 19.5036C92.6793 16.1132 95.1526 13.0121 98.0049 10.2837C100.544 7.82871 103.474 5.8165 106.675 4.33009C109.183 3.17726 111.975 2.00819 115.385 1.29105C119.064 0.511671 122.722 0.381775 126.911 0.877005C132.379 1.50754 138.281 3.27468 142.303 5.43962C146.06 7.47196 149.221 10.1348 151.423 13.1414C153.297 15.7041 153.999 17.861 154.565 20.7187C154.811 21.9868 154.976 23.2695 155.059 24.5588C155.167 24.7076 155.269 24.8483 155.369 24.9972C155.469 25.146 155.579 25.2975 155.676 25.4464C155.613 23.8173 155.427 22.1954 155.121 20.5942ZM150.675 13.688C149.197 11.6638 146.462 8.73845 141.86 6.25147C137.935 4.13254 132.165 2.41682 126.798 1.78087C122.716 1.29646 119.161 1.42365 115.576 2.19221C112.439 2.84981 109.911 3.85651 107.06 5.169C103.952 6.61457 101.107 8.57102 98.6415 10.9575C95.8321 13.6488 93.3977 16.7082 91.4043 20.053C91.3887 20.0771 91.3752 20.1024 91.3638 20.1287C91.4319 20.2037 91.4924 20.2853 91.5445 20.3723C91.6134 20.4541 91.6706 20.5452 91.7145 20.6429C91.7711 20.5401 91.8278 20.4373 91.8898 20.3344C93.8604 17.0404 96.2617 14.026 99.03 11.3716C101.452 9.02964 104.246 7.10901 107.298 5.68859C110.1 4.39233 112.604 3.39916 115.689 2.74427C119.196 2.00819 122.716 1.881 126.736 2.35999C132.031 2.98512 137.728 4.67107 141.593 6.76294C146.101 9.1985 148.774 12.0616 150.225 14.0317C151.946 16.378 152.564 18.2994 153.108 21.0191C153.203 21.5143 153.289 22.0258 153.362 22.5589C153.475 22.6726 153.583 22.7862 153.691 22.9053C153.807 23.0268 153.917 23.1542 154.02 23.2869C153.929 22.4561 153.81 21.6631 153.661 20.9108C153.1 18.1018 152.458 16.1182 150.675 13.688Z" fill="#383D3D"></path><path fill-rule="evenodd" clip-rule="evenodd" d="M130.883 16.7217V53.6908C144.821 55.6094 156.7 46.974 156.7 35.7596C156.7 24.5452 145.271 15.7231 130.883 16.7217Z" fill="#383D3D"></path><path fill-rule="evenodd" clip-rule="evenodd" d="M82.3049 47.7416V22.5877C82.3049 22.1355 82.484 21.7019 82.8027 21.3822C83.1214 21.0624 83.5536 20.8828 84.0043 20.8828H88.5387C88.9894 20.8828 89.4217 21.0624 89.7404 21.3822C90.0591 21.7019 90.2381 22.1355 90.2381 22.5877V30.6061C90.2378 30.8299 90.2814 31.0515 90.3665 31.2583C90.4516 31.4652 90.5765 31.6531 90.7341 31.8115C90.8917 31.9698 91.0789 32.0955 91.2849 32.1812C91.4909 32.2669 91.7118 32.311 91.9348 32.311H93.3159C93.5898 32.3108 93.8596 32.2442 94.1024 32.117C94.3452 31.9898 94.5538 31.8057 94.7105 31.5803L101.624 21.6135C101.781 21.3881 101.989 21.204 102.232 21.0768C102.475 20.9496 102.745 20.883 103.019 20.8828H106.809C107.119 20.8828 107.424 20.9682 107.689 21.1296C107.955 21.291 108.171 21.5224 108.315 21.7985C108.459 22.0746 108.524 22.385 108.505 22.6959C108.485 23.0068 108.381 23.3063 108.203 23.5619L100.815 34.1918C100.617 34.4775 100.512 34.817 100.512 35.1647C100.512 35.5124 100.617 35.8518 100.815 36.1375L108.195 46.7674C108.373 47.023 108.477 47.3226 108.496 47.6335C108.516 47.9443 108.451 48.2547 108.307 48.5308C108.163 48.8069 107.947 49.0383 107.681 49.1997C107.416 49.3612 107.111 49.4465 106.801 49.4465H103.021C102.747 49.4463 102.478 49.3797 102.235 49.2525C101.992 49.1253 101.783 48.9412 101.627 48.7158L94.7105 38.7571C94.5538 38.5317 94.3452 38.3476 94.1024 38.2204C93.8596 38.0932 93.5898 38.0267 93.3159 38.0264H91.9348C91.7118 38.0264 91.4909 38.0706 91.2849 38.1563C91.0789 38.242 90.8917 38.3676 90.7341 38.526C90.5765 38.6843 90.4516 38.8723 90.3665 39.0791C90.2814 39.2859 90.2378 39.5076 90.2381 39.7313V47.7416C90.2381 48.1938 90.0591 48.6274 89.7404 48.9472C89.4217 49.2669 88.9894 49.4465 88.5387 49.4465H84.0043C83.5536 49.4465 83.1214 49.2669 82.8027 48.9472C82.484 48.6274 82.3049 48.1938 82.3049 47.7416Z" fill="#383D3D"></path><path fill-rule="evenodd" clip-rule="evenodd" d="M49.8587 21.3527V50.5144C38.8639 52.0299 29.4929 45.2184 29.4929 36.3719C29.4929 27.5255 38.5051 20.5733 49.8587 21.3527Z" fill="#383D3D"></path><path d="M57.585 19.264C57.585 17.4376 56.1092 15.957 54.2887 15.957C52.4682 15.957 50.9924 17.4376 50.9924 19.264V51.0832C50.9924 52.9096 52.4682 54.3902 54.2887 54.3902C56.1092 54.3902 57.585 52.9096 57.585 51.0832V19.264Z" fill="#383D3D"></path><path fill-rule="evenodd" clip-rule="evenodd" d="M129.446 27.7148V42.7017H120.755C120.709 42.7057 120.663 42.7057 120.618 42.7017V27.7257C120.663 27.723 120.709 27.723 120.755 27.7257L129.446 27.7148Z" fill="#383D3D"></path><path fill-rule="evenodd" clip-rule="evenodd" d="M129.445 17.6531V19.2416H120.616V17.645C120.602 17.0542 120.705 16.4664 120.92 15.9163C121.136 15.3663 121.458 14.8649 121.87 14.4419C122.281 14.0189 122.773 13.6828 123.315 13.4532C123.858 13.2237 124.441 13.1055 125.03 13.1055C125.62 13.1055 126.203 13.2237 126.745 13.4532C127.288 13.6828 127.78 14.0189 128.191 14.4419C128.603 14.8649 128.925 15.3663 129.141 15.9163C129.356 16.4664 129.459 17.0542 129.445 17.645V17.6531Z" fill="#383D3D"></path><path fill-rule="evenodd" clip-rule="evenodd" d="M120.618 51.1719H129.446V53.2015C129.418 54.3571 128.94 55.4558 128.116 56.263C127.291 57.0702 126.184 57.522 125.032 57.522C123.88 57.522 122.773 57.0702 121.948 56.263C121.124 55.4558 120.646 54.3571 120.618 53.2015V51.1719Z" fill="#383D3D"></path><path fill-rule="evenodd" clip-rule="evenodd" d="M59.1433 48.1812V22.2479C59.1433 21.7957 59.3224 21.362 59.6411 21.0423C59.9598 20.7226 60.392 20.543 60.8427 20.543H77.9176C78.3683 20.543 78.8005 20.7226 79.1192 21.0423C79.4379 21.362 79.617 21.7957 79.617 22.2479V24.7132C79.617 25.1654 79.4379 25.599 79.1192 25.9187C78.8005 26.2385 78.3683 26.4181 77.9176 26.4181H66.6908C66.2405 26.4181 65.8087 26.5973 65.4901 26.9165C65.1715 27.2356 64.9921 27.6686 64.9914 28.1203V42.3142C64.9921 42.7659 65.1715 43.1988 65.4901 43.518C65.8087 43.8371 66.2405 44.0164 66.6908 44.0164H77.9176C78.3683 44.0164 78.8005 44.196 79.1192 44.5157C79.4379 44.8354 79.617 45.2691 79.617 45.7212V48.1812C79.617 48.6333 79.4379 49.067 79.1192 49.3867C78.8005 49.7064 78.3683 49.8861 77.9176 49.8861H60.8427C60.392 49.8861 59.9598 49.7064 59.6411 49.3867C59.3224 49.067 59.1433 48.6333 59.1433 48.1812Z" fill="#F4DA33"></path><path fill-rule="evenodd" clip-rule="evenodd" d="M112.763 48.1646V22.2557C112.763 22.0318 112.807 21.8101 112.892 21.6032C112.978 21.3964 113.103 21.2084 113.261 21.0501C113.418 20.8918 113.606 20.7662 113.812 20.6806C114.018 20.5949 114.239 20.5508 114.462 20.5508H131.521C131.972 20.5508 132.404 20.7304 132.723 21.0501C133.041 21.3699 133.22 21.8035 133.22 22.2557V24.7156C133.22 24.9394 133.176 25.1609 133.091 25.3676C133.006 25.5743 132.88 25.7621 132.723 25.9202C132.565 26.0783 132.377 26.2036 132.171 26.289C131.965 26.3744 131.744 26.4181 131.521 26.4178H120.308C119.857 26.4178 119.425 26.5974 119.106 26.9171C118.787 27.2369 118.608 27.6705 118.608 28.1227V42.3003C118.608 42.7525 118.787 43.1861 119.106 43.5059C119.425 43.8256 119.857 44.0052 120.308 44.0052H131.521C131.744 44.0052 131.965 44.0493 132.171 44.135C132.378 44.2207 132.565 44.3463 132.723 44.5046C132.88 44.6629 133.006 44.8508 133.091 45.0577C133.176 45.2645 133.22 45.4862 133.22 45.7101V48.1646C133.22 48.6168 133.041 49.0504 132.723 49.3701C132.404 49.6899 131.972 49.8695 131.521 49.8695H114.462C114.239 49.8695 114.018 49.8254 113.812 49.7397C113.606 49.654 113.418 49.5285 113.261 49.3701C113.103 49.2118 112.978 49.0239 112.892 48.817C112.807 48.6102 112.763 48.3885 112.763 48.1646Z" fill="#F4DA33"></path></g><defs><clipPath id="clip0"><rect width="142.857" height="80" fill="white" transform="translate(20)"></rect></clipPath></defs></svg>