<svg width="77" height="77" viewBox="0 0 77 77" fill="none" xmlns="http://www.w3.org/2000/svg">
<g clip-path="url(#clip0)">
<path d="M63.2113 0H13.4085C6.00317 0 0 6.00317 0 13.4085V63.2113C0 70.6166 6.00317 76.6197 13.4085 76.6197H63.2113C70.6166 76.6197 76.6197 70.6166 76.6197 63.2113V13.4085C76.6197 6.00317 70.6166 0 63.2113 0Z" fill="#385997"/>
<path d="M65.1254 35.4359H53.1535V26.3373C53.1535 24.1105 55.7155 23.9429 56.5056 23.9429H64.6465V11.4922H56.5056C47.4909 11.4922 40.7028 17.8732 40.7028 26.3373V35.4359H30.6465V47.8866H40.7028V76.6189H53.1535V47.8866H63.2099L65.1254 35.4359Z" fill="white"/>
</g>
<defs>
<clipPath id="clip0">
<rect width="76.6197" height="76.6197" fill="white"/>
</clipPath>
</defs>
</svg>
