<svg width="78" height="77" viewBox="0 0 78 77" fill="none" xmlns="http://www.w3.org/2000/svg">
<g clip-path="url(#clip0)">
<path d="M13.9704 76.6201L63.7732 76.6201C71.1785 76.6201 77.1816 70.6169 77.1816 63.2117L77.1816 13.4088C77.1816 6.00356 71.1785 0.000396729 63.7732 0.000396729L13.9704 0.000396729C6.56509 0.000396729 0.56192 6.00356 0.56192 13.4088L0.56192 63.2117C0.56192 70.6169 6.56509 76.6201 13.9704 76.6201Z" fill="url(#paint0_radial)"/>
<path d="M53.2392 67.0419H24.5068C20.6967 67.0419 17.0426 65.5284 14.3484 62.8342C11.6542 60.14 10.1406 56.4859 10.1406 52.6757V23.9433C10.1406 20.1332 11.6542 16.4791 14.3484 13.7849C17.0426 11.0907 20.6967 9.57715 24.5068 9.57715H53.2392C57.0494 9.57715 60.7035 11.0907 63.3977 13.7849C66.0918 16.4791 67.6054 20.1332 67.6054 23.9433V52.6757C67.6054 56.4859 66.0918 60.14 63.3977 62.8342C60.7035 65.5284 57.0494 67.0419 53.2392 67.0419ZM24.5068 15.3236C22.2217 15.3268 20.0311 16.236 18.4153 17.8518C16.7994 19.4676 15.8903 21.6582 15.8871 23.9433V52.6757C15.8903 54.9609 16.7994 57.1515 18.4153 58.7673C20.0311 60.3831 22.2217 61.2923 24.5068 61.2955H53.2392C55.5243 61.2923 57.715 60.3831 59.3308 58.7673C60.9466 57.1515 61.8558 54.9609 61.8589 52.6757V23.9433C61.8558 21.6582 60.9466 19.4676 59.3308 17.8518C57.715 16.236 55.5243 15.3268 53.2392 15.3236H24.5068Z" fill="white"/>
<path d="M38.8735 54.5917C35.6533 54.5917 32.5054 53.6368 29.8279 51.8477C27.1504 50.0587 25.0635 47.5158 23.8312 44.5407C22.5989 41.5657 22.2764 38.292 22.9047 35.1336C23.5329 31.9753 25.0836 29.0742 27.3606 26.7971C29.6376 24.5201 32.5388 22.9694 35.6971 22.3412C38.8554 21.7129 42.1291 22.0354 45.1042 23.2677C48.0793 24.5 50.6222 26.5869 52.4112 29.2644C54.2003 31.9419 55.1552 35.0898 55.1552 38.31C55.152 42.6272 53.4356 46.7667 50.3829 49.8194C47.3302 52.8721 43.1907 54.5885 38.8735 54.5917ZM38.8735 27.7748C36.7898 27.7748 34.753 28.3927 33.0204 29.5503C31.2879 30.7079 29.9376 32.3533 29.1402 34.2784C28.3428 36.2034 28.1342 38.3217 28.5407 40.3653C28.9472 42.409 29.9506 44.2862 31.424 45.7595C32.8974 47.2329 34.7745 48.2363 36.8182 48.6428C38.8618 49.0493 40.9801 48.8407 42.9051 48.0433C44.8302 47.2459 46.4756 45.8956 47.6332 44.1631C48.7908 42.4306 49.4087 40.3937 49.4087 38.31C49.4055 35.5169 48.2946 32.839 46.3195 30.864C44.3445 28.8889 41.6666 27.778 38.8735 27.7748Z" fill="white"/>
<path d="M55.1525 25.8588C56.7394 25.8588 58.0258 24.5724 58.0258 22.9855C58.0258 21.3987 56.7394 20.1123 55.1525 20.1123C53.5657 20.1123 52.2793 21.3987 52.2793 22.9855C52.2793 24.5724 53.5657 25.8588 55.1525 25.8588Z" fill="white"/>
</g>
<defs>
<radialGradient id="paint0_radial" cx="0" cy="0" r="1" gradientUnits="userSpaceOnUse" gradientTransform="translate(-0.979449 75.0638) rotate(180) scale(176.938)">
<stop stop-color="#F9ED32"/>
<stop offset="0.36" stop-color="#EE2A7B"/>
<stop offset="0.44" stop-color="#D22A8A"/>
<stop offset="0.6" stop-color="#8B2AB2"/>
<stop offset="0.83" stop-color="#1B2AF0"/>
<stop offset="0.88" stop-color="#002AFF"/>
</radialGradient>
<clipPath id="clip0">
<rect width="76.6197" height="76.6197" fill="white" transform="translate(0.5625)"/>
</clipPath>
</defs>
</svg>
