<svg width="96" height="95" viewBox="0 0 96 95" fill="none" xmlns="http://www.w3.org/2000/svg">
<g clip-path="url(#clip0)">
<rect width="94.5846" height="94.5846" transform="translate(0.707031)" fill="white"/>
<g clip-path="url(#clip1)">
<path d="M94.7173 0.130859H0.929688V93.9189H94.7173V0.130859Z" fill="#4FC7EC"/>
<path d="M90.5892 4.25781H5.05469V89.7923H90.5892V4.25781Z" fill="#242238"/>
<path d="M23.7307 22.7898C23.7307 22.4665 23.7861 22.3381 24.0633 22.3381C26.1721 22.2731 30.3352 22.209 34.5529 22.209C45.4301 22.209 49.5791 28.5378 49.6346 36.0234C49.6346 46.2821 41.9889 50.1719 33.8312 50.1719C32.2774 50.1719 30.779 50.1719 30.39 50.1719V64.8294C30.39 65.2167 30.2796 65.3462 30.0016 65.3462H24.1188C23.8416 65.3462 23.7305 65.2169 23.7305 64.8945V22.7898H23.7307ZM30.3901 43.9134C30.8347 43.9777 31.6668 44.0418 33.9982 44.0418C38.3818 44.0418 42.5996 42.7925 42.5996 36.3399C42.5996 31.1778 39.7697 28.5264 34.5531 28.5264C32.3887 28.5264 30.8347 28.5907 30.3901 28.6558V43.9134Z" fill="#4FC7EC"/>
<path d="M63.4926 39.0902C60.82 39.0902 60.1117 40.7616 60.1117 41.9875C60.1117 43.5366 60.82 44.3749 64.9103 46.311C70.527 49.021 72.9265 51.4088 72.9265 56.0539C72.9265 62.5068 68.7275 66.178 62.7286 66.178C59.8386 66.178 56.192 65.9025 53.9016 64.225C53.6833 64.0957 53.5742 63.9025 53.5742 63.5792V57.643C53.5742 57.3205 53.7926 57.1914 53.9563 57.3205C56.7917 59.4498 59.9541 60.0549 62.7896 60.0549C65.2984 60.0549 66.1706 58.3828 66.1706 56.9636C66.1706 55.2859 65.5646 54.3177 61.638 52.4466C56.0213 49.7365 53.6831 47.4077 53.6831 42.6975C53.6831 37.4706 57.6025 33.1533 64.0374 33.1533C67.3635 33.1533 69.7081 33.2424 71.2355 34.2742C71.5077 34.5325 71.5626 34.7259 71.5626 35.1133V40.4043C71.5626 40.791 71.3444 40.9853 71.0718 40.791C69.1087 39.5011 66.328 39.0902 63.4926 39.0902Z" fill="#4FC7EC"/>
</g>
</g>
<defs>
<clipPath id="clip0">
<rect width="94.5846" height="94.5846" fill="white" transform="translate(0.707031)"/>
</clipPath>
<clipPath id="clip1">
<rect width="94.0492" height="94.0492" fill="white" transform="translate(0.707031)"/>
</clipPath>
</defs>
</svg>
