<svg width="78" height="77" viewBox="0 0 78 77" fill="none" xmlns="http://www.w3.org/2000/svg">
<g clip-path="url(#clip0)">
<path d="M13.9723 76.6201L63.7751 76.6201C71.1804 76.6201 77.1836 70.6169 77.1836 63.2117L77.1836 13.4088C77.1836 6.00356 71.1804 0.000396729 63.7751 0.000396729L13.9723 0.000396729C6.56704 0.000396729 0.563873 6.00356 0.563873 13.4088L0.563873 63.2117C0.563873 70.6169 6.56704 76.6201 13.9723 76.6201Z" fill="#00AADE"/>
<path d="M57.0705 24.9014C58.2134 24.3139 59.2264 23.5023 60.0491 22.515C60.8718 21.5278 61.4874 20.3851 61.8593 19.155C59.9438 21.0705 55.8734 21.705 55.8734 21.705C54.4659 19.9756 52.4992 18.7914 50.3122 18.3567C48.1253 17.9219 45.8552 18.2639 43.8934 19.3235C41.9315 20.3832 40.4009 22.0941 39.5653 24.1614C38.7298 26.2287 38.6417 28.5227 39.3163 30.6479H38.8734C34.9721 30.3892 31.1679 29.3185 27.7045 27.5043C24.241 25.6901 21.1947 23.1725 18.7607 20.1127C18.7607 20.1127 13.0142 27.7747 21.6339 33.5212C21.6339 33.5212 17.8029 33.5212 16.8452 32.5634C16.8452 32.5634 15.8874 38.3099 24.5072 42.1409C23.9057 42.4148 23.2525 42.5566 22.5917 42.5566C21.9308 42.5566 21.2776 42.4148 20.6762 42.1409C20.6762 45.8402 24.5311 48.8451 29.2959 48.8451C29.2959 51.4909 22.867 53.6338 14.9297 53.6338C27.3804 62.2536 57.0705 60.3381 58.986 27.7747L63.7748 22.986L57.0705 24.9014Z" fill="white"/>
</g>
<defs>
<clipPath id="clip0">
<rect width="76.6197" height="76.6197" fill="white" transform="translate(0.564453)"/>
</clipPath>
</defs>
</svg>
